<?xml version="1.0" standalone="no"?>
<!DOCTYPE svg PUBLIC "-//W3C//DTD SVG 1.1//EN" "http://www.w3.org/Graphics/SVG/1.1/DTD/svg11.dtd" >
<svg xmlns="http://www.w3.org/2000/svg">
<metadata></metadata>
<defs>
<font id="siri_corebold_italic" horiz-adv-x="592" >
<font-face units-per-em="1000" ascent="750" descent="-250" />
<missing-glyph horiz-adv-x="214" />
<glyph unicode="ff" horiz-adv-x="668" d="M39 0l91 431h-61l19 89h61l5 25q10 48 27 81t42.5 52.5t60.5 28t80 8.5q29 0 51.5 -4.5t27.5 -7.5q-1 -8 -3.5 -21t-5.5 -25.5t-6.5 -23.5t-5.5 -16q-4 2 -14 4t-21 2q-35 0 -52 -16.5t-27 -62.5l-5 -24h145l7 34q19 96 73.5 134t143.5 38q35 0 59 -5t30 -8 q0 -11 -2.5 -24t-5.5 -26t-6.5 -23t-6.5 -15q-4 2 -18 5.5t-33 3.5q-36 0 -54 -18t-28 -67l-6 -29h109l-19 -89h-109l-91 -431h-153l91 431h-145l-92 -431h-153z" />
<glyph unicode="fi" horiz-adv-x="594" d="M39 0l91 431h-61l19 89h61l5 22q12 54 38 90t61.5 58t79.5 31t92 9q61 0 98.5 -8t48.5 -13q0 -10 -3 -24t-6.5 -28t-7 -25.5t-6.5 -16.5q-17 6 -46.5 11.5t-67.5 5.5q-53 0 -85.5 -20t-42.5 -71l-4 -21h299l-109 -520h-155l91 431h-145l-92 -431h-153z" />
<glyph unicode="fl" horiz-adv-x="610" d="M39 0l91 431h-61l19 89h61l7 34q19 96 73 134t144 38q25 0 45.5 -3t26.5 -6q0 -8 -2.5 -20.5t-5.5 -26t-6.5 -25t-5.5 -16.5q-5 2 -15.5 3.5t-21.5 1.5q-35 0 -52.5 -18.5t-28.5 -70.5l-5 -25h102l-19 -89h-102l-91 -431h-153zM355 0l148 700h154l-149 -700h-153z" />
<glyph unicode="ffi" horiz-adv-x="893" d="M39 0l91 431h-61l19 89h61l5 25q10 48 27 81t42.5 52.5t60.5 28t80 8.5q29 0 51.5 -4.5t27.5 -7.5q-1 -8 -3.5 -21t-5.5 -25.5t-6.5 -23.5t-5.5 -16q-4 2 -14 4t-21 2q-35 0 -52 -16.5t-27 -62.5l-5 -24h145l5 22q12 54 38 90t61.5 58t79.5 31t92 9q61 0 98.5 -8 t48.5 -13q0 -10 -3 -24t-6.5 -28t-7 -25.5t-6.5 -16.5q-17 6 -46.5 11.5t-67.5 5.5q-53 0 -85.5 -20t-42.5 -71l-4 -21h300l-112 -520h-153l91 431h-145l-92 -431h-153l91 431h-145l-92 -431h-153z" />
<glyph unicode="ffl" horiz-adv-x="909" d="M39 0l91 431h-61l19 89h61l5 25q10 48 27 81t42.5 52.5t60.5 28t80 8.5q29 0 51.5 -4.5t27.5 -7.5q-1 -8 -3.5 -21t-5.5 -25.5t-6.5 -23.5t-5.5 -16q-4 2 -14 4t-21 2q-35 0 -52 -16.5t-27 -62.5l-5 -24h145l7 34q19 96 73 134t144 38q25 0 45.5 -3t26.5 -6 q0 -8 -2.5 -20.5t-5.5 -26t-6.5 -25t-5.5 -16.5q-5 2 -15.5 3.5t-21.5 1.5q-35 0 -52.5 -18.5t-28.5 -70.5l-5 -25h102l-19 -89h-102l-91 -431h-153l91 431h-145l-92 -431h-153zM654 0l148 700h154l-149 -700h-153z" />
<glyph unicode="fj" horiz-adv-x="593" d="M39 0l91 431h-61l19 89h61l5 22q12 54 38 90t61.5 58t79.5 31t92 9q61 0 98.5 -8t48.5 -13q0 -10 -3 -24t-6.5 -28t-7 -25.5t-6.5 -16.5q-17 6 -46.5 11.5t-67.5 5.5q-53 0 -85.5 -20t-42.5 -71l-4 -21h299l-117 -552q-11 -51 -27.5 -83.5t-41.5 -51.5t-60.5 -26.5 t-84.5 -7.5q-23 0 -45 2.5t-28 4.5q0 18 5 44.5t14 41.5q6 -2 19.5 -3.5t24.5 -1.5q34 0 47.5 18.5t21.5 57.5l99 468h-145l-92 -431h-153z" />
<glyph unicode=" "  horiz-adv-x="214" />
<glyph unicode="&#x09;" horiz-adv-x="214" />
<glyph unicode="&#xa0;" horiz-adv-x="214" />
<glyph unicode="!" horiz-adv-x="280" d="M27 60q0 22 8 39t21.5 29t30.5 18.5t36 6.5q39 0 56 -20.5t17 -44.5q0 -44 -28 -70t-69 -26q-38 0 -55 21t-17 47zM82 206l78 494h166l-131 -494h-113z" />
<glyph unicode="&#x22;" horiz-adv-x="443" d="M127 450l30 254h139l-79 -254h-90zM324 450l30 254h139l-79 -254h-90z" />
<glyph unicode="#" d="M35 0l1 10l65 174h-60l21 92h73l44 118h-59l19 92h74l71 190h111l-70 -190h104l71 190h111l-70 -190h61l-19 -92h-76l-44 -118h62l-20 -92h-76l-68 -184h-110l2 10l64 174h-103l-68 -184h-111zM248 276h103l44 118h-104z" />
<glyph unicode="$" d="M38 157q9 6 25 10.5t34.5 8t38 5.5t37.5 2h9q0 -14 2.5 -32.5t13 -35t30 -28t54.5 -11.5q51 0 76 28t25 76q0 23 -9.5 39t-25 28.5t-36.5 22.5t-43 21q-29 13 -55 28t-46 35t-32 47.5t-12 65.5t13.5 76t42.5 69t74 52t108 24l23 105h80l-24 -108q49 -7 80.5 -24.5 t49.5 -40t24.5 -47.5t6.5 -46v-2q-23 -13 -60.5 -18t-70.5 -5h-9q0 12 -2 28.5t-11 32t-28 26t-53 10.5q-41 0 -66 -26.5t-25 -71.5q0 -22 9.5 -37.5t27 -27.5t40.5 -23t50 -23q25 -12 49 -26t43 -34t30.5 -47.5t11.5 -64.5q0 -46 -15 -86.5t-45.5 -71.5t-76.5 -50.5 t-108 -22.5l-22 -103h-79l22 105q-49 6 -82.5 21.5t-54 38t-30 50.5t-9.5 58z" />
<glyph unicode="%" horiz-adv-x="931" d="M92 452q0 27 6 57q19 91 74.5 146t150.5 55q78 0 116.5 -37.5t38.5 -103.5q0 -14 -2 -29t-5 -31q-19 -91 -73 -145.5t-149 -54.5q-79 0 -118 38.5t-39 104.5zM159 0l2 10l584 690h104l-2 -10l-584 -690h-104zM213 418q0 -29 10.5 -40t31.5 -11q17 0 29.5 6.5t23 23t19 44 t17.5 68.5q6 30 9.5 52t3.5 39q0 28 -10.5 39t-31.5 11q-17 0 -29.5 -6.5t-23 -23t-19 -43.5t-17.5 -68q-6 -30 -9.5 -52t-3.5 -39zM531 133q0 27 6 57q19 91 74.5 146t150.5 55q78 0 116.5 -37.5t38.5 -103.5q0 -14 -2 -29t-5 -31q-19 -91 -73 -145.5t-149 -54.5 q-79 0 -118 38.5t-39 104.5zM652 99q0 -29 10.5 -40t31.5 -11q17 0 29.5 6.5t23 23t19 44t17.5 68.5q6 30 9.5 52t3.5 39q0 28 -10.5 39t-31.5 11q-17 0 -29.5 -6.5t-23 -23t-19 -43.5t-17.5 -68q-13 -58 -13 -91z" />
<glyph unicode="&#x26;" horiz-adv-x="656" d="M19 148q0 46 16.5 81t43.5 61t61.5 44.5t70.5 32.5q-23 38 -36.5 75.5t-13.5 78.5q0 35 12.5 69.5t40.5 62.5t72 45t106 17q53 0 89.5 -11.5t59.5 -31.5t33 -46.5t10 -55.5q0 -73 -48.5 -123.5t-142.5 -94.5l88 -141q16 27 27.5 58t19.5 66q6 1 13.5 1h15.5q27 0 55 -3.5 t45 -9.5q-16 -58 -45.5 -110.5t-71.5 -96.5l67 -107v-9h-165l-18 29q-42 -21 -89 -32.5t-99 -11.5q-56 0 -97 12t-67.5 33.5t-39.5 51.5t-13 66zM168 173q0 -43 24.5 -68.5t83.5 -25.5q54 0 101 25l-124 197q-40 -23 -62.5 -52.5t-22.5 -75.5zM305 541q0 -30 12 -57.5 t33 -62.5q62 38 83.5 77t21.5 74q0 29 -16 45.5t-50 16.5q-32 0 -54.5 -18.5t-27.5 -53.5q-1 -5 -1.5 -10.5t-0.5 -10.5z" />
<glyph unicode="'" horiz-adv-x="244" d="M127 450l30 254h139l-79 -254h-90z" />
<glyph unicode="(" horiz-adv-x="453" d="M60 102q0 67 15 150q23 124 66 211.5t100.5 143t127.5 81t147 26.5l-18 -81q-91 -24 -152.5 -116t-95.5 -266q-11 -55 -16.5 -102.5t-5.5 -87.5q0 -86 26 -135t82 -57l-17 -80q-59 1 -106.5 20.5t-81.5 58.5t-52.5 97.5t-18.5 136.5z" />
<glyph unicode=")" horiz-adv-x="453" d="M-48 -211l18 81q91 24 152.5 116t95.5 265q21 109 21 190q0 86 -25.5 135.5t-82.5 57.5l17 80q58 -1 106 -20.5t82.5 -58.5t53 -97.5t18.5 -137.5q0 -68 -15 -150q-23 -124 -66 -211t-100.5 -142.5t-127.5 -81t-147 -26.5z" />
<glyph unicode="*" horiz-adv-x="493" d="M112 548q0 10 5 26t13.5 31.5t18.5 29t19 18.5l127 -73l7 159q11 6 27 9t33 3t31 -3t21 -9l-60 -160l158 74q9 -8 14 -27.5t5 -39.5q0 -23 -7 -39l-164 -24l90 -115q-5 -9 -17.5 -20t-28.5 -21t-32 -17t-26 -7l-42 143l-102 -144q-11 1 -23.5 8t-24 17t-19 21t-8.5 20 l137 115z" />
<glyph unicode="+" d="M60 245v107h195v197h110v-197h196v-107h-196v-197h-110v197h-195z" />
<glyph unicode="," horiz-adv-x="234" d="M-27 -100q13 7 27 17.5t26.5 23t22.5 25.5t16 26q-28 4 -44 23.5t-16 47.5q0 40 27.5 66.5t67.5 26.5q39 0 58.5 -21.5t19.5 -56.5q0 -43 -17 -79.5t-41.5 -63.5t-51.5 -44.5t-46 -23.5q-23 0 -36 12.5t-13 20.5z" />
<glyph unicode="-" horiz-adv-x="387" d="M53 238l26 121h291l-25 -121h-292z" />
<glyph unicode="." horiz-adv-x="234" d="M7 59q0 44 28.5 68.5t66.5 24.5q39 0 56 -20.5t17 -44.5q0 -44 -27.5 -70t-68.5 -26q-38 0 -55 21t-17 47z" />
<glyph unicode="/" horiz-adv-x="458" d="M-44 -140l2 10l459 870h122l-2 -10l-459 -870h-122z" />
<glyph unicode="0" horiz-adv-x="603" d="M44 212q0 57 15 126q17 80 45 145t68.5 111t94.5 71t124 25q59 0 101 -15.5t69 -44t39.5 -69.5t12.5 -93q0 -60 -15 -130q-17 -80 -43.5 -145.5t-66 -111.5t-94.5 -71t-129 -25q-114 0 -167.5 60.5t-53.5 166.5zM208 164q0 -49 17 -69t49 -20q27 0 48 13.5t38.5 44.5 t33 81t30.5 123q12 57 18.5 100.5t6.5 78.5q0 45 -16 64.5t-49 19.5q-26 0 -47.5 -13.5t-39.5 -44.5t-33.5 -81.5t-31.5 -123.5q-24 -114 -24 -173z" />
<glyph unicode="1" horiz-adv-x="471" d="M-2 0l20 93h129l97 455l-138 -30l21 98q10 2 34 9.5t52.5 16.5t58 18.5t49.5 15.5h110l-124 -583h117l-19 -93h-407z" />
<glyph unicode="2" horiz-adv-x="564" d="M-16 0l22 103q31 23 74.5 50t89.5 58.5t91 67.5t81 75.5t58 83t22 91.5q0 31 -16.5 49t-51.5 18q-27 0 -47 -12t-34.5 -30t-24 -40t-16.5 -41q-19 1 -40.5 3t-41 6t-35.5 9t-23 12q12 36 34 70t56.5 60t81.5 41.5t110 15.5q55 0 95 -12.5t65.5 -35t37.5 -53t12 -66.5 q0 -74 -36.5 -132.5t-93 -106t-125.5 -86t-135 -72.5v-2h318l-26 -124h-502z" />
<glyph unicode="3" horiz-adv-x="544" d="M7 124q10 7 27 13t36.5 11.5t39 9t35.5 5.5q1 -14 5 -29t13.5 -27t25.5 -20t40 -8q31 0 53.5 10.5t37 28t21.5 41t7 50.5q0 47 -28.5 70t-100.5 23h-28l19 92h28q76 0 121 32t45 106q0 28 -15 46t-52 18q-24 0 -41 -7.5t-29.5 -19.5t-21 -27t-15.5 -30q-17 1 -37.5 4 t-39 7.5t-33 10t-20.5 11.5q25 65 86.5 105t170.5 40q106 0 159 -40t53 -109q0 -75 -43.5 -122t-120.5 -65l-1 -3q20 -5 39.5 -15.5t34.5 -27t24 -40t9 -53.5q0 -59 -20.5 -102t-58 -71.5t-90.5 -42.5t-118 -14q-61 0 -101 13.5t-64.5 34t-36 45t-15.5 46.5z" />
<glyph unicode="4" horiz-adv-x="591" d="M11 149l22 103l384 424h174l-89 -419h74l-22 -108h-75l-31 -149h-161l32 149h-308zM158 257h183l26 119q12 54 20.5 93t16.5 66h-3q-14 -20 -44.5 -55t-75.5 -86z" />
<glyph unicode="5" horiz-adv-x="548" d="M10 124q10 6 26 13t35.5 13t39.5 10.5t37 6.5q1 -17 5.5 -33t14.5 -28t25.5 -19.5t38.5 -7.5q35 0 59.5 14.5t40 38t22.5 53.5t7 61q0 35 -15.5 59.5t-61.5 24.5q-35 0 -60 -12t-39 -26h-120l94 384h436l-26 -124h-339l-43 -168q8 6 21 14t32 15.5t44.5 12.5t59.5 5 q96 0 141 -46.5t45 -119.5q0 -63 -20 -114.5t-57.5 -88.5t-92 -57t-123.5 -20q-59 0 -101 11.5t-69 31t-41 44.5t-16 52z" />
<glyph unicode="6" horiz-adv-x="589" d="M53 212q0 50 12 115q16 85 45.5 152t72 114t98.5 72t124 25q46 0 83.5 -9t64 -29t42 -51.5t17.5 -76.5q-11 -7 -29 -12.5t-39.5 -10t-44 -7t-42.5 -2.5v18q0 45 -14.5 69t-47.5 24q-23 0 -43.5 -12t-38.5 -39.5t-34.5 -72.5t-32.5 -111q29 22 66 34t82 12q47 0 79.5 -12 t52.5 -32.5t28.5 -48.5t8.5 -59q0 -58 -18 -108.5t-53.5 -88t-87.5 -59t-120 -21.5q-119 0 -175 59t-56 168zM214 165q0 -50 16.5 -71.5t49.5 -21.5q34 0 56.5 17.5t36 44t18.5 57t5 56.5q0 40 -16.5 58.5t-52.5 18.5q-32 0 -56.5 -11.5t-42.5 -27.5q-8 -38 -11 -67.5 t-3 -52.5z" />
<glyph unicode="7" horiz-adv-x="528" d="M38 0v10l406 542h-353l26 124h480l-24 -115l-356 -561h-179z" />
<glyph unicode="8" horiz-adv-x="589" d="M31 166q0 37 12 69t34.5 57.5t54.5 43t72 24.5v3q-35 14 -57.5 47.5t-22.5 78.5q0 49 20.5 87t55.5 63t81 38t97 13q117 0 170.5 -42t53.5 -111q0 -72 -38 -115t-107 -62l-1 -2q48 -16 75 -50.5t27 -87.5q0 -58 -21 -102t-58 -73.5t-88 -44.5t-112 -15q-127 0 -187.5 49 t-60.5 132zM196 151q0 -78 76 -78q33 0 56 15t37 39t20.5 53.5t6.5 58.5q0 77 -73 77q-33 0 -56.5 -15t-38 -38.5t-21.5 -53t-7 -58.5zM274 474q0 -72 67 -72q27 0 47.5 11t33.5 30t19.5 42.5t6.5 49.5q0 67 -68 67q-27 0 -47 -10.5t-33 -28t-19.5 -41t-6.5 -48.5z" />
<glyph unicode="9" horiz-adv-x="589" d="M28 152q12 6 31 11.5t40 9.5t42 6.5t39 2.5v-13q0 -48 14.5 -72.5t49.5 -24.5q22 0 41.5 10.5t36.5 36t33 68t32 105.5q-26 -19 -60.5 -30t-79.5 -11q-47 0 -79 13.5t-52 36.5t-29 53t-9 64q0 57 19 106.5t55 86t88 58t119 21.5q61 0 104 -16t70 -46t39 -72.5t12 -95.5 q0 -55 -10 -114q-15 -84 -42 -151t-68 -113.5t-97 -71.5t-129 -25q-47 0 -84.5 9.5t-64.5 29.5t-43 51.5t-18 76.5zM243 419q0 -39 16 -60t54 -21q29 0 52.5 11t40.5 26q8 40 13 76.5t5 68.5q0 40 -15 61t-50 21q-33 0 -55.5 -18t-36 -45.5t-19 -59.5t-5.5 -60z" />
<glyph unicode=":" horiz-adv-x="254" d="M11 59q0 44 28.5 68.5t66.5 24.5q39 0 56 -20.5t17 -44.5q0 -44 -27.5 -70t-68.5 -26q-38 0 -55 21t-17 47zM83 389q0 44 28.5 68.5t66.5 24.5q39 0 56 -20.5t17 -44.5q0 -44 -27.5 -70t-68.5 -26q-38 0 -55 21t-17 47z" />
<glyph unicode=";" horiz-adv-x="254" d="M-16 -100q13 7 27 17.5t26.5 23t22.5 25.5t16 26q-28 4 -44 23.5t-16 47.5q0 40 27.5 66.5t67.5 26.5q39 0 58.5 -21.5t19.5 -56.5q0 -43 -17 -79.5t-41.5 -63.5t-51.5 -44.5t-46 -23.5q-23 0 -36 12.5t-13 20.5zM82 389q0 44 28.5 68.5t66.5 24.5q39 0 56 -20.5 t17 -44.5q0 -44 -27.5 -70t-68.5 -26q-38 0 -55 21t-17 47z" />
<glyph unicode="&#x3c;" d="M53 245v107l501 203v-109l-372 -148l372 -147v-109z" />
<glyph unicode="=" d="M62 142v107h502v-107h-502zM62 348v107h502v-107h-502z" />
<glyph unicode="&#x3e;" d="M70 42v109l373 147l-373 148v109l502 -203v-107z" />
<glyph unicode="?" horiz-adv-x="498" d="M89 564q6 20 22.5 46t45.5 49.5t72 39.5t104 16q57 0 97 -12.5t65.5 -34t37 -51t11.5 -63.5q0 -51 -17.5 -86.5t-44.5 -61.5t-59.5 -46t-62.5 -39.5t-53.5 -42t-32.5 -52.5l-7 -21h-126l7 33q10 47 31.5 77t48 51t54.5 37.5t51 35.5t38 45.5t15 68.5q0 29 -14.5 46.5 t-50.5 17.5q-24 0 -41.5 -8.5t-29.5 -22t-19.5 -29t-11.5 -29.5q-22 1 -43 4t-38.5 8t-30 11t-18.5 13zM91 60q0 44 28.5 68.5t66.5 24.5q39 0 56 -20.5t17 -44.5q0 -44 -27.5 -70t-68.5 -26q-38 0 -55 21t-17 47z" />
<glyph unicode="@" horiz-adv-x="1016" d="M68 223q0 99 31.5 187t92 154t148.5 104.5t201 38.5q107 0 189.5 -29t138.5 -80t85 -120.5t29 -149.5q0 -71 -18.5 -133t-53 -108t-83 -72.5t-108.5 -26.5q-69 0 -103 19t-46 49q-28 -28 -67 -47.5t-90 -19.5q-77 0 -112 44.5t-35 127.5q0 48 13.5 106.5t43.5 109 t78.5 84.5t117.5 34q42 0 69 -16t42 -39l9 43h135l-64 -304q-11 -50 -11 -76q0 -29 12 -41t36 -12q31 0 57.5 21t45.5 57.5t29.5 87t10.5 110.5q0 70 -22.5 127t-67 98t-110 63.5t-152.5 22.5q-92 0 -162.5 -31t-118.5 -87t-73 -133t-25 -168q0 -83 21.5 -150.5t65 -116 t110 -75t156.5 -26.5q48 0 90.5 7.5t77.5 23.5q8 -10 13.5 -30t5.5 -36q-86 -36 -193 -36q-111 0 -193.5 35t-137 95t-81.5 141t-27 173zM415 158q0 -42 14.5 -63t50.5 -21q20 0 41.5 8.5t40.5 25.5q0 19 2.5 39.5t7.5 40.5l42 201q-12 10 -28.5 14.5t-34.5 4.5 q-28 0 -49 -14.5t-36.5 -37.5t-25 -51t-15.5 -56t-8 -52t-2 -39z" />
<glyph unicode="A" horiz-adv-x="651" d="M-30 0v9l362 691h193l65 -700h-168l-13 169h-213l-84 -169h-142zM247 273h155q-3 47 -6 91t-4.5 80t-2.5 63.5t-1 41.5v17h-5q-5 -12 -14.5 -34t-22.5 -50.5t-28 -61.5t-32 -67z" />
<glyph unicode="B" horiz-adv-x="610" d="M23 0l148 700h229q117 0 169 -38t52 -110q0 -41 -12 -71t-33.5 -52t-51 -36.5t-65.5 -23.5v-2q54 -14 86.5 -48t32.5 -94q0 -115 -78.5 -170t-227.5 -55h-249zM204 90h51q78 0 117.5 32.5t39.5 108.5q0 85 -112 85h-48zM272 408h44q67 0 107 29.5t40 100.5q0 42 -25.5 57 t-78.5 15h-44z" />
<glyph unicode="C" horiz-adv-x="657" d="M62 245q0 20 2.5 47.5t8.5 58.5q16 80 47 147t78 115t110 75t143 27q60 0 103 -15t71 -42t41 -64.5t13 -82.5v-17q-11 -6 -26 -9.5t-32 -5.5t-34.5 -3t-33.5 -1h-16.5t-14.5 1q0 7 0.5 13.5t0.5 13.5q0 57 -18.5 86.5t-67.5 29.5q-68 0 -113 -68t-73 -200q-9 -43 -13 -79 t-4 -65q0 -62 20 -94t68 -32q53 0 89 40t62 114q6 1 14 1h18q16 0 34.5 -1t36.5 -2.5t32.5 -5t23.5 -7.5q-16 -53 -42.5 -96.5t-66 -74t-92 -47.5t-119.5 -17q-65 0 -112.5 18t-78 52t-45 82t-14.5 108z" />
<glyph unicode="D" horiz-adv-x="671" d="M23 0l148 700h219q145 0 211 -62.5t66 -174.5q0 -20 -2.5 -51t-9.5 -61q-18 -81 -50 -146t-81 -110.5t-117.5 -70t-158.5 -24.5h-225zM205 95h53q86 0 137.5 59.5t81.5 196.5q8 35 11.5 66t3.5 56q0 71 -31 101.5t-94 30.5h-54z" />
<glyph unicode="E" horiz-adv-x="540" d="M23 0l148 700h423l-22 -104h-260l-40 -185h234v-5q0 -10 -2 -24t-5 -28t-7 -27t-8 -21h-234l-43 -202h274l-22 -104h-436z" />
<glyph unicode="F" horiz-adv-x="530" d="M23 0l148 700h432l-22 -104h-269l-42 -197h241q0 -9 -2 -23t-5 -29t-7 -29.5t-8 -23.5h-242l-61 -294h-163z" />
<glyph unicode="G" horiz-adv-x="672" d="M64 242q0 100 26.5 186.5t75.5 150t118 100t154 36.5q69 0 115 -16.5t73.5 -44t39 -64t11.5 -76.5q-4 -4 -16.5 -7.5t-29 -6t-36.5 -4t-39 -1.5q-11 0 -20 0.5t-17 1.5v17q0 23 -3.5 42.5t-12.5 33.5t-25 21.5t-41 7.5q-68 0 -113 -68t-73 -200q-9 -42 -13.5 -79.5 t-4.5 -61.5q0 -66 25 -97.5t81 -31.5q38 0 63.5 8.5t39.5 19.5l35 165h-110l22 103h260l-65 -306q-15 -14 -38 -29t-55.5 -27.5t-75 -21t-94.5 -8.5q-69 0 -118 18t-80 51.5t-45 81t-14 106.5z" />
<glyph unicode="H" horiz-adv-x="694" d="M23 0l148 700h163l-60 -278h234l59 278h162l-148 -700h-162l67 317h-234l-66 -317h-163z" />
<glyph unicode="I" horiz-adv-x="298" d="M23 0l148 700h163l-148 -700h-163z" />
<glyph unicode="J" horiz-adv-x="435" d="M-20 1q0 8 2 21t5 27.5t7 27.5t8 20q6 -3 30 -8t52 -5q27 0 46.5 5t33.5 17.5t23.5 32.5t15.5 50l108 511h163l-110 -517q-12 -56 -34 -94t-55 -60.5t-77.5 -32t-102.5 -9.5q-51 0 -80 5.5t-35 8.5z" />
<glyph unicode="K" horiz-adv-x="630" d="M23 0l148 700h163l-64 -298h4l277 298h160v-9l-310 -318l172 -364v-9h-173l-143 323h-3l-68 -323h-163z" />
<glyph unicode="L" horiz-adv-x="508" d="M23 0l148 700h163l-127 -595h253l-21 -105h-416z" />
<glyph unicode="M" horiz-adv-x="855" d="M23 0l148 700h206l25 -208q5 -39 8.5 -78t6 -73.5t3.5 -64t1 -49.5v-11h3q7 19 20 48t29.5 62.5t35.5 69t37 68.5l132 236h212l-148 -700h-159l57 258q9 43 18 83.5t16.5 74t13.5 59.5t10 40h-4q-13 -28 -43 -88.5t-83 -157.5l-146 -269h-104l-27 225q-6 48 -10 95 t-7.5 86.5t-5.5 69t-3 42.5h-4q-2 -14 -6.5 -39t-10.5 -56.5t-13 -67.5l-14 -72l-60 -283h-134z" />
<glyph unicode="N" horiz-adv-x="721" d="M23 0l148 700h198l77 -249q35 -115 50.5 -186.5t20.5 -101.5h4q1 15 4.5 41.5t8.5 59.5t11.5 69t14.5 71l62 296h134l-148 -700h-185l-81 257q-15 47 -27 92t-21.5 84t-16 69.5t-8.5 47.5h-4q-2 -14 -6 -38.5t-9 -55.5t-12 -66.5t-14 -71.5l-67 -318h-134z" />
<glyph unicode="O" horiz-adv-x="702" d="M61 234q0 54 12 117q16 81 48 148t79 115t110 74.5t142 26.5q64 0 110.5 -17.5t77 -50t45 -78.5t14.5 -103q0 -54 -12 -115q-16 -81 -46.5 -148.5t-77.5 -116t-110.5 -75t-144.5 -26.5q-64 0 -110.5 17.5t-77 50t-45 78.5t-14.5 103zM232 203q0 -61 21 -91.5t69 -30.5 q68 0 113.5 68.5t73.5 201.5q9 45 14 82t5 66q0 60 -21.5 90t-69.5 30q-68 0 -113 -68t-73 -200q-9 -45 -14 -81.5t-5 -66.5z" />
<glyph unicode="P" horiz-adv-x="599" d="M23 0l148 700h198q138 0 198 -46.5t60 -131.5q0 -124 -81.5 -193.5t-245.5 -69.5h-59l-55 -259h-163zM261 357h30q35 0 65.5 6.5t53.5 24.5t36 49.5t13 81.5q0 51 -29 68.5t-84 17.5h-32z" />
<glyph unicode="Q" horiz-adv-x="702" d="M61 234q0 54 12 117q16 81 48 148t79 115t110 74.5t142 26.5q64 0 110.5 -17.5t77 -50t45 -78.5t14.5 -103q0 -81 -19 -155.5t-53 -135t-81 -104t-103 -62.5q8 -27 27 -36t57 -9q13 0 27.5 2t24.5 5q0 -10 -2 -27t-6 -35t-8.5 -34t-9.5 -24q-5 -2 -22 -5t-38 -3 q-75 0 -114.5 32.5t-53.5 110.5q-5 -1 -9.5 -1h-9.5q-64 0 -110.5 17.5t-76.5 50t-44 78.5t-14 103zM232 203q0 -61 21 -91.5t69 -30.5q68 0 113.5 68.5t73.5 201.5q9 45 14 82t5 66q0 60 -21.5 90t-69.5 30q-68 0 -113 -68t-73 -200q-9 -45 -14 -81.5t-5 -66.5z" />
<glyph unicode="R" horiz-adv-x="611" d="M23 0l148 700h213q122 0 178.5 -45.5t56.5 -127.5q0 -81 -38.5 -141t-126.5 -94l84 -283l-1 -9h-166l-67 263h-62l-56 -263h-163zM262 358h33q82 0 121.5 41t39.5 119q0 54 -29 72t-80 18h-33z" />
<glyph unicode="S" horiz-adv-x="584" d="M20 165q8 5 24 10t35.5 8.5t41 6t40.5 2.5h10q1 -15 4 -34t13 -36.5t30 -29t54 -11.5q56 0 83 29t27 77q0 34 -20 55.5t-50.5 38t-66 32t-66 37.5t-50.5 54.5t-20 82.5q0 38 15 78.5t48 73.5t86.5 54.5t130.5 21.5q67 0 110 -16t68 -41.5t35 -56.5t10 -61 q-14 -7 -34.5 -11t-42 -6.5t-41 -3t-30.5 -0.5q0 13 -2 30t-11 32.5t-28 26.5t-53 11q-42 0 -72 -26t-30 -73q0 -31 20.5 -50t51.5 -34.5t67 -30.5t67 -37t51.5 -55t20.5 -84t-17.5 -95.5t-52.5 -77.5t-88.5 -52t-126.5 -19q-68 0 -113 15t-73 40t-40.5 57.5t-14.5 67.5z " />
<glyph unicode="T" horiz-adv-x="530" d="M99 596l21 104h496l-22 -104h-166l-127 -596h-163l127 596h-166z" />
<glyph unicode="U" horiz-adv-x="664" d="M67 179q0 24 3.5 51t9.5 57l87 413h163l-90 -423q-9 -44 -9 -74q0 -54 25 -76t73 -22q53 0 91.5 35.5t58.5 125.5l92 434h134l-92 -431q-15 -68 -37 -121t-57 -89t-86.5 -55t-124.5 -19q-129 0 -185 49.5t-56 144.5z" />
<glyph unicode="V" horiz-adv-x="639" d="M118 691v9h166l24 -310q5 -66 6 -102.5t1 -61.5q0 -62 -3 -84h4q7 20 29 73.5t64 137.5l175 347h145v-9l-366 -691h-181z" />
<glyph unicode="W" horiz-adv-x="937" d="M123 691v9h164l-2 -256q-2 -118 -5.5 -186t-6.5 -94h5q8 26 31.5 88.5t65.5 154.5l133 293h151l4 -168q1 -44 1.5 -72t1 -45t0.5 -27v-18q0 -78 -2.5 -130t-5.5 -72h4q8 23 30.5 84.5t66.5 165.5l120 282h141v-9l-313 -691h-170l-5 188q-2 62 -2 114t2 92q3 80 5 109h-4 q-9 -29 -38.5 -105t-79.5 -187l-95 -211h-182z" />
<glyph unicode="X" horiz-adv-x="624" d="M-27 0v9l284 348l-118 334v9h164l75 -237l183 237h145v-9l-270 -329l123 -353v-9h-167l-79 248l-195 -248h-145z" />
<glyph unicode="Y" horiz-adv-x="609" d="M115 691v9h169l69 -302h4l200 302h143v-9l-306 -437l-53 -254h-163l53 252z" />
<glyph unicode="Z" horiz-adv-x="600" d="M-9 0l14 69l442 527h-316l22 104h514l-14 -69l-442 -527h329l-22 -104h-527z" />
<glyph unicode="[" horiz-adv-x="439" d="M23 -190l189 890h287l-17 -80h-131l-155 -730h131l-17 -80h-287z" />
<glyph unicode="\" horiz-adv-x="458" d="M140 730l2 10h123l89 -870l-2 -10h-122z" />
<glyph unicode="]" horiz-adv-x="439" d="M-42 -190l16 80h130l155 730h-130l17 80h287l-189 -890h-286z" />
<glyph unicode="^" d="M91 362l191 338h71l192 -338h-106l-121 219l-122 -219h-105z" />
<glyph unicode="_" horiz-adv-x="507" d="M-70 -150l18 85h494l-18 -85h-494z" />
<glyph unicode="`" horiz-adv-x="328" d="M164 728h158l29 -146h-102z" />
<glyph unicode="a" horiz-adv-x="561" d="M36 153q0 48 12 107q13 60 34 110t51.5 86t70 56t89.5 20q45 0 74 -17.5t46 -44.5l11 50h145l-77 -361q-7 -32 -12 -66t-5 -58q0 -13 1 -18l-138 -29q-7 12 -11 27t-4 35q-28 -28 -63.5 -45.5t-82.5 -17.5q-74 0 -107.5 44.5t-33.5 121.5zM199 156q0 -39 14.5 -55.5 t46.5 -16.5q35 0 69 26l64 304q-11 11 -25.5 16.5t-30.5 5.5q-48 0 -76 -40t-48 -136q-14 -68 -14 -104z" />
<glyph unicode="b" horiz-adv-x="571" d="M12 0l148 700h154l-48 -227q27 25 61.5 42t82.5 17q77 0 111.5 -45t34.5 -122q0 -21 -3 -49.5t-9 -57.5q-13 -61 -34.5 -111t-52 -85.5t-70.5 -55t-89 -19.5q-50 0 -80.5 19t-47.5 48l-12 -54h-146zM189 112q22 -28 62 -28q25 0 44.5 9.5t35 30.5t27 54.5t22.5 81.5 q7 31 10 56t3 45q0 42 -16 58.5t-50 16.5q-40 0 -75 -28z" />
<glyph unicode="c" horiz-adv-x="536" d="M41 189q0 30 4 58.5t11 54.5q27 107 97 169.5t182 62.5q104 0 154 -43.5t50 -115.5q0 -5 -0.5 -8.5t-0.5 -8.5q-7 -3 -19.5 -5.5t-27 -4t-30.5 -2.5t-30 -1q-12 0 -22 0.5t-17 1.5q1 8 1.5 16t0.5 16q0 30 -11 51t-43 21q-50 0 -78 -48.5t-50 -142.5q-7 -29 -10.5 -58 t-3.5 -50q0 -42 14.5 -62.5t46.5 -20.5q38 0 60 29t37 72q5 1 12.5 1h16.5q15 0 33 -1t34.5 -3t30 -4.5t20.5 -6.5q-26 -82 -90.5 -126t-158.5 -44q-56 0 -96.5 14.5t-66.5 41.5t-38 64.5t-12 82.5z" />
<glyph unicode="d" horiz-adv-x="572" d="M35 156q0 47 12 104q13 61 34 111t51 86t69.5 55.5t88.5 19.5q48 0 78.5 -16.5t47.5 -41.5l48 226h154l-115 -539q-7 -32 -12.5 -68.5t-5.5 -61.5q0 -11 1 -15l-138 -28q-8 13 -11.5 27.5t-3.5 37.5q-29 -30 -64.5 -48t-86.5 -18q-77 0 -112 45.5t-35 123.5zM199 160 q0 -42 15.5 -58.5t48.5 -16.5q23 0 42.5 6.5t33.5 18.5l63 298q-23 28 -61 28q-26 0 -45.5 -9.5t-34.5 -30.5t-26.5 -54.5t-22.5 -81.5q-13 -61 -13 -100z" />
<glyph unicode="e" horiz-adv-x="547" d="M42 185q0 82 22.5 147t61.5 110t93 68.5t117 23.5q54 0 92 -13t62 -37t35.5 -57t11.5 -72q0 -27 -5.5 -61.5t-16.5 -60.5h-310q-9 -48 -9 -79q0 -85 63 -85q22 0 37 9t25.5 22.5t17 27.5t10.5 25h18q14 0 32.5 -1t36.5 -2.5t34 -5t25 -7.5q-32 -75 -90.5 -113t-153.5 -38 q-110 0 -159.5 53.5t-49.5 145.5zM221 311h161q5 21 7 40.5t2 31.5q0 35 -12.5 52t-44.5 17q-37 0 -65 -32.5t-48 -108.5z" />
<glyph unicode="f" horiz-adv-x="370" d="M39 0l91 431h-61l19 89h61l7 34q19 96 70.5 134t143.5 38q38 0 62.5 -4.5t30.5 -7.5q0 -11 -2.5 -24t-5.5 -26t-6.5 -23t-6.5 -15q-4 2 -18.5 5t-33.5 3q-38 0 -54.5 -17t-26.5 -63l-7 -34h109l-19 -89h-109l-92 -431h-152z" />
<glyph unicode="g" horiz-adv-x="562" d="M0 -63q10 8 28.5 14.5t39 11t40.5 7t34 2.5q0 -12 4 -25t12 -23t21.5 -16.5t33.5 -6.5q44 0 63.5 26.5t29.5 70.5l17 80q-26 -23 -59.5 -37.5t-78.5 -14.5q-75 0 -108 42.5t-33 115.5q0 27 3 53.5t8 50.5q10 54 30 99t49.5 77.5t68 50t85.5 17.5q50 0 79.5 -17t45.5 -43 l11 48h145l-104 -489q-11 -51 -30 -92t-50 -69t-76.5 -43t-109.5 -15q-38 0 -72 7t-60.5 22t-44 38.5t-22.5 57.5zM208 196q0 -74 62 -74q34 0 65 22l58 271q-20 20 -58 20q-45 0 -72.5 -37t-44.5 -119q-5 -25 -7.5 -45.5t-2.5 -37.5z" />
<glyph unicode="h" horiz-adv-x="566" d="M12 0l148 700h154l-49 -229q25 25 63 44t89 19q70 0 99 -35t29 -93q0 -22 -3 -43t-8 -44l-70 -319h-151l68 323q6 30 6 52q0 26 -11.5 40t-43.5 14q-26 0 -46.5 -8.5t-35.5 -19.5l-85 -401h-153z" />
<glyph unicode="i" horiz-adv-x="267" d="M12 0l110 520h154l-110 -520h-154zM144 642q0 22 8 38.5t21.5 27.5t30.5 17t36 6q39 0 56 -18.5t17 -42.5q0 -44 -29.5 -67.5t-68.5 -23.5q-38 0 -54.5 18.5t-16.5 44.5z" />
<glyph unicode="j" horiz-adv-x="267" d="M-128 -194q0 18 5 44.5t14 41.5q6 -2 19.5 -3.5t24.5 -1.5q34 0 47.5 18.5t21.5 57.5l118 557h154l-117 -552q-11 -51 -27.5 -83.5t-41.5 -51.5t-60.5 -26.5t-84.5 -7.5q-23 0 -45 2.5t-28 4.5zM144 642q0 22 8 38.5t21.5 27.5t30.5 17t36 6q39 0 56 -18.5t17 -42.5 q0 -44 -29.5 -67.5t-68.5 -23.5q-38 0 -54.5 18.5t-16.5 44.5z" />
<glyph unicode="k" horiz-adv-x="533" d="M12 0l148 700h154l-82 -384h4l193 204h150v-9l-222 -219l122 -283v-9h-166l-94 241h-3l-51 -241h-153z" />
<glyph unicode="l" horiz-adv-x="267" d="M12 0l148 700h154l-149 -700h-153z" />
<glyph unicode="m" horiz-adv-x="824" d="M12 0l110 520h146l-13 -62q23 29 59.5 52.5t90.5 23.5t81 -22.5t35 -60.5q11 15 26.5 30t35 26.5t43.5 19t53 7.5q69 0 97 -34t28 -90q0 -31 -8 -71l-73 -339h-152l67 318q4 19 6 34t2 28q0 24 -10.5 36.5t-36.5 12.5q-24 0 -43 -9.5t-31 -20.5q-1 -14 -3 -29t-5 -31 l-72 -339h-154l67 318q4 20 6.5 35.5t2.5 28.5q0 23 -10 35t-36 12q-23 0 -41 -8.5t-30 -19.5l-85 -401h-153z" />
<glyph unicode="n" horiz-adv-x="566" d="M12 0l110 520h146l-13 -62q23 29 63.5 52.5t97.5 23.5q70 0 99 -35t29 -93q0 -17 -1.5 -34.5t-6.5 -37.5l-71 -334h-153l68 323q3 15 5 28.5t2 24.5q0 25 -12 39t-44 14q-26 0 -46.5 -8t-34.5 -20l-85 -401h-153z" />
<glyph unicode="o" horiz-adv-x="581" d="M40 192q0 17 2 34t5 34q11 61 34.5 111.5t60.5 86.5t87.5 56t115.5 20q109 0 162 -55.5t53 -149.5q0 -21 -2 -40.5t-6 -38.5q-24 -123 -100.5 -193.5t-194.5 -70.5q-59 0 -100 16t-67 44t-38 65.5t-12 80.5zM197 148q0 -41 14.5 -60t47.5 -19q51 0 80 45.5t50 145.5 q15 69 15 113q0 40 -14.5 59t-48.5 19q-48 0 -78 -45.5t-51 -145.5q-15 -69 -15 -112z" />
<glyph unicode="p" horiz-adv-x="571" d="M-29 -190l151 710h146l-11 -53q28 28 65 46.5t88 18.5q77 0 111.5 -45t34.5 -122q0 -48 -12 -105q-12 -61 -34 -111t-52.5 -86t-70.5 -56t-89 -20q-46 0 -75.5 16.5t-47.5 42.5l-50 -236h-154zM189 112q22 -28 62 -28q25 0 45 9.5t35 30.5t27 54.5t22 81.5q13 59 13 100 q0 42 -16 59t-50 17q-40 0 -75 -28z" />
<glyph unicode="q" horiz-adv-x="571" d="M35 156q0 47 12 104q13 61 34 111t51.5 86t70.5 55.5t90 19.5q51 0 81 -19.5t47 -48.5l12 56h146l-150 -710h-154l50 236q-26 -26 -61 -42.5t-81 -16.5q-78 0 -113 45.5t-35 123.5zM199 160q0 -42 15.5 -59t50.5 -17q39 0 74 27l63 297q-23 28 -61 28q-26 0 -45 -9.5 t-34.5 -30.5t-27.5 -54.5t-22 -81.5q-7 -31 -10 -56t-3 -44z" />
<glyph unicode="r" horiz-adv-x="389" d="M12 0l110 520h146l-20 -95h3q6 10 17.5 28.5t30 36t44 30.5t58.5 13q8 0 17.5 -0.5t11.5 -2.5q0 -15 -3 -35.5t-7.5 -41t-10 -38.5t-9.5 -28q-6 1 -19 2t-24 1q-52 0 -81 -14t-35 -20l-77 -356h-152z" />
<glyph unicode="s" horiz-adv-x="487" d="M11 127q8 4 22.5 8t31.5 6.5t34 4t31 1.5h10q0 -12 2.5 -26t10.5 -26t22.5 -20t38.5 -8q39 0 60 20.5t21 52.5q0 19 -9.5 31t-24.5 20t-35 15t-41 15q-22 9 -43.5 19t-38 25t-27 36.5t-10.5 52.5q0 35 14.5 67.5t43 57.5t71 40t99.5 15q62 0 100 -14t59 -34.5t28 -44.5 t7 -45q-5 -4 -18 -7.5t-29.5 -6t-34 -4t-30.5 -1.5h-9.5t-8.5 1q0 9 -2 21.5t-9 24.5t-21 20t-38 8q-32 0 -54 -17.5t-22 -50.5q0 -12 4 -21.5t14.5 -17.5t28.5 -15.5t46 -17.5q24 -9 48.5 -19t44 -25.5t32 -38t12.5 -56.5q0 -44 -17 -79t-47.5 -59t-74 -36.5t-96.5 -12.5 q-58 0 -96 12t-60 32t-31 45t-9 52z" />
<glyph unicode="t" horiz-adv-x="371" d="M63 91q0 14 2 29t6 33l59 278h-61l19 89h67l27 130h148l-27 -130h103l-19 -89h-103l-55 -254q-8 -35 -8 -54q0 -20 13 -29.5t44 -9.5q22 0 41 7v-4q0 -9 -1.5 -22t-4 -25.5t-5.5 -23t-6 -15.5q-8 -4 -31.5 -8.5t-57.5 -4.5q-75 0 -112.5 22t-37.5 81z" />
<glyph unicode="u" horiz-adv-x="560" d="M40 112q0 37 10 80l70 328h154l-66 -310q-5 -20 -7.5 -37.5t-2.5 -30.5q0 -25 12 -37.5t41 -12.5q24 0 43.5 7.5t33.5 18.5l86 402h154l-76 -358q-7 -32 -13 -67t-6 -59q0 -6 0.5 -10.5t1.5 -8.5l-139 -29q-6 12 -10.5 26.5t-4.5 35.5q-24 -25 -61 -44.5t-94 -19.5 q-126 0 -126 126z" />
<glyph unicode="v" horiz-adv-x="521" d="M81 510v10h155l9 -136q2 -27 3.5 -56.5t3 -58t2.5 -54t1 -44.5v-18h2q9 26 35.5 86t63.5 134l74 147h132v-10l-279 -510h-151z" />
<glyph unicode="w" horiz-adv-x="743" d="M88 510v10h152v-103q0 -94 -4 -155.5t-9 -94.5h2q11 34 32.5 85t52.5 114l70 143h118q1 -30 2.5 -54.5t2.5 -47.5t1.5 -46t0.5 -51q0 -43 -1.5 -80t-3.5 -63h3q11 33 32 90.5t63 155.5l46 107h130v-10l-236 -510h-136l-8 136q-2 45 -2.5 70.5t-0.5 41.5q0 27 0.5 46.5 t2.5 33.5h-3q-9 -26 -26 -67.5t-44 -98.5l-76 -162h-148z" />
<glyph unicode="x" horiz-adv-x="523" d="M-25 0v9l208 260l-85 242v9h157l51 -170l123 170h133v-9l-195 -243l89 -259v-9h-161l-55 175l-131 -175h-134z" />
<glyph unicode="y" horiz-adv-x="516" d="M-37 -195q0 12 2.5 29t6.5 35t8.5 34t8.5 25q8 -2 25 -4.5t32 -2.5q18 0 31.5 3.5t25.5 12t23.5 22.5t24.5 36l-68 515v10h156l14 -138q3 -26 5 -53t3.5 -52t2.5 -47t1 -38v-7h2q4 11 13.5 32t21.5 48t26 57t29 59l71 139h130v-10l-286 -538q-23 -44 -43 -76.5t-45.5 -54 t-60.5 -32.5t-89 -11q-25 0 -45.5 2.5t-25.5 4.5z" />
<glyph unicode="z" horiz-adv-x="493" d="M-16 0l12 57l319 374h-222l19 89h418l-13 -57l-321 -374h240l-18 -89h-434z" />
<glyph unicode="{" horiz-adv-x="408" d="M58 213l17 82q27 13 45 31t30 43t20.5 59t18.5 80q14 64 32.5 104t49.5 61.5t79 29t120 7.5l-15 -73q-32 0 -51 -5t-31.5 -20t-21 -43t-18.5 -74q-12 -55 -24.5 -93.5t-29 -66.5t-37 -47t-48.5 -34q27 -20 40.5 -46t13.5 -69q0 -18 -5 -49t-11 -64t-11 -62t-5 -44 q0 -30 17 -39t59 -10l-15 -73q-57 0 -96.5 4t-64 16t-36 33t-11.5 55q0 21 5 52t11 63t11 61t5 47q0 29 -10 49.5t-33 34.5z" />
<glyph unicode="|" horiz-adv-x="349" d="M137 -130v940h125v-940h-125z" />
<glyph unicode="}" horiz-adv-x="408" d="M-44 -202l14 73q32 1 51 5.5t31.5 19.5t21 42.5t18.5 74.5q12 55 24.5 93.5t29 66.5t37 47t48.5 34q-27 20 -40.5 46t-13.5 69q0 18 5 49t11 64t11 62.5t5 44.5q0 30 -17.5 38.5t-58.5 9.5l15 73q57 0 96.5 -4.5t64 -16.5t36 -33.5t11.5 -55.5q0 -22 -5 -53t-11 -62.5 t-11 -60t-5 -45.5q0 -29 10 -49.5t34 -34.5l-18 -82q-28 -13 -45.5 -31t-29 -43t-20 -59t-18.5 -80q-14 -65 -33 -104.5t-50.5 -61t-79 -29t-118.5 -7.5z" />
<glyph unicode="~" d="M72 291v106q16 12 37 23q18 8 43 15.5t56 7.5q34 0 66 -8t63 -17.5t62 -17.5t63 -8q23 0 43.5 7t34.5 15q17 10 30 22v-111q-13 -10 -30 -17q-14 -7 -34 -12t-43 -5q-37 0 -69.5 8t-63 17.5t-61 17.5t-63.5 8q-28 0 -52 -8t-42 -18q-21 -11 -40 -25z" />
<glyph unicode="&#xa1;" horiz-adv-x="280" d="M-41 -180l131 494h113l-78 -494h-166zM89 432q0 44 28 70t69 26q38 0 55 -21t17 -47q0 -22 -8 -39t-21.5 -29t-30.5 -18.5t-36 -6.5q-39 0 -56 20.5t-17 44.5z" />
<glyph unicode="&#xa2;" d="M61 180q0 75 19 138.5t54.5 110t87 74t116.5 30.5l23 109h80l-24 -112q71 -12 106.5 -53t35.5 -102q0 -4 -0.5 -8t-0.5 -9q-7 -3 -19.5 -5.5t-27 -4t-30.5 -2.5t-30 -1q-12 0 -22 0.5t-17 1.5q1 8 1.5 16t0.5 16q0 30 -11 51t-43 21q-50 0 -79 -48.5t-49 -142.5 q-14 -67 -14 -108q0 -42 14.5 -62.5t46.5 -20.5q38 0 60 29t37 72q5 1 12.5 1h16.5q15 0 33 -1t35 -3t30.5 -4.5t19.5 -6.5q-25 -76 -81.5 -119t-139.5 -50l-22 -102h-79l22 105q-42 6 -73 22.5t-50.5 41.5t-29 57t-9.5 69z" />
<glyph unicode="&#xa3;" d="M15 0l18 85q12 10 21 20.5t16.5 25.5t14 36.5t13.5 53.5l19 89h-59l18 83h58q15 67 37.5 121.5t57 93.5t84.5 60.5t121 21.5q58 0 96 -13.5t60.5 -35t31.5 -48t10 -52.5q-9 -6 -26.5 -10.5t-37.5 -7.5t-41 -4.5t-39 -1.5q0 17 -2 32.5t-9 27t-19.5 18t-33.5 6.5 q-27 0 -46 -12.5t-33.5 -38.5t-25.5 -65t-22 -92h192l-17 -83h-192l-7 -35q-13 -62 -36 -95.5t-49 -54.5h338l-25 -125h-486z" />
<glyph unicode="&#xa5;" d="M38 178l16 70h170l5 22l-12 47h-148l14 71h117l-67 279v9h161l54 -275h4l162 275h141v-9l-188 -279h117l-15 -71h-150l-30 -46l-5 -23h170l-16 -70h-169l-38 -178h-160l38 178h-171z" />
<glyph unicode="&#xa7;" horiz-adv-x="608" d="M20 -30q8 5 22.5 9t32 6.5t37.5 4t38 1.5h14q0 -11 2.5 -26.5t12 -30t28 -25t50.5 -10.5q41 0 65.5 20t24.5 59q0 27 -21 43t-52.5 28.5t-68.5 24.5t-68.5 30.5t-52.5 46.5t-21 73q0 33 10.5 59.5t29 47.5t43.5 37t55 28q-29 19 -48 45.5t-19 68.5q0 49 19.5 86.5t54 63 t81 39t99.5 13.5q66 0 108.5 -14.5t68 -37t35.5 -50t10 -52.5v-4q-23 -12 -56.5 -17t-65.5 -5q-6 0 -11.5 0.5t-10.5 0.5q0 11 -2.5 26.5t-12 30t-28 25t-50.5 10.5q-41 0 -65.5 -21t-24.5 -58q0 -27 21 -43.5t52.5 -29t68.5 -24t68.5 -30t52.5 -46t21 -71.5 q0 -69 -38.5 -110t-100.5 -65q29 -19 48.5 -46t19.5 -69v-10.5t-1 -11.5q-10 -80 -77 -129t-176 -49q-66 0 -108.5 14.5t-68 37t-35.5 49.5t-10 53v4zM211 269q0 -20 11.5 -35t30 -27t42.5 -21.5t50 -18.5q28 10 51 31t23 56q0 20 -11 35t-30 27t-43 21.5t-49 18.5 q-29 -11 -52 -31.5t-23 -55.5z" />
<glyph unicode="&#xa8;" horiz-adv-x="445" d="M137 640q0 40 26.5 61.5t60.5 21.5q36 0 51 -17t15 -40q0 -40 -26 -62.5t-62 -22.5q-35 0 -50 17.5t-15 41.5zM344 640q0 40 26 61.5t60 21.5q36 0 51.5 -17t15.5 -40q0 -40 -27 -62.5t-62 -22.5t-49.5 17.5t-14.5 41.5z" />
<glyph unicode="&#xa9;" horiz-adv-x="794" d="M58 350q0 76 27.5 142.5t76 116t115.5 78t145 28.5t145 -28.5t115.5 -78t76 -116t27.5 -142.5t-27.5 -142.5t-76 -116t-115.5 -78t-145 -28.5t-144.5 28.5t-115.5 78t-76.5 116t-27.5 142.5zM123 350q0 -64 21.5 -120t61 -97.5t94.5 -65.5t122 -24t122.5 24t95 65.5 t61 97.5t21.5 120t-21.5 120t-61 97.5t-95 65.5t-122.5 24q-68 0 -123 -24t-94 -65.5t-60.5 -97.5t-21.5 -120zM222 349q0 49 12.5 92t37.5 74t62.5 49t88.5 18q43 0 76 -13t56 -34.5t37 -49.5t19 -57q-14 -8 -36 -10.5t-45 -2.5h-13t-12 1q-2 18 -7 36t-14 32.5t-24 24 t-36 9.5q-46 0 -68 -44t-22 -125t22.5 -123.5t68.5 -42.5q39 0 55.5 28.5t22.5 68.5q7 1 15 1.5t17 0.5q20 0 40.5 -3t35.5 -10q-6 -31 -20 -58t-37 -47.5t-55 -32t-74 -11.5q-50 0 -87.5 17t-63.5 48t-39 72.5t-13 91.5z" />
<glyph unicode="&#xab;" horiz-adv-x="630" d="M59 257l5 19l218 213h121l-213 -223l117 -223h-121zM290 257l5 19l218 213h121l-213 -223l117 -223h-121z" />
<glyph unicode="&#xad;" horiz-adv-x="387" d="M53 238l26 121h291l-25 -121h-292z" />
<glyph unicode="&#xae;" horiz-adv-x="532" d="M92 529q0 49 17 92t47.5 75t73.5 50.5t94 18.5t94 -18.5t74 -50.5t48.5 -75t17.5 -92t-17.5 -91.5t-48.5 -74.5t-74 -50.5t-94 -18.5t-94 18.5t-73.5 50.5t-47.5 74.5t-17 91.5zM146 529q0 -40 12 -74.5t35 -59.5t56 -39t75 -14t75 14t56.5 39t35.5 59.5t12 74.5 t-12 74.5t-35.5 59.5t-56.5 39.5t-75 14.5t-75 -14.5t-56 -39.5t-35 -59.5t-12 -74.5zM232 403v261h81q60 0 86.5 -20t26.5 -58q0 -29 -17 -46.5t-49 -25.5q11 -2 20.5 -12t20.5 -31l31 -64v-4h-71l-23 59q-8 23 -17 31t-26 9v-99h-63zM295 542h17q20 0 34.5 7.5t14.5 32.5 t-14.5 32t-34.5 7h-17v-79z" />
<glyph unicode="&#xaf;" horiz-adv-x="427" d="M142 609l20 95h311l-21 -95h-310z" />
<glyph unicode="&#xb0;" horiz-adv-x="336" d="M108 579q0 30 10.5 55t28.5 42.5t42.5 27.5t53.5 10t53.5 -10t42.5 -27.5t28.5 -42.5t10.5 -55t-10.5 -54.5t-28.5 -42t-42.5 -27.5t-53.5 -10t-53.5 10t-42.5 27.5t-28.5 42t-10.5 54.5zM173 579q0 -32 18.5 -53t51.5 -21t51.5 21t18.5 53q0 33 -18.5 53.5t-51.5 20.5 t-51.5 -20.5t-18.5 -53.5z" />
<glyph unicode="&#xb1;" d="M64 20v107h502v-107h-502zM64 336v106h196v165h110v-165h196v-106h-196v-165h-110v165h-196z" />
<glyph unicode="&#xb2;" horiz-adv-x="406" d="M88 459l15 68q30 18 75 45.5t86.5 60.5t71 70.5t29.5 77.5q0 16 -9 25t-30 9q-17 0 -28.5 -7t-20 -18t-14.5 -24.5t-11 -26.5q-14 0 -29.5 2t-29.5 4.5t-25.5 6t-17.5 7.5q7 21 21.5 42t37.5 38t55 27.5t75 10.5q73 0 106 -28.5t33 -73.5q0 -41 -21.5 -75t-55.5 -62 t-77.5 -51t-86.5 -44v-2h196l-18 -82h-327z" />
<glyph unicode="&#xb3;" horiz-adv-x="388" d="M100 535q7 5 19.5 9.5t27 8.5t28.5 6.5t25 3.5q1 -19 9.5 -36t37.5 -17q33 0 51.5 20.5t18.5 54.5q0 26 -18 39t-64 13h-21l13 59h21q53 0 77 23t24 62q0 15 -8 24.5t-31 9.5q-28 0 -42 -16t-22 -35q-12 1 -26 3t-27 5t-23.5 7t-15.5 8q15 38 58 64t115 26t105.5 -25 t33.5 -66q0 -27 -9.5 -46.5t-24.5 -32.5t-34.5 -21t-39.5 -12l-1 -3q31 -6 53.5 -25.5t22.5 -57.5q0 -68 -52.5 -103t-136.5 -35q-39 0 -66 8t-44 20t-25 27t-9 30z" />
<glyph unicode="&#xb4;" horiz-adv-x="328" d="M134 582l91 146h157l-147 -146h-101z" />
<glyph unicode="&#xb7;" horiz-adv-x="306" d="M85 283q0 44 28.5 68.5t66.5 24.5q39 0 56 -20.5t17 -44.5q0 -44 -27.5 -70t-68.5 -26q-38 0 -55 21t-17 47z" />
<glyph unicode="&#xb8;" horiz-adv-x="313" d="M-34 -207l22 48q8 -5 22.5 -10.5t35.5 -5.5q46 0 46 42q0 23 -21.5 30.5t-48.5 12.5l48 94h63l-30 -57q14 -3 28 -7t25.5 -12t19 -20.5t7.5 -31.5q0 -26 -9.5 -45.5t-26 -32.5t-38.5 -19t-47 -6q-44 0 -67.5 8t-28.5 12z" />
<glyph unicode="&#xb9;" horiz-adv-x="360" d="M109 459l12 59h78l56 265l-80 -12l13 62q6 1 21.5 5.5t33.5 9.5t36.5 10.5t31.5 9.5h79l-74 -350h66l-13 -59h-260z" />
<glyph unicode="&#xbb;" horiz-adv-x="630" d="M14 43l213 223l-118 223h121l127 -213l-4 -19l-218 -214h-121zM245 43l213 223l-118 223h121l127 -213l-4 -19l-218 -214h-121z" />
<glyph unicode="&#xbc;" horiz-adv-x="940" d="M76 267l12 59h78l56 265l-80 -12l13 62q6 1 21.5 5.5t33.5 9.5t36.5 10.5t31.5 9.5h79l-74 -350h66l-13 -59h-260zM184 0l2 10l578 690h98l-1 -10l-580 -690h-97zM519 91l15 71l233 247h121l-52 -246h47l-15 -72h-47l-19 -91h-116l19 91h-186zM612 163h113l34 156h-3z " />
<glyph unicode="&#xbd;" horiz-adv-x="1002" d="M77 268l12 59h78l56 265l-80 -12l13 62q6 1 21.5 5.5t33.5 9.5t36.5 10.5t31.5 9.5h79l-74 -350h66l-13 -59h-260zM184 0l2 10l578 690h98l-1 -10l-580 -690h-97zM567 1l15 68q30 18 75 45.5t86.5 60.5t71 70.5t29.5 77.5q0 16 -9 25t-30 9q-17 0 -28.5 -7t-20 -18 t-14.5 -24.5t-11 -26.5q-14 0 -29.5 2t-29.5 4.5t-25.5 6t-17.5 7.5q7 21 21.5 42t37.5 38t55 27.5t75 10.5q73 0 106 -28.5t33 -73.5q0 -41 -21.5 -75t-55.5 -62t-77.5 -51t-86.5 -44v-2h196l-18 -82h-327z" />
<glyph unicode="&#xbe;" horiz-adv-x="970" d="M81 343q7 5 19.5 9.5t27 8.5t28.5 6.5t25 3.5q1 -19 9.5 -36t37.5 -17q33 0 51.5 20.5t18.5 54.5q0 26 -18 39t-64 13h-21l13 59h21q53 0 77 23t24 62q0 15 -8 24.5t-31 9.5q-28 0 -42 -16t-22 -35q-12 1 -26 3t-27 5t-23.5 7t-15.5 8q15 38 58 64t115 26t105.5 -25 t33.5 -66q0 -27 -9.5 -46.5t-24.5 -32.5t-34.5 -21t-39.5 -12l-1 -3q31 -6 53.5 -25.5t22.5 -57.5q0 -68 -52.5 -103t-136.5 -35q-39 0 -66 8t-44 20t-25 27t-9 30zM210 0l2 10l578 690h98l-1 -10l-580 -690h-97zM543 91l15 71l233 247h121l-52 -246h47l-15 -72h-47l-19 -91 h-116l19 91h-186zM636 163h113l34 156h-3z" />
<glyph unicode="&#xbf;" horiz-adv-x="503" d="M-17 -34q0 51 17.5 86.5t44.5 61.5t59.5 46t62.5 39.5t53.5 42t32.5 52.5l7 21h126l-7 -33q-10 -47 -31.5 -77t-48 -51t-54.5 -37.5t-51 -35.5t-38 -45.5t-15 -68.5q0 -29 14.5 -46.5t50.5 -17.5q24 0 41.5 8.5t29.5 22t19.5 29t11.5 29.5q22 -1 43 -4t38.5 -8t30 -11 t18.5 -13q-6 -20 -22.5 -46t-45.5 -49.5t-72 -39.5t-104 -16q-57 0 -97 12.5t-65.5 34t-37 51t-11.5 63.5zM268 432q0 44 27.5 70t68.5 26q38 0 55 -21t17 -47q0 -44 -28.5 -68.5t-66.5 -24.5q-39 0 -56 20.5t-17 44.5z" />
<glyph unicode="&#xc0;" horiz-adv-x="651" d="M-30 0v9l362 691h193l65 -700h-168l-13 169h-213l-84 -169h-142zM247 273h155q-3 47 -6 91t-4.5 80t-2.5 63.5t-1 41.5v17h-5q-5 -12 -14.5 -34t-22.5 -50.5t-28 -61.5t-32 -67zM310 880h159l30 -129h-102z" />
<glyph unicode="&#xc1;" horiz-adv-x="651" d="M-30 0v9l362 691h193l65 -700h-168l-13 169h-213l-84 -169h-142zM247 273h155q-3 47 -6 91t-4.5 80t-2.5 63.5t-1 41.5v17h-5q-5 -12 -14.5 -34t-22.5 -50.5t-28 -61.5t-32 -67zM381 751l86 129h159l-142 -129h-103z" />
<glyph unicode="&#xc2;" horiz-adv-x="651" d="M-30 0v9l362 691h193l65 -700h-168l-13 169h-213l-84 -169h-142zM247 273h155q-3 47 -6 91t-4.5 80t-2.5 63.5t-1 41.5v17h-5q-5 -12 -14.5 -34t-22.5 -50.5t-28 -61.5t-32 -67zM280 752l109 128h158l55 -128h-88l-57 72h-2l-87 -72h-88z" />
<glyph unicode="&#xc3;" horiz-adv-x="651" d="M-30 0v9l362 691h193l65 -700h-168l-13 169h-213l-84 -169h-142zM247 273h155q-3 47 -6 91t-4.5 80t-2.5 63.5t-1 41.5v17h-5q-5 -12 -14.5 -34t-22.5 -50.5t-28 -61.5t-32 -67zM265 748q31 72 67 101.5t79 29.5q23 0 38.5 -8t28 -18t24.5 -18t28 -8q18 0 31.5 11.5 t28.5 37.5h61q-17 -37 -33 -62t-32.5 -40t-34 -21.5t-37.5 -6.5q-26 0 -42 8t-29 17.5t-24.5 17.5t-28.5 8q-20 0 -36 -15t-28 -34h-61z" />
<glyph unicode="&#xc4;" horiz-adv-x="651" d="M-30 0v9l362 691h193l65 -700h-168l-13 169h-213l-84 -169h-142zM247 273h155q-3 47 -6 91t-4.5 80t-2.5 63.5t-1 41.5v17h-5q-5 -12 -14.5 -34t-22.5 -50.5t-28 -61.5t-32 -67zM264 797q0 40 26.5 61.5t60.5 21.5q35 0 50.5 -17t15.5 -40q0 -40 -26.5 -62.5t-63.5 -22.5 q-34 0 -48.5 17.5t-14.5 41.5zM479 797q0 40 26.5 61.5t61.5 21.5t50 -17t15 -40q0 -40 -26.5 -62.5t-62.5 -22.5q-34 0 -49 17.5t-15 41.5z" />
<glyph unicode="&#xc5;" horiz-adv-x="651" d="M-30 0v9l362 691h193l65 -700h-168l-13 169h-213l-84 -169h-142zM247 273h155q-3 47 -6 91t-4.5 80t-2.5 63.5t-1 41.5v17h-5q-5 -12 -14.5 -34t-22.5 -50.5t-28 -61.5t-32 -67zM337 816q0 27 9.5 52t27.5 43t43 28.5t56 10.5q52 0 78 -25t26 -66q0 -62 -39 -97.5 t-98 -35.5q-48 0 -75.5 24.5t-27.5 65.5zM406 820q0 -18 9 -29t30 -11q28 0 44.5 22t16.5 55q0 18 -9 28.5t-29 10.5q-29 0 -45.5 -23t-16.5 -53z" />
<glyph unicode="&#xc6;" horiz-adv-x="870" d="M-29 0l2 9l442 691h508l-22 -104h-260l-40 -185h234q0 -9 -2 -23.5t-5 -29.5t-7 -29t-8 -23h-234l-43 -202h274l-22 -104h-436l35 169h-170l-104 -169h-142zM281 273h128l69 323h-5q-12 -24 -44.5 -79t-81.5 -136z" />
<glyph unicode="&#xc7;" horiz-adv-x="657" d="M61 245q0 20 3 47.5t9 58.5q16 80 47.5 147t79 115t110 75t141.5 27q60 0 103 -15t71 -42t41 -64.5t13 -82.5v-17q-11 -6 -26 -9.5t-32 -5.5t-34.5 -3t-33.5 -1h-16.5t-14.5 1q0 7 0.5 13.5t0.5 13.5q0 57 -18.5 86.5t-67.5 29.5q-68 0 -113 -68t-73 -200q-9 -43 -13 -79 t-4 -65q0 -62 20 -94t68 -32q53 0 89 40t62 114q6 1 14 1h18q16 0 34.5 -1t36.5 -2.5t32.5 -5t23.5 -7.5q-16 -53 -42.5 -96t-65.5 -73.5t-91.5 -47.5t-119.5 -18l-20 -38q14 -3 28 -7t25.5 -12t19 -20.5t7.5 -31.5q0 -26 -10.5 -45.5t-27.5 -32.5t-39.5 -19t-46.5 -6 q-41 0 -62.5 8.5t-31.5 9.5l23 50q8 -5 22 -10.5t32 -5.5q50 0 50 42q0 23 -21.5 30.5t-48.5 12.5l40 79q-99 15 -145 82t-46 174z" />
<glyph unicode="&#xc8;" horiz-adv-x="540" d="M23 0l148 700h423l-22 -104h-260l-40 -185h234v-5q0 -10 -2 -24t-5 -28t-7 -27t-8 -21h-234l-43 -202h274l-22 -104h-436zM275 880h159l30 -129h-102z" />
<glyph unicode="&#xc9;" horiz-adv-x="540" d="M23 0l148 700h423l-22 -104h-260l-40 -185h234v-5q0 -10 -2 -24t-5 -28t-7 -27t-8 -21h-234l-43 -202h274l-22 -104h-436zM332 751l86 129h159l-142 -129h-103z" />
<glyph unicode="&#xca;" horiz-adv-x="540" d="M23 0l148 700h423l-22 -104h-260l-40 -185h234v-5q0 -10 -2 -24t-5 -28t-7 -27t-8 -21h-234l-43 -202h274l-22 -104h-436zM237 752l109 128h158l55 -128h-88l-57 72h-2l-87 -72h-88z" />
<glyph unicode="&#xcb;" horiz-adv-x="540" d="M23 0l148 700h423l-22 -104h-260l-40 -185h234v-5q0 -10 -2 -24t-5 -28t-7 -27t-8 -21h-234l-43 -202h274l-22 -104h-436zM221 797q0 40 26.5 61.5t60.5 21.5q35 0 50.5 -17t15.5 -40q0 -40 -26.5 -62.5t-63.5 -22.5q-34 0 -48.5 17.5t-14.5 41.5zM436 797 q0 40 26.5 61.5t61.5 21.5t50 -17t15 -40q0 -40 -26.5 -62.5t-62.5 -22.5q-34 0 -49 17.5t-15 41.5z" />
<glyph unicode="&#xcc;" horiz-adv-x="298" d="M23 0l148 700h163l-148 -700h-163zM137 880h159l30 -129h-102z" />
<glyph unicode="&#xcd;" horiz-adv-x="298" d="M23 0l148 700h163l-148 -700h-163zM199 751l86 129h159l-142 -129h-103z" />
<glyph unicode="&#xce;" horiz-adv-x="298" d="M23 0l148 700h163l-148 -700h-163zM108 752l109 128h158l55 -128h-88l-57 72h-2l-87 -72h-88z" />
<glyph unicode="&#xcf;" horiz-adv-x="298" d="M23 0l148 700h163l-148 -700h-163zM91 797q0 40 26.5 61.5t60.5 21.5q35 0 50.5 -17t15.5 -40q0 -40 -26.5 -62.5t-63.5 -22.5q-34 0 -48.5 17.5t-14.5 41.5zM306 797q0 40 26.5 61.5t61.5 21.5t50 -17t15 -40q0 -40 -26.5 -62.5t-62.5 -22.5q-34 0 -49 17.5t-15 41.5z " />
<glyph unicode="&#xd0;" horiz-adv-x="693" d="M43 305l20 96h67l63 299h219q145 0 211.5 -62.5t66.5 -174.5q0 -26 -3 -54t-10 -58q-17 -81 -50 -146t-83.5 -110.5t-119.5 -70t-159 -24.5h-220l64 305h-66zM227 95h53q86 0 138 59.5t81 196.5q8 36 12 66.5t4 55.5q0 71 -31.5 101.5t-94.5 30.5h-54l-43 -204h124 l-21 -96h-124z" />
<glyph unicode="&#xd1;" horiz-adv-x="721" d="M23 0l148 700h198l77 -249q35 -115 50.5 -186.5t20.5 -101.5h4q1 15 4.5 41.5t8.5 59.5t11.5 69t14.5 71l62 296h134l-148 -700h-185l-81 257q-15 47 -27 92t-21.5 84t-16 69.5t-8.5 47.5h-4q-2 -14 -6 -38.5t-9 -55.5t-12 -66.5t-14 -71.5l-67 -318h-134zM318 748 q31 72 67 101.5t79 29.5q23 0 38.5 -8t28 -18t24.5 -18t28 -8q18 0 31.5 11.5t28.5 37.5h61q-17 -37 -33 -62t-32.5 -40t-34 -21.5t-37.5 -6.5q-26 0 -42 8t-29 17.5t-24.5 17.5t-28.5 8q-20 0 -36 -15t-28 -34h-61z" />
<glyph unicode="&#xd2;" horiz-adv-x="702" d="M61 234q0 54 12 117q16 81 48 148t79 115t110 74.5t142 26.5q64 0 110.5 -17.5t77 -50t45 -78.5t14.5 -103q0 -54 -12 -115q-16 -81 -46.5 -148.5t-77.5 -116t-110.5 -75t-144.5 -26.5q-64 0 -110.5 17.5t-77 50t-45 78.5t-14.5 103zM232 203q0 -61 21 -91.5t69 -30.5 q68 0 113.5 68.5t73.5 201.5q9 45 14 82t5 66q0 60 -21.5 90t-69.5 30q-68 0 -113 -68t-73 -200q-9 -45 -14 -81.5t-5 -66.5zM346 880h159l30 -129h-102z" />
<glyph unicode="&#xd3;" horiz-adv-x="702" d="M61 234q0 54 12 117q16 81 48 148t79 115t110 74.5t142 26.5q64 0 110.5 -17.5t77 -50t45 -78.5t14.5 -103q0 -54 -12 -115q-16 -81 -46.5 -148.5t-77.5 -116t-110.5 -75t-144.5 -26.5q-64 0 -110.5 17.5t-77 50t-45 78.5t-14.5 103zM232 203q0 -61 21 -91.5t69 -30.5 q68 0 113.5 68.5t73.5 201.5q9 45 14 82t5 66q0 60 -21.5 90t-69.5 30q-68 0 -113 -68t-73 -200q-9 -45 -14 -81.5t-5 -66.5zM410 751l86 129h159l-142 -129h-103z" />
<glyph unicode="&#xd4;" horiz-adv-x="702" d="M61 234q0 54 12 117q16 81 48 148t79 115t110 74.5t142 26.5q64 0 110.5 -17.5t77 -50t45 -78.5t14.5 -103q0 -54 -12 -115q-16 -81 -46.5 -148.5t-77.5 -116t-110.5 -75t-144.5 -26.5q-64 0 -110.5 17.5t-77 50t-45 78.5t-14.5 103zM232 203q0 -61 21 -91.5t69 -30.5 q68 0 113.5 68.5t73.5 201.5q9 45 14 82t5 66q0 60 -21.5 90t-69.5 30q-68 0 -113 -68t-73 -200q-9 -45 -14 -81.5t-5 -66.5zM308 752l109 128h158l55 -128h-88l-57 72h-2l-87 -72h-88z" />
<glyph unicode="&#xd5;" horiz-adv-x="702" d="M61 234q0 54 12 117q16 81 48 148t79 115t110 74.5t142 26.5q64 0 110.5 -17.5t77 -50t45 -78.5t14.5 -103q0 -54 -12 -115q-16 -81 -46.5 -148.5t-77.5 -116t-110.5 -75t-144.5 -26.5q-64 0 -110.5 17.5t-77 50t-45 78.5t-14.5 103zM232 203q0 -61 21 -91.5t69 -30.5 q68 0 113.5 68.5t73.5 201.5q9 45 14 82t5 66q0 60 -21.5 90t-69.5 30q-68 0 -113 -68t-73 -200q-9 -45 -14 -81.5t-5 -66.5zM293 748q31 72 67 101.5t79 29.5q23 0 38.5 -8t28 -18t24.5 -18t28 -8q18 0 31.5 11.5t28.5 37.5h61q-17 -37 -33 -62t-32.5 -40t-34 -21.5 t-37.5 -6.5q-26 0 -42 8t-29 17.5t-24.5 17.5t-28.5 8q-20 0 -36 -15t-28 -34h-61z" />
<glyph unicode="&#xd6;" horiz-adv-x="702" d="M61 234q0 54 12 117q16 81 48 148t79 115t110 74.5t142 26.5q64 0 110.5 -17.5t77 -50t45 -78.5t14.5 -103q0 -54 -12 -115q-16 -81 -46.5 -148.5t-77.5 -116t-110.5 -75t-144.5 -26.5q-64 0 -110.5 17.5t-77 50t-45 78.5t-14.5 103zM232 203q0 -61 21 -91.5t69 -30.5 q68 0 113.5 68.5t73.5 201.5q9 45 14 82t5 66q0 60 -21.5 90t-69.5 30q-68 0 -113 -68t-73 -200q-9 -45 -14 -81.5t-5 -66.5zM298 797q0 40 26.5 61.5t60.5 21.5q35 0 50.5 -17t15.5 -40q0 -40 -26.5 -62.5t-63.5 -22.5q-34 0 -48.5 17.5t-14.5 41.5zM513 797 q0 40 26.5 61.5t61.5 21.5t50 -17t15 -40q0 -40 -26.5 -62.5t-62.5 -22.5q-34 0 -49 17.5t-15 41.5z" />
<glyph unicode="&#xd7;" d="M65 469l78 77l172 -171l170 170l75 -75l-170 -170l172 -172l-78 -78l-172 172l-170 -170l-75 75l170 170z" />
<glyph unicode="&#xd8;" horiz-adv-x="702" d="M31 2l68 77q-20 30 -29 69t-9 86q0 54 12 117q16 81 48 148t79 115t110 74.5t142 26.5q54 0 96 -13t72 -37l51 58l57 -42l-62 -70q33 -59 33 -145q0 -54 -12 -115q-16 -81 -46.5 -148.5t-77.5 -116t-110.5 -75t-144.5 -26.5q-52 0 -92.5 11.5t-69.5 33.5l-59 -66z M233 229l289 326q-17 64 -85 64t-113 -68t-73 -200q-15 -70 -18 -122zM241 136q18 -55 81 -55q68 0 114 68t74 202q6 29 10 55t6 49z" />
<glyph unicode="&#xd9;" horiz-adv-x="664" d="M67 179q0 24 3.5 51t9.5 57l87 413h163l-90 -423q-9 -44 -9 -74q0 -54 25 -76t73 -22q53 0 91.5 35.5t58.5 125.5l92 434h134l-92 -431q-15 -68 -37 -121t-57 -89t-86.5 -55t-124.5 -19q-129 0 -185 49.5t-56 144.5zM328 880h159l30 -129h-102z" />
<glyph unicode="&#xda;" horiz-adv-x="664" d="M67 179q0 24 3.5 51t9.5 57l87 413h163l-90 -423q-9 -44 -9 -74q0 -54 25 -76t73 -22q53 0 91.5 35.5t58.5 125.5l92 434h134l-92 -431q-15 -68 -37 -121t-57 -89t-86.5 -55t-124.5 -19q-129 0 -185 49.5t-56 144.5zM407 751l86 129h159l-142 -129h-103z" />
<glyph unicode="&#xdb;" horiz-adv-x="664" d="M67 179q0 24 3.5 51t9.5 57l87 413h163l-90 -423q-9 -44 -9 -74q0 -54 25 -76t73 -22q53 0 91.5 35.5t58.5 125.5l92 434h134l-92 -431q-15 -68 -37 -121t-57 -89t-86.5 -55t-124.5 -19q-129 0 -185 49.5t-56 144.5zM301 752l109 128h158l55 -128h-88l-57 72h-2l-87 -72 h-88z" />
<glyph unicode="&#xdc;" horiz-adv-x="664" d="M67 179q0 24 3.5 51t9.5 57l87 413h163l-90 -423q-9 -44 -9 -74q0 -54 25 -76t73 -22q53 0 91.5 35.5t58.5 125.5l92 434h134l-92 -431q-15 -68 -37 -121t-57 -89t-86.5 -55t-124.5 -19q-129 0 -185 49.5t-56 144.5zM288 797q0 40 26.5 61.5t60.5 21.5q35 0 50.5 -17 t15.5 -40q0 -40 -26.5 -62.5t-63.5 -22.5q-34 0 -48.5 17.5t-14.5 41.5zM503 797q0 40 26.5 61.5t61.5 21.5t50 -17t15 -40q0 -40 -26.5 -62.5t-62.5 -22.5q-34 0 -49 17.5t-15 41.5z" />
<glyph unicode="&#xdd;" horiz-adv-x="609" d="M115 691v9h169l69 -302h4l200 302h143v-9l-306 -437l-53 -254h-163l53 252zM370 751l86 129h159l-142 -129h-103z" />
<glyph unicode="&#xde;" horiz-adv-x="611" d="M23 0l148 700h163l-25 -117h34q139 0 199 -46.5t60 -131.5q0 -124 -81 -194t-246 -70h-59l-30 -141h-163zM236 239h30q35 0 65.5 7t53.5 25t36 49.5t13 80.5q0 52 -29 69.5t-84 17.5h-32z" />
<glyph unicode="&#xdf;" horiz-adv-x="588" d="M12 0l100 472q26 126 96 182.5t184 56.5q54 0 93 -12t65 -33.5t38.5 -50.5t12.5 -62q0 -39 -13 -70t-34.5 -54t-49 -38t-56.5 -23l-1 -4q22 -5 42 -14.5t36 -26.5t25.5 -42t9.5 -59q0 -57 -19 -100t-53 -72t-81 -43.5t-102 -14.5q-35 0 -62 3.5t-41 8.5l19 88 q8 -4 23 -6.5t32 -2.5q63 0 96 36.5t33 105.5q0 45 -24 68t-84 23h-12l20 93h12q36 0 61.5 11t42 30t24 45t7.5 55q0 33 -16 52t-54 19q-48 0 -73.5 -32t-41.5 -107l-102 -482h-153z" />
<glyph unicode="&#xe0;" horiz-adv-x="561" d="M36 153q0 48 12 107q13 60 34 110t51.5 86t70 56t89.5 20q45 0 74 -17.5t46 -44.5l11 50h145l-77 -361q-7 -32 -12 -66t-5 -58q0 -13 1 -18l-138 -29q-7 12 -11 27t-4 35q-28 -28 -63.5 -45.5t-82.5 -17.5q-74 0 -107.5 44.5t-33.5 121.5zM199 156q0 -39 14.5 -55.5 t46.5 -16.5q35 0 69 26l64 304q-11 11 -25.5 16.5t-30.5 5.5q-48 0 -76 -40t-48 -136q-14 -68 -14 -104zM240 728h158l29 -146h-102z" />
<glyph unicode="&#xe1;" horiz-adv-x="561" d="M36 153q0 48 12 107q13 60 34 110t51.5 86t70 56t89.5 20q45 0 74 -17.5t46 -44.5l11 50h145l-77 -361q-7 -32 -12 -66t-5 -58q0 -13 1 -18l-138 -29q-7 12 -11 27t-4 35q-28 -28 -63.5 -45.5t-82.5 -17.5q-74 0 -107.5 44.5t-33.5 121.5zM199 156q0 -39 14.5 -55.5 t46.5 -16.5q35 0 69 26l64 304q-11 11 -25.5 16.5t-30.5 5.5q-48 0 -76 -40t-48 -136q-14 -68 -14 -104zM292 582l91 146h157l-147 -146h-101z" />
<glyph unicode="&#xe2;" horiz-adv-x="561" d="M36 153q0 48 12 107q13 60 34 110t51.5 86t70 56t89.5 20q45 0 74 -17.5t46 -44.5l11 50h145l-77 -361q-7 -32 -12 -66t-5 -58q0 -13 1 -18l-138 -29q-7 12 -11 27t-4 35q-28 -28 -63.5 -45.5t-82.5 -17.5q-74 0 -107.5 44.5t-33.5 121.5zM199 156q0 -39 14.5 -55.5 t46.5 -16.5q35 0 69 26l64 304q-11 11 -25.5 16.5t-30.5 5.5q-48 0 -76 -40t-48 -136q-14 -68 -14 -104zM199 582l111 146h158l47 -146h-89l-48 91h-2l-88 -91h-89z" />
<glyph unicode="&#xe3;" horiz-adv-x="561" d="M36 153q0 48 12 107q13 60 34 110t51.5 86t70 56t89.5 20q45 0 74 -17.5t46 -44.5l11 50h145l-77 -361q-7 -32 -12 -66t-5 -58q0 -13 1 -18l-138 -29q-7 12 -11 27t-4 35q-28 -28 -63.5 -45.5t-82.5 -17.5q-74 0 -107.5 44.5t-33.5 121.5zM185 590q31 72 67 101.5 t79 29.5q23 0 38.5 -8t28 -18t24.5 -18t28 -8q18 0 31.5 11.5t28.5 37.5h61q-33 -74 -66.5 -102t-70.5 -28q-26 0 -42 8t-29 17.5t-24.5 17.5t-28.5 8q-20 0 -36 -15t-28 -34h-61zM199 156q0 -39 14.5 -55.5t46.5 -16.5q35 0 69 26l64 304q-11 11 -25.5 16.5t-30.5 5.5 q-48 0 -76 -40t-48 -136q-14 -68 -14 -104z" />
<glyph unicode="&#xe4;" horiz-adv-x="561" d="M36 153q0 48 12 107q13 60 34 110t51.5 86t70 56t89.5 20q45 0 74 -17.5t46 -44.5l11 50h145l-77 -361q-7 -32 -12 -66t-5 -58q0 -13 1 -18l-138 -29q-7 12 -11 27t-4 35q-28 -28 -63.5 -45.5t-82.5 -17.5q-74 0 -107.5 44.5t-33.5 121.5zM199 156q0 -39 14.5 -55.5 t46.5 -16.5q35 0 69 26l64 304q-11 11 -25.5 16.5t-30.5 5.5q-48 0 -76 -40t-48 -136q-14 -68 -14 -104zM207 640q0 40 26.5 61.5t60.5 21.5q36 0 51 -17t15 -40q0 -40 -26 -62.5t-62 -22.5q-35 0 -50 17.5t-15 41.5zM414 640q0 40 26 61.5t60 21.5q36 0 51.5 -17t15.5 -40 q0 -40 -27 -62.5t-62 -22.5t-49.5 17.5t-14.5 41.5z" />
<glyph unicode="&#xe5;" horiz-adv-x="561" d="M36 153q0 48 12 107q13 60 34 110t51.5 86t70 56t89.5 20q45 0 74 -17.5t46 -44.5l11 50h145l-77 -361q-7 -32 -12 -66t-5 -58q0 -13 1 -18l-138 -29q-7 12 -11 27t-4 35q-28 -28 -63.5 -45.5t-82.5 -17.5q-74 0 -107.5 44.5t-33.5 121.5zM199 156q0 -39 14.5 -55.5 t46.5 -16.5q35 0 69 26l64 304q-11 11 -25.5 16.5t-30.5 5.5q-48 0 -76 -40t-48 -136q-14 -68 -14 -104zM265 661q0 27 9.5 52t27.5 43t43 28.5t56 10.5q52 0 78 -25t26 -66q0 -62 -39 -97.5t-98 -35.5q-48 0 -75.5 24.5t-27.5 65.5zM334 665q0 -18 9 -29t30 -11 q28 0 44.5 22t16.5 55q0 18 -9 28.5t-29 10.5q-29 0 -45.5 -23t-16.5 -53z" />
<glyph unicode="&#xe6;" horiz-adv-x="837" d="M19 123q0 49 19.5 84.5t52.5 58t76.5 33t90.5 10.5q28 0 49.5 -2t36.5 -5l10 49q5 20 6.5 32t1.5 20q0 23 -11.5 34.5t-42.5 11.5q-20 0 -36 -7.5t-27.5 -19.5t-19.5 -25.5t-12 -25.5q-19 0 -39.5 2.5t-39 7t-32 10.5t-19.5 12q25 64 89.5 97.5t149.5 33.5q56 0 92 -12.5 t57 -33.5q69 46 156 46q53 0 91 -13t62 -37t35.5 -57t11.5 -72q0 -27 -5.5 -59t-16.5 -63h-311q-4 -24 -6 -43.5t-2 -36.5q0 -44 15.5 -64t46.5 -20q22 0 37.5 9t26.5 22.5t17.5 27.5t10.5 25h11q16 0 36.5 -1t39.5 -3t34.5 -5t23.5 -7q-32 -72 -88.5 -111.5t-156.5 -39.5 q-124 0 -173 71q-14 -13 -32.5 -25.5t-41 -22.5t-50.5 -16t-61 -6q-82 0 -122.5 36t-40.5 100zM171 137q0 -36 20.5 -50.5t51.5 -14.5q32 0 57 12t42 29q-5 15 -7.5 34t-2.5 46q0 8 0.5 20t1.5 22q-10 2 -21.5 3.5t-26.5 1.5q-22 0 -42.5 -5t-36.5 -17t-26 -32t-10 -49z M511 311h161q9 42 9 72q0 35 -13.5 52t-43.5 17q-38 0 -65.5 -32.5t-47.5 -108.5z" />
<glyph unicode="&#xe7;" horiz-adv-x="536" d="M41 189q0 30 4 58.5t11 54.5q27 107 97 169.5t182 62.5q104 0 154 -43.5t50 -115.5q0 -5 -0.5 -8.5t-0.5 -8.5q-7 -3 -19.5 -5.5t-27 -4t-30.5 -2.5t-30 -1q-12 0 -22 0.5t-17 1.5q1 8 1.5 16t0.5 16q0 30 -11 51t-43 21q-50 0 -78 -48.5t-50 -142.5q-7 -29 -10.5 -58 t-3.5 -50q0 -42 14.5 -62.5t46.5 -20.5q38 0 60 29t37 72q5 1 12.5 1h16.5q15 0 33 -1t34.5 -3t30 -4.5t20.5 -6.5q-26 -81 -88.5 -124.5t-154.5 -45.5l-20 -39q14 -3 28 -7t25.5 -12t19 -20.5t7.5 -31.5q0 -26 -10.5 -45.5t-27.5 -32.5t-39.5 -19t-46.5 -6q-41 0 -62.5 8.5 t-31.5 9.5l23 50q8 -5 22 -10.5t32 -5.5q50 0 50 42q0 23 -21.5 30.5t-48.5 12.5l41 81q-84 13 -121.5 66t-37.5 132z" />
<glyph unicode="&#xe8;" horiz-adv-x="547" d="M42 185q0 82 22.5 147t61.5 110t93 68.5t117 23.5q54 0 92 -13t62 -37t35.5 -57t11.5 -72q0 -27 -5.5 -61.5t-16.5 -60.5h-310q-9 -48 -9 -79q0 -85 63 -85q22 0 37 9t25.5 22.5t17 27.5t10.5 25h18q14 0 32.5 -1t36.5 -2.5t34 -5t25 -7.5q-32 -75 -90.5 -113t-153.5 -38 q-110 0 -159.5 53.5t-49.5 145.5zM221 311h161q5 21 7 40.5t2 31.5q0 35 -12.5 52t-44.5 17q-37 0 -65 -32.5t-48 -108.5zM238 728h158l29 -146h-102z" />
<glyph unicode="&#xe9;" horiz-adv-x="547" d="M42 185q0 82 22.5 147t61.5 110t93 68.5t117 23.5q54 0 92 -13t62 -37t35.5 -57t11.5 -72q0 -27 -5.5 -61.5t-16.5 -60.5h-310q-9 -48 -9 -79q0 -85 63 -85q22 0 37 9t25.5 22.5t17 27.5t10.5 25h18q14 0 32.5 -1t36.5 -2.5t34 -5t25 -7.5q-32 -75 -90.5 -113t-153.5 -38 q-110 0 -159.5 53.5t-49.5 145.5zM221 311h161q5 21 7 40.5t2 31.5q0 35 -12.5 52t-44.5 17q-37 0 -65 -32.5t-48 -108.5zM310 582l91 146h157l-147 -146h-101z" />
<glyph unicode="&#xea;" horiz-adv-x="547" d="M42 185q0 82 22.5 147t61.5 110t93 68.5t117 23.5q54 0 92 -13t62 -37t35.5 -57t11.5 -72q0 -27 -5.5 -61.5t-16.5 -60.5h-310q-9 -48 -9 -79q0 -85 63 -85q22 0 37 9t25.5 22.5t17 27.5t10.5 25h18q14 0 32.5 -1t36.5 -2.5t34 -5t25 -7.5q-32 -75 -90.5 -113t-153.5 -38 q-110 0 -159.5 53.5t-49.5 145.5zM209 582l111 146h158l47 -146h-89l-48 91h-2l-88 -91h-89zM221 311h161q5 21 7 40.5t2 31.5q0 35 -12.5 52t-44.5 17q-37 0 -65 -32.5t-48 -108.5z" />
<glyph unicode="&#xeb;" horiz-adv-x="547" d="M42 185q0 82 22.5 147t61.5 110t93 68.5t117 23.5q54 0 92 -13t62 -37t35.5 -57t11.5 -72q0 -27 -5.5 -61.5t-16.5 -60.5h-310q-9 -48 -9 -79q0 -85 63 -85q22 0 37 9t25.5 22.5t17 27.5t10.5 25h18q14 0 32.5 -1t36.5 -2.5t34 -5t25 -7.5q-32 -75 -90.5 -113t-153.5 -38 q-110 0 -159.5 53.5t-49.5 145.5zM200 640q0 40 26.5 61.5t60.5 21.5q36 0 51 -17t15 -40q0 -40 -26 -62.5t-62 -22.5q-35 0 -50 17.5t-15 41.5zM221 311h161q5 21 7 40.5t2 31.5q0 35 -12.5 52t-44.5 17q-37 0 -65 -32.5t-48 -108.5zM407 640q0 40 26 61.5t60 21.5 q36 0 51.5 -17t15.5 -40q0 -40 -27 -62.5t-62 -22.5t-49.5 17.5t-14.5 41.5z" />
<glyph unicode="&#xec;" horiz-adv-x="267" d="M12 0l110 520h154l-110 -520h-154zM85 728h158l29 -146h-102z" />
<glyph unicode="&#xed;" horiz-adv-x="267" d="M12 0l110 520h154l-110 -520h-154zM149 582l91 146h157l-147 -146h-101z" />
<glyph unicode="&#xee;" horiz-adv-x="267" d="M12 0l110 520h154l-110 -520h-154zM57 582l111 146h158l47 -146h-89l-48 91h-2l-88 -91h-89z" />
<glyph unicode="&#xef;" horiz-adv-x="267" d="M12 0l110 520h154l-110 -520h-154zM50 640q0 40 26.5 61.5t60.5 21.5q36 0 51 -17t15 -40q0 -40 -26 -62.5t-62 -22.5q-35 0 -50 17.5t-15 41.5zM257 640q0 40 26 61.5t60 21.5q36 0 51.5 -17t15.5 -40q0 -40 -27 -62.5t-62 -22.5t-49.5 17.5t-14.5 41.5z" />
<glyph unicode="&#xf0;" horiz-adv-x="583" d="M37 170q0 70 21 128.5t58 99.5t87.5 64t109.5 23q42 0 74.5 -11t44.5 -26q-1 29 -6.5 58t-15.5 55l-152 -39l-6 60l132 34q-18 32 -40.5 57t-47.5 42h163q32 -26 56 -65l110 28v-61l-84 -22q25 -73 25 -167q0 -89 -19 -169t-58.5 -141t-100.5 -96.5t-146 -35.5 q-55 0 -94 13t-63.5 37t-36 58t-11.5 76zM194 139q0 -74 59 -74q52 0 83 49.5t51 143.5q5 23 7.5 42.5t2.5 35.5q0 38 -15.5 56.5t-50.5 18.5q-48 0 -77 -41.5t-47 -132.5q-6 -30 -9.5 -54.5t-3.5 -43.5z" />
<glyph unicode="&#xf1;" horiz-adv-x="566" d="M12 0l110 520h146l-13 -62q23 29 63.5 52.5t97.5 23.5q70 0 99 -35t29 -93q0 -17 -1.5 -34.5t-6.5 -37.5l-71 -334h-153l68 323q3 15 5 28.5t2 24.5q0 25 -12 39t-44 14q-26 0 -46.5 -8t-34.5 -20l-85 -401h-153zM187 590q31 72 67 101.5t79 29.5q23 0 38.5 -8t28 -18 t24.5 -18t28 -8q18 0 31.5 11.5t28.5 37.5h61q-33 -74 -66.5 -102t-70.5 -28q-26 0 -42 8t-29 17.5t-24.5 17.5t-28.5 8q-20 0 -36 -15t-28 -34h-61z" />
<glyph unicode="&#xf2;" horiz-adv-x="581" d="M40 192q0 17 2 34t5 34q11 61 34.5 111.5t60.5 86.5t87.5 56t115.5 20q109 0 162 -55.5t53 -149.5q0 -21 -2 -40.5t-6 -38.5q-24 -123 -100.5 -193.5t-194.5 -70.5q-59 0 -100 16t-67 44t-38 65.5t-12 80.5zM197 148q0 -41 14.5 -60t47.5 -19q51 0 80 45.5t50 145.5 q15 69 15 113q0 40 -14.5 59t-48.5 19q-48 0 -78 -45.5t-51 -145.5q-15 -69 -15 -112zM242 728h158l29 -146h-102z" />
<glyph unicode="&#xf3;" horiz-adv-x="581" d="M40 192q0 17 2 34t5 34q11 61 34.5 111.5t60.5 86.5t87.5 56t115.5 20q109 0 162 -55.5t53 -149.5q0 -21 -2 -40.5t-6 -38.5q-24 -123 -100.5 -193.5t-194.5 -70.5q-59 0 -100 16t-67 44t-38 65.5t-12 80.5zM197 148q0 -41 14.5 -60t47.5 -19q51 0 80 45.5t50 145.5 q15 69 15 113q0 40 -14.5 59t-48.5 19q-48 0 -78 -45.5t-51 -145.5q-15 -69 -15 -112zM317 582l91 146h157l-147 -146h-101z" />
<glyph unicode="&#xf4;" horiz-adv-x="581" d="M40 192q0 17 2 34t5 34q11 61 34.5 111.5t60.5 86.5t87.5 56t115.5 20q109 0 162 -55.5t53 -149.5q0 -21 -2 -40.5t-6 -38.5q-24 -123 -100.5 -193.5t-194.5 -70.5q-59 0 -100 16t-67 44t-38 65.5t-12 80.5zM197 148q0 -41 14.5 -60t47.5 -19q51 0 80 45.5t50 145.5 q15 69 15 113q0 40 -14.5 59t-48.5 19q-48 0 -78 -45.5t-51 -145.5q-15 -69 -15 -112zM211 582l111 146h158l47 -146h-89l-48 91h-2l-88 -91h-89z" />
<glyph unicode="&#xf5;" horiz-adv-x="581" d="M40 192q0 17 2 34t5 34q11 61 34.5 111.5t60.5 86.5t87.5 56t115.5 20q109 0 162 -55.5t53 -149.5q0 -21 -2 -40.5t-6 -38.5q-24 -123 -100.5 -193.5t-194.5 -70.5q-59 0 -100 16t-67 44t-38 65.5t-12 80.5zM191 590q31 72 67 101.5t79 29.5q23 0 38.5 -8t28 -18 t24.5 -18t28 -8q18 0 31.5 11.5t28.5 37.5h61q-33 -74 -66.5 -102t-70.5 -28q-26 0 -42 8t-29 17.5t-24.5 17.5t-28.5 8q-20 0 -36 -15t-28 -34h-61zM197 148q0 -41 14.5 -60t47.5 -19q51 0 80 45.5t50 145.5q15 69 15 113q0 40 -14.5 59t-48.5 19q-48 0 -78 -45.5 t-51 -145.5q-15 -69 -15 -112z" />
<glyph unicode="&#xf6;" horiz-adv-x="581" d="M40 192q0 17 2 34t5 34q11 61 34.5 111.5t60.5 86.5t87.5 56t115.5 20q109 0 162 -55.5t53 -149.5q0 -21 -2 -40.5t-6 -38.5q-24 -123 -100.5 -193.5t-194.5 -70.5q-59 0 -100 16t-67 44t-38 65.5t-12 80.5zM197 148q0 -41 14.5 -60t47.5 -19q51 0 80 45.5t50 145.5 q15 69 15 113q0 40 -14.5 59t-48.5 19q-48 0 -78 -45.5t-51 -145.5q-15 -69 -15 -112zM205 640q0 40 26.5 61.5t60.5 21.5q36 0 51 -17t15 -40q0 -40 -26 -62.5t-62 -22.5q-35 0 -50 17.5t-15 41.5zM412 640q0 40 26 61.5t60 21.5q36 0 51.5 -17t15.5 -40q0 -40 -27 -62.5 t-62 -22.5t-49.5 17.5t-14.5 41.5z" />
<glyph unicode="&#xf7;" d="M57 245v107h501v-107h-501zM225 115q0 33 23 56t59 23q37 0 60 -23t23 -56t-23 -57.5t-60 -24.5q-36 0 -59 24.5t-23 57.5zM225 485q0 33 23 56t59 23q37 0 60 -23t23 -56t-23 -57.5t-60 -24.5q-36 0 -59 24.5t-23 57.5z" />
<glyph unicode="&#xf8;" horiz-adv-x="581" d="M20 12l52 56q-17 26 -24.5 57.5t-7.5 66.5q0 17 2 34t5 34q11 61 34.5 111.5t60.5 86.5t87.5 56t115.5 20q82 0 135 -34l44 47l56 -44l-51 -53q31 -49 31 -121q0 -21 -2 -40.5t-6 -38.5q-24 -123 -100.5 -193.5t-194.5 -70.5q-45 0 -78.5 9t-58.5 26l-47 -49zM200 204 l199 210q-14 40 -58 40q-48 0 -79 -46.5t-52 -146.5q-4 -18 -6 -31zM201 106q12 -40 58 -40q25 0 46 12.5t38.5 41.5t31 76.5t25.5 117.5z" />
<glyph unicode="&#xf9;" horiz-adv-x="560" d="M40 112q0 37 10 80l70 328h154l-66 -310q-5 -20 -7.5 -37.5t-2.5 -30.5q0 -25 12 -37.5t41 -12.5q24 0 43.5 7.5t33.5 18.5l86 402h154l-76 -358q-7 -32 -13 -67t-6 -59q0 -6 0.5 -10.5t1.5 -8.5l-139 -29q-6 12 -10.5 26.5t-4.5 35.5q-24 -25 -61 -44.5t-94 -19.5 q-126 0 -126 126zM212 728h158l29 -146h-102z" />
<glyph unicode="&#xfa;" horiz-adv-x="560" d="M40 112q0 37 10 80l70 328h154l-66 -310q-5 -20 -7.5 -37.5t-2.5 -30.5q0 -25 12 -37.5t41 -12.5q24 0 43.5 7.5t33.5 18.5l86 402h154l-76 -358q-7 -32 -13 -67t-6 -59q0 -6 0.5 -10.5t1.5 -8.5l-139 -29q-6 12 -10.5 26.5t-4.5 35.5q-24 -25 -61 -44.5t-94 -19.5 q-126 0 -126 126zM308 582l91 146h157l-147 -146h-101z" />
<glyph unicode="&#xfb;" horiz-adv-x="560" d="M40 112q0 37 10 80l70 328h154l-66 -310q-5 -20 -7.5 -37.5t-2.5 -30.5q0 -25 12 -37.5t41 -12.5q24 0 43.5 7.5t33.5 18.5l86 402h154l-76 -358q-7 -32 -13 -67t-6 -59q0 -6 0.5 -10.5t1.5 -8.5l-139 -29q-6 12 -10.5 26.5t-4.5 35.5q-24 -25 -61 -44.5t-94 -19.5 q-126 0 -126 126zM199 582l111 146h158l47 -146h-89l-48 91h-2l-88 -91h-89z" />
<glyph unicode="&#xfc;" horiz-adv-x="560" d="M40 112q0 37 10 80l70 328h154l-66 -310q-5 -20 -7.5 -37.5t-2.5 -30.5q0 -25 12 -37.5t41 -12.5q24 0 43.5 7.5t33.5 18.5l86 402h154l-76 -358q-7 -32 -13 -67t-6 -59q0 -6 0.5 -10.5t1.5 -8.5l-139 -29q-6 12 -10.5 26.5t-4.5 35.5q-24 -25 -61 -44.5t-94 -19.5 q-126 0 -126 126zM194 640q0 40 26.5 61.5t60.5 21.5q36 0 51 -17t15 -40q0 -40 -26 -62.5t-62 -22.5q-35 0 -50 17.5t-15 41.5zM401 640q0 40 26 61.5t60 21.5q36 0 51.5 -17t15.5 -40q0 -40 -27 -62.5t-62 -22.5t-49.5 17.5t-14.5 41.5z" />
<glyph unicode="&#xfd;" horiz-adv-x="516" d="M-37 -195q0 12 2.5 29t6.5 35t8.5 34t8.5 25q8 -2 25 -4.5t32 -2.5q18 0 31.5 3.5t25.5 12t23.5 22.5t24.5 36l-68 515v10h156l14 -138q3 -26 5 -53t3.5 -52t2.5 -47t1 -38v-7h2q4 11 13.5 32t21.5 48t26 57t29 59l71 139h130v-10l-286 -538q-23 -44 -43 -76.5t-45.5 -54 t-60.5 -32.5t-89 -11q-25 0 -45.5 2.5t-25.5 4.5zM281 582l91 146h157l-147 -146h-101z" />
<glyph unicode="&#xfe;" horiz-adv-x="571" d="M-29 -190l189 890h154l-48 -225q27 24 62.5 40.5t81.5 16.5q77 0 111.5 -45t34.5 -122q0 -48 -12 -105q-13 -61 -34 -111.5t-51.5 -86.5t-70.5 -55.5t-90 -19.5q-46 0 -76 16.5t-47 42.5l-50 -236h-154zM189 112q22 -28 62 -28q25 0 44.5 9.5t35 30.5t27 54.5t22.5 81.5 q7 32 10 57.5t3 42.5q0 42 -16 59t-50 17q-19 0 -38.5 -6.5t-36.5 -20.5z" />
<glyph unicode="&#xff;" horiz-adv-x="516" d="M-37 -195q0 12 2.5 29t6.5 35t8.5 34t8.5 25q8 -2 25 -4.5t32 -2.5q18 0 31.5 3.5t25.5 12t23.5 22.5t24.5 36l-68 515v10h156l14 -138q3 -26 5 -53t3.5 -52t2.5 -47t1 -38v-7h2q4 11 13.5 32t21.5 48t26 57t29 59l71 139h130v-10l-286 -538q-23 -44 -43 -76.5t-45.5 -54 t-60.5 -32.5t-89 -11q-25 0 -45.5 2.5t-25.5 4.5zM174 640q0 40 26.5 61.5t60.5 21.5q36 0 51 -17t15 -40q0 -40 -26 -62.5t-62 -22.5q-35 0 -50 17.5t-15 41.5zM381 640q0 40 26 61.5t60 21.5q36 0 51.5 -17t15.5 -40q0 -40 -27 -62.5t-62 -22.5t-49.5 17.5t-14.5 41.5z " />
<glyph unicode="&#x100;" horiz-adv-x="651" d="M-30 0v9l362 691h193l65 -700h-168l-13 169h-213l-84 -169h-142zM247 273h155q-3 47 -6 91t-4.5 80t-2.5 63.5t-1 41.5v17h-5q-5 -12 -14.5 -34t-22.5 -50.5t-28 -61.5t-32 -67zM287 765l20 95h310l-19 -95h-311z" />
<glyph unicode="&#x101;" horiz-adv-x="561" d="M36 153q0 48 12 107q13 60 34 110t51.5 86t70 56t89.5 20q45 0 74 -17.5t46 -44.5l11 50h145l-77 -361q-7 -32 -12 -66t-5 -58q0 -13 1 -18l-138 -29q-7 12 -11 27t-4 35q-28 -28 -63.5 -45.5t-82.5 -17.5q-74 0 -107.5 44.5t-33.5 121.5zM199 156q0 -39 14.5 -55.5 t46.5 -16.5q35 0 69 26l64 304q-11 11 -25.5 16.5t-30.5 5.5q-48 0 -76 -40t-48 -136q-14 -68 -14 -104zM207 609l20 95h311l-21 -95h-310z" />
<glyph unicode="&#x102;" horiz-adv-x="651" d="M-30 0v9l362 691h193l65 -700h-168l-13 169h-213l-84 -169h-142zM247 273h155q-3 47 -6 91t-4.5 80t-2.5 63.5t-1 41.5v17h-5q-5 -12 -14.5 -34t-22.5 -50.5t-28 -61.5t-32 -67zM314 859v9.5t1 9.5h74q0 -28 15 -42.5t49 -14.5q33 0 53 14.5t32 43.5h74q-6 -26 -18 -50.5 t-32 -44.5t-49 -32t-69 -12q-36 0 -61 10.5t-40.5 27.5t-22 38t-6.5 43z" />
<glyph unicode="&#x103;" horiz-adv-x="561" d="M36 153q0 48 12 107q13 60 34 110t51.5 86t70 56t89.5 20q45 0 74 -17.5t46 -44.5l11 50h145l-77 -361q-7 -32 -12 -66t-5 -58q0 -13 1 -18l-138 -29q-7 12 -11 27t-4 35q-28 -28 -63.5 -45.5t-82.5 -17.5q-74 0 -107.5 44.5t-33.5 121.5zM199 156q0 -39 14.5 -55.5 t46.5 -16.5q35 0 69 26l64 304q-11 11 -25.5 16.5t-30.5 5.5q-48 0 -76 -40t-48 -136q-14 -68 -14 -104zM232 697q0 7 0.5 14t1.5 13h74q0 -28 13.5 -47.5t48.5 -19.5q36 0 55.5 19t31.5 48h74q-7 -25 -18.5 -51.5t-31 -48t-48.5 -35.5t-72 -14q-38 0 -62.5 11t-39.5 28.5 t-21 39.5t-6 43z" />
<glyph unicode="&#x104;" horiz-adv-x="651" d="M-30 0v9l362 691h193l65 -699l1 -1q-28 -12 -52.5 -25t-43 -28t-29 -32t-10.5 -36q0 -29 39 -29q13 0 25.5 3t22.5 8l13 -50q-10 -9 -44 -22t-79 -13q-51 0 -74 19t-23 56q0 49 40 86.5t103 62.5h-57l-13 169h-213l-84 -169h-142zM247 273h155q-3 47 -6 91t-4.5 80 t-2.5 63.5t-1 41.5v17h-5q-5 -12 -14.5 -34t-22.5 -50.5t-28 -61.5t-32 -67z" />
<glyph unicode="&#x105;" horiz-adv-x="561" d="M36 153q0 48 12 107q13 60 34 110t51.5 86t70 56t89.5 20q45 0 74 -17.5t46 -44.5l11 50h145l-77 -361q-7 -32 -12 -66t-5 -58v-8t1 -10q-63 -30 -103 -65t-40 -73q0 -29 39 -29q13 0 25.5 3t22.5 8l13 -50q-5 -5 -16 -11t-27.5 -11t-37 -9t-42.5 -4q-51 0 -74 19t-23 56 q0 44 33 80.5t87 65.5q-5 10 -7.5 23t-2.5 30q-28 -28 -63.5 -45.5t-82.5 -17.5q-74 0 -107.5 44.5t-33.5 121.5zM199 156q0 -39 14.5 -55.5t46.5 -16.5q35 0 69 26l64 304q-11 11 -25.5 16.5t-30.5 5.5q-48 0 -76 -40t-48 -136q-14 -68 -14 -104z" />
<glyph unicode="&#x106;" horiz-adv-x="657" d="M62 245q0 20 2.5 47.5t8.5 58.5q16 80 47 147t78 115t110 75t143 27q60 0 103 -15t71 -42t41 -64.5t13 -82.5v-17q-11 -6 -26 -9.5t-32 -5.5t-34.5 -3t-33.5 -1h-16.5t-14.5 1q0 7 0.5 13.5t0.5 13.5q0 57 -18.5 86.5t-67.5 29.5q-68 0 -113 -68t-73 -200q-9 -43 -13 -79 t-4 -65q0 -62 20 -94t68 -32q53 0 89 40t62 114q6 1 14 1h18q16 0 34.5 -1t36.5 -2.5t32.5 -5t23.5 -7.5q-16 -53 -42.5 -96.5t-66 -74t-92 -47.5t-119.5 -17q-65 0 -112.5 18t-78 52t-45 82t-14.5 108zM402 751l86 129h159l-142 -129h-103z" />
<glyph unicode="&#x107;" horiz-adv-x="536" d="M41 189q0 30 4 58.5t11 54.5q27 107 97 169.5t182 62.5q104 0 154 -43.5t50 -115.5q0 -5 -0.5 -8.5t-0.5 -8.5q-7 -3 -19.5 -5.5t-27 -4t-30.5 -2.5t-30 -1q-12 0 -22 0.5t-17 1.5q1 8 1.5 16t0.5 16q0 30 -11 51t-43 21q-50 0 -78 -48.5t-50 -142.5q-7 -29 -10.5 -58 t-3.5 -50q0 -42 14.5 -62.5t46.5 -20.5q38 0 60 29t37 72q5 1 12.5 1h16.5q15 0 33 -1t34.5 -3t30 -4.5t20.5 -6.5q-26 -82 -90.5 -126t-158.5 -44q-56 0 -96.5 14.5t-66.5 41.5t-38 64.5t-12 82.5zM306 582l91 146h157l-147 -146h-101z" />
<glyph unicode="&#x108;" horiz-adv-x="657" d="M62 245q0 20 2.5 47.5t8.5 58.5q16 80 47 147t78 115t110 75t143 27q60 0 103 -15t71 -42t41 -64.5t13 -82.5v-17q-11 -6 -26 -9.5t-32 -5.5t-34.5 -3t-33.5 -1h-16.5t-14.5 1q0 7 0.5 13.5t0.5 13.5q0 57 -18.5 86.5t-67.5 29.5q-68 0 -113 -68t-73 -200q-9 -43 -13 -79 t-4 -65q0 -62 20 -94t68 -32q53 0 89 40t62 114q6 1 14 1h18q16 0 34.5 -1t36.5 -2.5t32.5 -5t23.5 -7.5q-16 -53 -42.5 -96.5t-66 -74t-92 -47.5t-119.5 -17q-65 0 -112.5 18t-78 52t-45 82t-14.5 108zM314 752l109 128h158l55 -128h-88l-57 72h-2l-87 -72h-88z" />
<glyph unicode="&#x109;" horiz-adv-x="536" d="M41 189q0 30 4 58.5t11 54.5q27 107 97 169.5t182 62.5q104 0 154 -43.5t50 -115.5q0 -5 -0.5 -8.5t-0.5 -8.5q-7 -3 -19.5 -5.5t-27 -4t-30.5 -2.5t-30 -1q-12 0 -22 0.5t-17 1.5q1 8 1.5 16t0.5 16q0 30 -11 51t-43 21q-50 0 -78 -48.5t-50 -142.5q-7 -29 -10.5 -58 t-3.5 -50q0 -42 14.5 -62.5t46.5 -20.5q38 0 60 29t37 72q5 1 12.5 1h16.5q15 0 33 -1t34.5 -3t30 -4.5t20.5 -6.5q-26 -82 -90.5 -126t-158.5 -44q-56 0 -96.5 14.5t-66.5 41.5t-38 64.5t-12 82.5zM212 582l111 146h158l47 -146h-89l-48 91h-2l-88 -91h-89z" />
<glyph unicode="&#x10a;" horiz-adv-x="657" d="M62 245q0 20 2.5 47.5t8.5 58.5q16 80 47 147t78 115t110 75t143 27q60 0 103 -15t71 -42t41 -64.5t13 -82.5v-17q-11 -6 -26 -9.5t-32 -5.5t-34.5 -3t-33.5 -1h-16.5t-14.5 1q0 7 0.5 13.5t0.5 13.5q0 57 -18.5 86.5t-67.5 29.5q-68 0 -113 -68t-73 -200q-9 -43 -13 -79 t-4 -65q0 -62 20 -94t68 -32q53 0 89 40t62 114q6 1 14 1h18q16 0 34.5 -1t36.5 -2.5t32.5 -5t23.5 -7.5q-16 -53 -42.5 -96.5t-66 -74t-92 -47.5t-119.5 -17q-65 0 -112.5 18t-78 52t-45 82t-14.5 108zM409 808q0 38 25 58t58 20q35 0 50 -16t15 -37q0 -38 -25 -59t-60 -21 t-49 16t-14 39z" />
<glyph unicode="&#x10b;" horiz-adv-x="536" d="M41 189q0 30 4 58.5t11 54.5q27 107 97 169.5t182 62.5q104 0 154 -43.5t50 -115.5q0 -5 -0.5 -8.5t-0.5 -8.5q-7 -3 -19.5 -5.5t-27 -4t-30.5 -2.5t-30 -1q-12 0 -22 0.5t-17 1.5q1 8 1.5 16t0.5 16q0 30 -11 51t-43 21q-50 0 -78 -48.5t-50 -142.5q-7 -29 -10.5 -58 t-3.5 -50q0 -42 14.5 -62.5t46.5 -20.5q38 0 60 29t37 72q5 1 12.5 1h16.5q15 0 33 -1t34.5 -3t30 -4.5t20.5 -6.5q-26 -82 -90.5 -126t-158.5 -44q-56 0 -96.5 14.5t-66.5 41.5t-38 64.5t-12 82.5zM308 650q0 42 27.5 63.5t63.5 21.5q38 0 54 -17.5t16 -40.5 q0 -42 -28 -64.5t-66 -22.5q-36 0 -51.5 17t-15.5 43z" />
<glyph unicode="&#x10c;" horiz-adv-x="657" d="M62 245q0 20 2.5 47.5t8.5 58.5q16 80 47 147t78 115t110 75t143 27q60 0 103 -15t71 -42t41 -64.5t13 -82.5v-17q-11 -6 -26 -9.5t-32 -5.5t-34.5 -3t-33.5 -1h-16.5t-14.5 1q0 7 0.5 13.5t0.5 13.5q0 57 -18.5 86.5t-67.5 29.5q-68 0 -113 -68t-73 -200q-9 -43 -13 -79 t-4 -65q0 -62 20 -94t68 -32q53 0 89 40t62 114q6 1 14 1h18q16 0 34.5 -1t36.5 -2.5t32.5 -5t23.5 -7.5q-16 -53 -42.5 -96.5t-66 -74t-92 -47.5t-119.5 -17q-65 0 -112.5 18t-78 52t-45 82t-14.5 108zM341 880h88l56 -72h2l88 72h88l-110 -128h-157z" />
<glyph unicode="&#x10d;" horiz-adv-x="536" d="M41 189q0 30 4 58.5t11 54.5q27 107 97 169.5t182 62.5q104 0 154 -43.5t50 -115.5q0 -5 -0.5 -8.5t-0.5 -8.5q-7 -3 -19.5 -5.5t-27 -4t-30.5 -2.5t-30 -1q-12 0 -22 0.5t-17 1.5q1 8 1.5 16t0.5 16q0 30 -11 51t-43 21q-50 0 -78 -48.5t-50 -142.5q-7 -29 -10.5 -58 t-3.5 -50q0 -42 14.5 -62.5t46.5 -20.5q38 0 60 29t37 72q5 1 12.5 1h16.5q15 0 33 -1t34.5 -3t30 -4.5t20.5 -6.5q-26 -82 -90.5 -126t-158.5 -44q-56 0 -96.5 14.5t-66.5 41.5t-38 64.5t-12 82.5zM244 727h89l49 -91h2l87 91h89l-109 -146h-158z" />
<glyph unicode="&#x10e;" horiz-adv-x="671" d="M23 0l148 700h219q145 0 211 -62.5t66 -174.5q0 -20 -2.5 -51t-9.5 -61q-18 -81 -50 -146t-81 -110.5t-117.5 -70t-158.5 -24.5h-225zM205 95h53q86 0 137.5 59.5t81.5 196.5q8 35 11.5 66t3.5 56q0 71 -31 101.5t-94 30.5h-54zM287 880h88l56 -72h2l88 72h88l-110 -128 h-157z" />
<glyph unicode="&#x10f;" horiz-adv-x="735" d="M35 156q0 47 12 104q13 61 34 111t51 86t69.5 55.5t88.5 19.5q48 0 78.5 -16.5t47.5 -41.5l48 226h154l-115 -539q-7 -32 -12.5 -68.5t-5.5 -61.5q0 -11 1 -15l-138 -28q-8 13 -11.5 27.5t-3.5 37.5q-29 -30 -64.5 -48t-86.5 -18q-77 0 -112 45.5t-35 123.5zM199 160 q0 -42 15.5 -58.5t48.5 -16.5q23 0 42.5 6.5t33.5 18.5l63 298q-23 28 -61 28q-26 0 -45.5 -9.5t-34.5 -30.5t-26.5 -54.5t-22.5 -81.5q-13 -61 -13 -100zM639 489q24 14 46.5 38.5t30.5 47.5q-21 5 -34 21.5t-13 42.5q0 36 22.5 56t51.5 20q35 0 52 -18t17 -49 q0 -39 -15 -71t-36 -56.5t-44 -40t-38 -21.5q-18 1 -29 12t-11 18z" />
<glyph unicode="&#x110;" horiz-adv-x="693" d="M43 305l20 96h67l63 299h219q145 0 211.5 -62.5t66.5 -174.5q0 -26 -3 -54t-10 -58q-17 -81 -50 -146t-83.5 -110.5t-119.5 -70t-159 -24.5h-220l64 305h-66zM227 95h53q86 0 138 59.5t81 196.5q8 36 12 66.5t4 55.5q0 71 -31.5 101.5t-94.5 30.5h-54l-43 -204h124 l-21 -96h-124z" />
<glyph unicode="&#x111;" horiz-adv-x="572" d="M35 156q0 47 12 104q13 61 34 111t51 86t69.5 55.5t88.5 19.5q48 0 78.5 -16.5t47.5 -41.5l23 109h-133l13 65h133l11 52h155l-11 -52h55l-13 -65h-56l-90 -422q-7 -32 -12.5 -68.5t-5.5 -61.5q0 -11 1 -15l-138 -28q-8 13 -11.5 27.5t-3.5 37.5q-29 -30 -64.5 -48 t-86.5 -18q-77 0 -112 45.5t-35 123.5zM199 160q0 -42 15.5 -58.5t48.5 -16.5q23 0 42.5 6.5t33.5 18.5l63 298q-23 28 -61 28q-26 0 -45.5 -9.5t-34.5 -30.5t-26.5 -54.5t-22.5 -81.5q-13 -61 -13 -100z" />
<glyph unicode="&#x112;" horiz-adv-x="540" d="M23 0l148 700h423l-22 -104h-260l-40 -185h234v-5q0 -10 -2 -24t-5 -28t-7 -27t-8 -21h-234l-43 -202h274l-22 -104h-436zM242 765l20 95h310l-19 -95h-311z" />
<glyph unicode="&#x113;" horiz-adv-x="547" d="M42 185q0 82 22.5 147t61.5 110t93 68.5t117 23.5q54 0 92 -13t62 -37t35.5 -57t11.5 -72q0 -27 -5.5 -61.5t-16.5 -60.5h-310q-9 -48 -9 -79q0 -85 63 -85q22 0 37 9t25.5 22.5t17 27.5t10.5 25h18q14 0 32.5 -1t36.5 -2.5t34 -5t25 -7.5q-32 -75 -90.5 -113t-153.5 -38 q-110 0 -159.5 53.5t-49.5 145.5zM212 609l20 95h311l-21 -95h-310zM221 311h161q5 21 7 40.5t2 31.5q0 35 -12.5 52t-44.5 17q-37 0 -65 -32.5t-48 -108.5z" />
<glyph unicode="&#x114;" horiz-adv-x="540" d="M23 0l148 700h423l-22 -104h-260l-40 -185h234v-5q0 -10 -2 -24t-5 -28t-7 -27t-8 -21h-234l-43 -202h274l-22 -104h-436zM269 859v9.5t1 9.5h74q0 -28 15 -42.5t49 -14.5q33 0 53 14.5t32 43.5h74q-6 -26 -18 -50.5t-32 -44.5t-49 -32t-69 -12q-36 0 -61 10.5 t-40.5 27.5t-22 38t-6.5 43z" />
<glyph unicode="&#x115;" horiz-adv-x="547" d="M42 185q0 82 22.5 147t61.5 110t93 68.5t117 23.5q54 0 92 -13t62 -37t35.5 -57t11.5 -72q0 -27 -5.5 -61.5t-16.5 -60.5h-310q-9 -48 -9 -79q0 -85 63 -85q22 0 37 9t25.5 22.5t17 27.5t10.5 25h18q14 0 32.5 -1t36.5 -2.5t34 -5t25 -7.5q-32 -75 -90.5 -113t-153.5 -38 q-110 0 -159.5 53.5t-49.5 145.5zM221 311h161q5 21 7 40.5t2 31.5q0 35 -12.5 52t-44.5 17q-37 0 -65 -32.5t-48 -108.5zM241 697q0 7 0.5 14t1.5 13h74q0 -28 13.5 -47.5t48.5 -19.5q36 0 55.5 19t31.5 48h74q-7 -25 -18.5 -51.5t-31 -48t-48.5 -35.5t-72 -14 q-38 0 -62.5 11t-39.5 28.5t-21 39.5t-6 43z" />
<glyph unicode="&#x116;" horiz-adv-x="540" d="M23 0l148 700h423l-22 -104h-260l-40 -185h234v-5q0 -10 -2 -24t-5 -28t-7 -27t-8 -21h-234l-43 -202h274l-22 -104h-436zM334 808q0 38 25 58t58 20q35 0 50 -16t15 -37q0 -38 -25 -59t-60 -21t-49 16t-14 39z" />
<glyph unicode="&#x117;" horiz-adv-x="547" d="M42 185q0 82 22.5 147t61.5 110t93 68.5t117 23.5q54 0 92 -13t62 -37t35.5 -57t11.5 -72q0 -27 -5.5 -61.5t-16.5 -60.5h-310q-9 -48 -9 -79q0 -85 63 -85q22 0 37 9t25.5 22.5t17 27.5t10.5 25h18q14 0 32.5 -1t36.5 -2.5t34 -5t25 -7.5q-32 -75 -90.5 -113t-153.5 -38 q-110 0 -159.5 53.5t-49.5 145.5zM221 311h161q5 21 7 40.5t2 31.5q0 35 -12.5 52t-44.5 17q-37 0 -65 -32.5t-48 -108.5zM299 650q0 42 27.5 63.5t63.5 21.5q38 0 54 -17.5t16 -40.5q0 -42 -28 -64.5t-66 -22.5q-36 0 -51.5 17t-15.5 43z" />
<glyph unicode="&#x118;" horiz-adv-x="540" d="M23 0l148 700h423l-22 -104h-260l-40 -185h234v-5q0 -10 -2 -24t-5 -28t-7 -27t-8 -21h-234l-43 -202h274l-22 -104q-28 -12 -52.5 -25t-43 -28t-29 -32t-10.5 -36q0 -29 39 -29q13 0 25.5 3t22.5 8l13 -50q-10 -9 -44 -22t-79 -13q-51 0 -74 19t-23 56q0 49 40 86.5 t103 62.5h-324z" />
<glyph unicode="&#x119;" horiz-adv-x="547" d="M41 190q0 81 22.5 145t62.5 108t94 67.5t117 23.5q54 0 92 -13t62 -37t35 -57t11 -72q0 -27 -5.5 -59t-16.5 -63h-310q-9 -48 -9 -81q0 -83 63 -83q21 0 36 9t26 22.5t18 27.5t11 25h18q14 0 32 -1t36 -2.5t33.5 -5t24.5 -7.5q-8 -18 -17.5 -33.5t-20.5 -29.5 q-34 -39 -58 -67t-39.5 -50t-22.5 -40t-7 -38q0 -29 40 -29q13 0 25.5 3t22.5 8l13 -50q-10 -9 -43.5 -22t-78.5 -13q-98 0 -98 74q0 38 22 71t63 68q-21 -3 -44 -3q-110 0 -160 54t-50 150zM221 311h161q9 42 9 72q0 35 -13.5 52t-43.5 17q-37 0 -65 -32.5t-48 -108.5z" />
<glyph unicode="&#x11a;" horiz-adv-x="540" d="M23 0l148 700h423l-22 -104h-260l-40 -185h234v-5q0 -10 -2 -24t-5 -28t-7 -27t-8 -21h-234l-43 -202h274l-22 -104h-436zM263 880h88l56 -72h2l88 72h88l-110 -128h-157z" />
<glyph unicode="&#x11b;" horiz-adv-x="547" d="M42 185q0 82 22.5 147t61.5 110t93 68.5t117 23.5q54 0 92 -13t62 -37t35.5 -57t11.5 -72q0 -27 -5.5 -61.5t-16.5 -60.5h-310q-9 -48 -9 -79q0 -85 63 -85q22 0 37 9t25.5 22.5t17 27.5t10.5 25h18q14 0 32.5 -1t36.5 -2.5t34 -5t25 -7.5q-32 -75 -90.5 -113t-153.5 -38 q-110 0 -159.5 53.5t-49.5 145.5zM221 311h161q5 21 7 40.5t2 31.5q0 35 -12.5 52t-44.5 17q-37 0 -65 -32.5t-48 -108.5zM241 727h89l49 -91h2l87 91h89l-109 -146h-158z" />
<glyph unicode="&#x11c;" horiz-adv-x="672" d="M64 242q0 100 26.5 186.5t75.5 150t118 100t154 36.5q69 0 115 -16.5t73.5 -44t39 -64t11.5 -76.5q-4 -4 -16.5 -7.5t-29 -6t-36.5 -4t-39 -1.5q-11 0 -20 0.5t-17 1.5v17q0 23 -3.5 42.5t-12.5 33.5t-25 21.5t-41 7.5q-68 0 -113 -68t-73 -200q-9 -42 -13.5 -79.5 t-4.5 -61.5q0 -66 25 -97.5t81 -31.5q38 0 63.5 8.5t39.5 19.5l35 165h-110l22 103h260l-65 -306q-15 -14 -38 -29t-55.5 -27.5t-75 -21t-94.5 -8.5q-69 0 -118 18t-80 51.5t-45 81t-14 106.5zM305 752l109 128h158l55 -128h-88l-57 72h-2l-87 -72h-88z" />
<glyph unicode="&#x11d;" horiz-adv-x="562" d="M0 -63q10 8 28.5 14.5t39 11t40.5 7t34 2.5q0 -12 4 -25t12 -23t21.5 -16.5t33.5 -6.5q44 0 63.5 26.5t29.5 70.5l17 80q-26 -23 -59.5 -37.5t-78.5 -14.5q-75 0 -108 42.5t-33 115.5q0 27 3 53.5t8 50.5q10 54 30 99t49.5 77.5t68 50t85.5 17.5q50 0 79.5 -17t45.5 -43 l11 48h145l-104 -489q-11 -51 -30 -92t-50 -69t-76.5 -43t-109.5 -15q-38 0 -72 7t-60.5 22t-44 38.5t-22.5 57.5zM204 582l111 146h158l47 -146h-89l-48 91h-2l-88 -91h-89zM208 196q0 -74 62 -74q34 0 65 22l58 271q-20 20 -58 20q-45 0 -72.5 -37t-44.5 -119 q-5 -25 -7.5 -45.5t-2.5 -37.5z" />
<glyph unicode="&#x11e;" horiz-adv-x="672" d="M64 242q0 100 26.5 186.5t75.5 150t118 100t154 36.5q69 0 115 -16.5t73.5 -44t39 -64t11.5 -76.5q-4 -4 -16.5 -7.5t-29 -6t-36.5 -4t-39 -1.5q-11 0 -20 0.5t-17 1.5v17q0 23 -3.5 42.5t-12.5 33.5t-25 21.5t-41 7.5q-68 0 -113 -68t-73 -200q-9 -42 -13.5 -79.5 t-4.5 -61.5q0 -66 25 -97.5t81 -31.5q38 0 63.5 8.5t39.5 19.5l35 165h-110l22 103h260l-65 -306q-15 -14 -38 -29t-55.5 -27.5t-75 -21t-94.5 -8.5q-69 0 -118 18t-80 51.5t-45 81t-14 106.5zM346 859v9.5t1 9.5h74q0 -28 15 -42.5t49 -14.5q33 0 53 14.5t32 43.5h74 q-6 -26 -18 -50.5t-32 -44.5t-49 -32t-69 -12q-36 0 -61 10.5t-40.5 27.5t-22 38t-6.5 43z" />
<glyph unicode="&#x11f;" horiz-adv-x="562" d="M0 -63q10 8 28.5 14.5t39 11t40.5 7t34 2.5q0 -12 4 -25t12 -23t21.5 -16.5t33.5 -6.5q44 0 63.5 26.5t29.5 70.5l17 80q-26 -23 -59.5 -37.5t-78.5 -14.5q-75 0 -108 42.5t-33 115.5q0 27 3 53.5t8 50.5q10 54 30 99t49.5 77.5t68 50t85.5 17.5q50 0 79.5 -17t45.5 -43 l11 48h145l-104 -489q-11 -51 -30 -92t-50 -69t-76.5 -43t-109.5 -15q-38 0 -72 7t-60.5 22t-44 38.5t-22.5 57.5zM208 196q0 -74 62 -74q34 0 65 22l58 271q-20 20 -58 20q-45 0 -72.5 -37t-44.5 -119q-5 -25 -7.5 -45.5t-2.5 -37.5zM237 697q0 7 0.5 14t1.5 13h74 q0 -28 13.5 -47.5t48.5 -19.5q36 0 55.5 19t31.5 48h74q-7 -25 -18.5 -51.5t-31 -48t-48.5 -35.5t-72 -14q-38 0 -62.5 11t-39.5 28.5t-21 39.5t-6 43z" />
<glyph unicode="&#x120;" horiz-adv-x="672" d="M64 242q0 100 26.5 186.5t75.5 150t118 100t154 36.5q69 0 115 -16.5t73.5 -44t39 -64t11.5 -76.5q-4 -4 -16.5 -7.5t-29 -6t-36.5 -4t-39 -1.5q-11 0 -20 0.5t-17 1.5v17q0 23 -3.5 42.5t-12.5 33.5t-25 21.5t-41 7.5q-68 0 -113 -68t-73 -200q-9 -42 -13.5 -79.5 t-4.5 -61.5q0 -66 25 -97.5t81 -31.5q38 0 63.5 8.5t39.5 19.5l35 165h-110l22 103h260l-65 -306q-15 -14 -38 -29t-55.5 -27.5t-75 -21t-94.5 -8.5q-69 0 -118 18t-80 51.5t-45 81t-14 106.5zM406 808q0 38 25 58t58 20q35 0 50 -16t15 -37q0 -38 -25 -59t-60 -21t-49 16 t-14 39z" />
<glyph unicode="&#x121;" horiz-adv-x="562" d="M0 -63q10 8 28.5 14.5t39 11t40.5 7t34 2.5q0 -12 4 -25t12 -23t21.5 -16.5t33.5 -6.5q44 0 63.5 26.5t29.5 70.5l17 80q-26 -23 -59.5 -37.5t-78.5 -14.5q-75 0 -108 42.5t-33 115.5q0 27 3 53.5t8 50.5q10 54 30 99t49.5 77.5t68 50t85.5 17.5q50 0 79.5 -17t45.5 -43 l11 48h145l-104 -489q-11 -51 -30 -92t-50 -69t-76.5 -43t-109.5 -15q-38 0 -72 7t-60.5 22t-44 38.5t-22.5 57.5zM208 196q0 -74 62 -74q34 0 65 22l58 271q-20 20 -58 20q-45 0 -72.5 -37t-44.5 -119q-5 -25 -7.5 -45.5t-2.5 -37.5zM295 650q0 42 27.5 63.5t63.5 21.5 q38 0 54 -17.5t16 -40.5q0 -42 -28 -64.5t-66 -22.5q-36 0 -51.5 17t-15.5 43z" />
<glyph unicode="&#x122;" horiz-adv-x="672" d="M64 242q0 100 26.5 186.5t75.5 150t118 100t154 36.5q69 0 115 -16.5t73.5 -44t39 -64t11.5 -76.5q-4 -4 -16.5 -7.5t-29 -6t-36.5 -4t-39 -1.5q-11 0 -20 0.5t-17 1.5v17q0 23 -3.5 42.5t-12.5 33.5t-25 21.5t-41 7.5q-68 0 -113 -68t-73 -200q-9 -42 -13.5 -79.5 t-4.5 -61.5q0 -66 25 -97.5t81 -31.5q38 0 63.5 8.5t39.5 19.5l35 165h-110l22 103h260l-65 -306q-15 -14 -38 -29t-55.5 -27.5t-75 -21t-94.5 -8.5q-69 0 -118 18t-80 51.5t-45 81t-14 106.5zM200 -230q20 10 40 25.5t28 35.5q-25 2 -39 16t-14 37q0 33 23 53t57 20 q35 0 51.5 -16t16.5 -45q0 -51 -34.5 -90t-85.5 -55q-17 1 -29 7.5t-14 11.5z" />
<glyph unicode="&#x123;" horiz-adv-x="562" d="M0 -63q10 8 28.5 14.5t39 11t40.5 7t34 2.5q0 -12 4 -25t12 -23t21.5 -16.5t33.5 -6.5q44 0 63.5 26.5t29.5 70.5l17 80q-26 -23 -59.5 -37.5t-78.5 -14.5q-75 0 -108 42.5t-33 115.5q0 27 3 53.5t8 50.5q10 54 30 99t49.5 77.5t68 50t85.5 17.5q50 0 79.5 -17t45.5 -43 l11 48h145l-104 -489q-11 -51 -30 -92t-50 -69t-76.5 -43t-109.5 -15q-38 0 -72 7t-60.5 22t-44 38.5t-22.5 57.5zM208 196q0 -74 62 -74q34 0 65 22l58 271q-20 20 -58 20q-45 0 -72.5 -37t-44.5 -119q-5 -25 -7.5 -45.5t-2.5 -37.5zM299 637q0 35 14 62.5t34 47t41 31 t35 14.5q18 -1 28.5 -7.5t11.5 -11.5q-23 -11 -42.5 -30t-26.5 -38q52 -8 52 -48q0 -39 -24.5 -59.5t-58.5 -20.5q-32 0 -48 15.5t-16 44.5z" />
<glyph unicode="&#x124;" horiz-adv-x="694" d="M23 0l148 700h163l-60 -278h234l59 278h162l-148 -700h-162l67 317h-234l-66 -317h-163zM302 752l109 128h158l55 -128h-88l-57 72h-2l-87 -72h-88z" />
<glyph unicode="&#x125;" horiz-adv-x="567" d="M12 0l148 700h154l-49 -229q25 25 63 44t89 19q70 0 99 -35t29 -93q0 -22 -3 -43t-8 -44l-70 -319h-151l68 323q6 30 6 52q0 26 -11.5 40t-43.5 14q-26 0 -46.5 -8.5t-35.5 -19.5l-85 -401h-153zM263 752l109 128h158l55 -128h-88l-57 72h-2l-87 -72h-88z" />
<glyph unicode="&#x126;" horiz-adv-x="694" d="M23 0l109 517h-48l21 95h47l19 88h163l-19 -88h233l19 88h162l-19 -88h47l-21 -95h-46l-109 -517h-162l67 317h-234l-66 -317h-163zM274 422h234l20 95h-234z" />
<glyph unicode="&#x127;" horiz-adv-x="566" d="M12 0l123 583h-50l13 65h51l11 52h154l-11 -52h139l-13 -65h-140l-24 -112q25 25 63 44t89 19q70 0 99 -35t29 -93q0 -22 -3 -43t-8 -44l-70 -319h-151l68 323q6 30 6 52q0 26 -11.5 40t-43.5 14q-26 0 -46.5 -8.5t-35.5 -19.5l-85 -401h-153z" />
<glyph unicode="&#x128;" horiz-adv-x="298" d="M23 0l148 700h163l-148 -700h-163zM86 748q31 72 67 101.5t79 29.5q23 0 38.5 -8t28 -18t24.5 -18t28 -8q18 0 31.5 11.5t28.5 37.5h61q-17 -37 -33 -62t-32.5 -40t-34 -21.5t-37.5 -6.5q-26 0 -42 8t-29 17.5t-24.5 17.5t-28.5 8q-20 0 -36 -15t-28 -34h-61z" />
<glyph unicode="&#x129;" horiz-adv-x="267" d="M12 0l110 520h154l-110 -520h-154zM36 590q31 72 67 101.5t79 29.5q23 0 38.5 -8t28 -18t24.5 -18t28 -8q18 0 31.5 11.5t28.5 37.5h61q-33 -74 -66.5 -102t-70.5 -28q-26 0 -42 8t-29 17.5t-24.5 17.5t-28.5 8q-20 0 -36 -15t-28 -34h-61z" />
<glyph unicode="&#x12a;" horiz-adv-x="298" d="M23 0l148 700h163l-148 -700h-163zM110 765l20 95h310l-19 -95h-311z" />
<glyph unicode="&#x12b;" horiz-adv-x="267" d="M12 0l110 520h154l-110 -520h-154zM61 609l20 95h311l-21 -95h-310z" />
<glyph unicode="&#x12c;" horiz-adv-x="298" d="M23 0l148 700h163l-148 -700h-163zM139 859v9.5t1 9.5h74q0 -28 15 -42.5t49 -14.5q33 0 53 14.5t32 43.5h74q-6 -26 -18 -50.5t-32 -44.5t-49 -32t-69 -12q-36 0 -61 10.5t-40.5 27.5t-22 38t-6.5 43z" />
<glyph unicode="&#x12d;" horiz-adv-x="267" d="M12 0l110 520h154l-110 -520h-154zM85 697q0 7 0.5 14t1.5 13h74q0 -28 13.5 -47.5t48.5 -19.5q36 0 55.5 19t31.5 48h74q-7 -25 -18.5 -51.5t-31 -48t-48.5 -35.5t-72 -14q-38 0 -62.5 11t-39.5 28.5t-21 39.5t-6 43z" />
<glyph unicode="&#x12e;" horiz-adv-x="298" d="M-70 -149q0 49 40 86.5t103 62.5h-50l148 700h163l-148 -700h-1q-28 -12 -52.5 -25t-43 -28t-29 -32t-10.5 -36q0 -29 39 -29q13 0 25.5 3t22.5 8l13 -50q-10 -9 -44 -22t-79 -13q-51 0 -74 19t-23 56z" />
<glyph unicode="&#x12f;" horiz-adv-x="267" d="M-81 -149q0 49 40 86.5t103 62.5h-50l110 520h154l-110 -520q-24 -11 -47 -24t-40.5 -28t-28.5 -32.5t-11 -36.5q0 -29 39 -29q13 0 25.5 3t22.5 8l13 -50q-10 -9 -44 -22t-79 -13q-51 0 -74 19t-23 56zM144 642q0 22 8 38.5t21.5 27.5t30.5 17t36 6q39 0 56 -18.5 t17 -42.5q0 -44 -29.5 -67.5t-68.5 -23.5q-38 0 -54.5 18.5t-16.5 44.5z" />
<glyph unicode="&#x130;" horiz-adv-x="298" d="M23 0l148 700h163l-148 -700h-163zM203 808q0 38 25 58t58 20q35 0 50 -16t15 -37q0 -38 -25 -59t-60 -21t-49 16t-14 39z" />
<glyph unicode="&#x131;" horiz-adv-x="267" d="M12 0l110 520h154l-110 -520h-154z" />
<glyph unicode="&#x132;" horiz-adv-x="733" d="M23 0l148 700h163l-148 -700h-163zM278 1q0 8 2 21t5 27.5t7 27.5t8 20q6 -3 30 -8t52 -5q27 0 46.5 5t33.5 17.5t23.5 32.5t15.5 50l108 511h163l-110 -517q-12 -56 -34 -94t-55 -60.5t-77.5 -32t-102.5 -9.5q-51 0 -80 5.5t-35 8.5z" />
<glyph unicode="&#x133;" horiz-adv-x="534" d="M12 0l110 520h154l-110 -520h-154zM139 -194q0 18 5 44.5t14 41.5q6 -2 19.5 -3.5t24.5 -1.5q34 0 47.5 18.5t21.5 57.5l118 557h154l-117 -552q-11 -51 -27.5 -83.5t-41.5 -51.5t-60.5 -26.5t-84.5 -7.5q-23 0 -45 2.5t-28 4.5zM144 642q0 22 8 38.5t21.5 27.5t30.5 17 t36 6q39 0 56 -18.5t17 -42.5q0 -44 -29.5 -67.5t-68.5 -23.5q-38 0 -54.5 18.5t-16.5 44.5zM411 642q0 22 8 38.5t21.5 27.5t30.5 17t36 6q39 0 56 -18.5t17 -42.5q0 -44 -29.5 -67.5t-68.5 -23.5q-38 0 -54.5 18.5t-16.5 44.5z" />
<glyph unicode="&#x134;" horiz-adv-x="435" d="M-20 1q0 8 2 21t5 27.5t7 27.5t8 20q6 -3 30 -8t52 -5q27 0 46.5 5t33.5 17.5t23.5 32.5t15.5 50l108 511h163l-110 -517q-12 -56 -34 -94t-55 -60.5t-77.5 -32t-102.5 -9.5q-51 0 -80 5.5t-35 8.5zM241 752l109 128h158l55 -128h-88l-57 72h-2l-87 -72h-88z" />
<glyph unicode="&#x135;" horiz-adv-x="269" d="M-128 -194q0 18 5 44.5t14 41.5q6 -2 19.5 -3.5t24.5 -1.5q34 0 47.5 18.5t21.5 57.5l118 557h154l-117 -552q-11 -51 -27.5 -83.5t-41.5 -51.5t-60.5 -26.5t-84.5 -7.5q-23 0 -45 2.5t-28 4.5zM51 582l111 146h158l47 -146h-89l-48 91h-2l-88 -91h-89z" />
<glyph unicode="&#x136;" horiz-adv-x="630" d="M23 0l148 700h163l-64 -298h4l277 298h160v-9l-310 -318l172 -364v-9h-173l-143 323h-3l-68 -323h-163zM170 -230q20 10 40 25.5t28 35.5q-25 2 -39 16t-14 37q0 33 23 53t57 20q35 0 51.5 -16t16.5 -45q0 -51 -34.5 -90t-85.5 -55q-17 1 -29 7.5t-14 11.5z" />
<glyph unicode="&#x137;" horiz-adv-x="533" d="M12 0l148 700h154l-82 -384h4l193 204h150v-9l-222 -219l122 -283v-9h-166l-94 241h-3l-51 -241h-153zM121 -230q20 10 40 25.5t28 35.5q-25 2 -39 16t-14 37q0 33 23 53t57 20q35 0 51.5 -16t16.5 -45q0 -51 -34.5 -90t-85.5 -55q-17 1 -29 7.5t-14 11.5z" />
<glyph unicode="&#x138;" horiz-adv-x="533" d="M12 0l110 520h154l-46 -218h4l195 218h150v-9l-225 -233l125 -269v-9h-166l-96 227h-3l-49 -227h-153z" />
<glyph unicode="&#x139;" horiz-adv-x="508" d="M23 0l148 700h163l-127 -595h253l-21 -105h-416zM197 751l86 129h159l-142 -129h-103z" />
<glyph unicode="&#x13a;" horiz-adv-x="267" d="M12 0l148 700h154l-149 -700h-153zM188 751l86 129h159l-142 -129h-103z" />
<glyph unicode="&#x13b;" horiz-adv-x="508" d="M23 0l148 700h163l-127 -595h253l-21 -105h-416zM120 -230q20 10 40 25.5t28 35.5q-25 2 -39 16t-14 37q0 33 23 53t57 20q35 0 51.5 -16t16.5 -45q0 -51 -34.5 -90t-85.5 -55q-17 1 -29 7.5t-14 11.5z" />
<glyph unicode="&#x13c;" horiz-adv-x="267" d="M-25 -230q20 10 40 25.5t28 35.5q-25 2 -39 16t-14 37q0 33 23 53t57 20q35 0 51.5 -16t16.5 -45q0 -51 -34.5 -90t-85.5 -55q-17 1 -29 7.5t-14 11.5zM12 0l148 700h154l-149 -700h-153z" />
<glyph unicode="&#x13d;" horiz-adv-x="508" d="M23 0l148 700h163l-127 -595h253l-21 -105h-416zM359 489q24 14 46.5 38.5t30.5 47.5q-21 5 -34 21.5t-13 42.5q0 36 22.5 56t51.5 20q35 0 52 -18t17 -49q0 -39 -15 -71t-36 -56.5t-44 -40t-38 -21.5q-18 1 -29 12t-11 18z" />
<glyph unicode="&#x13e;" horiz-adv-x="427" d="M12 0l148 700h154l-149 -700h-153zM332 489q24 14 46.5 38.5t30.5 47.5q-21 5 -34 21.5t-13 42.5q0 36 22.5 56t51.5 20q35 0 52 -18t17 -49q0 -39 -15 -71t-36 -56.5t-44 -40t-38 -21.5q-18 1 -29 12t-11 18z" />
<glyph unicode="&#x13f;" horiz-adv-x="508" d="M23 0l148 700h163l-127 -595h253l-21 -105h-416zM351 358q0 42 27.5 63.5t63.5 21.5q38 0 54 -17.5t16 -40.5q0 -42 -28 -64.5t-66 -22.5q-36 0 -51.5 17t-15.5 43z" />
<glyph unicode="&#x140;" horiz-adv-x="456" d="M12 0l148 700h154l-149 -700h-153zM311 373q0 42 27.5 63.5t63.5 21.5q38 0 54 -17.5t16 -40.5q0 -42 -28 -64.5t-66 -22.5q-36 0 -51.5 17t-15.5 43z" />
<glyph unicode="&#x141;" horiz-adv-x="548" d="M30 173l22 109l78 39l81 379h163l-65 -302l154 74l-23 -109l-154 -74l-39 -185h253l-21 -104h-416l44 211z" />
<glyph unicode="&#x142;" horiz-adv-x="387" d="M32 247l25 114l101 49l61 290h154l-49 -229l101 49l-25 -115l-101 -49l-75 -356h-153l62 295z" />
<glyph unicode="&#x143;" horiz-adv-x="721" d="M23 0l148 700h198l77 -249q35 -115 50.5 -186.5t20.5 -101.5h4q1 15 4.5 41.5t8.5 59.5t11.5 69t14.5 71l62 296h134l-148 -700h-185l-81 257q-15 47 -27 92t-21.5 84t-16 69.5t-8.5 47.5h-4q-2 -14 -6 -38.5t-9 -55.5t-12 -66.5t-14 -71.5l-67 -318h-134zM436 751 l86 129h159l-142 -129h-103z" />
<glyph unicode="&#x144;" horiz-adv-x="566" d="M12 0l110 520h146l-13 -62q23 29 63.5 52.5t97.5 23.5q70 0 99 -35t29 -93q0 -17 -1.5 -34.5t-6.5 -37.5l-71 -334h-153l68 323q3 15 5 28.5t2 24.5q0 25 -12 39t-44 14q-26 0 -46.5 -8t-34.5 -20l-85 -401h-153zM305 582l91 146h157l-147 -146h-101z" />
<glyph unicode="&#x145;" horiz-adv-x="721" d="M23 0l148 700h198l77 -249q35 -115 50.5 -186.5t20.5 -101.5h4q1 15 4.5 41.5t8.5 59.5t11.5 69t14.5 71l62 296h134l-148 -700h-185l-81 257q-15 47 -27 92t-21.5 84t-16 69.5t-8.5 47.5h-4q-2 -14 -6 -38.5t-9 -55.5t-12 -66.5t-14 -71.5l-67 -318h-134zM225 -230 q20 10 40 25.5t28 35.5q-25 2 -39 16t-14 37q0 33 23 53t57 20q35 0 51.5 -16t16.5 -45q0 -51 -34.5 -90t-85.5 -55q-17 1 -29 7.5t-14 11.5z" />
<glyph unicode="&#x146;" horiz-adv-x="566" d="M12 0l110 520h146l-13 -62q23 29 63.5 52.5t97.5 23.5q70 0 99 -35t29 -93q0 -17 -1.5 -34.5t-6.5 -37.5l-71 -334h-153l68 323q3 15 5 28.5t2 24.5q0 25 -12 39t-44 14q-26 0 -46.5 -8t-34.5 -20l-85 -401h-153zM127 -230q20 10 40 25.5t28 35.5q-25 2 -39 16t-14 37 q0 33 23 53t57 20q35 0 51.5 -16t16.5 -45q0 -51 -34.5 -90t-85.5 -55q-17 1 -29 7.5t-14 11.5z" />
<glyph unicode="&#x147;" horiz-adv-x="721" d="M23 0l148 700h198l77 -249q35 -115 50.5 -186.5t20.5 -101.5h4q1 15 4.5 41.5t8.5 59.5t11.5 69t14.5 71l62 296h134l-148 -700h-185l-81 257q-15 47 -27 92t-21.5 84t-16 69.5t-8.5 47.5h-4q-2 -14 -6 -38.5t-9 -55.5t-12 -66.5t-14 -71.5l-67 -318h-134zM359 880h88 l56 -72h2l88 72h88l-110 -128h-157z" />
<glyph unicode="&#x148;" horiz-adv-x="566" d="M12 0l110 520h146l-13 -62q23 29 63.5 52.5t97.5 23.5q70 0 99 -35t29 -93q0 -17 -1.5 -34.5t-6.5 -37.5l-71 -334h-153l68 323q3 15 5 28.5t2 24.5q0 25 -12 39t-44 14q-26 0 -46.5 -8t-34.5 -20l-85 -401h-153zM237 727h89l49 -91h2l87 91h89l-109 -146h-158z" />
<glyph unicode="&#x149;" horiz-adv-x="566" d="M12 0l110 520h146l-13 -62q23 29 63.5 52.5t97.5 23.5q70 0 99 -35t29 -93q0 -17 -1.5 -34.5t-6.5 -37.5l-71 -334h-153l68 323q3 15 5 28.5t2 24.5q0 25 -12 39t-44 14q-26 0 -46.5 -8t-34.5 -20l-85 -401h-153zM60 580q20 10 40 25.5t28 35.5q-25 2 -39 16t-14 37 q0 33 23 53t57 20q35 0 51.5 -16t16.5 -45q0 -51 -34.5 -90t-85.5 -55q-17 1 -29 7.5t-14 11.5z" />
<glyph unicode="&#x14a;" horiz-adv-x="721" d="M23 0l148 700h198l77 -249q35 -115 50.5 -186.5t20.5 -101.5h4q1 15 4.5 41.5t8.5 59.5t11.5 69t14.5 71l62 296h134l-155 -732q-11 -51 -27 -83.5t-41 -51.5t-60.5 -26.5t-84.5 -7.5q-23 0 -45 2.5t-28 4.5q0 18 5 44.5t14 41.5q6 -2 19.5 -3.5t24.5 -1.5q34 0 57 18.5 t31 57.5l8 37h-51l-81 257q-15 47 -27 92t-21.5 84t-16 69.5t-8.5 47.5h-4q-2 -14 -6 -38.5t-9 -55.5t-12 -66.5t-14 -71.5l-67 -318h-134z" />
<glyph unicode="&#x14b;" horiz-adv-x="566" d="M12 0l110 520h146l-13 -62q24 29 64 52.5t97 23.5q70 0 99 -35t29 -92q0 -17 -1.5 -35t-6.5 -38l-78 -366q-11 -51 -28 -83.5t-42.5 -51.5t-59.5 -26.5t-79 -7.5q-26 0 -48.5 2.5t-28.5 4.5q0 7 1.5 18.5t3.5 24t5.5 24t8.5 19.5q7 -2 18.5 -4t25.5 -2q34 0 47.5 19 t21.5 58l76 360q3 15 5 28.5t2 24.5q0 25 -12 39t-44 14q-26 0 -46 -7.5t-35 -20.5l-85 -401h-153z" />
<glyph unicode="&#x14c;" horiz-adv-x="702" d="M61 234q0 54 12 117q16 81 48 148t79 115t110 74.5t142 26.5q64 0 110.5 -17.5t77 -50t45 -78.5t14.5 -103q0 -54 -12 -115q-16 -81 -46.5 -148.5t-77.5 -116t-110.5 -75t-144.5 -26.5q-64 0 -110.5 17.5t-77 50t-45 78.5t-14.5 103zM232 203q0 -61 21 -91.5t69 -30.5 q68 0 113.5 68.5t73.5 201.5q9 45 14 82t5 66q0 60 -21.5 90t-69.5 30q-68 0 -113 -68t-73 -200q-9 -45 -14 -81.5t-5 -66.5zM317 765l20 95h310l-19 -95h-311z" />
<glyph unicode="&#x14d;" horiz-adv-x="581" d="M40 192q0 17 2 34t5 34q11 61 34.5 111.5t60.5 86.5t87.5 56t115.5 20q109 0 162 -55.5t53 -149.5q0 -21 -2 -40.5t-6 -38.5q-24 -123 -100.5 -193.5t-194.5 -70.5q-59 0 -100 16t-67 44t-38 65.5t-12 80.5zM197 148q0 -41 14.5 -60t47.5 -19q51 0 80 45.5t50 145.5 q15 69 15 113q0 40 -14.5 59t-48.5 19q-48 0 -78 -45.5t-51 -145.5q-15 -69 -15 -112zM220 609l20 95h311l-21 -95h-310z" />
<glyph unicode="&#x14e;" horiz-adv-x="702" d="M61 234q0 54 12 117q16 81 48 148t79 115t110 74.5t142 26.5q64 0 110.5 -17.5t77 -50t45 -78.5t14.5 -103q0 -54 -12 -115q-16 -81 -46.5 -148.5t-77.5 -116t-110.5 -75t-144.5 -26.5q-64 0 -110.5 17.5t-77 50t-45 78.5t-14.5 103zM232 203q0 -61 21 -91.5t69 -30.5 q68 0 113.5 68.5t73.5 201.5q9 45 14 82t5 66q0 60 -21.5 90t-69.5 30q-68 0 -113 -68t-73 -200q-9 -45 -14 -81.5t-5 -66.5zM346 859v9.5t1 9.5h74q0 -28 15 -42.5t49 -14.5q33 0 53 14.5t32 43.5h74q-6 -26 -18 -50.5t-32 -44.5t-49 -32t-69 -12q-36 0 -61 10.5 t-40.5 27.5t-22 38t-6.5 43z" />
<glyph unicode="&#x14f;" horiz-adv-x="581" d="M40 192q0 17 2 34t5 34q11 61 34.5 111.5t60.5 86.5t87.5 56t115.5 20q109 0 162 -55.5t53 -149.5q0 -21 -2 -40.5t-6 -38.5q-24 -123 -100.5 -193.5t-194.5 -70.5q-59 0 -100 16t-67 44t-38 65.5t-12 80.5zM197 148q0 -41 14.5 -60t47.5 -19q51 0 80 45.5t50 145.5 q15 69 15 113q0 40 -14.5 59t-48.5 19q-48 0 -78 -45.5t-51 -145.5q-15 -69 -15 -112zM249 697q0 7 0.5 14t1.5 13h74q0 -28 13.5 -47.5t48.5 -19.5q36 0 55.5 19t31.5 48h74q-7 -25 -18.5 -51.5t-31 -48t-48.5 -35.5t-72 -14q-38 0 -62.5 11t-39.5 28.5t-21 39.5t-6 43z " />
<glyph unicode="&#x150;" horiz-adv-x="702" d="M61 234q0 54 12 117q16 81 48 148t79 115t110 74.5t142 26.5q64 0 110.5 -17.5t77 -50t45 -78.5t14.5 -103q0 -54 -12 -115q-16 -81 -46.5 -148.5t-77.5 -116t-110.5 -75t-144.5 -26.5q-64 0 -110.5 17.5t-77 50t-45 78.5t-14.5 103zM232 203q0 -61 21 -91.5t69 -30.5 q68 0 113.5 68.5t73.5 201.5q9 45 14 82t5 66q0 60 -21.5 90t-69.5 30q-68 0 -113 -68t-73 -200q-9 -45 -14 -81.5t-5 -66.5zM327 751l67 129h133l-103 -129h-97zM500 751l87 129h142l-127 -129h-102z" />
<glyph unicode="&#x151;" horiz-adv-x="581" d="M40 192q0 17 2 34t5 34q11 61 34.5 111.5t60.5 86.5t87.5 56t115.5 20q109 0 162 -55.5t53 -149.5q0 -21 -2 -40.5t-6 -38.5q-24 -123 -100.5 -193.5t-194.5 -70.5q-59 0 -100 16t-67 44t-38 65.5t-12 80.5zM197 148q0 -41 14.5 -60t47.5 -19q51 0 80 45.5t50 145.5 q15 69 15 113q0 40 -14.5 59t-48.5 19q-48 0 -78 -45.5t-51 -145.5q-15 -69 -15 -112zM229 582l74 146h133l-110 -146h-97zM395 582l94 146h142l-134 -146h-102z" />
<glyph unicode="&#x152;" horiz-adv-x="882" d="M61 235q0 54 12 116q16 81 48 148t79 115t110 74.5t142 26.5q31 0 59 -3.5t50 -11.5h375l-22 -104h-260l-40 -186h234q0 -9 -2 -23t-5 -29t-7 -29t-8 -23h-234l-43 -202h274l-22 -104h-381q-26 -8 -55 -11.5t-59 -3.5q-64 0 -110 17.5t-76 50.5t-44.5 79t-14.5 103z M232 203q0 -61 22 -92t70 -31q15 0 31 2.5t29 7.5l110 519q-22 11 -55 11q-69 0 -114.5 -68.5t-73.5 -200.5q-9 -44 -14 -81t-5 -67z" />
<glyph unicode="&#x153;" horiz-adv-x="891" d="M40 192q0 17 2 34t5 34q11 61 34.5 111.5t60.5 86.5t87.5 56t115.5 20q55 0 95.5 -15t66.5 -42q72 57 174 57q54 0 92 -13t62 -37t35 -57t11 -72q0 -27 -5.5 -59t-16.5 -63h-310q-9 -48 -9 -81q0 -83 63 -83q21 0 36 9t26 22.5t18 28t11 25.5q22 0 44 -1t41.5 -3.5 t34.5 -5.5t24 -7q-32 -72 -90 -111.5t-153 -39.5q-110 0 -161 57q-72 -57 -177 -57q-59 0 -100 16t-67 44t-38 65.5t-12 80.5zM197 148q0 -41 14.5 -60t47.5 -19q51 0 80 45.5t50 145.5q15 69 15 113q0 40 -14.5 59t-48.5 19q-48 0 -78 -45.5t-51 -145.5q-15 -69 -15 -112z M565 311h161q9 42 9 72q0 35 -13.5 52t-43.5 17q-37 0 -65 -32.5t-48 -108.5z" />
<glyph unicode="&#x154;" horiz-adv-x="611" d="M23 0l148 700h213q122 0 178.5 -45.5t56.5 -127.5q0 -81 -38.5 -141t-126.5 -94l84 -283l-1 -9h-166l-67 263h-62l-56 -263h-163zM262 358h33q82 0 121.5 41t39.5 119q0 54 -29 72t-80 18h-33zM356 751l86 129h159l-142 -129h-103z" />
<glyph unicode="&#x155;" horiz-adv-x="389" d="M12 0l110 520h146l-20 -95h3q6 10 17.5 28.5t30 36t44 30.5t58.5 13q8 0 17.5 -0.5t11.5 -2.5q0 -15 -3 -35.5t-7.5 -41t-10 -38.5t-9.5 -28q-6 1 -19 2t-24 1q-52 0 -81 -14t-35 -20l-77 -356h-152zM224 582l91 146h157l-147 -146h-101z" />
<glyph unicode="&#x156;" horiz-adv-x="611" d="M23 0l148 700h213q122 0 178.5 -45.5t56.5 -127.5q0 -81 -38.5 -141t-126.5 -94l84 -283l-1 -9h-166l-67 263h-62l-56 -263h-163zM157 -230q20 10 40 25.5t28 35.5q-25 2 -39 16t-14 37q0 33 23 53t57 20q35 0 51.5 -16t16.5 -45q0 -51 -34.5 -90t-85.5 -55 q-17 1 -29 7.5t-14 11.5zM262 358h33q82 0 121.5 41t39.5 119q0 54 -29 72t-80 18h-33z" />
<glyph unicode="&#x157;" horiz-adv-x="389" d="M-25 -230q20 10 40 25.5t28 35.5q-25 2 -39 16t-14 37q0 33 23 53t57 20q35 0 51.5 -16t16.5 -45q0 -51 -34.5 -90t-85.5 -55q-17 1 -29 7.5t-14 11.5zM12 0l110 520h146l-20 -95h3q6 10 17.5 28.5t30 36t44 30.5t58.5 13q8 0 17.5 -0.5t11.5 -2.5q0 -15 -3 -35.5 t-7.5 -41t-10 -38.5t-9.5 -28q-6 1 -19 2t-24 1q-52 0 -81 -14t-35 -20l-77 -356h-152z" />
<glyph unicode="&#x158;" horiz-adv-x="611" d="M23 0l148 700h213q122 0 178.5 -45.5t56.5 -127.5q0 -81 -38.5 -141t-126.5 -94l84 -283l-1 -9h-166l-67 263h-62l-56 -263h-163zM262 358h33q82 0 121.5 41t39.5 119q0 54 -29 72t-80 18h-33zM279 880h88l56 -72h2l88 72h88l-110 -128h-157z" />
<glyph unicode="&#x159;" horiz-adv-x="389" d="M12 0l110 520h146l-20 -95h3q6 10 17.5 28.5t30 36t44 30.5t58.5 13q8 0 17.5 -0.5t11.5 -2.5q0 -15 -3 -35.5t-7.5 -41t-10 -38.5t-9.5 -28q-6 1 -19 2t-24 1q-52 0 -81 -14t-35 -20l-77 -356h-152zM166 727h89l49 -91h2l87 91h89l-109 -146h-158z" />
<glyph unicode="&#x15a;" horiz-adv-x="584" d="M20 165q8 5 24 10t35.5 8.5t41 6t40.5 2.5h10q1 -15 4 -34t13 -36.5t30 -29t54 -11.5q56 0 83 29t27 77q0 34 -20 55.5t-50.5 38t-66 32t-66 37.5t-50.5 54.5t-20 82.5q0 38 15 78.5t48 73.5t86.5 54.5t130.5 21.5q67 0 110 -16t68 -41.5t35 -56.5t10 -61 q-14 -7 -34.5 -11t-42 -6.5t-41 -3t-30.5 -0.5q0 13 -2 30t-11 32.5t-28 26.5t-53 11q-42 0 -72 -26t-30 -73q0 -31 20.5 -50t51.5 -34.5t67 -30.5t67 -37t51.5 -55t20.5 -84t-17.5 -95.5t-52.5 -77.5t-88.5 -52t-126.5 -19q-68 0 -113 15t-73 40t-40.5 57.5t-14.5 67.5z M351 751l86 129h159l-142 -129h-103z" />
<glyph unicode="&#x15b;" horiz-adv-x="487" d="M11 127q8 4 22.5 8t31.5 6.5t34 4t31 1.5h10q0 -12 2.5 -26t10.5 -26t22.5 -20t38.5 -8q39 0 60 20.5t21 52.5q0 19 -9.5 31t-24.5 20t-35 15t-41 15q-22 9 -43.5 19t-38 25t-27 36.5t-10.5 52.5q0 35 14.5 67.5t43 57.5t71 40t99.5 15q62 0 100 -14t59 -34.5t28 -44.5 t7 -45q-5 -4 -18 -7.5t-29.5 -6t-34 -4t-30.5 -1.5h-9.5t-8.5 1q0 9 -2 21.5t-9 24.5t-21 20t-38 8q-32 0 -54 -17.5t-22 -50.5q0 -12 4 -21.5t14.5 -17.5t28.5 -15.5t46 -17.5q24 -9 48.5 -19t44 -25.5t32 -38t12.5 -56.5q0 -44 -17 -79t-47.5 -59t-74 -36.5t-96.5 -12.5 q-58 0 -96 12t-60 32t-31 45t-9 52zM261 582l91 146h157l-147 -146h-101z" />
<glyph unicode="&#x15c;" horiz-adv-x="584" d="M20 165q8 5 24 10t35.5 8.5t41 6t40.5 2.5h10q1 -15 4 -34t13 -36.5t30 -29t54 -11.5q56 0 83 29t27 77q0 34 -20 55.5t-50.5 38t-66 32t-66 37.5t-50.5 54.5t-20 82.5q0 38 15 78.5t48 73.5t86.5 54.5t130.5 21.5q67 0 110 -16t68 -41.5t35 -56.5t10 -61 q-14 -7 -34.5 -11t-42 -6.5t-41 -3t-30.5 -0.5q0 13 -2 30t-11 32.5t-28 26.5t-53 11q-42 0 -72 -26t-30 -73q0 -31 20.5 -50t51.5 -34.5t67 -30.5t67 -37t51.5 -55t20.5 -84t-17.5 -95.5t-52.5 -77.5t-88.5 -52t-126.5 -19q-68 0 -113 15t-73 40t-40.5 57.5t-14.5 67.5z M258 752l109 128h158l55 -128h-88l-57 72h-2l-87 -72h-88z" />
<glyph unicode="&#x15d;" horiz-adv-x="487" d="M11 127q8 4 22.5 8t31.5 6.5t34 4t31 1.5h10q0 -12 2.5 -26t10.5 -26t22.5 -20t38.5 -8q39 0 60 20.5t21 52.5q0 19 -9.5 31t-24.5 20t-35 15t-41 15q-22 9 -43.5 19t-38 25t-27 36.5t-10.5 52.5q0 35 14.5 67.5t43 57.5t71 40t99.5 15q62 0 100 -14t59 -34.5t28 -44.5 t7 -45q-5 -4 -18 -7.5t-29.5 -6t-34 -4t-30.5 -1.5h-9.5t-8.5 1q0 9 -2 21.5t-9 24.5t-21 20t-38 8q-32 0 -54 -17.5t-22 -50.5q0 -12 4 -21.5t14.5 -17.5t28.5 -15.5t46 -17.5q24 -9 48.5 -19t44 -25.5t32 -38t12.5 -56.5q0 -44 -17 -79t-47.5 -59t-74 -36.5t-96.5 -12.5 q-58 0 -96 12t-60 32t-31 45t-9 52zM170 582l111 146h158l47 -146h-89l-48 91h-2l-88 -91h-89z" />
<glyph unicode="&#x15e;" horiz-adv-x="584" d="M20 165q8 5 24 10t35.5 8.5t41 6t40.5 2.5h10q1 -15 4 -34t13 -36.5t30 -29t54 -11.5q56 0 83 29t27 77q0 34 -20 55.5t-50.5 38t-66 32t-66 37.5t-50.5 54.5t-20 82.5q0 38 15 78.5t48 73.5t86.5 54.5t130.5 21.5q67 0 110 -16t68 -41.5t35 -56.5t10 -61 q-14 -7 -34.5 -11t-42 -6.5t-41 -3t-30.5 -0.5q0 13 -2 30t-11 32.5t-28 26.5t-53 11q-42 0 -72 -26t-30 -73q0 -31 20.5 -50t51.5 -34.5t67 -30.5t67 -37t51.5 -55t20.5 -84q0 -50 -17 -94.5t-51.5 -77.5t-87 -52t-123.5 -20l-20 -38q14 -3 28 -7t25.5 -12t19 -20.5 t7.5 -31.5q0 -26 -10.5 -45.5t-27.5 -32.5t-39.5 -19t-46.5 -6q-41 0 -62.5 8.5t-31.5 9.5l23 50q8 -5 22 -10.5t32 -5.5q50 0 50 42q0 23 -21.5 30.5t-48.5 12.5l40 78q-51 6 -86 22.5t-57 40.5t-32 53t-11 61z" />
<glyph unicode="&#x15f;" horiz-adv-x="487" d="M11 127q8 4 22.5 8t31.5 6.5t34 4t31 1.5h10q0 -12 2.5 -26t10.5 -26t22.5 -20t38.5 -8q39 0 60 20.5t21 52.5q0 19 -9.5 31t-24.5 20t-35 15t-41 15q-22 9 -43.5 19t-38 25t-27 36.5t-10.5 52.5q0 35 14.5 67.5t43 57.5t71 40t99.5 15q62 0 100 -14t59 -34.5t28 -44.5 t7 -45q-5 -4 -18 -7.5t-29.5 -6t-34 -4t-30.5 -1.5h-9.5t-8.5 1q0 9 -2 21.5t-9 24.5t-21 20t-38 8q-32 0 -54 -17.5t-22 -50.5q0 -12 4 -21.5t14.5 -17.5t28.5 -15.5t46 -17.5q24 -9 48.5 -19t44 -25.5t32 -38t12.5 -56.5q0 -85 -57.5 -133t-154.5 -53l-21 -40q14 -3 28 -7 t25.5 -12t19 -20.5t7.5 -31.5q0 -26 -9.5 -45.5t-26 -32.5t-38.5 -19t-47 -6q-44 0 -67.5 8t-28.5 12l22 48q8 -5 22.5 -10.5t35.5 -5.5q46 0 46 42q0 23 -21.5 30.5t-48.5 12.5l39 78q-46 4 -76 17t-48 32t-25 42.5t-7 47.5z" />
<glyph unicode="&#x160;" horiz-adv-x="584" d="M20 165q8 5 24 10t35.5 8.5t41 6t40.5 2.5h10q1 -15 4 -34t13 -36.5t30 -29t54 -11.5q56 0 83 29t27 77q0 34 -20 55.5t-50.5 38t-66 32t-66 37.5t-50.5 54.5t-20 82.5q0 38 15 78.5t48 73.5t86.5 54.5t130.5 21.5q67 0 110 -16t68 -41.5t35 -56.5t10 -61 q-14 -7 -34.5 -11t-42 -6.5t-41 -3t-30.5 -0.5q0 13 -2 30t-11 32.5t-28 26.5t-53 11q-42 0 -72 -26t-30 -73q0 -31 20.5 -50t51.5 -34.5t67 -30.5t67 -37t51.5 -55t20.5 -84t-17.5 -95.5t-52.5 -77.5t-88.5 -52t-126.5 -19q-68 0 -113 15t-73 40t-40.5 57.5t-14.5 67.5z M285 880h88l56 -72h2l88 72h88l-110 -128h-157z" />
<glyph unicode="&#x161;" horiz-adv-x="487" d="M11 127q8 4 22.5 8t31.5 6.5t34 4t31 1.5h10q0 -12 2.5 -26t10.5 -26t22.5 -20t38.5 -8q39 0 60 20.5t21 52.5q0 19 -9.5 31t-24.5 20t-35 15t-41 15q-22 9 -43.5 19t-38 25t-27 36.5t-10.5 52.5q0 35 14.5 67.5t43 57.5t71 40t99.5 15q62 0 100 -14t59 -34.5t28 -44.5 t7 -45q-5 -4 -18 -7.5t-29.5 -6t-34 -4t-30.5 -1.5h-9.5t-8.5 1q0 9 -2 21.5t-9 24.5t-21 20t-38 8q-32 0 -54 -17.5t-22 -50.5q0 -12 4 -21.5t14.5 -17.5t28.5 -15.5t46 -17.5q24 -9 48.5 -19t44 -25.5t32 -38t12.5 -56.5q0 -44 -17 -79t-47.5 -59t-74 -36.5t-96.5 -12.5 q-58 0 -96 12t-60 32t-31 45t-9 52zM198 727h89l49 -91h2l87 91h89l-109 -146h-158z" />
<glyph unicode="&#x162;" horiz-adv-x="530" d="M83 -209l23 50q8 -5 22 -10.5t32 -5.5q50 0 50 42q0 23 -21.5 30.5t-48.5 12.5l46 90h-48l127 596h-166l21 104h496l-22 -104h-166l-127 -596h-52l-28 -53q14 -3 28 -7t25.5 -12t19 -20.5t7.5 -31.5q0 -26 -10.5 -45.5t-27.5 -32.5t-39.5 -19t-46.5 -6q-41 0 -62.5 8.5 t-31.5 9.5z" />
<glyph unicode="&#x163;" horiz-adv-x="371" d="M36 -209l23 50q8 -5 22 -10.5t32 -5.5q50 0 50 42q0 23 -21.5 30.5t-48.5 12.5l43 86q-37 8 -55 30.5t-18 64.5q0 14 2 29t6 33l59 278h-61l19 89h67l27 130h148l-27 -130h103l-19 -89h-103l-55 -254q-8 -35 -8 -54q0 -20 13 -29.5t44 -9.5q22 0 41 7v-4q0 -9 -1.5 -22 t-4 -25.5t-5.5 -23t-6 -15.5q-8 -4 -31.5 -8.5t-57.5 -4.5h-18l-21 -41q14 -3 28 -7t25.5 -12t19 -20.5t7.5 -31.5q0 -26 -10.5 -45.5t-27.5 -32.5t-39.5 -19t-46.5 -6q-41 0 -62.5 8.5t-31.5 9.5z" />
<glyph unicode="&#x164;" horiz-adv-x="530" d="M99 596l21 104h496l-22 -104h-166l-127 -596h-163l127 596h-166zM246 880h88l56 -72h2l88 72h88l-110 -128h-157z" />
<glyph unicode="&#x165;" horiz-adv-x="425" d="M63 91q0 14 2 29t6 33l59 278h-61l19 89h67l27 130h148l-27 -130h103l-19 -89h-103l-55 -254q-8 -35 -8 -54q0 -20 13 -29.5t44 -9.5q22 0 41 7v-4q0 -9 -1.5 -22t-4 -25.5t-5.5 -23t-6 -15.5q-8 -4 -31.5 -8.5t-57.5 -4.5q-75 0 -112.5 22t-37.5 81zM363 599 q24 14 46.5 38.5t30.5 47.5q-21 5 -34 21.5t-13 42.5q0 36 22.5 56t51.5 20q35 0 52 -18t17 -49q0 -39 -15 -71t-36 -56.5t-44 -40t-38 -21.5q-18 1 -29 12t-11 18z" />
<glyph unicode="&#x166;" horiz-adv-x="530" d="M94 329l20 93h114l37 174h-166l21 104h496l-22 -104h-166l-37 -174h116l-21 -93h-115l-70 -329h-163l70 329h-114z" />
<glyph unicode="&#x167;" horiz-adv-x="371" d="M26 226l19 89h60l25 116h-61l19 89h67l27 130h148l-27 -130h103l-19 -89h-103l-25 -116h106l-19 -89h-107l-10 -49q-8 -35 -8 -54q0 -20 13 -29.5t44 -9.5q22 0 41 7v-4q0 -9 -1.5 -22t-4 -25.5t-5.5 -23t-6 -15.5q-8 -4 -31.5 -8.5t-57.5 -4.5q-75 0 -112.5 22t-37.5 81 q0 14 2 29t6 33l15 73h-60z" />
<glyph unicode="&#x168;" horiz-adv-x="664" d="M67 179q0 24 3.5 51t9.5 57l87 413h163l-90 -423q-9 -44 -9 -74q0 -54 25 -76t73 -22q53 0 91.5 35.5t58.5 125.5l92 434h134l-92 -431q-15 -68 -37 -121t-57 -89t-86.5 -55t-124.5 -19q-129 0 -185 49.5t-56 144.5zM281 748q31 72 67 101.5t79 29.5q23 0 38.5 -8t28 -18 t24.5 -18t28 -8q18 0 31.5 11.5t28.5 37.5h61q-17 -37 -33 -62t-32.5 -40t-34 -21.5t-37.5 -6.5q-26 0 -42 8t-29 17.5t-24.5 17.5t-28.5 8q-20 0 -36 -15t-28 -34h-61z" />
<glyph unicode="&#x169;" horiz-adv-x="560" d="M40 112q0 37 10 80l70 328h154l-66 -310q-5 -20 -7.5 -37.5t-2.5 -30.5q0 -25 12 -37.5t41 -12.5q24 0 43.5 7.5t33.5 18.5l86 402h154l-76 -358q-7 -32 -13 -67t-6 -59q0 -6 0.5 -10.5t1.5 -8.5l-139 -29q-6 12 -10.5 26.5t-4.5 35.5q-24 -25 -61 -44.5t-94 -19.5 q-126 0 -126 126zM181 590q31 72 67 101.5t79 29.5q23 0 38.5 -8t28 -18t24.5 -18t28 -8q18 0 31.5 11.5t28.5 37.5h61q-33 -74 -66.5 -102t-70.5 -28q-26 0 -42 8t-29 17.5t-24.5 17.5t-28.5 8q-20 0 -36 -15t-28 -34h-61z" />
<glyph unicode="&#x16a;" horiz-adv-x="664" d="M67 179q0 24 3.5 51t9.5 57l87 413h163l-90 -423q-9 -44 -9 -74q0 -54 25 -76t73 -22q53 0 91.5 35.5t58.5 125.5l92 434h134l-92 -431q-15 -68 -37 -121t-57 -89t-86.5 -55t-124.5 -19q-129 0 -185 49.5t-56 144.5zM309 765l20 95h310l-19 -95h-311z" />
<glyph unicode="&#x16b;" horiz-adv-x="560" d="M40 112q0 37 10 80l70 328h154l-66 -310q-5 -20 -7.5 -37.5t-2.5 -30.5q0 -25 12 -37.5t41 -12.5q24 0 43.5 7.5t33.5 18.5l86 402h154l-76 -358q-7 -32 -13 -67t-6 -59q0 -6 0.5 -10.5t1.5 -8.5l-139 -29q-6 12 -10.5 26.5t-4.5 35.5q-24 -25 -61 -44.5t-94 -19.5 q-126 0 -126 126zM210 609l20 95h311l-21 -95h-310z" />
<glyph unicode="&#x16c;" horiz-adv-x="664" d="M67 179q0 24 3.5 51t9.5 57l87 413h163l-90 -423q-9 -44 -9 -74q0 -54 25 -76t73 -22q53 0 91.5 35.5t58.5 125.5l92 434h134l-92 -431q-15 -68 -37 -121t-57 -89t-86.5 -55t-124.5 -19q-129 0 -185 49.5t-56 144.5zM327 859v9.5t1 9.5h74q0 -28 15 -42.5t49 -14.5 q33 0 53 14.5t32 43.5h74q-6 -26 -18 -50.5t-32 -44.5t-49 -32t-69 -12q-36 0 -61 10.5t-40.5 27.5t-22 38t-6.5 43z" />
<glyph unicode="&#x16d;" horiz-adv-x="560" d="M40 112q0 37 10 80l70 328h154l-66 -310q-5 -20 -7.5 -37.5t-2.5 -30.5q0 -25 12 -37.5t41 -12.5q24 0 43.5 7.5t33.5 18.5l86 402h154l-76 -358q-7 -32 -13 -67t-6 -59q0 -6 0.5 -10.5t1.5 -8.5l-139 -29q-6 12 -10.5 26.5t-4.5 35.5q-24 -25 -61 -44.5t-94 -19.5 q-126 0 -126 126zM225 697q0 7 0.5 14t1.5 13h74q0 -28 13.5 -47.5t48.5 -19.5q36 0 55.5 19t31.5 48h74q-7 -25 -18.5 -51.5t-31 -48t-48.5 -35.5t-72 -14q-38 0 -62.5 11t-39.5 28.5t-21 39.5t-6 43z" />
<glyph unicode="&#x16e;" horiz-adv-x="664" d="M67 179q0 24 3.5 51t9.5 57l87 413h163l-90 -423q-9 -44 -9 -74q0 -54 25 -76t73 -22q53 0 91.5 35.5t58.5 125.5l92 434h134l-92 -431q-15 -68 -37 -121t-57 -89t-86.5 -55t-124.5 -19q-129 0 -185 49.5t-56 144.5zM354 816q0 27 9.5 52t27.5 43t43 28.5t56 10.5 q52 0 78 -25t26 -66q0 -62 -39 -97.5t-98 -35.5q-48 0 -75.5 24.5t-27.5 65.5zM423 820q0 -18 9 -29t30 -11q28 0 44.5 22t16.5 55q0 18 -9 28.5t-29 10.5q-29 0 -45.5 -23t-16.5 -53z" />
<glyph unicode="&#x16f;" horiz-adv-x="560" d="M40 112q0 37 10 80l70 328h154l-66 -310q-5 -20 -7.5 -37.5t-2.5 -30.5q0 -25 12 -37.5t41 -12.5q24 0 43.5 7.5t33.5 18.5l86 402h154l-76 -358q-7 -32 -13 -67t-6 -59q0 -6 0.5 -10.5t1.5 -8.5l-139 -29q-6 12 -10.5 26.5t-4.5 35.5q-24 -25 -61 -44.5t-94 -19.5 q-126 0 -126 126zM258 661q0 27 9.5 52t27.5 43t43 28.5t56 10.5q52 0 78 -25t26 -66q0 -62 -39 -97.5t-98 -35.5q-48 0 -75.5 24.5t-27.5 65.5zM327 665q0 -18 9 -29t30 -11q28 0 44.5 22t16.5 55q0 18 -9 28.5t-29 10.5q-29 0 -45.5 -23t-16.5 -53z" />
<glyph unicode="&#x170;" horiz-adv-x="664" d="M67 179q0 24 3.5 51t9.5 57l87 413h163l-90 -423q-9 -44 -9 -74q0 -54 25 -76t73 -22q53 0 91.5 35.5t58.5 125.5l92 434h134l-92 -431q-15 -68 -37 -121t-57 -89t-86.5 -55t-124.5 -19q-129 0 -185 49.5t-56 144.5zM310 751l67 129h133l-103 -129h-97zM483 751l87 129 h142l-127 -129h-102z" />
<glyph unicode="&#x171;" horiz-adv-x="560" d="M40 112q0 37 10 80l70 328h154l-66 -310q-5 -20 -7.5 -37.5t-2.5 -30.5q0 -25 12 -37.5t41 -12.5q24 0 43.5 7.5t33.5 18.5l86 402h154l-76 -358q-7 -32 -13 -67t-6 -59q0 -6 0.5 -10.5t1.5 -8.5l-139 -29q-6 12 -10.5 26.5t-4.5 35.5q-24 -25 -61 -44.5t-94 -19.5 q-126 0 -126 126zM213 582l74 146h133l-110 -146h-97zM379 582l94 146h142l-134 -146h-102z" />
<glyph unicode="&#x172;" horiz-adv-x="664" d="M67 179q0 24 3.5 51t9.5 57l87 413h163l-90 -423q-9 -44 -9 -74q0 -54 25 -76t73 -22q53 0 91.5 35.5t58.5 125.5l92 434h134l-92 -431q-20 -90 -52.5 -153t-92.5 -96q-66 -35 -99.5 -69t-33.5 -72q0 -29 39 -29q13 0 25.5 3t22.5 8l13 -50q-10 -9 -44 -22t-79 -13 q-51 0 -74 19t-23 56q0 42 25 73.5t73 60.5h-5q-129 0 -185 49.5t-56 144.5z" />
<glyph unicode="&#x173;" horiz-adv-x="560" d="M40 112q0 37 10 80l70 328h154l-66 -310q-5 -20 -7.5 -37.5t-2.5 -30.5q0 -25 12 -37.5t41 -12.5q24 0 43.5 7.5t33.5 18.5l86 402h154l-76 -358q-7 -32 -13 -67t-6 -59q0 -6 0.5 -10.5t1.5 -8.5q-29 -12 -53.5 -28t-43.5 -34t-29.5 -37.5t-10.5 -38.5q0 -29 39 -29 q13 0 25.5 3t22.5 8l13 -50q-10 -9 -43 -22t-80 -13q-51 0 -74 19t-23 56q0 43 31 80.5t82 66.5q-5 10 -7.5 22.5t-2.5 29.5q-24 -25 -61 -44.5t-94 -19.5q-126 0 -126 126z" />
<glyph unicode="&#x174;" horiz-adv-x="937" d="M123 691v9h164l-2 -256q-2 -118 -5.5 -186t-6.5 -94h5q8 26 31.5 88.5t65.5 154.5l133 293h151l4 -168q1 -44 1.5 -72t1 -45t0.5 -27v-18q0 -78 -2.5 -130t-5.5 -72h4q8 23 30.5 84.5t66.5 165.5l120 282h141v-9l-313 -691h-170l-5 188q-3 125 0 205.5t5 109.5h-4 q-9 -29 -38.5 -105t-79.5 -187l-95 -211h-182zM434 752l109 128h158l55 -128h-88l-57 72h-2l-87 -72h-88z" />
<glyph unicode="&#x175;" horiz-adv-x="743" d="M88 510v10h152v-103q0 -94 -4 -155.5t-9 -94.5h2q11 34 32.5 85t52.5 114l70 143h118q1 -30 2.5 -54.5t2.5 -47.5t1.5 -46t0.5 -51q0 -43 -1.5 -80t-3.5 -63h3q11 33 32 90.5t63 155.5l46 107h130v-10l-236 -510h-136l-8 136q-2 45 -2.5 70.5t-0.5 41.5q0 27 0.5 46.5 t2.5 33.5h-3q-9 -26 -26 -67.5t-44 -98.5l-76 -162h-148zM296 582l111 146h158l47 -146h-89l-48 91h-2l-88 -91h-89z" />
<glyph unicode="&#x176;" horiz-adv-x="609" d="M115 691v9h169l69 -302h4l200 302h143v-9l-306 -437l-53 -254h-163l53 252zM264 752l109 128h158l55 -128h-88l-57 72h-2l-87 -72h-88z" />
<glyph unicode="&#x177;" horiz-adv-x="516" d="M-37 -195q0 12 2.5 29t6.5 35t8.5 34t8.5 25q8 -2 25 -4.5t32 -2.5q18 0 31.5 3.5t25.5 12t23.5 22.5t24.5 36l-68 515v10h156l14 -138q3 -26 5 -53t3.5 -52t2.5 -47t1 -38v-7h2q4 11 13.5 32t21.5 48t26 57t29 59l71 139h130v-10l-286 -538q-23 -44 -43 -76.5t-45.5 -54 t-60.5 -32.5t-89 -11q-25 0 -45.5 2.5t-25.5 4.5zM182 582l111 146h158l47 -146h-89l-48 91h-2l-88 -91h-89z" />
<glyph unicode="&#x178;" horiz-adv-x="609" d="M115 691v9h169l69 -302h4l200 302h143v-9l-306 -437l-53 -254h-163l53 252zM255 797q0 40 26.5 61.5t60.5 21.5q35 0 50.5 -17t15.5 -40q0 -40 -26.5 -62.5t-63.5 -22.5q-34 0 -48.5 17.5t-14.5 41.5zM470 797q0 40 26.5 61.5t61.5 21.5t50 -17t15 -40q0 -40 -26.5 -62.5 t-62.5 -22.5q-34 0 -49 17.5t-15 41.5z" />
<glyph unicode="&#x179;" horiz-adv-x="600" d="M-9 0l14 69l442 527h-316l22 104h514l-14 -69l-442 -527h329l-22 -104h-527zM359 751l86 129h159l-142 -129h-103z" />
<glyph unicode="&#x17a;" horiz-adv-x="493" d="M-16 0l12 57l319 374h-222l19 89h418l-13 -57l-321 -374h240l-18 -89h-434zM277 582l91 146h157l-147 -146h-101z" />
<glyph unicode="&#x17b;" horiz-adv-x="600" d="M-9 0l14 69l442 527h-316l22 104h514l-14 -69l-442 -527h329l-22 -104h-527zM365 808q0 38 25 58t58 20q35 0 50 -16t15 -37q0 -38 -25 -59t-60 -21t-49 16t-14 39z" />
<glyph unicode="&#x17c;" horiz-adv-x="493" d="M-16 0l12 57l319 374h-222l19 89h418l-13 -57l-321 -374h240l-18 -89h-434zM260 650q0 42 27.5 63.5t63.5 21.5q38 0 54 -17.5t16 -40.5q0 -42 -28 -64.5t-66 -22.5q-36 0 -51.5 17t-15.5 43z" />
<glyph unicode="&#x17d;" horiz-adv-x="600" d="M-9 0l14 69l442 527h-316l22 104h514l-14 -69l-442 -527h329l-22 -104h-527zM292 880h88l56 -72h2l88 72h88l-110 -128h-157z" />
<glyph unicode="&#x17e;" horiz-adv-x="493" d="M-16 0l12 57l319 374h-222l19 89h418l-13 -57l-321 -374h240l-18 -89h-434zM203 727h89l49 -91h2l87 91h89l-109 -146h-158z" />
<glyph unicode="&#x18f;" horiz-adv-x="681" d="M56 218q0 35 5.5 72.5t19.5 79.5h411q15 76 15 129q0 62 -21.5 92t-69.5 30q-32 0 -55.5 -13t-41 -31t-28.5 -38.5t-17 -35.5h-12q-15 0 -34.5 1.5t-39 4t-37 6.5t-27.5 10q37 88 114.5 138.5t193.5 50.5q65 0 111.5 -17.5t76.5 -50t44 -79t14 -104.5q0 -107 -29 -195 t-81 -151t-124 -97.5t-158 -34.5q-60 0 -103.5 17.5t-71.5 48.5t-41.5 74t-13.5 93zM216 181q0 -104 81 -104q61 0 103.5 49t71.5 158h-243q-6 -30 -9.5 -55.5t-3.5 -47.5z" />
<glyph unicode="&#x192;" d="M11 -192q0 7 2 19.5t5 25.5t6.5 24.5t5.5 16.5q4 -3 18 -6t31 -3q38 0 56 20t29 71l78 366h-92l18 83h92l18 85q20 96 73 135t146 39q31 0 56 -4t30 -7q0 -8 -2 -20t-4.5 -25t-5.5 -24.5t-6 -16.5q-5 3 -19 6t-31 3q-38 0 -55.5 -19t-27.5 -65l-19 -87h121l-18 -83h-120 l-79 -371q-10 -48 -27.5 -81t-43.5 -54t-63 -30t-86 -9q-31 0 -55 3.5t-31 7.5z" />
<glyph unicode="&#x1fc;" horiz-adv-x="870" d="M-29 0l2 9l442 691h508l-22 -104h-260l-40 -185h234q0 -9 -2 -23.5t-5 -29.5t-7 -29t-8 -23h-234l-43 -202h274l-22 -104h-436l35 169h-170l-104 -169h-142zM281 273h128l69 323h-5q-12 -24 -44.5 -79t-81.5 -136zM609 751l86 129h159l-142 -129h-103z" />
<glyph unicode="&#x1fd;" horiz-adv-x="837" d="M19 123q0 49 19.5 84.5t52.5 58t76.5 33t90.5 10.5q28 0 49.5 -2t36.5 -5l10 49q5 20 6.5 32t1.5 20q0 23 -11.5 34.5t-42.5 11.5q-20 0 -36 -7.5t-27.5 -19.5t-19.5 -25.5t-12 -25.5q-19 0 -39.5 2.5t-39 7t-32 10.5t-19.5 12q25 64 89.5 97.5t149.5 33.5q56 0 92 -12.5 t57 -33.5q69 46 156 46q53 0 91 -13t62 -37t35.5 -57t11.5 -72q0 -27 -5.5 -59t-16.5 -63h-311q-4 -24 -6 -43.5t-2 -36.5q0 -44 15.5 -64t46.5 -20q22 0 37.5 9t26.5 22.5t17.5 27.5t10.5 25h11q16 0 36.5 -1t39.5 -3t34.5 -5t23.5 -7q-32 -72 -88.5 -111.5t-156.5 -39.5 q-124 0 -173 71q-14 -13 -32.5 -25.5t-41 -22.5t-50.5 -16t-61 -6q-82 0 -122.5 36t-40.5 100zM171 137q0 -36 20.5 -50.5t51.5 -14.5q32 0 57 12t42 29q-5 15 -7.5 34t-2.5 46q0 8 0.5 20t1.5 22q-10 2 -21.5 3.5t-26.5 1.5q-22 0 -42.5 -5t-36.5 -17t-26 -32t-10 -49z M437 582l91 146h157l-147 -146h-101zM511 311h161q9 42 9 72q0 35 -13.5 52t-43.5 17q-38 0 -65.5 -32.5t-47.5 -108.5z" />
<glyph unicode="&#x1fe;" horiz-adv-x="706" d="M31 2l68 77q-20 30 -29 69t-9 86q0 54 12 117q16 81 48 148t79 115t110 74.5t142 26.5q54 0 96 -13t72 -37l51 58l57 -42l-62 -70q33 -59 33 -145q0 -54 -12 -115q-16 -81 -46.5 -148.5t-77.5 -116t-110.5 -75t-144.5 -26.5q-52 0 -92.5 11.5t-69.5 33.5l-59 -66z M233 229l289 326q-17 64 -85 64t-113 -68t-73 -200q-15 -70 -18 -122zM241 136q18 -55 81 -55q68 0 114 68t74 202q6 29 10 55t6 49zM416 751l86 129h159l-142 -129h-103z" />
<glyph unicode="&#x1ff;" horiz-adv-x="581" d="M20 12l52 56q-17 26 -24.5 57.5t-7.5 66.5q0 17 2 34t5 34q11 61 34.5 111.5t60.5 86.5t87.5 56t115.5 20q82 0 135 -34l44 47l56 -44l-51 -53q31 -49 31 -121q0 -21 -2 -40.5t-6 -38.5q-24 -123 -100.5 -193.5t-194.5 -70.5q-45 0 -78.5 9t-58.5 26l-47 -49zM200 204 l199 210q-14 40 -58 40q-48 0 -79 -46.5t-52 -146.5q-4 -18 -6 -31zM201 106q12 -40 58 -40q25 0 46 12.5t38.5 41.5t31 76.5t25.5 117.5zM311 582l91 146h157l-147 -146h-101z" />
<glyph unicode="&#x218;" horiz-adv-x="584" d="M20 165q8 5 24 10t35.5 8.5t41 6t40.5 2.5h10q1 -15 4 -34t13 -36.5t30 -29t54 -11.5q56 0 83 29t27 77q0 34 -20 55.5t-50.5 38t-66 32t-66 37.5t-50.5 54.5t-20 82.5q0 38 15 78.5t48 73.5t86.5 54.5t130.5 21.5q67 0 110 -16t68 -41.5t35 -56.5t10 -61 q-14 -7 -34.5 -11t-42 -6.5t-41 -3t-30.5 -0.5q0 13 -2 30t-11 32.5t-28 26.5t-53 11q-42 0 -72 -26t-30 -73q0 -31 20.5 -50t51.5 -34.5t67 -30.5t67 -37t51.5 -55t20.5 -84t-17.5 -95.5t-52.5 -77.5t-88.5 -52t-126.5 -19q-68 0 -113 15t-73 40t-40.5 57.5t-14.5 67.5z M136 -230q20 10 40 25.5t28 35.5q-25 2 -39 16t-14 37q0 33 23 53t57 20q35 0 51.5 -16t16.5 -45q0 -51 -34.5 -90t-85.5 -55q-17 1 -29 7.5t-14 11.5z" />
<glyph unicode="&#x219;" horiz-adv-x="487" d="M11 127q8 4 22.5 8t31.5 6.5t34 4t31 1.5h10q0 -12 2.5 -26t10.5 -26t22.5 -20t38.5 -8q39 0 60 20.5t21 52.5q0 19 -9.5 31t-24.5 20t-35 15t-41 15q-22 9 -43.5 19t-38 25t-27 36.5t-10.5 52.5q0 35 14.5 67.5t43 57.5t71 40t99.5 15q62 0 100 -14t59 -34.5t28 -44.5 t7 -45q-5 -4 -18 -7.5t-29.5 -6t-34 -4t-30.5 -1.5h-9.5t-8.5 1q0 9 -2 21.5t-9 24.5t-21 20t-38 8q-32 0 -54 -17.5t-22 -50.5q0 -12 4 -21.5t14.5 -17.5t28.5 -15.5t46 -17.5q24 -9 48.5 -19t44 -25.5t32 -38t12.5 -56.5q0 -44 -17 -79t-47.5 -59t-74 -36.5t-96.5 -12.5 q-58 0 -96 12t-60 32t-31 45t-9 52zM90 -230q20 10 40 25.5t28 35.5q-25 2 -39 16t-14 37q0 33 23 53t57 20q35 0 51.5 -16t16.5 -45q0 -51 -34.5 -90t-85.5 -55q-17 1 -29 7.5t-14 11.5z" />
<glyph unicode="&#x21a;" horiz-adv-x="530" d="M99 596l21 104h496l-22 -104h-166l-127 -596h-163l127 596h-166zM103 -230q20 10 40 25.5t28 35.5q-25 2 -39 16t-14 37q0 33 23 53t57 20q35 0 51.5 -16t16.5 -45q0 -51 -34.5 -90t-85.5 -55q-17 1 -29 7.5t-14 11.5z" />
<glyph unicode="&#x21b;" horiz-adv-x="371" d="M58 -230q20 10 40 25.5t28 35.5q-25 2 -39 16t-14 37q0 33 23 53t57 20q35 0 51.5 -16t16.5 -45q0 -51 -34.5 -90t-85.5 -55q-17 1 -29 7.5t-14 11.5zM63 91q0 14 2 29t6 33l59 278h-61l19 89h67l27 130h148l-27 -130h103l-19 -89h-103l-55 -254q-8 -35 -8 -54 q0 -20 13 -29.5t44 -9.5q22 0 41 7v-4q0 -9 -1.5 -22t-4 -25.5t-5.5 -23t-6 -15.5q-8 -4 -31.5 -8.5t-57.5 -4.5q-75 0 -112.5 22t-37.5 81z" />
<glyph unicode="&#x237;" horiz-adv-x="267" d="M-128 -194q0 18 5 44.5t14 41.5q6 -2 19.5 -3.5t24.5 -1.5q34 0 47.5 18.5t21.5 57.5l118 557h154l-117 -552q-11 -51 -27.5 -83.5t-41.5 -51.5t-60.5 -26.5t-84.5 -7.5q-23 0 -45 2.5t-28 4.5z" />
<glyph unicode="&#x259;" horiz-adv-x="548" d="M32 164q0 28 5 60t16 63h311q4 23 6 42.5t2 36.5q0 85 -62 85q-21 0 -36 -9.5t-26 -22.5t-18 -27.5t-11 -24.5q-4 0 -8.5 -0.5t-9.5 -0.5q-14 0 -32 1t-36 3t-33.5 5t-24.5 8q32 72 90 111.5t153 39.5q110 0 160 -54t50 -150q0 -81 -22.5 -145t-62.5 -108t-94.5 -67.5 t-117.5 -23.5q-53 0 -91 13t-62 37t-35 56.5t-11 71.5zM178 135q0 -68 56 -68q38 0 65.5 32.5t47.5 109.5h-160q-9 -44 -9 -74z" />
<glyph unicode="&#x2c6;" horiz-adv-x="427" d="M133 582l111 146h158l47 -146h-89l-48 91h-2l-88 -91h-89z" />
<glyph unicode="&#x2c7;" horiz-adv-x="427" d="M164 727h89l49 -91h2l87 91h89l-109 -146h-158z" />
<glyph unicode="&#x2d8;" horiz-adv-x="408" d="M161 697q0 7 0.5 14t1.5 13h74q0 -28 13.5 -47.5t48.5 -19.5q36 0 55.5 19t31.5 48h74q-7 -25 -18.5 -51.5t-31 -48t-48.5 -35.5t-72 -14q-38 0 -62.5 11t-39.5 28.5t-21 39.5t-6 43z" />
<glyph unicode="&#x2d9;" horiz-adv-x="271" d="M151 650q0 42 27.5 63.5t63.5 21.5q38 0 54 -17.5t16 -40.5q0 -42 -28 -64.5t-66 -22.5q-36 0 -51.5 17t-15.5 43z" />
<glyph unicode="&#x2da;" horiz-adv-x="319" d="M141 661q0 27 9.5 52t27.5 43t43 28.5t56 10.5q52 0 78 -25t26 -66q0 -62 -39 -97.5t-98 -35.5q-48 0 -75.5 24.5t-27.5 65.5zM210 665q0 -18 9 -29t30 -11q28 0 44.5 22t16.5 55q0 18 -9 28.5t-29 10.5q-29 0 -45.5 -23t-16.5 -53z" />
<glyph unicode="&#x2db;" horiz-adv-x="338" d="M-20 -149q0 32 18.5 59.5t50 50t73 39t88.5 27.5l25 -27q-28 -12 -52.5 -25t-43 -28t-29 -32t-10.5 -36q0 -29 39 -29q13 0 25.5 3t22.5 8l13 -50q-10 -9 -44 -22t-79 -13q-51 0 -74 19t-23 56z" />
<glyph unicode="&#x2dc;" horiz-adv-x="470" d="M135 590q31 72 67 101.5t79 29.5q23 0 38.5 -8t28 -18t24.5 -18t28 -8q18 0 31.5 11.5t28.5 37.5h61q-33 -74 -66.5 -102t-70.5 -28q-26 0 -42 8t-29 17.5t-24.5 17.5t-28.5 8q-20 0 -36 -15t-28 -34h-61z" />
<glyph unicode="&#x2dd;" horiz-adv-x="481" d="M133 582l74 146h133l-110 -146h-97zM299 582l94 146h142l-134 -146h-102z" />
<glyph unicode="&#x1e80;" horiz-adv-x="937" d="M123 691v9h164l-2 -256q-2 -118 -5.5 -186t-6.5 -94h5q8 26 31.5 88.5t65.5 154.5l133 293h151l4 -168q1 -44 1.5 -72t1 -45t0.5 -27v-18q0 -78 -2.5 -130t-5.5 -72h4q8 23 30.5 84.5t66.5 165.5l120 282h141v-9l-313 -691h-170l-5 188q-3 125 0 205.5t5 109.5h-4 q-9 -29 -38.5 -105t-79.5 -187l-95 -211h-182zM461 880h159l30 -129h-102z" />
<glyph unicode="&#x1e81;" horiz-adv-x="743" d="M88 510v10h152v-103q0 -94 -4 -155.5t-9 -94.5h2q11 34 32.5 85t52.5 114l70 143h118q1 -30 2.5 -54.5t2.5 -47.5t1.5 -46t0.5 -51q0 -43 -1.5 -80t-3.5 -63h3q11 33 32 90.5t63 155.5l46 107h130v-10l-236 -510h-136l-8 136q-2 45 -2.5 70.5t-0.5 41.5q0 27 0.5 46.5 t2.5 33.5h-3q-9 -26 -26 -67.5t-44 -98.5l-76 -162h-148zM309 728h158l29 -146h-102z" />
<glyph unicode="&#x1e82;" horiz-adv-x="937" d="M123 691v9h164l-2 -256q-2 -118 -5.5 -186t-6.5 -94h5q8 26 31.5 88.5t65.5 154.5l133 293h151l4 -168q1 -44 1.5 -72t1 -45t0.5 -27v-18q0 -78 -2.5 -130t-5.5 -72h4q8 23 30.5 84.5t66.5 165.5l120 282h141v-9l-313 -691h-170l-5 188q-3 125 0 205.5t5 109.5h-4 q-9 -29 -38.5 -105t-79.5 -187l-95 -211h-182zM540 751l86 129h159l-142 -129h-103z" />
<glyph unicode="&#x1e83;" horiz-adv-x="743" d="M88 510v10h152v-103q0 -94 -4 -155.5t-9 -94.5h2q11 34 32.5 85t52.5 114l70 143h118q1 -30 2.5 -54.5t2.5 -47.5t1.5 -46t0.5 -51q0 -43 -1.5 -80t-3.5 -63h3q11 33 32 90.5t63 155.5l46 107h130v-10l-236 -510h-136l-8 136q-2 45 -2.5 70.5t-0.5 41.5q0 27 0.5 46.5 t2.5 33.5h-3q-9 -26 -26 -67.5t-44 -98.5l-76 -162h-148zM414 582l91 146h157l-147 -146h-101z" />
<glyph unicode="&#x1e84;" horiz-adv-x="937" d="M123 691v9h164l-2 -256q-2 -118 -5.5 -186t-6.5 -94h5q8 26 31.5 88.5t65.5 154.5l133 293h151l4 -168q1 -44 1.5 -72t1 -45t0.5 -27v-18q0 -78 -2.5 -130t-5.5 -72h4q8 23 30.5 84.5t66.5 165.5l120 282h141v-9l-313 -691h-170l-5 188q-3 125 0 205.5t5 109.5h-4 q-9 -29 -38.5 -105t-79.5 -187l-95 -211h-182zM420 797q0 40 26.5 61.5t60.5 21.5q35 0 50.5 -17t15.5 -40q0 -40 -26.5 -62.5t-63.5 -22.5q-34 0 -48.5 17.5t-14.5 41.5zM635 797q0 40 26.5 61.5t61.5 21.5t50 -17t15 -40q0 -40 -26.5 -62.5t-62.5 -22.5q-34 0 -49 17.5 t-15 41.5z" />
<glyph unicode="&#x1e85;" horiz-adv-x="743" d="M88 510v10h152v-103q0 -94 -4 -155.5t-9 -94.5h2q11 34 32.5 85t52.5 114l70 143h118q1 -30 2.5 -54.5t2.5 -47.5t1.5 -46t0.5 -51q0 -43 -1.5 -80t-3.5 -63h3q11 33 32 90.5t63 155.5l46 107h130v-10l-236 -510h-136l-8 136q-2 45 -2.5 70.5t-0.5 41.5q0 27 0.5 46.5 t2.5 33.5h-3q-9 -26 -26 -67.5t-44 -98.5l-76 -162h-148zM286 640q0 40 26.5 61.5t60.5 21.5q36 0 51 -17t15 -40q0 -40 -26 -62.5t-62 -22.5q-35 0 -50 17.5t-15 41.5zM493 640q0 40 26 61.5t60 21.5q36 0 51.5 -17t15.5 -40q0 -40 -27 -62.5t-62 -22.5t-49.5 17.5 t-14.5 41.5z" />
<glyph unicode="&#x1ef2;" horiz-adv-x="609" d="M115 691v9h169l69 -302h4l200 302h143v-9l-306 -437l-53 -254h-163l53 252zM293 880h159l30 -129h-102z" />
<glyph unicode="&#x1ef3;" horiz-adv-x="516" d="M-37 -195q0 12 2.5 29t6.5 35t8.5 34t8.5 25q8 -2 25 -4.5t32 -2.5q18 0 31.5 3.5t25.5 12t23.5 22.5t24.5 36l-68 515v10h156l14 -138q3 -26 5 -53t3.5 -52t2.5 -47t1 -38v-7h2q4 11 13.5 32t21.5 48t26 57t29 59l71 139h130v-10l-286 -538q-23 -44 -43 -76.5t-45.5 -54 t-60.5 -32.5t-89 -11q-25 0 -45.5 2.5t-25.5 4.5zM203 728h158l29 -146h-102z" />
<glyph unicode="&#x2013;" horiz-adv-x="585" d="M53 238l26 121h489l-26 -121h-489z" />
<glyph unicode="&#x2014;" horiz-adv-x="803" d="M53 238l26 121h707l-26 -121h-707z" />
<glyph unicode="&#x2018;" horiz-adv-x="264" d="M100 503q0 43 17 79.5t41.5 63.5t51.5 44.5t46 23.5q23 0 36 -12.5t13 -20.5q-13 -7 -27 -17.5t-26.5 -23t-22.5 -25.5t-16 -26q28 -4 44 -23.5t16 -47.5q0 -40 -27.5 -66.5t-67.5 -26.5q-39 0 -58.5 21.5t-19.5 56.5z" />
<glyph unicode="&#x2019;" horiz-adv-x="264" d="M101 455q13 7 27 17.5t26.5 23t22.5 25.5t16 26q-28 4 -44 23.5t-16 47.5q0 40 27.5 66.5t67.5 26.5q39 0 58.5 -21.5t19.5 -56.5q0 -43 -17 -79.5t-41.5 -63.5t-51.5 -44.5t-46 -23.5q-23 0 -36 12.5t-13 20.5z" />
<glyph unicode="&#x201a;" horiz-adv-x="264" d="M-13 -100q13 7 27 17.5t26.5 23t22.5 25.5t16 26q-28 4 -44 23.5t-16 47.5q0 40 27.5 66.5t67.5 26.5q39 0 58.5 -21.5t19.5 -56.5q0 -43 -17 -79.5t-41.5 -63.5t-51.5 -44.5t-46 -23.5q-23 0 -36 12.5t-13 20.5z" />
<glyph unicode="&#x201c;" horiz-adv-x="479" d="M101 503q0 43 17 79.5t41.5 63.5t51.5 44.5t46 23.5q23 0 36 -12.5t13 -20.5q-13 -7 -27 -17.5t-26.5 -23t-22.5 -25.5t-16 -26q28 -4 44 -23.5t16 -47.5q0 -40 -27.5 -66.5t-67.5 -26.5q-39 0 -58.5 21.5t-19.5 56.5zM316 503q0 43 17 79.5t41.5 63.5t51.5 44.5t46 23.5 q23 0 36 -12.5t13 -20.5q-13 -7 -27 -17.5t-26.5 -23t-22.5 -25.5t-16 -26q28 -4 44 -23.5t16 -47.5q0 -40 -27.5 -66.5t-67.5 -26.5q-39 0 -58.5 21.5t-19.5 56.5z" />
<glyph unicode="&#x201d;" horiz-adv-x="479" d="M101 455q13 7 27 17.5t26.5 23t22.5 25.5t16 26q-28 4 -44 23.5t-16 47.5q0 40 27.5 66.5t67.5 26.5q39 0 58.5 -21.5t19.5 -56.5q0 -43 -17 -79.5t-41.5 -63.5t-51.5 -44.5t-46 -23.5q-23 0 -36 12.5t-13 20.5zM317 455q13 7 27 17.5t26.5 23t22.5 25.5t16 26 q-28 4 -44 23.5t-16 47.5q0 40 27.5 66.5t67.5 26.5q39 0 58.5 -21.5t19.5 -56.5q0 -43 -17 -79.5t-41.5 -63.5t-51.5 -44.5t-46 -23.5q-23 0 -36 12.5t-13 20.5z" />
<glyph unicode="&#x201e;" horiz-adv-x="480" d="M-13 -100q13 7 27 17.5t26.5 23t22.5 25.5t16 26q-28 4 -44 23.5t-16 47.5q0 40 27.5 66.5t67.5 26.5q39 0 58.5 -21.5t19.5 -56.5q0 -43 -17 -79.5t-41.5 -63.5t-51.5 -44.5t-46 -23.5q-23 0 -36 12.5t-13 20.5zM202 -100q13 7 27 17.5t26.5 23t22.5 25.5t16 26 q-28 4 -44 23.5t-16 47.5q0 40 27.5 66.5t67.5 26.5q39 0 58.5 -21.5t19.5 -56.5q0 -43 -17 -79.5t-41.5 -63.5t-51.5 -44.5t-46 -23.5q-23 0 -36 12.5t-13 20.5z" />
<glyph unicode="&#x2022;" horiz-adv-x="360" d="M69 321q0 33 13 62.5t36 52.5t54 36.5t66 13.5q53 0 82 -29.5t29 -74.5q0 -33 -13.5 -63t-36.5 -53.5t-54 -37t-65 -13.5q-54 0 -82.5 30.5t-28.5 75.5z" />
<glyph unicode="&#x2026;" horiz-adv-x="678" d="M7 59q0 44 28.5 68.5t66.5 24.5q39 0 56 -20.5t17 -44.5q0 -44 -27.5 -70t-68.5 -26q-38 0 -55 21t-17 47zM229 59q0 44 28.5 68.5t66.5 24.5q39 0 56 -20.5t17 -44.5q0 -44 -27.5 -70t-68.5 -26q-38 0 -55 21t-17 47zM451 59q0 44 28.5 68.5t66.5 24.5q39 0 56 -20.5 t17 -44.5q0 -44 -27.5 -70t-68.5 -26q-38 0 -55 21t-17 47z" />
<glyph unicode="&#x2030;" horiz-adv-x="1343" d="M92 452q0 27 6 57q19 91 74.5 146t150.5 55q78 0 116.5 -37.5t38.5 -103.5q0 -14 -2 -29t-5 -31q-19 -91 -73 -145.5t-149 -54.5q-79 0 -118 38.5t-39 104.5zM159 0l2 10l584 690h104l-2 -10l-584 -690h-104zM213 418q0 -29 10.5 -40t31.5 -11q17 0 29.5 6.5t23 23t19 44 t17.5 68.5q6 30 9.5 52t3.5 39q0 28 -10.5 39t-31.5 11q-17 0 -29.5 -6.5t-23 -23t-19 -43.5t-17.5 -68q-6 -30 -9.5 -52t-3.5 -39zM531 133q0 27 6 57q19 91 74.5 146t150.5 55q78 0 116.5 -37.5t38.5 -103.5q0 -14 -2 -29t-5 -31q-19 -91 -73 -145.5t-149 -54.5 q-79 0 -118 38.5t-39 104.5zM652 99q0 -29 10.5 -40t31.5 -11q17 0 29.5 6.5t23 23t19 44t17.5 68.5q6 30 9.5 52t3.5 39q0 28 -10.5 39t-31.5 11q-17 0 -29.5 -6.5t-23 -23t-19 -43.5t-17.5 -68q-13 -58 -13 -91zM943 133q0 27 6 57q19 91 74.5 146t150.5 55 q78 0 116.5 -37.5t38.5 -103.5q0 -14 -2 -29t-5 -31q-19 -91 -73 -145.5t-149 -54.5q-79 0 -118 38.5t-39 104.5zM1064 99q0 -29 10.5 -40t31.5 -11q17 0 29.5 6.5t23 23t19 44t17.5 68.5q6 30 9.5 52t3.5 39q0 28 -10.5 39t-31.5 11q-17 0 -29.5 -6.5t-23 -23t-19 -43.5 t-17.5 -68q-13 -58 -13 -91z" />
<glyph unicode="&#x2039;" horiz-adv-x="394" d="M59 257l5 19l218 213h121l-213 -223l117 -223h-121z" />
<glyph unicode="&#x203a;" horiz-adv-x="394" d="M14 43l213 223l-118 223h121l127 -213l-4 -19l-218 -214h-121z" />
<glyph unicode="&#x2044;" horiz-adv-x="208" d="M-206 0l2 10l578 690h98l-1 -10l-580 -690h-97z" />
<glyph unicode="&#x20a8;" d="M77 272l15 71h82q72 0 115 21t60 79h-236l15 70h231q0 50 -32 67.5t-99 17.5h-82l17 78h507l-29 -71h-141q20 -30 20 -82v-10h86l-27 -70h-72q-25 -81 -91 -119t-177 -45l205 -270l-2 -9h-177z" />
<glyph unicode="&#x20ac;" d="M41 246l15 70h45q2 14 5 30.5t7 32.5h-44l15 71h49q19 54 46.5 98.5t64 76t83 48.5t103.5 17q62 0 102 -14.5t63 -37t33.5 -48.5t13.5 -48q-9 -6 -24.5 -10.5t-33.5 -7.5t-37 -4.5t-35 -1.5h-11q0 17 -3 32.5t-11 27.5t-22.5 19t-36.5 7q-49 0 -81 -39.5t-54 -114.5h231 l-28 -71h-220q-4 -15 -7 -32t-5 -31h208l-27 -70h-192q-2 -20 -3.5 -37.5t-1.5 -33.5q0 -51 16 -77t57 -26q42 0 67 28t39 67q18 0 38.5 -2.5t39 -6.5t33 -9t20.5 -10q-8 -23 -25 -50t-46.5 -50t-72 -38.5t-100.5 -15.5q-62 0 -104 16t-68.5 45t-38 70.5t-11.5 92.5v18t1 19 h-52z" />
<glyph unicode="&#x2122;" horiz-adv-x="828" d="M94 641v59h285v-59h-97v-322h-92v322h-96zM423 319v381h112l44 -134q5 -15 10.5 -32.5t10.5 -34.5t9 -32t6 -26h2q4 22 14 58t21 66l46 135h122v-381h-93v135q0 47 0.5 87t1.5 56h-2q-3 -16 -11 -47t-22 -69l-57 -162h-56l-55 162q-6 17 -11 34.5t-9 33.5t-7 28.5 t-5 19.5h-3q1 -16 2 -56.5t1 -89.5v-132h-71z" />
<glyph unicode="&#x2212;" d="M57 245v107h502v-107h-502z" />
<glyph unicode="&#x2248;" d="M62 106v106q16 12 37 23q18 8 43 15.5t56 7.5q34 0 66 -8t63 -17.5t62 -17.5t63 -8q23 0 43.5 7t34.5 15q17 10 30 22v-111q-13 -10 -30 -17q-14 -7 -34 -12t-43 -5q-37 0 -69.5 8t-63 17.5t-61 17.5t-63.5 8q-28 0 -52 -8t-42 -18q-21 -11 -40 -25zM62 300v106 q16 12 37 23q18 8 43 15.5t56 7.5q34 0 66 -8t63 -17.5t62 -17.5t63 -8q23 0 43.5 7t34.5 15q17 10 30 22v-111q-13 -10 -30 -17q-14 -7 -34 -12t-43 -5q-37 0 -69.5 8t-63 17.5t-61 17.5t-63.5 8q-28 0 -52 -8t-42 -18q-21 -11 -40 -25z" />
<glyph unicode="&#xe000;" horiz-adv-x="520" d="M0 0v520h520v-520h-520z" />
<glyph unicode="&#xf6c3;" horiz-adv-x="277" d="M-21 -230q20 10 40 25.5t28 35.5q-25 2 -39 16t-14 37q0 33 23 53t57 20q35 0 51.5 -16t16.5 -45q0 -51 -34.5 -90t-85.5 -55q-17 1 -29 7.5t-14 11.5z" />
<glyph horiz-adv-x="267" d="M12 0l110 520h154l-110 -520h-154zM144 642q0 22 8 38.5t21.5 27.5t30.5 17t36 6q39 0 56 -18.5t17 -42.5q0 -44 -29.5 -67.5t-68.5 -23.5q-38 0 -54.5 18.5t-16.5 44.5z" />
<glyph horiz-adv-x="327" d="M197 880h159l30 -129h-102z" />
<glyph horiz-adv-x="327" d="M169 751l86 129h159l-142 -129h-103z" />
<glyph horiz-adv-x="414" d="M161 752l109 128h158l55 -128h-88l-57 72h-2l-87 -72h-88z" />
<glyph horiz-adv-x="414" d="M188 880h88l56 -72h2l88 72h88l-110 -128h-157z" />
<glyph horiz-adv-x="255" d="M118 489q24 14 46.5 38.5t30.5 47.5q-21 5 -34 21.5t-13 42.5q0 36 22.5 56t51.5 20q35 0 52 -18t17 -49q0 -39 -15 -71t-36 -56.5t-44 -40t-38 -21.5q-18 1 -29 12t-11 18z" />
<glyph horiz-adv-x="277" d="M155 637q0 35 14 62.5t34 47t41 31t35 14.5q18 -1 28.5 -7.5t11.5 -11.5q-23 -11 -42.5 -30t-26.5 -38q52 -8 52 -48q0 -39 -24.5 -59.5t-58.5 -20.5q-32 0 -48 15.5t-16 44.5z" />
<glyph horiz-adv-x="470" d="M175 748q31 72 67 101.5t79 29.5q23 0 38.5 -8t28 -18t24.5 -18t28 -8q18 0 31.5 11.5t28.5 37.5h61q-17 -37 -33 -62t-32.5 -40t-34 -21.5t-37.5 -6.5q-26 0 -42 8t-29 17.5t-24.5 17.5t-28.5 8q-20 0 -36 -15t-28 -34h-61z" />
<glyph horiz-adv-x="459" d="M172 797q0 40 26.5 61.5t60.5 21.5q35 0 50.5 -17t15.5 -40q0 -40 -26.5 -62.5t-63.5 -22.5q-34 0 -48.5 17.5t-14.5 41.5zM387 797q0 40 26.5 61.5t61.5 21.5t50 -17t15 -40q0 -40 -26.5 -62.5t-62.5 -22.5q-34 0 -49 17.5t-15 41.5z" />
<glyph horiz-adv-x="427" d="M175 765l20 95h310l-19 -95h-311z" />
<glyph horiz-adv-x="408" d="M195 859v9.5t1 9.5h74q0 -28 15 -42.5t49 -14.5q33 0 53 14.5t32 43.5h74q-6 -26 -18 -50.5t-32 -44.5t-49 -32t-69 -12q-36 0 -61 10.5t-40.5 27.5t-22 38t-6.5 43z" />
<glyph horiz-adv-x="319" d="M172 816q0 27 9.5 52t27.5 43t43 28.5t56 10.5q52 0 78 -25t26 -66q0 -62 -39 -97.5t-98 -35.5q-48 0 -75.5 24.5t-27.5 65.5zM241 820q0 -18 9 -29t30 -11q28 0 44.5 22t16.5 55q0 18 -9 28.5t-29 10.5q-29 0 -45.5 -23t-16.5 -53z" />
<glyph horiz-adv-x="485" d="M169 751l67 129h133l-103 -129h-97zM342 751l87 129h142l-127 -129h-102z" />
<glyph horiz-adv-x="292" d="M201 808q0 38 25 58t58 20q35 0 50 -16t15 -37q0 -38 -25 -59t-60 -21t-49 16t-14 39z" />
</font>
</defs>
</svg>
