<?xml version="1.0" standalone="no"?>
<!DOCTYPE svg PUBLIC "-//W3C//DTD SVG 1.1//EN" "http://www.w3.org/Graphics/SVG/1.1/DTD/svg11.dtd" >
<svg xmlns="http://www.w3.org/2000/svg">
<metadata></metadata>
<defs>
<font id="red_bull_siri_webblack" horiz-adv-x="293" >
<font-face units-per-em="1000" ascent="750" descent="-250" />
<missing-glyph horiz-adv-x="210" />
<glyph unicode="ff" horiz-adv-x="713" d="M15 407v124h55v14q0 51 15 85t41.5 54.5t64 29t82.5 8.5q32 0 56 -3t31 -7q1 -10 1.5 -22t0.5 -26q0 -20 -0.5 -37.5t-2.5 -23.5q-12 3 -27 3q-18 0 -32.5 -8t-14.5 -41v-26h94v14q0 102 56 145t163 43q39 0 68.5 -4.5t35.5 -8.5q2 -8 3 -23.5t1 -32.5q0 -21 -1 -39.5 t-3 -26.5q-5 2 -20 4.5t-31 2.5q-32 0 -44.5 -11.5t-12.5 -46.5v-16h99v-124h-99v-275q0 -45 2.5 -83t8.5 -49h-226v407h-94v-407h-215v407h-55z" />
<glyph unicode="fi" horiz-adv-x="633" d="M15 407v124h55v7q0 56 20 94t56 61.5t86 34t109 10.5q69 0 108 -7t47 -11q1 -4 2 -19.5t1 -31.5q0 -17 -1 -38.5t-3 -32.5q-17 5 -48.5 8.5t-65.5 3.5q-57 0 -76.5 -15.5t-19.5 -53.5v-10h94q13 0 38 0.5t55 1.5t62 2.5t60 3.5v-407q0 -45 2.5 -83t8.5 -49h-226v407h-94 v-407h-215v407h-55z" />
<glyph unicode="fl" horiz-adv-x="671" d="M15 407v124h55v14q0 102 55 145t153 43q43 0 67 -5t29 -8q2 -9 2 -23v-29q0 -20 -0.5 -38t-2.5 -28q-12 3 -31 3q-30 0 -43.5 -11.5t-13.5 -47.5v-15h88v-124h-88v-407h-215v407h-55zM417 0v704q13 0 38 0.5t55 1.5t62 3t60 4v-581q0 -45 2.5 -83t8.5 -49h-226z" />
<glyph unicode="ffi" horiz-adv-x="942" d="M15 407v124h55v14q0 51 15 85t41.5 54.5t64 29t82.5 8.5q32 0 56 -3t31 -7q1 -10 1.5 -22t0.5 -26q0 -20 -0.5 -37.5t-2.5 -23.5q-12 3 -27 3q-18 0 -32.5 -8t-14.5 -41v-26h94v7q0 56 20 94t56 61.5t86 34t109 10.5q69 0 108 -7t47 -11q1 -4 2 -19.5t1 -31.5 q0 -17 -1 -38.5t-3 -32.5q-17 5 -48.5 8.5t-65.5 3.5q-57 0 -76.5 -15.5t-19.5 -53.5v-10h94q13 0 38 0.5t55 1.5t62 2.5t60 3.5v-407q0 -45 2.5 -83t8.5 -49h-226v407h-94v-407h-215v407h-94v-407h-215v407h-55z" />
<glyph unicode="ffl" horiz-adv-x="980" d="M15 407v124h55v14q0 51 15 85t41.5 54.5t64 29t82.5 8.5q32 0 56 -3t31 -7q1 -10 1.5 -22t0.5 -26q0 -20 -0.5 -37.5t-2.5 -23.5q-12 3 -27 3q-18 0 -32.5 -8t-14.5 -41v-26h94v14q0 102 55 145t153 43q43 0 67 -5t29 -8q2 -9 2 -23v-29q0 -20 -0.5 -38t-2.5 -28 q-12 3 -31 3q-30 0 -43.5 -11.5t-13.5 -47.5v-15h88v-124h-88v-407h-215v407h-94v-407h-215v407h-55zM726 0v704q13 0 38 0.5t55 1.5t62 3t60 4v-581q0 -45 2.5 -83t8.5 -49h-226z" />
<glyph unicode="fj" horiz-adv-x="633" d="M15 407v124h55v7q0 56 20 94t56 61.5t86 34t109 10.5q69 0 108 -7t47 -11q1 -4 2 -19.5t1 -31.5q0 -17 -1 -38.5t-3 -32.5q-17 5 -48.5 8.5t-65.5 3.5q-57 0 -76.5 -15.5t-19.5 -53.5v-10h94q16 0 40.5 0.5t54 1.5t60.5 2.5t60 3.5v-552q0 -54 -15 -90t-43.5 -57.5 t-69.5 -30.5t-94 -9q-30 0 -54.5 3t-33.5 6q-2 8 -3 21.5t-1 27.5q0 20 1.5 38.5t4.5 29.5q7 -2 19 -3.5t25 -1.5q29 0 39 12t10 39v435h-94v-407h-215v407h-55z" />
<glyph unicode=" "  horiz-adv-x="210" />
<glyph unicode="&#x09;" horiz-adv-x="210" />
<glyph unicode="&#xa0;" horiz-adv-x="210" />
<glyph unicode="!" horiz-adv-x="296" d="M32 700q14 7 46.5 10t68.5 3q37 0 69.5 -3t47.5 -10l-35 -457h-162zM38 99q0 44 30.5 74.5t79.5 30.5t79.5 -30.5t30.5 -74.5q0 -22 -8 -42t-22.5 -35t-35 -23.5t-44.5 -8.5t-44.5 8.5t-35 23.5t-22.5 35t-8 42z" />
<glyph unicode="&#x22;" horiz-adv-x="497" d="M41 701q12 5 39 8t57 3q29 0 55 -3t37 -8l-30 -290q-9 -3 -26.5 -4.5t-37.5 -1.5q-23 0 -41.5 1.5t-23.5 4.5zM268 701q12 5 39 8t57 3q29 0 55 -3t37 -8l-30 -290q-9 -3 -26.5 -4.5t-37.5 -1.5q-23 0 -41.5 1.5t-23.5 4.5z" />
<glyph unicode="#" horiz-adv-x="580" d="M31 162v127h70l14 85h-50v128h70l28 174h152v-13l-26 -161h56l28 174h152v-13l-26 -161h50v-128h-70l-14 -85h51v-127h-71l-26 -162h-152v13l24 149h-56l-26 -162h-152v13l24 149h-50zM255 289h56l14 85h-56z" />
<glyph unicode="$" horiz-adv-x="580" d="M20 169q12 5 32.5 10t45 9t51 6.5t49.5 2.5h14.5t12.5 -1q1 -13 4 -28.5t11.5 -29t22.5 -23t37 -9.5q56 0 56 58q0 30 -24 48t-60 32.5t-78.5 29.5t-78.5 38.5t-60 60.5t-24 96q0 41 13.5 77.5t40 65.5t65.5 48.5t90 26.5v108h111v-107q54 -7 92 -25.5t62.5 -43t37 -53.5 t16.5 -57q-28 -14 -76 -21t-97 -7q-6 0 -12 0.5t-11 0.5q-1 12 -4 27t-11 28.5t-22.5 22.5t-36.5 9q-29 0 -43.5 -16.5t-14.5 -43.5q0 -30 24.5 -47t61 -30t79 -27t79 -37.5t61 -60t24.5 -95.5q0 -42 -13 -79.5t-39.5 -67.5t-65.5 -50.5t-91 -27.5v-105h-111v104 q-57 6 -97 23.5t-66.5 43t-40 55.5t-16.5 61z" />
<glyph unicode="%" horiz-adv-x="987" d="M21 507q0 93 50.5 149.5t155.5 56.5t155 -56.5t50 -149.5t-50 -149t-154 -56t-155.5 56t-51.5 149zM192 507q0 -41 1.5 -67t5 -40.5t10.5 -20t18 -5.5t18 5t10.5 19.5t5 40.5t1.5 68q0 41 -1.5 66.5t-5 40t-10.5 19.5t-18 5t-18 -5t-10.5 -19.5t-5 -40t-1.5 -66.5zM208 0 v13l436 687h133v-13l-437 -687h-132zM555 192q0 93 50.5 149.5t155.5 56.5t155 -56.5t50 -149.5t-50 -149t-154 -56t-155.5 56t-51.5 149zM726 192q0 -41 1.5 -67t5 -40.5t10.5 -20t18 -5.5t18 5t10.5 19.5t5 40.5t1.5 68q0 41 -1.5 66.5t-5 40t-10.5 19.5t-18 5t-18 -5 t-10.5 -19.5t-5 -40t-1.5 -66.5z" />
<glyph unicode="&#x26;" horiz-adv-x="690" d="M15 176q0 40 12 70.5t32.5 53t47 38t55.5 26.5q-34 42 -56 82.5t-22 84.5q0 35 13.5 68.5t42 59.5t73 42t107.5 16q62 0 106 -15t72 -39.5t41 -56t13 -65.5q0 -61 -30.5 -108t-99.5 -86l72 -86q5 20 7.5 41t2.5 44q8 1 18 1.5t21 0.5q17 0 37 -1t39.5 -3t36.5 -5t29 -6 q-7 -60 -27.5 -111.5t-51.5 -93.5l98 -116v-12h-230l-14 16q-40 -16 -86.5 -24.5t-100.5 -8.5q-63 0 -111 14t-80.5 39.5t-49.5 61t-17 78.5zM210 203q0 -43 28.5 -65.5t82.5 -22.5q26 0 49 6l-131 153q-14 -12 -21.5 -29t-7.5 -42zM283 554q0 -26 15.5 -52t41.5 -58 q26 26 35.5 51.5t9.5 48.5q0 29 -13.5 45.5t-39.5 16.5q-23 0 -36 -13t-13 -39z" />
<glyph unicode="'" horiz-adv-x="269" d="M41 701q12 5 39 8t57 3q29 0 55 -3t37 -8l-30 -290q-9 -3 -26.5 -4.5t-37.5 -1.5q-23 0 -41.5 1.5t-23.5 4.5z" />
<glyph unicode="(" horiz-adv-x="470" d="M51 251q0 129 28.5 218t80 143.5t123 79t156.5 24.5v-112q-69 -14 -106 -98.5t-37 -255.5t37 -255t106 -99v-112q-85 0 -156.5 25t-123 80t-80 144t-28.5 218z" />
<glyph unicode=")" horiz-adv-x="470" d="M31 -104q69 15 106 99t37 255t-37 255.5t-106 98.5v112q85 0 156.5 -24.5t123 -79t80 -143.5t28.5 -218t-28.5 -218t-80 -144t-123 -80t-156.5 -25v112z" />
<glyph unicode="*" horiz-adv-x="521" d="M27 541q0 15 4 34t11 37t16 32.5t18 20.5l142 -79l-33 159q12 8 33 12t44 4t43 -4t31 -12l-33 -160l144 80q9 -6 17.5 -20.5t15.5 -32.5t11 -37.5t4 -34.5q0 -8 -2 -18l-162 -19l119 -111q-3 -12 -17.5 -27t-32.5 -28.5t-37.5 -23t-33.5 -9.5l-68 148l-69 -149 q-14 1 -33.5 10.5t-37.5 23t-32 28.5t-17 27l118 112l-161 19q-2 5 -2 18z" />
<glyph unicode="+" horiz-adv-x="580" d="M31 225v146h184v186h150v-186h184v-146h-184v-186h-150v186h-184z" />
<glyph unicode="," horiz-adv-x="271" d="M20 101q0 48 31 78.5t82 30.5q54 0 86 -36t32 -99q0 -47 -14 -85.5t-35 -67.5t-46 -48t-47 -28q-16 0 -30 5.5t-24.5 13t-17.5 15t-8 12.5q28 15 52.5 42t32.5 56q-42 7 -68 38t-26 73z" />
<glyph unicode="-" horiz-adv-x="389" d="M36 216v164h318v-164h-318z" />
<glyph unicode="." horiz-adv-x="259" d="M20 98q0 22 8 41t22.5 33t34.5 22.5t44 8.5q49 0 79.5 -30.5t30.5 -74.5q0 -22 -8 -42t-22.5 -35t-35 -23.5t-44.5 -8.5t-44 8.5t-34.5 23.5t-22.5 35t-8 42z" />
<glyph unicode="/" horiz-adv-x="469" d="M11 -127l276 867h171v-13l-276 -867h-171v13z" />
<glyph unicode="0" horiz-adv-x="605" d="M18 338q0 81 16.5 146.5t51 111t88.5 70.5t128 25q75 0 129 -25t88.5 -71t51 -111.5t16.5 -146.5q0 -82 -16.5 -147.5t-51 -111.5t-88 -70.5t-128.5 -24.5t-128.5 25t-88.5 71t-51.5 111.5t-16.5 147.5zM257 337q0 -71 1.5 -116t6.5 -70.5t13.5 -35t23.5 -9.5t24 9.5 t14 35.5t6.5 70.5t1.5 115.5q0 70 -1.5 115t-6.5 70.5t-13.5 35t-23.5 9.5t-24 -9.5t-14 -35t-6.5 -70t-1.5 -115.5z" />
<glyph unicode="1" horiz-adv-x="490" d="M23 476v136q11 3 35 10.5t52 17t57 19t50 17.5h155v-547h110v-129h-456v129h123v370z" />
<glyph unicode="2" horiz-adv-x="568" d="M10 473q3 38 18 77t47 70.5t83.5 51t128.5 19.5q66 0 115 -15t81.5 -43t48.5 -66.5t16 -85.5q0 -60 -24 -106.5t-63.5 -83.5t-90.5 -65.5t-104 -53.5v-2h282v-170h-531v144q26 20 58.5 43t66.5 50t66.5 57t57.5 63t40.5 68.5t15.5 73.5q0 60 -47 60q-20 0 -32 -12 t-18 -30t-8 -39.5t-2 -40.5q-26 1 -56.5 4t-59.5 7.5t-52.5 10.5t-36.5 14z" />
<glyph unicode="3" horiz-adv-x="551" d="M2 146q13 8 35.5 16t49 14.5t53.5 11.5t48 7q1 -14 4.5 -28t10 -25.5t18 -19t29.5 -7.5q30 0 44 21t14 55q0 43 -27 66t-97 23h-26v127h26q65 0 90 23t25 68q0 26 -11 44t-37 18q-17 0 -27.5 -7.5t-16.5 -19.5t-8.5 -27t-3.5 -30q-24 0 -53 4t-55.5 9.5t-48 12.5 t-31.5 13q6 36 23 68t49 56t79.5 38t114.5 14q123 0 187 -48t64 -132q0 -34 -10 -60t-27 -45t-39 -31t-47 -18v-4q26 -5 50 -16.5t42 -31t29 -47.5t11 -66q0 -98 -71 -153.5t-201 -55.5q-66 0 -113.5 14.5t-78 37.5t-47 52t-20.5 59z" />
<glyph unicode="4" horiz-adv-x="602" d="M13 134v142l272 400h240v-394h67v-148h-67v-134h-223v134h-289zM179 282h123v67q0 45 1 76.5t3 56.5h-3q-11 -21 -30.5 -55t-39.5 -63z" />
<glyph unicode="5" horiz-adv-x="560" d="M12 148q12 9 33 17.5t46 15.5t52 12.5t50 8.5q2 -18 6 -34t11.5 -28t19.5 -19t30 -7q32 0 47 24t15 69q0 18 -3 34.5t-10.5 29t-19.5 20.5t-31 8q-23 0 -37 -10.5t-22 -21.5h-168l14 409h472v-170h-341l-6 -116q6 6 17.5 14t29.5 15.5t43.5 13t61.5 5.5q60 0 102.5 -15.5 t70 -43.5t40.5 -67t13 -85q0 -116 -73.5 -180t-205.5 -64q-62 0 -107 13.5t-76 36.5t-49 52.5t-25 62.5z" />
<glyph unicode="6" horiz-adv-x="598" d="M25 328q0 172 74.5 267.5t226.5 95.5q47 0 87.5 -10t72.5 -32t53.5 -57t30.5 -86q-12 -8 -36 -14.5t-53 -12t-60 -8.5t-58 -3q-5 51 -15 76.5t-34 25.5q-13 0 -22 -8t-15 -28.5t-9.5 -56.5t-4.5 -92q23 15 52.5 23.5t69.5 8.5q55 0 92.5 -16t60.5 -42.5t33 -61.5t10 -73 q0 -50 -16 -94t-49 -76.5t-83.5 -51.5t-119.5 -19q-148 0 -218 90.5t-70 254.5zM263 283q0 -53 2.5 -87.5t8 -55t14.5 -28.5t22 -8q28 0 36 27.5t8 70.5q0 50 -10.5 72t-41.5 22q-24 0 -39 -13z" />
<glyph unicode="7" horiz-adv-x="552" d="M23 506v170h510v-159l-213 -517h-253v13l285 493h-329z" />
<glyph unicode="8" horiz-adv-x="609" d="M18 191q0 65 31.5 105.5t98.5 63.5v4q-104 37 -104 142q0 85 66 135t196 50q128 0 194 -50t66 -135q0 -105 -106 -143v-2q67 -23 99 -64t32 -107q0 -95 -69.5 -151t-215.5 -56q-74 0 -128 15t-89.5 42t-53 65.5t-17.5 85.5zM251 201q0 -51 13 -73.5t41 -22.5 q29 0 41 22.5t12 73.5q0 53 -12.5 76t-40.5 23t-41 -23t-13 -76zM253 495q0 -77 52 -77t52 77q0 74 -52 74t-52 -74z" />
<glyph unicode="9" horiz-adv-x="598" d="M17 451q0 49 15.5 92.5t48.5 76.5t83.5 52t119.5 19q78 0 133 -24.5t89.5 -69.5t50.5 -109t16 -143q0 -172 -73.5 -267t-227.5 -95q-47 0 -87.5 10t-72 31.5t-54 57t-32.5 86.5q15 7 40 13.5t53.5 12t58 9t53.5 3.5q5 -52 16.5 -77.5t36.5 -25.5q12 0 20.5 7t14.5 26.5 t9 53t5 86.5q-22 -14 -49 -21.5t-65 -7.5q-56 0 -94.5 17t-62.5 45t-34.5 65t-10.5 77zM244 471q0 -53 11.5 -78t43.5 -25q20 0 35 10q0 52 -2 88.5t-7 59.5t-14 33t-23 10q-25 0 -34.5 -27.5t-9.5 -70.5z" />
<glyph unicode=":" horiz-adv-x="279" d="M30 98q0 22 8 41t22.5 33t34.5 22.5t44 8.5q49 0 79.5 -30.5t30.5 -74.5q0 -22 -8 -42t-22.5 -35t-35 -23.5t-44.5 -8.5t-44 8.5t-34.5 23.5t-22.5 35t-8 42zM30 400q0 22 8 41t22.5 33t34.5 22.5t44 8.5q49 0 79.5 -30.5t30.5 -74.5q0 -22 -8 -42t-22.5 -35t-35 -23.5 t-44.5 -8.5t-44 8.5t-34.5 23.5t-22.5 35t-8 42z" />
<glyph unicode=";" horiz-adv-x="291" d="M30 101q0 48 31 78.5t82 30.5q54 0 86 -36t32 -99q0 -47 -14 -85.5t-35 -67.5t-46 -48t-47 -28q-16 0 -30 5.5t-24.5 13t-17.5 15t-8 12.5q28 15 52.5 42t32.5 56q-42 7 -68 38t-26 73zM40 400q0 22 8 41t22.5 33t34.5 22.5t44 8.5q49 0 79.5 -30.5t30.5 -74.5 q0 -22 -8 -42t-22.5 -35t-35 -23.5t-44.5 -8.5t-44 8.5t-34.5 23.5t-22.5 35t-8 42z" />
<glyph unicode="&#x3c;" horiz-adv-x="580" d="M31 225v146l518 205v-149l-339 -129l339 -129v-149z" />
<glyph unicode="=" horiz-adv-x="580" d="M31 120v146h518v-146h-518zM31 330v146h518v-146h-518z" />
<glyph unicode="&#x3e;" horiz-adv-x="580" d="M31 20v149l339 129l-339 129v149l518 -205v-146z" />
<glyph unicode="?" horiz-adv-x="504" d="M-9 550q3 27 16.5 56.5t42 54t75.5 40.5t116 16q66 0 114 -14.5t79 -40t45.5 -59t14.5 -71.5q0 -45 -13.5 -77.5t-34.5 -56t-45.5 -41t-46 -33t-37 -31.5t-18.5 -37l-2 -16h-180v38q0 40 11.5 65.5t29.5 43t38 30t38 27t29.5 34t11.5 50.5q0 51 -43 51q-30 0 -40 -20.5 t-13 -50.5q-23 1 -50.5 4.5t-54 9t-49 13t-34.5 15.5zM94 99q0 22 8 41t23 33t35 22.5t44 8.5q49 0 79.5 -30.5t30.5 -74.5q0 -22 -8 -42t-22.5 -35t-35 -23.5t-44.5 -8.5t-44 8.5t-35 23.5t-23 35t-8 42z" />
<glyph unicode="@" horiz-adv-x="1033" d="M41 246q0 99 32.5 187t94 153t150 103t199.5 38q112 0 200 -31.5t149.5 -86.5t94 -130.5t32.5 -162.5q0 -67 -16.5 -126.5t-49.5 -104.5t-82.5 -71.5t-115.5 -26.5q-79 0 -120.5 19.5t-58.5 50.5q-27 -29 -64 -49t-88 -20q-81 0 -118.5 49t-37.5 146q0 48 12 104.5 t40 105t74.5 81t114.5 32.5q42 0 67.5 -15.5t41.5 -37.5l7 40h48q33 0 69 0.5t68 3.5l-52 -297q-9 -48 -9 -74q0 -35 12 -45t34 -10q25 0 44.5 18t33 50t20.5 76.5t7 98.5q0 72 -22 131t-66 101t-111.5 65t-157.5 23q-88 0 -155 -28.5t-112 -79.5t-67.5 -122t-22.5 -157 q0 -87 22 -158.5t67 -122.5t112.5 -79t157.5 -28q99 0 168 31q5 -6 10 -16t9 -22.5t6.5 -25t2.5 -22.5q-45 -19 -94.5 -29t-105.5 -10q-114 0 -202.5 38t-149 103.5t-91.5 153t-31 186.5zM442 174q0 -38 10 -53t35 -15q11 0 23 4t22 13v5q0 23 3 45t7 43l29 163q-14 7 -34 7 q-33 0 -52 -27t-28.5 -63t-12 -71t-2.5 -51z" />
<glyph unicode="A" horiz-adv-x="685" d="M3 0v12l207 688h271l201 -688v-12h-247l-29 120h-182l-30 -120h-191zM260 265h112l-6 27l-14 66t-13 62.5t-11 53t-7 37.5h-5q-3 -13 -8 -37t-12 -54t-14.5 -63.5t-15.5 -66.5z" />
<glyph unicode="B" horiz-adv-x="642" d="M48 0v700h292q139 0 202 -43.5t63 -128.5q0 -62 -36.5 -102t-88.5 -51v-2q72 -19 110 -59t38 -109q0 -103 -69 -154t-218 -51h-293zM277 125h23q57 0 78.5 19t21.5 66q0 46 -22 66.5t-79 20.5h-22v-172zM277 424h21q46 0 68 17t22 62q0 44 -23 58.5t-67 14.5h-21v-152z " />
<glyph unicode="C" horiz-adv-x="657" d="M26 351q0 81 18 148t56.5 115.5t98.5 75.5t145 27q139 0 212.5 -63t82.5 -181q-14 -5 -35 -9t-45.5 -6.5t-50.5 -4t-48 -1.5h-20.5t-20.5 1q-5 66 -19 98t-52 32q-23 0 -37.5 -12t-22.5 -39.5t-11 -72t-3 -108.5t3 -108.5t11 -72.5t22.5 -40.5t37.5 -12.5q36 0 51.5 30.5 t20.5 107.5q10 1 23 1.5t25 0.5q16 0 40.5 -1t50 -2.5t48 -5t34.5 -7.5q-5 -60 -25 -107.5t-56 -81t-89 -51.5t-123 -18q-87 0 -148.5 27t-100 76t-56 116.5t-17.5 148.5z" />
<glyph unicode="D" horiz-adv-x="690" d="M48 0v700h261q94 0 161.5 -24t110.5 -69.5t63 -110t20 -145.5t-20 -146t-62.5 -110.5t-110 -70t-161.5 -24.5h-262zM277 133h27q29 0 50.5 10.5t35 35.5t20 67t6.5 105t-6.5 105t-20 66.5t-35 34.5t-50.5 10h-27v-434z" />
<glyph unicode="E" horiz-adv-x="557" d="M48 0v700h471v-145h-242v-125h218q3 -11 4.5 -30t1.5 -39q0 -23 -2 -43t-4 -32h-218v-141h256v-145h-485z" />
<glyph unicode="F" horiz-adv-x="548" d="M48 0v700h481v-145h-252v-143h227q3 -11 4.5 -30t1.5 -40q0 -22 -1.5 -42.5t-4.5 -32.5h-227v-267h-229z" />
<glyph unicode="G" horiz-adv-x="674" d="M26 351q0 81 18 148t57 115.5t100.5 75.5t149.5 27q71 0 123 -16t86 -46t51.5 -72.5t19.5 -95.5q-12 -5 -33 -8t-45 -5.5t-48.5 -3.5t-43.5 -1h-21.5t-25.5 1q-2 58 -15 85.5t-51 27.5q-23 0 -37.5 -12.5t-22.5 -40.5t-11 -72t-3 -107q0 -69 4 -114.5t14.5 -72t28.5 -37 t47 -10.5q21 0 36.5 4t23.5 8v125h-89v144h294v-329q-13 -11 -37 -25.5t-59.5 -28t-84 -23t-110.5 -9.5q-86 0 -146 26.5t-97.5 75t-55 116t-17.5 150.5z" />
<glyph unicode="H" horiz-adv-x="707" d="M48 0v700h229v-260h153v260h228v-700h-228v295h-153v-295h-229z" />
<glyph unicode="I" horiz-adv-x="325" d="M48 0v700h229v-700h-229z" />
<glyph unicode="J" horiz-adv-x="459" d="M10 61q0 22 1.5 42t4.5 28q8 -3 32.5 -7.5t52.5 -4.5q48 0 66.5 17.5t18.5 63.5v500h228v-508q0 -59 -17.5 -99t-50.5 -64t-82 -34t-112 -10q-58 0 -93.5 5.5t-43.5 9.5q-3 9 -4 25.5t-1 35.5z" />
<glyph unicode="K" horiz-adv-x="682" d="M48 0v700h229v-284h4l178 284h216v-12l-205 -290l212 -386v-12h-256l-145 303h-4v-303h-229z" />
<glyph unicode="L" horiz-adv-x="522" d="M48 0v700h229v-555h226v-145h-455z" />
<glyph unicode="M" horiz-adv-x="891" d="M48 0v700h287l54 -181q17 -57 31.5 -115t20.5 -97h5q3 19 8 44t11.5 52.5t14.5 56.5t17 57l56 183h290v-700h-219v173q0 45 0.5 88.5t1.5 80.5t2 64t2 40h-5q-2 -12 -8 -36.5t-14 -57t-18.5 -70t-21.5 -73.5l-64 -209h-141l-62 209q-11 36 -21 73.5t-18.5 70t-14 57.5 t-7.5 36h-5q0 -12 1 -39.5t2 -64.5t2 -81t1 -90v-171h-188z" />
<glyph unicode="N" horiz-adv-x="744" d="M48 0v700h287l106 -255q26 -63 43.5 -114.5t24.5 -77.5h5q-1 13 -2 38.5t-2 56t-1.5 64t-0.5 63.5v225h188v-700h-276l-115 274q-13 31 -25 62t-21 57.5t-15.5 47t-9.5 32.5h-5q1 -12 2.5 -36t2.5 -54.5t1.5 -64.5t0.5 -66v-252h-188z" />
<glyph unicode="O" horiz-adv-x="697" d="M26 351q0 83 18 150.5t57 115.5t100 74t147 26t147 -26t100 -74t57.5 -115.5t18.5 -150.5q0 -84 -18 -152t-57 -116t-100 -74t-148 -26q-86 0 -147 26t-100 74t-57 116t-18 152zM274 351q0 -64 2.5 -108.5t10.5 -72.5t22.5 -40.5t38.5 -12.5q23 0 37.5 12.5t22.5 40.5 t11 72.5t3 108.5t-3 108.5t-11 72t-22.5 39.5t-37.5 12t-37.5 -12t-22.5 -39.5t-11 -72t-3 -108.5z" />
<glyph unicode="P" horiz-adv-x="639" d="M48 0v700h269q160 0 233 -58.5t73 -163.5q0 -59 -18 -103.5t-56 -74.5t-98.5 -45.5t-145.5 -15.5h-28v-239h-229zM277 375h16q19 0 37 2t32 11t22.5 28t8.5 54t-8.5 54.5t-22.5 29.5t-32 12t-37 2h-16v-193z" />
<glyph unicode="Q" horiz-adv-x="697" d="M26 351q0 83 18 150.5t57 115.5t100 74t147 26t147 -26t100 -74t57.5 -115.5t18.5 -150.5q0 -120 -37 -205.5t-120 -127.5q12 -13 30 -17t49 -4q14 0 30 2t27 6q3 -9 4.5 -30.5t1.5 -45.5q0 -26 -2 -50.5t-4 -36.5q-6 -2 -26 -5.5t-49 -3.5q-44 0 -78.5 8t-61.5 25.5 t-48 46t-38 70.5h-1q-86 0 -147 26t-100 74t-57 116t-18 152zM274 351q0 -64 2.5 -108.5t10.5 -72.5t22.5 -40.5t38.5 -12.5q23 0 37.5 12.5t22.5 40.5t11 72.5t3 108.5t-3 108.5t-11 72t-22.5 39.5t-37.5 12t-37.5 -12t-22.5 -39.5t-11 -72t-3 -108.5z" />
<glyph unicode="R" horiz-adv-x="644" d="M48 0v700h272q153 0 225 -55.5t72 -164.5q0 -70 -29.5 -119t-83.5 -78l134 -271v-12h-242l-98 237h-21v-237h-229zM277 370h12q19 0 37 2.5t32 13t22 30.5t8 55t-8 55t-21.5 30.5t-31.5 13t-38 2.5h-12v-202z" />
<glyph unicode="S" horiz-adv-x="599" d="M13 186q15 6 38.5 11.5t49.5 9t52 6t47 2.5h9.5t11.5 -1q0 -14 3.5 -31t13 -31.5t26 -24.5t43.5 -10q28 0 43.5 14t15.5 43q0 24 -14.5 39.5t-37.5 27t-53.5 21t-61.5 20.5q-32 11 -62 26.5t-54 39t-38.5 57t-14.5 81.5q0 52 18.5 94.5t54.5 73t88.5 47t121.5 16.5 q72 0 122.5 -17.5t82 -46t46.5 -65t17 -73.5q-13 -6 -36.5 -11t-49.5 -8.5t-51.5 -5t-42.5 -1.5q-10 0 -14 0.5t-10 0.5q-1 12 -3.5 28t-10.5 30.5t-23 24.5t-41 10q-59 0 -59 -58q0 -21 14 -35t36.5 -24.5t52 -19.5t60.5 -20q33 -12 65 -27t57 -39t40.5 -58.5t15.5 -83.5 q0 -51 -17.5 -94t-53.5 -74.5t-90.5 -49t-129.5 -17.5q-72 0 -122.5 16.5t-83.5 44.5t-50 64.5t-21 77.5z" />
<glyph unicode="T" horiz-adv-x="550" d="M8 555v145h534v-145h-153v-555h-228v555h-153z" />
<glyph unicode="U" horiz-adv-x="658" d="M45 255v445h229v-443q0 -57 18.5 -81t57.5 -24q38 0 56.5 24t18.5 80v444h188v-445q0 -60 -12 -110t-43.5 -86t-85.5 -56t-139 -20t-140.5 19.5t-88.5 55t-46 85.5t-13 112z" />
<glyph unicode="V" horiz-adv-x="678" d="M4 688v12h243l64 -264q23 -97 33.5 -160t12.5 -86h5q2 23 12 85.5t35 159.5l69 265h196v-12l-212 -688h-256z" />
<glyph unicode="W" horiz-adv-x="960" d="M8 688v12h242l38 -259q11 -71 17 -132t7 -90h5q1 14 3 37.5t5.5 53t9 63t13.5 68.5l55 259h203l52 -259q7 -35 12 -68.5t8.5 -62.5t5.5 -51t2 -34h5l3 33t5 51t7.5 63t10.5 69l44 259h190v-12l-154 -688h-240l-29 165q-7 39 -13 77t-10.5 71t-8 58.5t-4.5 39.5h-4 q-2 -14 -5.5 -39.5t-9.5 -58.5t-13 -70.5t-15 -76.5l-34 -166h-252z" />
<glyph unicode="X" horiz-adv-x="654" d="M8 0v12l197 336l-184 340v12h239l90 -187l98 187h196v-12l-189 -320l192 -356v-12h-241l-94 196l-108 -196h-196z" />
<glyph unicode="Y" horiz-adv-x="646" d="M-4 688v12h247l101 -244h5l106 244h196v-12l-214 -443v-245h-229v245z" />
<glyph unicode="Z" horiz-adv-x="612" d="M23 0v99l289 456h-279v145h556v-98l-291 -457h291v-145h-566z" />
<glyph unicode="[" horiz-adv-x="471" d="M100 -190v890h340v-110h-121v-670h121v-110h-340z" />
<glyph unicode="\" horiz-adv-x="469" d="M11 727v13h171l276 -867v-13h-171z" />
<glyph unicode="]" horiz-adv-x="471" d="M31 -80h120v670h-120v110h339v-890h-339v110z" />
<glyph unicode="^" horiz-adv-x="580" d="M49 352l190 348h101l191 -348h-141l-100 191l-100 -191h-141z" />
<glyph unicode="_" horiz-adv-x="500" d="M0 -51h500v-112h-500v112z" />
<glyph unicode="`" horiz-adv-x="372" d="M50 737q5 2 16.5 3.5t27.5 2.5t35 1.5t38 0.5q32 0 59 -1.5t37 -6.5l59 -154q-5 -3 -26.5 -4.5t-46.5 -1.5q-23 0 -43 1.5t-29 4.5z" />
<glyph unicode="a" horiz-adv-x="566" d="M21 150q0 46 17 78.5t46.5 52.5t70 29.5t87.5 9.5q21 0 38.5 -1t31.5 -3v60q0 19 -7 33.5t-31 14.5q-15 0 -24.5 -7t-15.5 -17.5t-9 -23.5t-4 -25q-24 0 -52.5 3.5t-55.5 9.5t-49 13t-33 15q17 74 81.5 115t174.5 41q72 0 118.5 -16t73.5 -44t37.5 -66t10.5 -81v-154 q0 -55 3.5 -98t13.5 -68l-187 -37q-10 10 -17 22.5t-13 26.5q-20 -20 -52 -34t-80 -14q-83 0 -128.5 45t-45.5 120zM230 162q0 -18 5 -29t12.5 -17.5t17 -8.5t19.5 -2q20 0 28 4v112q-5 1 -9.5 1h-9.5q-12 0 -23.5 -2.5t-20 -9t-14 -18t-5.5 -30.5z" />
<glyph unicode="b" horiz-adv-x="586" d="M39 0v704q13 0 38 0.5t55 1.5t62 3t60 4v-225q20 24 48.5 40t74.5 16q50 0 85.5 -19.5t58.5 -56t34 -88t11 -115.5t-11 -115.5t-34 -88t-58.5 -56t-85.5 -19.5t-81 17.5t-52 45.5v-49h-205zM254 132q14 -10 31 -10q14 0 24 4.5t16 19.5t9 43t3 76t-3 76t-9 43t-16 19.5 t-24 4.5q-17 0 -31 -10v-266z" />
<glyph unicode="c" horiz-adv-x="552" d="M20 266q0 64 15.5 116t48.5 89t84 57t122 20q118 0 181 -54t68 -155q-13 -3 -32 -5.5t-41 -4t-43.5 -2t-38.5 -0.5h-21.5t-26.5 2q-1 21 -2.5 39.5t-5.5 32.5t-12 22t-22 8q-29 0 -37 -39t-8 -126q0 -88 8 -127t37 -39q26 0 32.5 27.5t8.5 71.5q8 1 21.5 1.5t30.5 0.5 q21 0 44 -1t44 -2.5t38.5 -4t26.5 -5.5q-24 -205 -251 -205q-71 0 -122 20t-83.5 57t-48 89.5t-15.5 116.5z" />
<glyph unicode="d" horiz-adv-x="585" d="M20 266q0 64 10.5 115.5t33.5 88t59 56t86 19.5q45 0 73.5 -15t48.5 -39v213q13 0 38 0.5t55 1.5t62 3t60 4v-534q0 -44 3.5 -89.5t11.5 -68.5l-186 -37q-11 13 -19.5 28t-14.5 36q-21 -27 -52.5 -44.5t-79.5 -17.5q-50 0 -86 19.5t-59 56t-33.5 88.5t-10.5 116zM249 266 q0 -48 2.5 -76.5t8.5 -43.5t16 -19.5t24 -4.5q8 0 15.5 2t15.5 8v266q-15 11 -31 11q-14 0 -24 -4.5t-16 -19.5t-8.5 -43.5t-2.5 -75.5z" />
<glyph unicode="e" horiz-adv-x="566" d="M20 268q0 137 68.5 208.5t199.5 71.5q69 0 118.5 -20.5t81 -56.5t46 -85t14.5 -106q0 -15 -1 -33t-3 -30h-296q2 -66 12 -91.5t35 -25.5q14 0 22 8.5t12.5 20t6 24t2.5 20.5q13 1 19.5 1h13.5q17 0 40 -1t46.5 -3t44.5 -5.5t34 -7.5q-7 -38 -24 -70t-46.5 -55t-72 -36 t-100.5 -13q-135 0 -204 73.5t-69 211.5zM248 325h86q0 58 -7 83.5t-35 25.5q-23 0 -32.5 -22.5t-11.5 -86.5z" />
<glyph unicode="f" horiz-adv-x="404" d="M15 407v124h55v14q0 102 56 145t163 43q39 0 68.5 -4.5t35.5 -8.5q2 -8 3 -23.5t1 -32.5q0 -21 -1 -39.5t-3 -26.5q-5 2 -20 4.5t-31 2.5q-32 0 -44.5 -11.5t-12.5 -46.5v-16h99v-124h-99v-275q0 -45 2.5 -83t8.5 -49h-226v407h-55z" />
<glyph unicode="g" horiz-adv-x="587" d="M12 -97q0 29 19 46.5t51 26.5q-28 17 -43.5 41t-15.5 56q0 39 25.5 68.5t63.5 47.5q-41 25 -62.5 65t-21.5 95q0 97 66.5 148t182.5 51q65 0 119 -17h182v-124h-91q11 -6 25 -24.5t14 -53.5q0 -41 -17.5 -74t-49.5 -56.5t-78 -36t-104 -12.5q-42 0 -76 6q-5 -7 -5 -16 q0 -13 12.5 -18.5t44.5 -5.5h83q66 0 111 -9.5t73 -28t40 -45.5t12 -62q0 -41 -16.5 -75.5t-54 -60t-97.5 -39.5t-147 -14q-126 0 -185.5 33t-59.5 88zM181 -73q0 -26 24.5 -35t76.5 -9q45 0 73 8t28 31q0 14 -10.5 18t-39.5 4h-103q-17 0 -27 0.5t-19 1.5q-3 -8 -3 -19z M238 349q0 -54 8.5 -74t30.5 -20t30.5 20t8.5 74q0 55 -8 74.5t-31 19.5t-31 -19.5t-8 -74.5z" />
<glyph unicode="h" horiz-adv-x="585" d="M39 0v704q13 0 38 0.5t55 1.5t62 3t60 4v-228q20 26 54.5 44.5t86.5 18.5q43 0 72.5 -15t47.5 -41.5t25.5 -63t7.5 -79.5v-217q0 -22 0.5 -43.5t2 -39t3.5 -30.5t5 -19h-226v332q0 32 -8 50t-36 18q-11 0 -19.5 -2.5t-15.5 -6.5v-391h-215z" />
<glyph unicode="i" d="M35 667q0 46 29 72t82 26q52 0 82 -26t30 -72t-30 -73.5t-82 -27.5q-53 0 -82 27.5t-29 73.5zM39 0v531q13 0 38 0.5t55 1.5t62 2.5t60 3.5v-407q0 -45 2.5 -83t8.5 -49h-226z" />
<glyph unicode="j" d="M-60 -142q0 20 1.5 38.5t4.5 29.5q7 -2 19 -3.5t25 -1.5q29 0 39 12t10 39v559q16 0 40.5 0.5t54 1.5t60.5 2.5t60 3.5v-552q0 -54 -15 -90t-43.5 -57.5t-69.5 -30.5t-94 -9q-30 0 -54.5 3t-33.5 6q-2 8 -3 21.5t-1 27.5zM35 667q0 46 29 72t82 26q52 0 82 -26t30 -72 t-30 -73.5t-82 -27.5q-53 0 -82 27.5t-29 73.5z" />
<glyph unicode="k" horiz-adv-x="595" d="M39 0v704q13 0 38 0.5t55 1.5t62 3t60 4v-380h4l121 198h210v-12l-153 -207l159 -300v-12h-238l-99 222h-4v-222h-215z" />
<glyph unicode="l" d="M39 0v704q13 0 38 0.5t55 1.5t62 3t60 4v-581q0 -45 2.5 -83t8.5 -49h-226z" />
<glyph unicode="m" horiz-adv-x="859" d="M39 0v531q13 0 36 0.5t51 1.5t58 2.5t58 3.5v-70q17 31 52.5 55t93.5 24q52 0 83 -21.5t47 -59.5q18 32 55.5 56.5t97.5 24.5q43 0 72 -15t46.5 -42t25 -63.5t7.5 -78.5v-217q0 -22 0.5 -43.5t2 -39t3 -30.5t4.5 -19h-225v325q0 41 -7 58t-31 17q-11 0 -19 -3t-14 -8 q1 -10 1.5 -19.5t0.5 -20.5v-349h-215v325q0 41 -6 58t-31 17q-20 0 -32 -10v-390h-215z" />
<glyph unicode="n" horiz-adv-x="585" d="M39 0v531q13 0 36 0.5t51 1.5t58 2.5t58 3.5v-70q19 31 55.5 55t93.5 24q45 0 75 -15t48.5 -41.5t26 -63t7.5 -79.5v-217q0 -22 0.5 -43.5t2 -39t3.5 -30.5t5 -19h-226v332q0 32 -8 50t-36 18q-11 0 -19.5 -2.5t-15.5 -6.5v-391h-215z" />
<glyph unicode="o" horiz-adv-x="587" d="M20 266q0 64 16 116t49.5 89t85 57t122.5 20t122.5 -20t85.5 -57t50 -89t16 -116t-16 -116.5t-50 -89.5t-85.5 -57t-122.5 -20t-122.5 20.5t-85 57.5t-49.5 89t-16 116zM249 266q0 -49 2 -80.5t6.5 -50t13 -26t22.5 -7.5t23 7.5t13.5 26t6 50t1.5 80.5t-1.5 80.5t-6 50 t-13.5 25.5t-23 7t-22.5 -7t-13 -25.5t-6.5 -50t-2 -80.5z" />
<glyph unicode="p" horiz-adv-x="586" d="M39 -191v722q13 0 36 0.5t51 1.5t58 2.5t58 3.5v-61q21 29 52.5 48t82.5 19q50 0 85.5 -19.5t58.5 -56t34 -88t11 -115.5t-11 -116t-34 -88.5t-58.5 -56t-85.5 -19.5q-45 0 -74 14.5t-49 38.5v-222q-14 0 -39 -0.5t-55.5 -2t-62 -3t-58.5 -2.5zM254 132q14 -10 31 -10 q14 0 24 4.5t16 19.5t9 43.5t3 76.5t-3 76t-9 43t-16 19.5t-24 4.5q-17 0 -31 -10v-267z" />
<glyph unicode="q" horiz-adv-x="586" d="M20 266q0 64 10.5 115.5t33.5 88t59 56t86 19.5q48 0 80 -17t55 -48v51q13 0 36 0.5t51 1.5t58 2.5t58 3.5v-722q-14 0 -39 -0.5t-55.5 -2t-62 -3t-58.5 -2.5v231q-20 -23 -49.5 -38.5t-73.5 -15.5q-50 0 -86 19.5t-59 56t-33.5 88.5t-10.5 116zM249 266q0 -48 2.5 -76.5 t8.5 -43.5t16 -19.5t24 -4.5q8 0 16 2t16 8v266q-6 5 -15.5 8t-18.5 3q-12 0 -21.5 -4.5t-15.5 -19.5t-9 -43.5t-3 -75.5z" />
<glyph unicode="r" horiz-adv-x="428" d="M39 0v531q13 0 36 0.5t51 1.5t58 2.5t58 3.5v-120h4q3 12 9.5 33.5t20.5 43t37 37t60 15.5q11 0 21.5 -1t14.5 -3q3 -12 4.5 -36.5t1.5 -52.5q0 -35 -2 -66.5t-5 -44.5q-9 2 -23.5 3t-26.5 1q-49 0 -74 -9t-30 -14v-196q0 -18 0.5 -37.5t1.5 -37.5t3.5 -32.5t5.5 -21.5 h-226z" />
<glyph unicode="s" horiz-adv-x="515" d="M13 147q9 4 27 7.5t40 6.5t45 4.5t42 1.5h9.5t14.5 -1q1 -11 4.5 -23t11 -22t20 -17t32.5 -7q21 0 32 11.5t11 29.5q0 15 -11 24.5t-29 15.5t-41.5 10.5t-48.5 10.5q-28 7 -55 17t-48.5 27.5t-34.5 45t-13 69.5q0 40 14.5 75t44 60.5t74.5 40t107 14.5q74 0 120 -17.5 t71.5 -43t35 -54t9.5 -51.5q-12 -5 -30 -8.5t-38 -5.5t-41 -3.5t-39 -1.5h-15.5t-14.5 1q-1 9 -3.5 21t-8.5 23t-18 18.5t-32 7.5t-32.5 -10.5t-12.5 -28.5q0 -16 10.5 -25.5t28.5 -16.5t41 -11.5t48 -10.5q28 -7 56.5 -16.5t50.5 -26t36 -43t14 -66.5q0 -89 -60 -142.5 t-187 -53.5q-63 0 -107 13t-72.5 35.5t-42.5 52.5t-15 63z" />
<glyph unicode="t" horiz-adv-x="401" d="M15 407v124h63v128q13 0 36.5 0.5t52 1.5t59.5 3t59 4v-137h94v-124h-94v-218q0 -36 10 -52.5t49 -16.5q9 0 19.5 1t18.5 4q2 -8 3.5 -28t1.5 -43q0 -16 -0.5 -30.5t-2.5 -22.5q-8 -5 -37 -10.5t-71 -5.5q-53 0 -91.5 8.5t-64 30t-38 57.5t-12.5 91v235h-55z" />
<glyph unicode="u" horiz-adv-x="581" d="M36 174v357q13 0 38 0.5t55 1.5t62 2.5t60 3.5v-331q0 -40 8 -57.5t34 -17.5q18 0 34 8v390q13 0 38 0.5t55 1.5t62 2.5t60 3.5v-360q0 -44 3 -89.5t12 -68.5l-186 -37q-11 13 -20.5 28.5t-14.5 37.5q-20 -27 -52.5 -47t-89.5 -20q-86 0 -122 50.5t-36 140.5z" />
<glyph unicode="v" horiz-adv-x="551" d="M6 518v13h227l28 -109q17 -71 27.5 -120.5t12.5 -76.5h3q2 27 12 77t27 121l27 108h175v-13l-168 -518h-211z" />
<glyph unicode="w" horiz-adv-x="785" d="M11 518v13h223l19 -99q11 -62 16 -114.5t7 -87.5h3q3 35 11 87.5t24 114.5l23 90h163l22 -90q14 -61 21.5 -114t10.5 -88h3q2 35 8.5 87.5t17.5 114.5l17 99h174v-13l-126 -518h-193l-20 88q-13 57 -22.5 104.5t-11.5 80.5h-3q-4 -33 -13 -80.5t-20 -104.5l-18 -88h-210z " />
<glyph unicode="x" horiz-adv-x="571" d="M8 0v12l144 254l-136 253v12h234l61 -135l62 135h181v-12l-134 -237l142 -270v-12h-239l-64 138l-67 -138h-184z" />
<glyph unicode="y" horiz-adv-x="544" d="M6 518v13h226l31 -105q17 -59 25.5 -102t11.5 -70h3q3 27 10 70.5t23 103.5l27 103h175v-13l-166 -513q-20 -60 -39 -100.5t-44.5 -65t-60.5 -35t-86 -10.5q-12 0 -27 0.5t-28 1.5t-23 2t-13 3q-3 12 -5 34.5t-2 47.5q0 26 2 50t5 36q10 -3 29.5 -6t42.5 -3q51 0 69 25z " />
<glyph unicode="z" horiz-adv-x="516" d="M18 0v83l205 324h-188v124h463v-83l-207 -324h207v-124h-480z" />
<glyph unicode="{" horiz-adv-x="414" d="M32 197v114q25 12 38.5 28t20 39t7.5 54.5t1 75.5q0 66 12.5 106t45 61t87.5 28t139 7v-101q-29 0 -45 -4.5t-23.5 -18t-9 -37t-1.5 -60.5q0 -59 -5.5 -97.5t-17.5 -63.5t-30.5 -41.5t-45.5 -32.5q27 -16 45.5 -32.5t30.5 -41.5t17.5 -63.5t5.5 -97.5q0 -38 1.5 -61 t9 -36.5t23.5 -18t45 -4.5v-101q-84 0 -139 7t-87.5 28t-45 61t-12.5 106q0 43 -1 75t-7.5 55t-20 39t-38.5 28z" />
<glyph unicode="|" horiz-adv-x="337" d="M82 -130v940h173v-940h-173z" />
<glyph unicode="}" horiz-adv-x="414" d="M31 -101q29 0 45 4.5t23.5 18t9 36.5t1.5 61q0 59 5.5 97.5t17.5 63.5t30.5 41.5t45.5 32.5q-27 16 -45.5 32.5t-30.5 41.5t-17.5 63.5t-5.5 97.5q0 37 -1.5 60.5t-9 37t-23.5 18t-45 4.5v101q84 0 139 -7t87.5 -28t45 -61t12.5 -106q0 -44 1 -75.5t7.5 -54.5t20 -39 t38.5 -28v-114q-25 -12 -38.5 -28t-20 -39t-7.5 -55t-1 -75q0 -66 -12.5 -106t-45 -61t-87.5 -28t-139 -7v101z" />
<glyph unicode="~" horiz-adv-x="580" d="M31 272v143q16 12 37 23q18 8 43.5 15.5t57.5 7.5q36 0 70 -8t67 -17.5t65.5 -17.5t65.5 -8q25 0 45.5 7t35.5 15q18 10 31 22v-148q-13 -10 -30 -17q-14 -7 -34.5 -12t-46.5 -5q-39 0 -73 8t-66.5 17.5t-64.5 17.5t-67 8q-29 0 -54 -8t-43 -18q-21 -11 -39 -25z" />
<glyph unicode="&#xa1;" horiz-adv-x="296" d="M32 -172l35 457h162l35 -457q-14 -7 -46.5 -10t-68.5 -3q-37 0 -69.5 3t-47.5 10zM38 429q0 22 8 42t22.5 35t35 23.5t44.5 8.5t44.5 -8.5t35 -23.5t22.5 -35t8 -42q0 -44 -30.5 -74.5t-79.5 -30.5t-79.5 30.5t-30.5 74.5z" />
<glyph unicode="&#xa2;" horiz-adv-x="580" d="M24 266q0 57 13 105t40 84t69 59t100 30v116h111v-116q89 -13 140 -65t56 -140q-9 -3 -25.5 -5.5t-36.5 -4t-42.5 -2.5t-42.5 -1q-37 0 -55 3q-1 21 -3.5 40.5t-8 34.5t-15 24t-25.5 9q-33 0 -43 -41.5t-10 -129.5t10.5 -130t42.5 -42q28 0 38 30.5t13 74.5q8 2 21.5 2.5 t30.5 0.5q21 0 44 -1t44 -3t38.5 -4.5t26.5 -5.5q-22 -178 -198 -201v-104h-111v104q-58 7 -100 30t-69 59t-40 84t-13 106z" />
<glyph unicode="&#xa3;" horiz-adv-x="580" d="M11 297v115h56q2 63 15 114t43 88t80 57t126 20q63 0 106 -13.5t70.5 -35.5t42 -51.5t19.5 -60.5q-11 -7 -32.5 -13t-48.5 -11t-56.5 -8.5t-54.5 -3.5q-2 33 -9.5 53t-29.5 20q-31 0 -37 -36.5t-6 -113.5v-5h167v-115h-168q-3 -51 -17 -79.5t-37 -47.5h309v-170h-518v118 q11 10 18 21.5t11 25.5t5.5 31.5t1.5 40.5v60h-56z" />
<glyph unicode="&#xa5;" horiz-adv-x="580" d="M7 664v12h242l63 -188l67 188h194v-12l-111 -254h100v-96h-142l-19 -45v-3h161v-96h-161v-170h-223v170h-160v96h160v3l-20 45h-140v96h99z" />
<glyph unicode="&#xa7;" horiz-adv-x="649" d="M31 226q0 52 26.5 89t75.5 60q-34 21 -55 53t-21 80q0 44 17.5 81.5t53 65t88 43t122.5 15.5q72 0 121 -16.5t79.5 -42.5t45.5 -58.5t18 -63.5q-28 -16 -75.5 -22.5t-93.5 -6.5h-15.5t-15.5 1q-2 11 -5 26t-12 29t-24.5 23.5t-40.5 9.5q-29 0 -42.5 -14.5t-13.5 -33.5 q0 -25 26 -38.5t65.5 -24t85.5 -21.5t85.5 -31.5t65.5 -54t26 -88.5q0 -53 -26.5 -89.5t-76.5 -59.5q34 -22 55.5 -53.5t21.5 -79.5q0 -44 -17.5 -81.5t-52.5 -65t-86.5 -43t-118.5 -15.5q-74 0 -124 16.5t-81.5 42.5t-46.5 58t-18 64q15 8 35 13.5t43.5 8.5t48 4.5 t47.5 1.5h26q1 -11 4.5 -26t12.5 -29t24 -23.5t41 -9.5q29 0 42.5 14.5t13.5 33.5q0 25 -26 38.5t-65.5 24t-85.5 21.5t-85.5 31.5t-65.5 54t-26 88.5zM225 266q0 -15 12.5 -26t34 -19t49.5 -15.5t59 -15.5q17 5 31 19t14 37q0 15 -13 26t-34.5 19t-49.5 15.5t-59 15.5 q-17 -5 -30.5 -19.5t-13.5 -36.5z" />
<glyph unicode="&#xa8;" horiz-adv-x="495" d="M48 661q0 36 23 62t67 26t68.5 -26t24.5 -62q0 -37 -24.5 -64t-68.5 -27t-67 27t-23 64zM265 661q0 36 23 62t67 26q45 0 68.5 -26t23.5 -62q0 -37 -23.5 -64t-68.5 -27q-44 0 -67 27t-23 64z" />
<glyph unicode="&#xa9;" horiz-adv-x="773" d="M21 350q0 76 27.5 143t76 116.5t115.5 78.5t146 29t146 -29t116 -78.5t76.5 -116.5t27.5 -143t-27.5 -143t-76.5 -116.5t-116 -78.5t-146 -29q-78 0 -145 29t-116 78.5t-76.5 116.5t-27.5 143zM100 350q0 -61 20.5 -115t58 -94t90.5 -63t117 -23t117 23t91 63t58.5 94 t20.5 115t-20.5 115t-58 94t-90.5 63t-118 23t-117.5 -23t-90 -63t-58 -94t-20.5 -115zM184 348q0 49 12 92t36.5 74.5t62.5 49.5t91 18q45 0 79 -14t58 -37.5t38 -54.5t19 -65q-17 -8 -45.5 -10.5t-58.5 -2.5h-20.5t-18.5 1q0 18 -2.5 35t-8 30.5t-15 22t-24.5 8.5 q-29 0 -41.5 -36.5t-12.5 -110.5t13 -108t42 -34q28 0 36.5 27.5t10.5 64.5q10 1 21 1.5t24 0.5q27 0 54.5 -3t45.5 -11q-6 -36 -20.5 -66.5t-37.5 -52.5t-56.5 -34.5t-77.5 -12.5q-50 0 -88 17t-64 47.5t-39 72.5t-13 91z" />
<glyph unicode="&#xab;" horiz-adv-x="655" d="M31 257v26l175 216h169l-170 -229l170 -229h-170zM280 257v26l175 216h169l-170 -229l170 -229h-170z" />
<glyph unicode="&#xad;" horiz-adv-x="389" d="M36 216v164h318v-164h-318z" />
<glyph unicode="&#xae;" horiz-adv-x="533" d="M21 521q0 51 17.5 96.5t49.5 79.5t77 53.5t100 19.5t100.5 -19.5t78 -53.5t50.5 -79.5t18 -96.5q0 -52 -18 -97t-50.5 -78.5t-78 -53t-100.5 -19.5t-100 19.5t-77 53t-49.5 78.5t-17.5 97zM87 521q0 -41 12 -75.5t35 -59.5t56 -39t75 -14t75.5 14t57 39t35.5 59.5 t12 75.5t-12 75.5t-35 60t-56.5 39.5t-76.5 14q-42 0 -75.5 -14t-56 -39.5t-34.5 -60t-12 -75.5zM161 394v264h97q63 0 91 -20.5t28 -61.5q0 -29 -16.5 -46t-46.5 -25q11 -4 24 -16.5t25 -39.5l21 -50v-5h-93l-14 51q-11 40 -34 43v-94h-82zM243 539h13q12 0 24.5 5.5 t12.5 26.5t-12.5 26t-24.5 5h-13v-63z" />
<glyph unicode="&#xaf;" horiz-adv-x="457" d="M55 602v131h347v-131h-347z" />
<glyph unicode="&#xb0;" horiz-adv-x="335" d="M21 569q0 32 11 59t30.5 46.5t46.5 30t59 10.5q31 0 58 -10.5t47 -30t31 -46.5t11 -59q0 -33 -11 -59.5t-31 -46t-47 -30t-58 -10.5q-32 0 -59 10.5t-46.5 30t-30.5 46t-11 59.5zM103 569q0 -29 16.5 -48.5t48.5 -19.5q31 0 47.5 19.5t16.5 48.5t-16.5 48t-47.5 19 q-32 0 -48.5 -19t-16.5 -48z" />
<glyph unicode="&#xb1;" horiz-adv-x="580" d="M31 14v146h518v-146h-518zM31 342v147h184v147h150v-147h184v-147h-184v-146h-150v146h-184z" />
<glyph unicode="&#xb2;" horiz-adv-x="418" d="M17 744q1 24 12 48.5t33 44t57 32t85 12.5q48 0 82 -9.5t56 -26.5t32.5 -40.5t10.5 -51.5q0 -38 -17.5 -67t-44.5 -52t-60.5 -40.5t-66.5 -30.5v-2h187v-107h-361v91q26 16 62 38.5t68.5 51t55.5 61t23 67.5q0 17 -6 26t-23 9q-13 0 -20.5 -7.5t-12 -18.5t-6 -24.5 t-1.5 -26.5q-20 1 -41.5 2.5t-42 4.5t-36.5 7t-25 9z" />
<glyph unicode="&#xb3;" horiz-adv-x="401" d="M11 541q9 5 26 11t36 11t37.5 8.5t30.5 4.5q1 -9 3.5 -18t7 -16.5t12.5 -12t20 -4.5q36 0 36 44q0 27 -18.5 41.5t-66.5 14.5h-21v78h21q45 0 60 14.5t15 41.5q0 18 -6.5 28t-24.5 10q-23 0 -29 -16t-8 -35q-16 1 -35.5 3t-38 5.5t-34 8t-23.5 9.5q4 22 16.5 42t34.5 35 t54 23.5t75 8.5q88 0 131.5 -30t43.5 -83q0 -41 -24 -63.5t-59 -30.5v-3q17 -4 33.5 -11.5t29 -19.5t20 -29t7.5 -41q0 -61 -46 -93.5t-136 -32.5q-45 0 -77.5 8.5t-54.5 22.5t-33.5 31.5t-14.5 34.5z" />
<glyph unicode="&#xb4;" horiz-adv-x="372" d="M51 583l58 154q11 5 38 6.5t59 1.5q38 0 72.5 -2t44.5 -6l-128 -154q-9 -3 -29 -4.5t-42 -1.5q-26 0 -47 1.5t-26 4.5z" />
<glyph unicode="&#xb7;" horiz-adv-x="299" d="M40 297q0 22 8 41t22.5 33t34.5 22.5t44 8.5q49 0 79.5 -30.5t30.5 -74.5q0 -22 -8 -42t-22.5 -35t-35 -23.5t-44.5 -8.5t-44 8.5t-34.5 23.5t-22.5 35t-8 42z" />
<glyph unicode="&#xb8;" horiz-adv-x="332" d="M50 -208l17 55q11 -6 26 -11t31 -5q21 0 29.5 8.5t8.5 22.5q0 12 -7.5 19.5t-19 12.5t-25.5 7t-27 4l29 99h84l-17 -54q18 -3 36.5 -8.5t33 -15.5t24 -26t9.5 -40t-9.5 -42t-26 -30t-39 -17.5t-47.5 -5.5q-44 0 -69.5 7.5t-40.5 19.5z" />
<glyph unicode="&#xb9;" horiz-adv-x="369" d="M43 454v79h76v226l-76 -8v81q8 2 23.5 6.5t34 10l37 11t32.5 10.5h108v-337h63v-79h-298z" />
<glyph unicode="&#xbb;" horiz-adv-x="655" d="M31 41l170 229l-170 229h169l175 -216v-26l-174 -216h-170zM280 41l170 229l-170 229h169l175 -216v-26l-174 -216h-170z" />
<glyph unicode="&#xbc;" horiz-adv-x="946" d="M40 260v79h76v226l-76 -8v81q8 2 23.5 6.5t34 10l37 11t32.5 10.5h108v-337h63v-79h-298zM196 0v13l436 687h132v-13l-436 -687h-132zM520 86v92l176 238h165v-237h45v-93h-45v-86h-157v86h-184zM621 179h90v123h-3z" />
<glyph unicode="&#xbd;" horiz-adv-x="1003" d="M41 261v79h76v226l-76 -8v81q8 2 23.5 6.5t34 10l37 11t32.5 10.5h108v-337h63v-79h-298zM196 0v13l436 687h132v-13l-436 -687h-132zM594 291q1 24 12 48.5t33 44t57 32t85 12.5q48 0 82 -9.5t56 -26.5t32.5 -40.5t10.5 -51.5q0 -38 -17.5 -67t-44.5 -52t-60.5 -40.5 t-66.5 -30.5v-2h187v-107h-361v91q26 16 62 38.5t68.5 51t55.5 61t23 67.5q0 17 -6 26t-23 9q-13 0 -20.5 -7.5t-12 -18.5t-6 -24.5t-1.5 -26.5q-20 1 -41.5 2.5t-42 4.5t-36.5 7t-25 9z" />
<glyph unicode="&#xbe;" horiz-adv-x="978" d="M41 347q9 5 26 11t36 11t37.5 8.5t30.5 4.5q1 -9 3.5 -18t7 -16.5t12.5 -12t20 -4.5q36 0 36 44q0 27 -18.5 41.5t-66.5 14.5h-21v78h21q45 0 60 14.5t15 41.5q0 18 -6.5 28t-24.5 10q-23 0 -29 -16t-8 -35q-16 1 -35.5 3t-38 5.5t-34 8t-23.5 9.5q4 22 16.5 42t34.5 35 t54 23.5t75 8.5q88 0 131.5 -30t43.5 -83q0 -41 -24 -63.5t-59 -30.5v-3q17 -4 33.5 -11.5t29 -19.5t20 -29t7.5 -41q0 -61 -46 -93.5t-136 -32.5q-45 0 -77.5 8.5t-54.5 22.5t-33.5 31.5t-14.5 34.5zM228 0v13l436 687h132v-13l-436 -687h-132zM552 86v92l176 238h165v-237 h45v-93h-45v-86h-157v86h-184zM653 179h90v123h-3z" />
<glyph unicode="&#xbf;" horiz-adv-x="504" d="M10 -4q0 45 13.5 77.5t34.5 56t45.5 41t46 33t37 31.5t18.5 37l2 16h180v-38q0 -40 -11.5 -65.5t-29.5 -43t-38 -30t-38 -27t-29.5 -34t-11.5 -50.5q0 -51 43 -51q30 0 40 20.5t13 50.5q23 -1 50.5 -4.5t54 -9t49 -13t34.5 -15.5q-3 -27 -16.5 -56.5t-42 -54t-75.5 -40.5 t-116 -16q-66 0 -114 14.5t-79 40t-45.5 59t-14.5 71.5zM190 429q0 22 8 42t22.5 35t35 23.5t44.5 8.5t44 -8.5t35 -23.5t23 -35t8 -42t-8 -41t-23 -33t-35 -22.5t-44 -8.5q-49 0 -79.5 30.5t-30.5 74.5z" />
<glyph unicode="&#xc0;" horiz-adv-x="685" d="M3 0v12l207 688h271l201 -688v-12h-247l-29 120h-182l-30 -120h-191zM155 890q5 2 17 3.5t28 2.5t35 1.5t38 0.5q32 0 59.5 -1.5t37.5 -6.5l60 -140q-5 -3 -26.5 -4.5t-47.5 -1.5q-23 0 -43 1.5t-29 4.5zM260 265h112l-6 27l-14 66t-13 62.5t-11 53t-7 37.5h-5 q-3 -13 -8 -37t-12 -54t-14.5 -63.5t-15.5 -66.5z" />
<glyph unicode="&#xc1;" horiz-adv-x="685" d="M3 0v12l207 688h271l201 -688v-12h-247l-29 120h-182l-30 -120h-191zM260 265h112l-6 27l-14 66t-13 62.5t-11 53t-7 37.5h-5q-3 -13 -8 -37t-12 -54t-14.5 -63.5t-15.5 -66.5zM269 750l60 140q10 5 37.5 6.5t59.5 1.5q19 0 38 -0.5t35 -1.5t28 -2.5t17 -3.5l-129 -140 q-9 -3 -29 -4.5t-43 -1.5q-26 0 -47.5 1.5t-26.5 4.5z" />
<glyph unicode="&#xc2;" horiz-adv-x="685" d="M3 0v12l207 688h271l201 -688v-12h-247l-29 120h-182l-30 -120h-191zM151 753l85 138q6 2 17 3.5t25.5 2.5t31 1.5t31.5 0.5q31 0 63 -2t45 -6l85 -138q-5 -3 -23 -4.5t-39 -1.5q-19 0 -36.5 1.5t-26.5 4.5l-65 67h-2l-66 -67q-9 -3 -26.5 -4.5t-36.5 -1.5q-21 0 -39 1.5 t-23 4.5zM260 265h112l-6 27l-14 66t-13 62.5t-11 53t-7 37.5h-5q-3 -13 -8 -37t-12 -54t-14.5 -63.5t-15.5 -66.5z" />
<glyph unicode="&#xc3;" horiz-adv-x="685" d="M3 0v12l207 688h271l201 -688v-12h-247l-29 120h-182l-30 -120h-191zM155 739q10 75 45 113.5t91 38.5q25 0 42.5 -7.5t32.5 -16t28.5 -16t30.5 -7.5q16 0 25.5 9.5t17.5 33.5q2 2 13 2.5t25 0.5q15 0 28.5 -1t15.5 -2q-14 -81 -47 -116.5t-82 -35.5q-27 0 -45.5 7.5 t-33 16t-27.5 16t-29 7.5q-20 0 -30.5 -12t-18.5 -31q-2 -2 -13 -2.5t-25 -0.5q-15 0 -28.5 0.5t-15.5 2.5zM260 265h112l-6 27l-14 66t-13 62.5t-11 53t-7 37.5h-5q-3 -13 -8 -37t-12 -54t-14.5 -63.5t-15.5 -66.5z" />
<glyph unicode="&#xc4;" horiz-adv-x="685" d="M3 0v12l207 688h271l201 -688v-12h-247l-29 120h-182l-30 -120h-191zM138 824q0 36 23 62t67 26t68.5 -26t24.5 -62q0 -37 -24.5 -64t-68.5 -27t-67 27t-23 64zM260 265h112l-6 27l-14 66t-13 62.5t-11 53t-7 37.5h-5q-3 -13 -8 -37t-12 -54t-14.5 -63.5t-15.5 -66.5z M365 824q0 36 23.5 62t66.5 26q45 0 68.5 -26t23.5 -62q0 -37 -23.5 -64t-68.5 -27q-43 0 -66.5 27t-23.5 64z" />
<glyph unicode="&#xc5;" horiz-adv-x="685" d="M3 0v12l207 688h271l201 -688v-12h-247l-29 120h-182l-30 -120h-191zM219 836q0 52 34.5 84t89.5 32q54 0 88.5 -32t34.5 -84t-34.5 -84t-88.5 -32q-55 0 -89.5 32t-34.5 84zM260 265h112l-6 27l-14 66t-13 62.5t-11 53t-7 37.5h-5q-3 -13 -8 -37t-12 -54t-14.5 -63.5 t-15.5 -66.5zM301 836q0 -22 10 -37t32 -15t31.5 15t9.5 37t-9.5 37t-31.5 15t-32 -15t-10 -37z" />
<glyph unicode="&#xc6;" horiz-adv-x="907" d="M2 0v12l279 688h589v-145h-243v-125h218q3 -11 4.5 -30t1.5 -40q0 -22 -1.5 -42t-4.5 -32h-218v-141h256v-145h-485v120h-154l-43 -120h-199zM296 265h102v290h-5q-8 -28 -26 -84t-45 -133z" />
<glyph unicode="&#xc7;" horiz-adv-x="657" d="M26 351q0 81 18 148t56.5 115.5t98.5 75.5t145 27q139 0 212.5 -63t82.5 -181q-14 -5 -35 -9t-45.5 -6.5t-50.5 -4t-48 -1.5h-20.5t-20.5 1q-5 66 -19 98t-52 32q-23 0 -37.5 -12t-22.5 -39.5t-11 -72t-3 -108.5t3 -108.5t11 -72.5t22.5 -40.5t37.5 -12.5q36 0 51.5 30.5 t20.5 107.5q10 1 23 1.5t25 0.5q16 0 40.5 -1t50 -2.5t48 -5t34.5 -7.5q-8 -112 -72 -180t-187 -77l-10 -34q18 -3 36.5 -8.5t33 -15.5t24 -26t9.5 -40t-9.5 -42t-26 -30t-39 -17.5t-47.5 -5.5q-44 0 -69.5 7.5t-40.5 19.5l17 55q11 -6 26 -11t31 -5q21 0 29.5 8.5t8.5 22.5 q0 12 -7.5 19.5t-19 12.5t-25.5 7t-27 4l23 81q-74 7 -126 36.5t-84.5 77.5t-47.5 112t-15 139z" />
<glyph unicode="&#xc8;" horiz-adv-x="557" d="M48 0v700h471v-145h-242v-125h218q3 -11 4.5 -30t1.5 -39q0 -23 -2 -43t-4 -32h-218v-141h256v-145h-485zM101 890q5 2 17 3.5t28 2.5t35 1.5t38 0.5q32 0 59.5 -1.5t37.5 -6.5l60 -140q-5 -3 -26.5 -4.5t-47.5 -1.5q-23 0 -43 1.5t-29 4.5z" />
<glyph unicode="&#xc9;" horiz-adv-x="557" d="M48 0v700h471v-145h-242v-125h218q3 -11 4.5 -30t1.5 -39q0 -23 -2 -43t-4 -32h-218v-141h256v-145h-485zM200 750l60 140q10 5 37.5 6.5t59.5 1.5q19 0 38 -0.5t35 -1.5t28 -2.5t17 -3.5l-129 -140q-9 -3 -29 -4.5t-43 -1.5q-26 0 -47.5 1.5t-26.5 4.5z" />
<glyph unicode="&#xca;" horiz-adv-x="557" d="M48 0v700h471v-145h-242v-125h218q3 -11 4.5 -30t1.5 -39q0 -23 -2 -43t-4 -32h-218v-141h256v-145h-485zM97 753l85 138q6 2 17 3.5t25.5 2.5t31 1.5t31.5 0.5q31 0 63 -2t45 -6l85 -138q-5 -3 -23 -4.5t-39 -1.5q-19 0 -36.5 1.5t-26.5 4.5l-65 67h-2l-66 -67 q-9 -3 -26.5 -4.5t-36.5 -1.5q-21 0 -39 1.5t-23 4.5z" />
<glyph unicode="&#xcb;" horiz-adv-x="557" d="M48 0v700h471v-145h-242v-125h218q3 -11 4.5 -30t1.5 -39q0 -23 -2 -43t-4 -32h-218v-141h256v-145h-485zM82 824q0 36 23 62t67 26t68.5 -26t24.5 -62q0 -37 -24.5 -64t-68.5 -27t-67 27t-23 64zM309 824q0 36 23.5 62t66.5 26q45 0 68.5 -26t23.5 -62q0 -37 -23.5 -64 t-68.5 -27q-43 0 -66.5 27t-23.5 64z" />
<glyph unicode="&#xcc;" horiz-adv-x="325" d="M-11 890q5 2 17 3.5t28 2.5t35 1.5t38 0.5q32 0 59.5 -1.5t37.5 -6.5l60 -140q-5 -3 -26.5 -4.5t-47.5 -1.5q-23 0 -43 1.5t-29 4.5zM48 0v700h229v-700h-229z" />
<glyph unicode="&#xcd;" horiz-adv-x="325" d="M48 0v700h229v-700h-229zM61 750l60 140q10 5 37.5 6.5t59.5 1.5q19 0 38 -0.5t35 -1.5t28 -2.5t17 -3.5l-129 -140q-9 -3 -29 -4.5t-43 -1.5q-26 0 -47.5 1.5t-26.5 4.5z" />
<glyph unicode="&#xce;" horiz-adv-x="325" d="M-28 753l85 138q6 2 17 3.5t25.5 2.5t31 1.5t31.5 0.5q31 0 63 -2t45 -6l85 -138q-5 -3 -23 -4.5t-39 -1.5q-19 0 -36.5 1.5t-26.5 4.5l-65 67h-2l-66 -67q-9 -3 -26.5 -4.5t-36.5 -1.5q-21 0 -39 1.5t-23 4.5zM48 0v700h229v-700h-229z" />
<glyph unicode="&#xcf;" horiz-adv-x="325" d="M-41 824q0 36 23 62t67 26t68.5 -26t24.5 -62q0 -37 -24.5 -64t-68.5 -27t-67 27t-23 64zM48 0v700h229v-700h-229zM186 824q0 36 23.5 62t66.5 26q45 0 68.5 -26t23.5 -62q0 -37 -23.5 -64t-68.5 -27q-43 0 -66.5 27t-23.5 64z" />
<glyph unicode="&#xd0;" horiz-adv-x="713" d="M11 285v131h60v284h261q94 0 161.5 -24t110.5 -69.5t63 -110t20 -145.5t-20 -146t-62.5 -110.5t-110 -70t-161.5 -24.5h-262v285h-60zM300 133h27q29 0 50.5 10.5t35 35.5t20 67t6.5 105t-6.5 105t-20 66.5t-35 34.5t-50.5 10h-27v-151h84v-131h-84v-152z" />
<glyph unicode="&#xd1;" horiz-adv-x="744" d="M48 0v700h287l106 -255q26 -63 43.5 -114.5t24.5 -77.5h5q-1 13 -2 38.5t-2 56t-1.5 64t-0.5 63.5v225h188v-700h-276l-115 274q-13 31 -25 62t-21 57.5t-15.5 47t-9.5 32.5h-5q1 -12 2.5 -36t2.5 -54.5t1.5 -64.5t0.5 -66v-252h-188zM195 739q10 75 45 113.5t91 38.5 q25 0 42.5 -7.5t32.5 -16t28.5 -16t30.5 -7.5q16 0 25.5 9.5t17.5 33.5q2 2 13 2.5t25 0.5q15 0 28.5 -1t15.5 -2q-14 -81 -47 -116.5t-82 -35.5q-27 0 -45.5 7.5t-33 16t-27.5 16t-29 7.5q-20 0 -30.5 -12t-18.5 -31q-2 -2 -13 -2.5t-25 -0.5q-15 0 -28.5 0.5t-15.5 2.5z " />
<glyph unicode="&#xd2;" horiz-adv-x="697" d="M26 351q0 83 18 150.5t57 115.5t100 74t147 26t147 -26t100 -74t57.5 -115.5t18.5 -150.5q0 -84 -18 -152t-57 -116t-100 -74t-148 -26q-86 0 -147 26t-100 74t-57 116t-18 152zM161 890q5 2 17 3.5t28 2.5t35 1.5t38 0.5q32 0 59.5 -1.5t37.5 -6.5l60 -140 q-5 -3 -26.5 -4.5t-47.5 -1.5q-23 0 -43 1.5t-29 4.5zM274 351q0 -64 2.5 -108.5t10.5 -72.5t22.5 -40.5t38.5 -12.5q23 0 37.5 12.5t22.5 40.5t11 72.5t3 108.5t-3 108.5t-11 72t-22.5 39.5t-37.5 12t-37.5 -12t-22.5 -39.5t-11 -72t-3 -108.5z" />
<glyph unicode="&#xd3;" horiz-adv-x="697" d="M26 351q0 83 18 150.5t57 115.5t100 74t147 26t147 -26t100 -74t57.5 -115.5t18.5 -150.5q0 -84 -18 -152t-57 -116t-100 -74t-148 -26q-86 0 -147 26t-100 74t-57 116t-18 152zM260 750l60 140q10 5 37.5 6.5t59.5 1.5q19 0 38 -0.5t35 -1.5t28 -2.5t17 -3.5l-129 -140 q-9 -3 -29 -4.5t-43 -1.5q-26 0 -47.5 1.5t-26.5 4.5zM274 351q0 -64 2.5 -108.5t10.5 -72.5t22.5 -40.5t38.5 -12.5q23 0 37.5 12.5t22.5 40.5t11 72.5t3 108.5t-3 108.5t-11 72t-22.5 39.5t-37.5 12t-37.5 -12t-22.5 -39.5t-11 -72t-3 -108.5z" />
<glyph unicode="&#xd4;" horiz-adv-x="697" d="M26 351q0 83 18 150.5t57 115.5t100 74t147 26t147 -26t100 -74t57.5 -115.5t18.5 -150.5q0 -84 -18 -152t-57 -116t-100 -74t-148 -26q-86 0 -147 26t-100 74t-57 116t-18 152zM156 753l85 138q6 2 17 3.5t25.5 2.5t31 1.5t31.5 0.5q31 0 63 -2t45 -6l85 -138 q-5 -3 -23 -4.5t-39 -1.5q-19 0 -36.5 1.5t-26.5 4.5l-65 67h-2l-66 -67q-9 -3 -26.5 -4.5t-36.5 -1.5q-21 0 -39 1.5t-23 4.5zM274 351q0 -64 2.5 -108.5t10.5 -72.5t22.5 -40.5t38.5 -12.5q23 0 37.5 12.5t22.5 40.5t11 72.5t3 108.5t-3 108.5t-11 72t-22.5 39.5t-37.5 12 t-37.5 -12t-22.5 -39.5t-11 -72t-3 -108.5z" />
<glyph unicode="&#xd5;" horiz-adv-x="697" d="M26 351q0 83 18 150.5t57 115.5t100 74t147 26t147 -26t100 -74t57.5 -115.5t18.5 -150.5q0 -84 -18 -152t-57 -116t-100 -74t-148 -26q-86 0 -147 26t-100 74t-57 116t-18 152zM156 739q10 75 45 113.5t91 38.5q25 0 42.5 -7.5t32.5 -16t28.5 -16t30.5 -7.5 q16 0 25.5 9.5t17.5 33.5q2 2 13 2.5t25 0.5q15 0 28.5 -1t15.5 -2q-14 -81 -47 -116.5t-82 -35.5q-27 0 -45.5 7.5t-33 16t-27.5 16t-29 7.5q-20 0 -30.5 -12t-18.5 -31q-2 -2 -13 -2.5t-25 -0.5q-15 0 -28.5 0.5t-15.5 2.5zM274 351q0 -64 2.5 -108.5t10.5 -72.5 t22.5 -40.5t38.5 -12.5q23 0 37.5 12.5t22.5 40.5t11 72.5t3 108.5t-3 108.5t-11 72t-22.5 39.5t-37.5 12t-37.5 -12t-22.5 -39.5t-11 -72t-3 -108.5z" />
<glyph unicode="&#xd6;" horiz-adv-x="697" d="M26 351q0 83 18 150.5t57 115.5t100 74t147 26t147 -26t100 -74t57.5 -115.5t18.5 -150.5q0 -84 -18 -152t-57 -116t-100 -74t-148 -26q-86 0 -147 26t-100 74t-57 116t-18 152zM143 824q0 36 23 62t67 26t68.5 -26t24.5 -62q0 -37 -24.5 -64t-68.5 -27t-67 27t-23 64z M274 351q0 -64 2.5 -108.5t10.5 -72.5t22.5 -40.5t38.5 -12.5q23 0 37.5 12.5t22.5 40.5t11 72.5t3 108.5t-3 108.5t-11 72t-22.5 39.5t-37.5 12t-37.5 -12t-22.5 -39.5t-11 -72t-3 -108.5zM370 824q0 36 23.5 62t66.5 26q45 0 68.5 -26t23.5 -62q0 -37 -23.5 -64t-68.5 -27 q-43 0 -66.5 27t-23.5 64z" />
<glyph unicode="&#xd7;" horiz-adv-x="580" d="M24 457l107 107l160 -161l159 159l104 -104l-159 -159l161 -160l-107 -107l-161 160l-158 -158l-104 104l158 158z" />
<glyph unicode="&#xd8;" horiz-adv-x="697" d="M26 351q0 83 18 150.5t57 115.5t100 74t147 26q54 0 98 -10.5t79 -30.5l34 49l89 -56l-44 -63q35 -48 51 -112.5t16 -142.5q0 -84 -18 -152t-57 -116t-100 -74t-148 -26q-47 0 -86 8t-71 22l-38 -55l-85 49l43 63q-45 49 -65 120t-20 161zM264 321.5q0 -13.5 1 -27.5 l152 224q-10 35 -26.5 50t-42.5 15q-23 0 -39 -11.5t-26 -38.5t-14.5 -71.5t-4.5 -110.5v-29.5zM289 153q10 -20 24.5 -28t34.5 -8q23 0 39 12t26 39t14.5 72t4.5 111v7z" />
<glyph unicode="&#xd9;" horiz-adv-x="658" d="M45 255v445h229v-443q0 -57 18.5 -81t57.5 -24q38 0 56.5 24t18.5 80v444h188v-445q0 -60 -12 -110t-43.5 -86t-85.5 -56t-139 -20t-140.5 19.5t-88.5 55t-46 85.5t-13 112zM152 890q5 2 17 3.5t28 2.5t35 1.5t38 0.5q32 0 59.5 -1.5t37.5 -6.5l60 -140q-5 -3 -26.5 -4.5 t-47.5 -1.5q-23 0 -43 1.5t-29 4.5z" />
<glyph unicode="&#xda;" horiz-adv-x="658" d="M45 255v445h229v-443q0 -57 18.5 -81t57.5 -24q38 0 56.5 24t18.5 80v444h188v-445q0 -60 -12 -110t-43.5 -86t-85.5 -56t-139 -20t-140.5 19.5t-88.5 55t-46 85.5t-13 112zM270 750l60 140q10 5 37.5 6.5t59.5 1.5q19 0 38 -0.5t35 -1.5t28 -2.5t17 -3.5l-129 -140 q-9 -3 -29 -4.5t-43 -1.5q-26 0 -47.5 1.5t-26.5 4.5z" />
<glyph unicode="&#xdb;" horiz-adv-x="658" d="M45 255v445h229v-443q0 -57 18.5 -81t57.5 -24q38 0 56.5 24t18.5 80v444h188v-445q0 -60 -12 -110t-43.5 -86t-85.5 -56t-139 -20t-140.5 19.5t-88.5 55t-46 85.5t-13 112zM147 753l85 138q6 2 17 3.5t25.5 2.5t31 1.5t31.5 0.5q31 0 63 -2t45 -6l85 -138 q-5 -3 -23 -4.5t-39 -1.5q-19 0 -36.5 1.5t-26.5 4.5l-65 67h-2l-66 -67q-9 -3 -26.5 -4.5t-36.5 -1.5q-21 0 -39 1.5t-23 4.5z" />
<glyph unicode="&#xdc;" horiz-adv-x="658" d="M45 255v445h229v-443q0 -57 18.5 -81t57.5 -24q38 0 56.5 24t18.5 80v444h188v-445q0 -60 -12 -110t-43.5 -86t-85.5 -56t-139 -20t-140.5 19.5t-88.5 55t-46 85.5t-13 112zM139 824q0 36 23 62t67 26t68.5 -26t24.5 -62q0 -37 -24.5 -64t-68.5 -27t-67 27t-23 64z M366 824q0 36 23.5 62t66.5 26q45 0 68.5 -26t23.5 -62q0 -37 -23.5 -64t-68.5 -27q-43 0 -66.5 27t-23.5 64z" />
<glyph unicode="&#xdd;" horiz-adv-x="646" d="M-4 688v12h247l101 -244h5l106 244h196v-12l-214 -443v-245h-229v245zM265 750l60 140q10 5 37.5 6.5t59.5 1.5q19 0 38 -0.5t35 -1.5t28 -2.5t17 -3.5l-129 -140q-9 -3 -29 -4.5t-43 -1.5q-26 0 -47.5 1.5t-26.5 4.5z" />
<glyph unicode="&#xde;" horiz-adv-x="651" d="M48 0v700h229v-109h27q85 0 145.5 -15t99 -44.5t56.5 -72.5t18 -98q0 -56 -18 -99t-56 -72t-98.5 -44.5t-145.5 -15.5h-28v-130h-229zM277 267h16q19 0 36.5 1.5t31 10.5t21.5 28t8 54t-8 54.5t-21.5 29.5t-31 12t-36.5 2h-16v-192z" />
<glyph unicode="&#xdf;" horiz-adv-x="620" d="M39 0v472q0 66 20 112t56 75t87 42t113 13q69 0 119 -15.5t82.5 -42t47.5 -62t15 -74.5q0 -62 -30 -96.5t-79 -51.5v-4q24 -6 48.5 -18t44 -32t31.5 -50t12 -72q0 -52 -15.5 -90.5t-44 -63.5t-69 -37.5t-90.5 -12.5q-42 0 -64.5 3t-36.5 6v121q10 -3 32 -3q38 0 54 21 t16 66q0 47 -19.5 68t-71.5 21h-9v130h8q45 0 59 25t14 67q0 35 -15.5 53.5t-41.5 18.5q-34 0 -46 -24.5t-12 -77.5v-487h-215z" />
<glyph unicode="&#xe0;" horiz-adv-x="566" d="M21 150q0 46 17 78.5t46.5 52.5t70 29.5t87.5 9.5q21 0 38.5 -1t31.5 -3v60q0 19 -7 33.5t-31 14.5q-15 0 -24.5 -7t-15.5 -17.5t-9 -23.5t-4 -25q-24 0 -52.5 3.5t-55.5 9.5t-49 13t-33 15q17 74 81.5 115t174.5 41q72 0 118.5 -16t73.5 -44t37.5 -66t10.5 -81v-154 q0 -55 3.5 -98t13.5 -68l-187 -37q-10 10 -17 22.5t-13 26.5q-20 -20 -52 -34t-80 -14q-83 0 -128.5 45t-45.5 120zM111 737q5 2 16.5 3.5t27.5 2.5t35 1.5t38 0.5q32 0 59 -1.5t37 -6.5l59 -154q-5 -3 -26.5 -4.5t-46.5 -1.5q-23 0 -43 1.5t-29 4.5zM230 162q0 -18 5 -29 t12.5 -17.5t17 -8.5t19.5 -2q20 0 28 4v112q-5 1 -9.5 1h-9.5q-12 0 -23.5 -2.5t-20 -9t-14 -18t-5.5 -30.5z" />
<glyph unicode="&#xe1;" horiz-adv-x="566" d="M21 150q0 46 17 78.5t46.5 52.5t70 29.5t87.5 9.5q21 0 38.5 -1t31.5 -3v60q0 19 -7 33.5t-31 14.5q-15 0 -24.5 -7t-15.5 -17.5t-9 -23.5t-4 -25q-24 0 -52.5 3.5t-55.5 9.5t-49 13t-33 15q17 74 81.5 115t174.5 41q72 0 118.5 -16t73.5 -44t37.5 -66t10.5 -81v-154 q0 -55 3.5 -98t13.5 -68l-187 -37q-10 10 -17 22.5t-13 26.5q-20 -20 -52 -34t-80 -14q-83 0 -128.5 45t-45.5 120zM207 583l58 154q11 5 38 6.5t59 1.5q38 0 72.5 -2t44.5 -6l-128 -154q-9 -3 -29 -4.5t-42 -1.5q-26 0 -47 1.5t-26 4.5zM230 162q0 -18 5 -29t12.5 -17.5 t17 -8.5t19.5 -2q20 0 28 4v112q-5 1 -9.5 1h-9.5q-12 0 -23.5 -2.5t-20 -9t-14 -18t-5.5 -30.5z" />
<glyph unicode="&#xe2;" horiz-adv-x="566" d="M21 150q0 46 17 78.5t46.5 52.5t70 29.5t87.5 9.5q21 0 38.5 -1t31.5 -3v60q0 19 -7 33.5t-31 14.5q-15 0 -24.5 -7t-15.5 -17.5t-9 -23.5t-4 -25q-24 0 -52.5 3.5t-55.5 9.5t-49 13t-33 15q17 74 81.5 115t174.5 41q72 0 118.5 -16t73.5 -44t37.5 -66t10.5 -81v-154 q0 -55 3.5 -98t13.5 -68l-187 -37q-10 10 -17 22.5t-13 26.5q-20 -20 -52 -34t-80 -14q-83 0 -128.5 45t-45.5 120zM106 583l78 154q6 2 17 3.5t25.5 2.5t31 1.5t31.5 0.5q31 0 63 -2t46 -6l78 -154q-5 -3 -23 -4.5t-40 -1.5q-19 0 -36 1.5t-26 4.5l-59 84h-2l-59 -84 q-9 -3 -26.5 -4.5t-36.5 -1.5q-21 0 -39 1.5t-23 4.5zM230 162q0 -18 5 -29t12.5 -17.5t17 -8.5t19.5 -2q20 0 28 4v112q-5 1 -9.5 1h-9.5q-12 0 -23.5 -2.5t-20 -9t-14 -18t-5.5 -30.5z" />
<glyph unicode="&#xe3;" horiz-adv-x="566" d="M21 150q0 46 17 78.5t46.5 52.5t70 29.5t87.5 9.5q21 0 38.5 -1t31.5 -3v60q0 19 -7 33.5t-31 14.5q-15 0 -24.5 -7t-15.5 -17.5t-9 -23.5t-4 -25q-24 0 -52.5 3.5t-55.5 9.5t-49 13t-33 15q17 74 81.5 115t174.5 41q72 0 118.5 -16t73.5 -44t37.5 -66t10.5 -81v-154 q0 -55 3.5 -98t13.5 -68l-187 -37q-10 10 -17 22.5t-13 26.5q-20 -20 -52 -34t-80 -14q-83 0 -128.5 45t-45.5 120zM92 584q11 75 44 113.5t89 38.5q26 0 44.5 -7.5t33.5 -16.5t28.5 -16.5t30.5 -7.5t26 10t17 34q2 2 13 2.5t25 0.5q15 0 28.5 -1t15.5 -2 q-14 -81 -45.5 -116.5t-79.5 -35.5q-29 0 -48 7.5t-34 16t-27.5 16t-28.5 7.5q-20 0 -31 -12t-19 -31q-2 -2 -13 -2.5t-25 -0.5q-15 0 -28.5 0.5t-15.5 2.5zM230 162q0 -18 5 -29t12.5 -17.5t17 -8.5t19.5 -2q20 0 28 4v112q-5 1 -9.5 1h-9.5q-12 0 -23.5 -2.5t-20 -9 t-14 -18t-5.5 -30.5z" />
<glyph unicode="&#xe4;" horiz-adv-x="566" d="M21 150q0 46 17 78.5t46.5 52.5t70 29.5t87.5 9.5q21 0 38.5 -1t31.5 -3v60q0 19 -7 33.5t-31 14.5q-15 0 -24.5 -7t-15.5 -17.5t-9 -23.5t-4 -25q-24 0 -52.5 3.5t-55.5 9.5t-49 13t-33 15q17 74 81.5 115t174.5 41q72 0 118.5 -16t73.5 -44t37.5 -66t10.5 -81v-154 q0 -55 3.5 -98t13.5 -68l-187 -37q-10 10 -17 22.5t-13 26.5q-20 -20 -52 -34t-80 -14q-83 0 -128.5 45t-45.5 120zM89 661q0 36 23 62t67 26t68.5 -26t24.5 -62q0 -37 -24.5 -64t-68.5 -27t-67 27t-23 64zM230 162q0 -18 5 -29t12.5 -17.5t17 -8.5t19.5 -2q20 0 28 4v112 q-5 1 -9.5 1h-9.5q-12 0 -23.5 -2.5t-20 -9t-14 -18t-5.5 -30.5zM306 661q0 36 23 62t67 26q45 0 68.5 -26t23.5 -62q0 -37 -23.5 -64t-68.5 -27q-44 0 -67 27t-23 64z" />
<glyph unicode="&#xe5;" horiz-adv-x="566" d="M21 150q0 46 17 78.5t46.5 52.5t70 29.5t87.5 9.5q21 0 38.5 -1t31.5 -3v60q0 19 -7 33.5t-31 14.5q-15 0 -24.5 -7t-15.5 -17.5t-9 -23.5t-4 -25q-24 0 -52.5 3.5t-55.5 9.5t-49 13t-33 15q17 74 81.5 115t174.5 41q72 0 118.5 -16t73.5 -44t37.5 -66t10.5 -81v-154 q0 -55 3.5 -98t13.5 -68l-187 -37q-10 10 -17 22.5t-13 26.5q-20 -20 -52 -34t-80 -14q-83 0 -128.5 45t-45.5 120zM161 685q0 52 34.5 83.5t89.5 31.5q54 0 88.5 -31.5t34.5 -83.5q0 -53 -34.5 -84.5t-88.5 -31.5q-55 0 -89.5 31.5t-34.5 84.5zM230 162q0 -18 5 -29 t12.5 -17.5t17 -8.5t19.5 -2q20 0 28 4v112q-5 1 -9.5 1h-9.5q-12 0 -23.5 -2.5t-20 -9t-14 -18t-5.5 -30.5zM243 685q0 -22 10 -37t32 -15t31.5 15t9.5 37t-9.5 37t-31.5 15t-32 -15t-10 -37z" />
<glyph unicode="&#xe6;" horiz-adv-x="858" d="M21 148q0 46 17 78.5t46.5 53.5t69.5 30.5t87 9.5q21 0 39 -1t32 -3v57q0 24 -8 37.5t-30 13.5q-15 0 -25 -7t-15.5 -17.5t-8.5 -23.5t-4 -25q-26 0 -55.5 4t-56 10t-47.5 13t-31 14q17 73 80.5 114.5t178.5 41.5q48 0 85.5 -8t62.5 -25q29 18 64 25.5t78 7.5 q69 0 118.5 -20.5t81 -56.5t46 -85t14.5 -106q0 -15 -0.5 -33t-2.5 -30h-297q2 -66 11.5 -91.5t35.5 -25.5q13 0 21.5 8.5t13 20t6.5 24t2 20.5q5 0 11 0.5t14 0.5q19 0 43.5 -1.5t48.5 -4t45 -6.5t35 -10q-8 -36 -25 -67t-46 -53.5t-71 -35.5t-100 -13q-62 0 -109 15.5 t-82 44.5q-28 -23 -75.5 -40.5t-114.5 -17.5q-48 0 -82.5 12t-57 34t-33 52t-10.5 65zM230 162q0 -18 5 -29.5t14 -17.5t20.5 -8t24.5 -2q28 0 48 11q-12 23 -18.5 48t-9.5 57q-4 0 -7.5 0.5t-8.5 0.5q-13 0 -25.5 -2.5t-22 -9t-15 -18t-5.5 -30.5zM540 325h86 q0 58 -7.5 83.5t-33.5 25.5q-22 0 -32.5 -22.5t-12.5 -86.5z" />
<glyph unicode="&#xe7;" horiz-adv-x="552" d="M20 266q0 64 15.5 116t48.5 89t84 57t122 20q118 0 181 -54t68 -155q-13 -3 -32 -5.5t-41 -4t-43.5 -2t-38.5 -0.5h-21.5t-26.5 2q-1 21 -2.5 39.5t-5.5 32.5t-12 22t-22 8q-29 0 -37 -39t-8 -126q0 -88 8 -127t37 -39q26 0 32.5 27.5t8.5 71.5q8 1 21.5 1.5t30.5 0.5 q21 0 44 -1t44 -2.5t38.5 -4t26.5 -5.5q-11 -99 -68 -149t-160 -55l-10 -34q18 -3 36.5 -8.5t33 -15.5t24 -26t9.5 -40t-9.5 -42t-26 -30t-39 -17.5t-47.5 -5.5q-44 0 -69.5 7.5t-40.5 19.5l17 55q11 -6 26 -11t31 -5q21 0 29.5 8.5t8.5 22.5q0 12 -7.5 19.5t-19 12.5 t-25.5 7t-27 4l24 82q-55 8 -95 31t-65.5 59t-37.5 84t-12 105z" />
<glyph unicode="&#xe8;" horiz-adv-x="566" d="M20 268q0 137 68.5 208.5t199.5 71.5q69 0 118.5 -20.5t81 -56.5t46 -85t14.5 -106q0 -15 -1 -33t-3 -30h-296q2 -66 12 -91.5t35 -25.5q14 0 22 8.5t12.5 20t6 24t2.5 20.5q13 1 19.5 1h13.5q17 0 40 -1t46.5 -3t44.5 -5.5t34 -7.5q-7 -38 -24 -70t-46.5 -55t-72 -36 t-100.5 -13q-135 0 -204 73.5t-69 211.5zM105 737q5 2 16.5 3.5t27.5 2.5t35 1.5t38 0.5q32 0 59 -1.5t37 -6.5l59 -154q-5 -3 -26.5 -4.5t-46.5 -1.5q-23 0 -43 1.5t-29 4.5zM248 325h86q0 58 -7 83.5t-35 25.5q-23 0 -32.5 -22.5t-11.5 -86.5z" />
<glyph unicode="&#xe9;" horiz-adv-x="566" d="M20 268q0 137 68.5 208.5t199.5 71.5q69 0 118.5 -20.5t81 -56.5t46 -85t14.5 -106q0 -15 -1 -33t-3 -30h-296q2 -66 12 -91.5t35 -25.5q14 0 22 8.5t12.5 20t6 24t2.5 20.5q13 1 19.5 1h13.5q17 0 40 -1t46.5 -3t44.5 -5.5t34 -7.5q-7 -38 -24 -70t-46.5 -55t-72 -36 t-100.5 -13q-135 0 -204 73.5t-69 211.5zM215 583l58 154q11 5 38 6.5t59 1.5q38 0 72.5 -2t44.5 -6l-128 -154q-9 -3 -29 -4.5t-42 -1.5q-26 0 -47 1.5t-26 4.5zM248 325h86q0 58 -7 83.5t-35 25.5q-23 0 -32.5 -22.5t-11.5 -86.5z" />
<glyph unicode="&#xea;" horiz-adv-x="566" d="M20 268q0 137 68.5 208.5t199.5 71.5q69 0 118.5 -20.5t81 -56.5t46 -85t14.5 -106q0 -15 -1 -33t-3 -30h-296q2 -66 12 -91.5t35 -25.5q14 0 22 8.5t12.5 20t6 24t2.5 20.5q13 1 19.5 1h13.5q17 0 40 -1t46.5 -3t44.5 -5.5t34 -7.5q-7 -38 -24 -70t-46.5 -55t-72 -36 t-100.5 -13q-135 0 -204 73.5t-69 211.5zM108 583l78 154q6 2 17 3.5t25.5 2.5t31 1.5t31.5 0.5q31 0 63 -2t46 -6l78 -154q-5 -3 -23 -4.5t-40 -1.5q-19 0 -36 1.5t-26 4.5l-59 84h-2l-59 -84q-9 -3 -26.5 -4.5t-36.5 -1.5q-21 0 -39 1.5t-23 4.5zM248 325h86q0 58 -7 83.5 t-35 25.5q-23 0 -32.5 -22.5t-11.5 -86.5z" />
<glyph unicode="&#xeb;" horiz-adv-x="566" d="M20 268q0 137 68.5 208.5t199.5 71.5q69 0 118.5 -20.5t81 -56.5t46 -85t14.5 -106q0 -15 -1 -33t-3 -30h-296q2 -66 12 -91.5t35 -25.5q14 0 22 8.5t12.5 20t6 24t2.5 20.5q13 1 19.5 1h13.5q17 0 40 -1t46.5 -3t44.5 -5.5t34 -7.5q-7 -38 -24 -70t-46.5 -55t-72 -36 t-100.5 -13q-135 0 -204 73.5t-69 211.5zM93 661q0 36 23 62t67 26t68.5 -26t24.5 -62q0 -37 -24.5 -64t-68.5 -27t-67 27t-23 64zM248 325h86q0 58 -7 83.5t-35 25.5q-23 0 -32.5 -22.5t-11.5 -86.5zM310 661q0 36 23 62t67 26q45 0 68.5 -26t23.5 -62q0 -37 -23.5 -64 t-68.5 -27q-44 0 -67 27t-23 64z" />
<glyph unicode="&#xec;" d="M-32 737q5 2 16.5 3.5t27.5 2.5t35 1.5t38 0.5q32 0 59 -1.5t37 -6.5l59 -154q-5 -3 -26.5 -4.5t-46.5 -1.5q-23 0 -43 1.5t-29 4.5zM39 0v531q13 0 38 0.5t55 1.5t62 2.5t60 3.5v-407q0 -45 2.5 -83t8.5 -49h-226z" />
<glyph unicode="&#xed;" d="M39 0v531q13 0 38 0.5t55 1.5t62 2.5t60 3.5v-407q0 -45 2.5 -83t8.5 -49h-226zM54 583l58 154q11 5 38 6.5t59 1.5q38 0 72.5 -2t44.5 -6l-128 -154q-9 -3 -29 -4.5t-42 -1.5q-26 0 -47 1.5t-26 4.5z" />
<glyph unicode="&#xee;" d="M-37 583l78 154q6 2 17 3.5t25.5 2.5t31 1.5t31.5 0.5q31 0 63 -2t46 -6l78 -154q-5 -3 -23 -4.5t-40 -1.5q-19 0 -36 1.5t-26 4.5l-59 84h-2l-59 -84q-9 -3 -26.5 -4.5t-36.5 -1.5q-21 0 -39 1.5t-23 4.5zM39 0v531q13 0 38 0.5t55 1.5t62 2.5t60 3.5v-407 q0 -45 2.5 -83t8.5 -49h-226z" />
<glyph unicode="&#xef;" d="M-52 661q0 36 23 62t67 26t68.5 -26t24.5 -62q0 -37 -24.5 -64t-68.5 -27t-67 27t-23 64zM39 0v531q13 0 38 0.5t55 1.5t62 2.5t60 3.5v-407q0 -45 2.5 -83t8.5 -49h-226zM165 661q0 36 23 62t67 26q45 0 68.5 -26t23.5 -62q0 -37 -23.5 -64t-68.5 -27q-44 0 -67 27 t-23 64z" />
<glyph unicode="&#xf0;" horiz-adv-x="597" d="M24 242q0 117 63 183t180 66q26 0 50.5 -4.5t36.5 -13.5q-11 41 -30 77l-142 -38l-25 81l116 31q-22 26 -47.5 49.5t-53.5 43.5h225q14 -9 27 -20.5t26 -25.5l96 26l22 -82l-66 -18q31 -56 49.5 -130.5t18.5 -168.5q0 -67 -16 -124.5t-50 -100t-87 -66.5t-126 -24 q-69 0 -119.5 18.5t-83 52.5t-48.5 82t-16 106zM253 242q0 -43 2 -71.5t6.5 -45.5t13 -24t22.5 -7q15 0 24 7.5t14.5 27t7.5 51.5t2 82q0 61 -6.5 94t-38.5 33q-14 0 -23.5 -7t-14.5 -23.5t-7 -45t-2 -71.5z" />
<glyph unicode="&#xf1;" horiz-adv-x="585" d="M39 0v531q13 0 36 0.5t51 1.5t58 2.5t58 3.5v-70q19 31 55.5 55t93.5 24q45 0 75 -15t48.5 -41.5t26 -63t7.5 -79.5v-217q0 -22 0.5 -43.5t2 -39t3.5 -30.5t5 -19h-226v332q0 32 -8 50t-36 18q-11 0 -19.5 -2.5t-15.5 -6.5v-391h-215zM95 584q11 75 44 113.5t89 38.5 q26 0 44.5 -7.5t33.5 -16.5t28.5 -16.5t30.5 -7.5t26 10t17 34q2 2 13 2.5t25 0.5q15 0 28.5 -1t15.5 -2q-14 -81 -45.5 -116.5t-79.5 -35.5q-29 0 -48 7.5t-34 16t-27.5 16t-28.5 7.5q-20 0 -31 -12t-19 -31q-2 -2 -13 -2.5t-25 -0.5q-15 0 -28.5 0.5t-15.5 2.5z" />
<glyph unicode="&#xf2;" horiz-adv-x="587" d="M20 266q0 64 16 116t49.5 89t85 57t122.5 20t122.5 -20t85.5 -57t50 -89t16 -116t-16 -116.5t-50 -89.5t-85.5 -57t-122.5 -20t-122.5 20.5t-85 57.5t-49.5 89t-16 116zM108 737q5 2 16.5 3.5t27.5 2.5t35 1.5t38 0.5q32 0 59 -1.5t37 -6.5l59 -154q-5 -3 -26.5 -4.5 t-46.5 -1.5q-23 0 -43 1.5t-29 4.5zM249 266q0 -49 2 -80.5t6.5 -50t13 -26t22.5 -7.5t23 7.5t13.5 26t6 50t1.5 80.5t-1.5 80.5t-6 50t-13.5 25.5t-23 7t-22.5 -7t-13 -25.5t-6.5 -50t-2 -80.5z" />
<glyph unicode="&#xf3;" horiz-adv-x="587" d="M20 266q0 64 16 116t49.5 89t85 57t122.5 20t122.5 -20t85.5 -57t50 -89t16 -116t-16 -116.5t-50 -89.5t-85.5 -57t-122.5 -20t-122.5 20.5t-85 57.5t-49.5 89t-16 116zM208 583l58 154q11 5 38 6.5t59 1.5q38 0 72.5 -2t44.5 -6l-128 -154q-9 -3 -29 -4.5t-42 -1.5 q-26 0 -47 1.5t-26 4.5zM249 266q0 -49 2 -80.5t6.5 -50t13 -26t22.5 -7.5t23 7.5t13.5 26t6 50t1.5 80.5t-1.5 80.5t-6 50t-13.5 25.5t-23 7t-22.5 -7t-13 -25.5t-6.5 -50t-2 -80.5z" />
<glyph unicode="&#xf4;" horiz-adv-x="587" d="M20 266q0 64 16 116t49.5 89t85 57t122.5 20t122.5 -20t85.5 -57t50 -89t16 -116t-16 -116.5t-50 -89.5t-85.5 -57t-122.5 -20t-122.5 20.5t-85 57.5t-49.5 89t-16 116zM108 583l78 154q6 2 17 3.5t25.5 2.5t31 1.5t31.5 0.5q31 0 63 -2t46 -6l78 -154q-5 -3 -23 -4.5 t-40 -1.5q-19 0 -36 1.5t-26 4.5l-59 84h-2l-59 -84q-9 -3 -26.5 -4.5t-36.5 -1.5q-21 0 -39 1.5t-23 4.5zM249 266q0 -49 2 -80.5t6.5 -50t13 -26t22.5 -7.5t23 7.5t13.5 26t6 50t1.5 80.5t-1.5 80.5t-6 50t-13.5 25.5t-23 7t-22.5 -7t-13 -25.5t-6.5 -50t-2 -80.5z" />
<glyph unicode="&#xf5;" horiz-adv-x="587" d="M20 266q0 64 16 116t49.5 89t85 57t122.5 20t122.5 -20t85.5 -57t50 -89t16 -116t-16 -116.5t-50 -89.5t-85.5 -57t-122.5 -20t-122.5 20.5t-85 57.5t-49.5 89t-16 116zM95 584q11 75 44 113.5t89 38.5q26 0 44.5 -7.5t33.5 -16.5t28.5 -16.5t30.5 -7.5t26 10t17 34 q2 2 13 2.5t25 0.5q15 0 28.5 -1t15.5 -2q-14 -81 -45.5 -116.5t-79.5 -35.5q-29 0 -48 7.5t-34 16t-27.5 16t-28.5 7.5q-20 0 -31 -12t-19 -31q-2 -2 -13 -2.5t-25 -0.5q-15 0 -28.5 0.5t-15.5 2.5zM249 266q0 -49 2 -80.5t6.5 -50t13 -26t22.5 -7.5t23 7.5t13.5 26t6 50 t1.5 80.5t-1.5 80.5t-6 50t-13.5 25.5t-23 7t-22.5 -7t-13 -25.5t-6.5 -50t-2 -80.5z" />
<glyph unicode="&#xf6;" horiz-adv-x="587" d="M20 266q0 64 16 116t49.5 89t85 57t122.5 20t122.5 -20t85.5 -57t50 -89t16 -116t-16 -116.5t-50 -89.5t-85.5 -57t-122.5 -20t-122.5 20.5t-85 57.5t-49.5 89t-16 116zM94 661q0 36 23 62t67 26t68.5 -26t24.5 -62q0 -37 -24.5 -64t-68.5 -27t-67 27t-23 64zM249 266 q0 -49 2 -80.5t6.5 -50t13 -26t22.5 -7.5t23 7.5t13.5 26t6 50t1.5 80.5t-1.5 80.5t-6 50t-13.5 25.5t-23 7t-22.5 -7t-13 -25.5t-6.5 -50t-2 -80.5zM311 661q0 36 23 62t67 26q45 0 68.5 -26t23.5 -62q0 -37 -23.5 -64t-68.5 -27q-44 0 -67 27t-23 64z" />
<glyph unicode="&#xf7;" horiz-adv-x="580" d="M31 225v146h518v-146h-518zM180 96q0 43 30.5 73.5t79.5 30.5t79.5 -30.5t30.5 -73.5q0 -22 -8 -42t-22.5 -35t-35 -23.5t-44.5 -8.5t-44.5 8.5t-35 23.5t-22.5 35t-8 42zM180 505q0 44 30.5 74.5t79.5 30.5t79.5 -30.5t30.5 -74.5q0 -22 -8 -41.5t-22.5 -34.5t-35 -23.5 t-44.5 -8.5t-44.5 8.5t-35 23.5t-22.5 34.5t-8 41.5z" />
<glyph unicode="&#xf8;" horiz-adv-x="587" d="M20 266q0 64 16 116t49.5 89t85 57t122.5 20q77 0 134 -26l34 46l88 -59l-38 -50q29 -37 42.5 -85.5t13.5 -107.5q0 -64 -16 -116.5t-50 -89.5t-85.5 -57t-122.5 -20q-38 0 -69.5 5.5t-57.5 16.5l-30 -39l-83 52l32 43q-33 38 -49 89.5t-16 115.5zM234 262l101 137 q-8 17 -18 23.5t-24 6.5t-24.5 -7t-18.5 -25.5t-12 -50t-4 -80.5v-4zM256 123q13 -21 37 -21q13 0 24 6.5t18.5 23.5t11.5 45.5t5 72.5z" />
<glyph unicode="&#xf9;" horiz-adv-x="584" d="M39 174v357q13 0 38 0.5t55 1.5t62 2.5t60 3.5v-331q0 -40 8 -57.5t34 -17.5q18 0 34 8v390q13 0 38 0.5t55 1.5t62 2.5t60 3.5v-360q0 -44 3 -89.5t12 -68.5l-186 -37q-11 13 -20.5 28.5t-14.5 37.5q-20 -27 -52.5 -47t-89.5 -20q-86 0 -122 50.5t-36 140.5zM98 737 q5 2 16.5 3.5t27.5 2.5t35 1.5t38 0.5q32 0 59 -1.5t37 -6.5l59 -154q-5 -3 -26.5 -4.5t-46.5 -1.5q-23 0 -43 1.5t-29 4.5z" />
<glyph unicode="&#xfa;" horiz-adv-x="584" d="M39 174v357q13 0 38 0.5t55 1.5t62 2.5t60 3.5v-331q0 -40 8 -57.5t34 -17.5q18 0 34 8v390q13 0 38 0.5t55 1.5t62 2.5t60 3.5v-360q0 -44 3 -89.5t12 -68.5l-186 -37q-11 13 -20.5 28.5t-14.5 37.5q-20 -27 -52.5 -47t-89.5 -20q-86 0 -122 50.5t-36 140.5zM225 583 l58 154q11 5 38 6.5t59 1.5q38 0 72.5 -2t44.5 -6l-128 -154q-9 -3 -29 -4.5t-42 -1.5q-26 0 -47 1.5t-26 4.5z" />
<glyph unicode="&#xfb;" horiz-adv-x="584" d="M39 174v357q13 0 38 0.5t55 1.5t62 2.5t60 3.5v-331q0 -40 8 -57.5t34 -17.5q18 0 34 8v390q13 0 38 0.5t55 1.5t62 2.5t60 3.5v-360q0 -44 3 -89.5t12 -68.5l-186 -37q-11 13 -20.5 28.5t-14.5 37.5q-20 -27 -52.5 -47t-89.5 -20q-86 0 -122 50.5t-36 140.5zM107 583 l78 154q6 2 17 3.5t25.5 2.5t31 1.5t31.5 0.5q31 0 63 -2t46 -6l78 -154q-5 -3 -23 -4.5t-40 -1.5q-19 0 -36 1.5t-26 4.5l-59 84h-2l-59 -84q-9 -3 -26.5 -4.5t-36.5 -1.5q-21 0 -39 1.5t-23 4.5z" />
<glyph unicode="&#xfc;" horiz-adv-x="584" d="M39 174v357q13 0 38 0.5t55 1.5t62 2.5t60 3.5v-331q0 -40 8 -57.5t34 -17.5q18 0 34 8v390q13 0 38 0.5t55 1.5t62 2.5t60 3.5v-360q0 -44 3 -89.5t12 -68.5l-186 -37q-11 13 -20.5 28.5t-14.5 37.5q-20 -27 -52.5 -47t-89.5 -20q-86 0 -122 50.5t-36 140.5zM92 661 q0 36 23 62t67 26t68.5 -26t24.5 -62q0 -37 -24.5 -64t-68.5 -27t-67 27t-23 64zM309 661q0 36 23 62t67 26q45 0 68.5 -26t23.5 -62q0 -37 -23.5 -64t-68.5 -27q-44 0 -67 27t-23 64z" />
<glyph unicode="&#xfd;" horiz-adv-x="544" d="M6 518v13h226l31 -105q17 -59 25.5 -102t11.5 -70h3q3 27 10 70.5t23 103.5l27 103h175v-13l-166 -513q-20 -60 -39 -100.5t-44.5 -65t-60.5 -35t-86 -10.5q-12 0 -27 0.5t-28 1.5t-23 2t-13 3q-3 12 -5 34.5t-2 47.5q0 26 2 50t5 36q10 -3 29.5 -6t42.5 -3q51 0 69 25z M195 583l58 154q11 5 38 6.5t59 1.5q38 0 72.5 -2t44.5 -6l-128 -154q-9 -3 -29 -4.5t-42 -1.5q-26 0 -47 1.5t-26 4.5z" />
<glyph unicode="&#xfe;" horiz-adv-x="588" d="M39 -192v896q13 0 38 0.5t55 1.5t62 3t60 4v-225q20 23 49.5 40t73.5 17q50 0 85.5 -19.5t58.5 -56t34 -88t11 -115.5t-11 -116t-34 -88.5t-58.5 -56t-85.5 -19.5q-45 0 -74 14.5t-49 38.5v-222q-14 0 -38.5 -0.5t-54.5 -1.5t-62 -3t-60 -4zM254 125q14 -10 31 -10 q14 0 24 5.5t16 22t9 46t3 77.5t-3 77t-9 45.5t-16 22t-24 5.5t-31 -10v-281z" />
<glyph unicode="&#xff;" horiz-adv-x="544" d="M6 518v13h226l31 -105q17 -59 25.5 -102t11.5 -70h3q3 27 10 70.5t23 103.5l27 103h175v-13l-166 -513q-20 -60 -39 -100.5t-44.5 -65t-60.5 -35t-86 -10.5q-12 0 -27 0.5t-28 1.5t-23 2t-13 3q-3 12 -5 34.5t-2 47.5q0 26 2 50t5 36q10 -3 29.5 -6t42.5 -3q51 0 69 25z M82 661q0 36 23 62t67 26t68.5 -26t24.5 -62q0 -37 -24.5 -64t-68.5 -27t-67 27t-23 64zM299 661q0 36 23 62t67 26q45 0 68.5 -26t23.5 -62q0 -37 -23.5 -64t-68.5 -27q-44 0 -67 27t-23 64z" />
<glyph unicode="&#x100;" horiz-adv-x="685" d="M3 0v12l207 688h271l201 -688v-12h-247l-29 120h-182l-30 -120h-191zM169 756v131h347v-131h-347zM260 265h112l-6 27l-14 66t-13 62.5t-11 53t-7 37.5h-5q-3 -13 -8 -37t-12 -54t-14.5 -63.5t-15.5 -66.5z" />
<glyph unicode="&#x101;" horiz-adv-x="566" d="M21 150q0 46 17 78.5t46.5 52.5t70 29.5t87.5 9.5q21 0 38.5 -1t31.5 -3v60q0 19 -7 33.5t-31 14.5q-15 0 -24.5 -7t-15.5 -17.5t-9 -23.5t-4 -25q-24 0 -52.5 3.5t-55.5 9.5t-49 13t-33 15q17 74 81.5 115t174.5 41q72 0 118.5 -16t73.5 -44t37.5 -66t10.5 -81v-154 q0 -55 3.5 -98t13.5 -68l-187 -37q-10 10 -17 22.5t-13 26.5q-20 -20 -52 -34t-80 -14q-83 0 -128.5 45t-45.5 120zM111 602v131h347v-131h-347zM230 162q0 -18 5 -29t12.5 -17.5t17 -8.5t19.5 -2q20 0 28 4v112q-5 1 -9.5 1h-9.5q-12 0 -23.5 -2.5t-20 -9t-14 -18 t-5.5 -30.5z" />
<glyph unicode="&#x102;" horiz-adv-x="685" d="M3 0v12l207 688h271l201 -688v-12h-247l-29 120h-182l-30 -120h-191zM174 885q5 3 20.5 4.5t32.5 1.5q14 0 27 -1t22 -4q6 -28 24 -37.5t44 -9.5t42.5 9t22.5 38q8 3 21.5 4t27.5 1q17 0 32.5 -1.5t20.5 -4.5q-1 -21 -8.5 -47.5t-26.5 -49.5t-51 -39t-81 -16 q-50 0 -82 16t-51.5 39t-27.5 49.5t-9 47.5zM260 265h112l-6 27l-14 66t-13 62.5t-11 53t-7 37.5h-5q-3 -13 -8 -37t-12 -54t-14.5 -63.5t-15.5 -66.5z" />
<glyph unicode="&#x103;" horiz-adv-x="566" d="M21 150q0 46 17 78.5t46.5 52.5t70 29.5t87.5 9.5q21 0 38.5 -1t31.5 -3v60q0 19 -7 33.5t-31 14.5q-15 0 -24.5 -7t-15.5 -17.5t-9 -23.5t-4 -25q-24 0 -52.5 3.5t-55.5 9.5t-49 13t-33 15q17 74 81.5 115t174.5 41q72 0 118.5 -16t73.5 -44t37.5 -66t10.5 -81v-154 q0 -55 3.5 -98t13.5 -68l-187 -37q-10 10 -17 22.5t-13 26.5q-20 -20 -52 -34t-80 -14q-83 0 -128.5 45t-45.5 120zM115 736q5 3 20.5 4.5t32.5 1.5q14 0 27 -1t22 -4q12 -56 68 -56q29 0 44 13.5t21 42.5q8 3 21.5 4t27.5 1q17 0 32.5 -1.5t20.5 -4.5q-1 -21 -7.5 -49.5 t-24.5 -53.5t-50 -42.5t-85 -17.5t-85.5 17.5t-51 42.5t-25.5 53.5t-8 49.5zM230 162q0 -18 5 -29t12.5 -17.5t17 -8.5t19.5 -2q20 0 28 4v112q-5 1 -9.5 1h-9.5q-12 0 -23.5 -2.5t-20 -9t-14 -18t-5.5 -30.5z" />
<glyph unicode="&#x104;" horiz-adv-x="686" d="M3 0v12l207 688h271l201 -688v-12q-21 -9 -40.5 -19.5t-34.5 -22.5t-24 -26t-9 -29t8.5 -23t32.5 -8q11 0 20 2.5t17 6.5l32 -70q-5 -4 -16.5 -10.5t-29.5 -13t-42 -11t-53 -4.5q-63 0 -96 24.5t-33 72.5q0 45 27.5 76.5t81.5 54.5h-88l-29 120h-182l-30 -120h-191z M260 265h112l-6 27l-14 66t-13 62.5t-11 53t-7 37.5h-5q-3 -13 -8 -37t-12 -54t-14.5 -63.5t-15.5 -66.5z" />
<glyph unicode="&#x105;" horiz-adv-x="566" d="M21 150q0 46 17 78.5t46.5 52.5t70 29.5t87.5 9.5q21 0 38.5 -1t31.5 -3v60q0 19 -7 33.5t-31 14.5q-15 0 -24.5 -7t-15.5 -17.5t-9 -23.5t-4 -25q-24 0 -52.5 3.5t-55.5 9.5t-49 13t-33 15q17 74 81.5 115t174.5 41q72 0 118.5 -16t73.5 -44t37.5 -66t10.5 -81v-154 q0 -55 3.5 -98t13.5 -68q-50 -23 -79 -54.5t-29 -61.5q0 -20 10 -26.5t30 -6.5q9 0 19.5 2.5t18.5 6.5l31 -70q-5 -5 -17 -11.5t-30 -12.5t-42 -10.5t-52 -4.5q-63 0 -96 24.5t-33 72.5q0 71 79 118q-9 10 -15.5 21.5t-11.5 24.5q-20 -20 -52 -34t-80 -14q-83 0 -128.5 45 t-45.5 120zM230 162q0 -35 16.5 -46t39.5 -11q8 0 15.5 1t10.5 3v112q-5 1 -9.5 1h-9.5q-12 0 -23.5 -2.5t-20 -9t-14 -18t-5.5 -30.5z" />
<glyph unicode="&#x106;" horiz-adv-x="657" d="M26 351q0 81 18 148t56.5 115.5t98.5 75.5t145 27q139 0 212.5 -63t82.5 -181q-14 -5 -35 -9t-45.5 -6.5t-50.5 -4t-48 -1.5h-20.5t-20.5 1q-5 66 -19 98t-52 32q-23 0 -37.5 -12t-22.5 -39.5t-11 -72t-3 -108.5t3 -108.5t11 -72.5t22.5 -40.5t37.5 -12.5q36 0 51.5 30.5 t20.5 107.5q10 1 23 1.5t25 0.5q16 0 40.5 -1t50 -2.5t48 -5t34.5 -7.5q-5 -60 -25 -107.5t-56 -81t-89 -51.5t-123 -18q-87 0 -148.5 27t-100 76t-56 116.5t-17.5 148.5zM264 750l60 140q10 5 37.5 6.5t59.5 1.5q19 0 38 -0.5t35 -1.5t28 -2.5t17 -3.5l-129 -140 q-9 -3 -29 -4.5t-43 -1.5q-26 0 -47.5 1.5t-26.5 4.5z" />
<glyph unicode="&#x107;" horiz-adv-x="552" d="M20 266q0 64 15.5 116t48.5 89t84 57t122 20q118 0 181 -54t68 -155q-13 -3 -32 -5.5t-41 -4t-43.5 -2t-38.5 -0.5h-21.5t-26.5 2q-1 21 -2.5 39.5t-5.5 32.5t-12 22t-22 8q-29 0 -37 -39t-8 -126q0 -88 8 -127t37 -39q26 0 32.5 27.5t8.5 71.5q8 1 21.5 1.5t30.5 0.5 q21 0 44 -1t44 -2.5t38.5 -4t26.5 -5.5q-24 -205 -251 -205q-71 0 -122 20t-83.5 57t-48 89.5t-15.5 116.5zM210 583l58 154q11 5 38 6.5t59 1.5q38 0 72.5 -2t44.5 -6l-128 -154q-9 -3 -29 -4.5t-42 -1.5q-26 0 -47 1.5t-26 4.5z" />
<glyph unicode="&#x108;" horiz-adv-x="657" d="M26 351q0 81 18 148t56.5 115.5t98.5 75.5t145 27q139 0 212.5 -63t82.5 -181q-14 -5 -35 -9t-45.5 -6.5t-50.5 -4t-48 -1.5h-20.5t-20.5 1q-5 66 -19 98t-52 32q-23 0 -37.5 -12t-22.5 -39.5t-11 -72t-3 -108.5t3 -108.5t11 -72.5t22.5 -40.5t37.5 -12.5q36 0 51.5 30.5 t20.5 107.5q10 1 23 1.5t25 0.5q16 0 40.5 -1t50 -2.5t48 -5t34.5 -7.5q-5 -60 -25 -107.5t-56 -81t-89 -51.5t-123 -18q-87 0 -148.5 27t-100 76t-56 116.5t-17.5 148.5zM166 753l85 138q6 2 17 3.5t25.5 2.5t31 1.5t31.5 0.5q31 0 63 -2t45 -6l85 -138q-5 -3 -23 -4.5 t-39 -1.5q-19 0 -36.5 1.5t-26.5 4.5l-65 67h-2l-66 -67q-9 -3 -26.5 -4.5t-36.5 -1.5q-21 0 -39 1.5t-23 4.5z" />
<glyph unicode="&#x109;" horiz-adv-x="552" d="M20 266q0 64 15.5 116t48.5 89t84 57t122 20q118 0 181 -54t68 -155q-13 -3 -32 -5.5t-41 -4t-43.5 -2t-38.5 -0.5h-21.5t-26.5 2q-1 21 -2.5 39.5t-5.5 32.5t-12 22t-22 8q-29 0 -37 -39t-8 -126q0 -88 8 -127t37 -39q26 0 32.5 27.5t8.5 71.5q8 1 21.5 1.5t30.5 0.5 q21 0 44 -1t44 -2.5t38.5 -4t26.5 -5.5q-24 -205 -251 -205q-71 0 -122 20t-83.5 57t-48 89.5t-15.5 116.5zM110 583l78 154q6 2 17 3.5t25.5 2.5t31 1.5t31.5 0.5q31 0 63 -2t46 -6l78 -154q-5 -3 -23 -4.5t-40 -1.5q-19 0 -36 1.5t-26 4.5l-59 84h-2l-59 -84 q-9 -3 -26.5 -4.5t-36.5 -1.5q-21 0 -39 1.5t-23 4.5z" />
<glyph unicode="&#x10a;" horiz-adv-x="657" d="M26 351q0 81 18 148t56.5 115.5t98.5 75.5t145 27q139 0 212.5 -63t82.5 -181q-14 -5 -35 -9t-45.5 -6.5t-50.5 -4t-48 -1.5h-20.5t-20.5 1q-5 66 -19 98t-52 32q-23 0 -37.5 -12t-22.5 -39.5t-11 -72t-3 -108.5t3 -108.5t11 -72.5t22.5 -40.5t37.5 -12.5q36 0 51.5 30.5 t20.5 107.5q10 1 23 1.5t25 0.5q16 0 40.5 -1t50 -2.5t48 -5t34.5 -7.5q-5 -60 -25 -107.5t-56 -81t-89 -51.5t-123 -18q-87 0 -148.5 27t-100 76t-56 116.5t-17.5 148.5zM254 826q0 39 26 60.5t70 21.5q43 0 70 -21.5t27 -60.5t-27 -61.5t-70 -22.5q-44 0 -70 22.5 t-26 61.5z" />
<glyph unicode="&#x10b;" horiz-adv-x="552" d="M20 266q0 64 15.5 116t48.5 89t84 57t122 20q118 0 181 -54t68 -155q-13 -3 -32 -5.5t-41 -4t-43.5 -2t-38.5 -0.5h-21.5t-26.5 2q-1 21 -2.5 39.5t-5.5 32.5t-12 22t-22 8q-29 0 -37 -39t-8 -126q0 -88 8 -127t37 -39q26 0 32.5 27.5t8.5 71.5q8 1 21.5 1.5t30.5 0.5 q21 0 44 -1t44 -2.5t38.5 -4t26.5 -5.5q-24 -205 -251 -205q-71 0 -122 20t-83.5 57t-48 89.5t-15.5 116.5zM186 674q0 44 28.5 68.5t76.5 24.5t77.5 -24.5t29.5 -68.5t-29.5 -70t-77.5 -26t-76.5 26t-28.5 70z" />
<glyph unicode="&#x10c;" horiz-adv-x="657" d="M26 351q0 81 18 148t56.5 115.5t98.5 75.5t145 27q139 0 212.5 -63t82.5 -181q-14 -5 -35 -9t-45.5 -6.5t-50.5 -4t-48 -1.5h-20.5t-20.5 1q-5 66 -19 98t-52 32q-23 0 -37.5 -12t-22.5 -39.5t-11 -72t-3 -108.5t3 -108.5t11 -72.5t22.5 -40.5t37.5 -12.5q36 0 51.5 30.5 t20.5 107.5q10 1 23 1.5t25 0.5q16 0 40.5 -1t50 -2.5t48 -5t34.5 -7.5q-5 -60 -25 -107.5t-56 -81t-89 -51.5t-123 -18q-87 0 -148.5 27t-100 76t-56 116.5t-17.5 148.5zM167 890q5 3 23 4.5t39 1.5q19 0 36.5 -1.5t26.5 -4.5l66 -67h2l65 67q9 3 26.5 4.5t36.5 1.5 q21 0 39 -1.5t23 -4.5l-85 -138q-13 -4 -45 -6t-63 -2q-15 0 -31.5 0.5t-31 1.5t-25.5 2.5t-17 3.5z" />
<glyph unicode="&#x10d;" horiz-adv-x="552" d="M20 266q0 64 15.5 116t48.5 89t84 57t122 20q118 0 181 -54t68 -155q-13 -3 -32 -5.5t-41 -4t-43.5 -2t-38.5 -0.5h-21.5t-26.5 2q-1 21 -2.5 39.5t-5.5 32.5t-12 22t-22 8q-29 0 -37 -39t-8 -126q0 -88 8 -127t37 -39q26 0 32.5 27.5t8.5 71.5q8 1 21.5 1.5t30.5 0.5 q21 0 44 -1t44 -2.5t38.5 -4t26.5 -5.5q-24 -205 -251 -205q-71 0 -122 20t-83.5 57t-48 89.5t-15.5 116.5zM111 736q5 3 23 4.5t39 1.5q19 0 36.5 -1.5t26.5 -4.5l59 -83h2l59 83q9 3 26 4.5t36 1.5q22 0 40 -1.5t23 -4.5l-78 -154q-6 -2 -17 -3.5t-25.5 -2.5t-31 -1.5 t-31.5 -0.5q-31 0 -63 2t-46 6z" />
<glyph unicode="&#x10e;" horiz-adv-x="690" d="M48 0v700h261q94 0 161.5 -24t110.5 -69.5t63 -110t20 -145.5t-20 -146t-62.5 -110.5t-110 -70t-161.5 -24.5h-262zM125 890q5 3 23 4.5t39 1.5q19 0 36.5 -1.5t26.5 -4.5l66 -67h2l65 67q9 3 26.5 4.5t36.5 1.5q21 0 39 -1.5t23 -4.5l-85 -138q-13 -4 -45 -6t-63 -2 q-15 0 -31.5 0.5t-31 1.5t-25.5 2.5t-17 3.5zM277 133h27q29 0 50.5 10.5t35 35.5t20 67t6.5 105t-6.5 105t-20 66.5t-35 34.5t-50.5 10h-27v-434z" />
<glyph unicode="&#x10f;" horiz-adv-x="774" d="M20 266q0 64 10.5 115.5t33.5 88t59 56t86 19.5q45 0 73.5 -15t48.5 -39v213q13 0 38 0.5t55 1.5t62 3t60 4v-534q0 -44 3.5 -89.5t11.5 -68.5l-186 -37q-11 13 -19.5 28t-14.5 36q-21 -27 -52.5 -44.5t-79.5 -17.5q-50 0 -86 19.5t-59 56t-33.5 88.5t-10.5 116zM249 266 q0 -48 2.5 -76.5t8.5 -43.5t16 -19.5t24 -4.5q8 0 15.5 2t15.5 8v266q-15 11 -31 11q-14 0 -24 -4.5t-16 -19.5t-8.5 -43.5t-2.5 -75.5zM585 623q0 45 24 69.5t67 24.5q45 0 71 -27t26 -81q0 -43 -11.5 -77.5t-29 -60.5t-38 -43t-38.5 -24q-13 0 -24 5t-19.5 11t-13.5 12.5 t-6 11.5q22 14 42.5 39t26.5 51q-34 5 -55.5 28.5t-21.5 60.5z" />
<glyph unicode="&#x110;" horiz-adv-x="713" d="M11 285v131h60v284h261q94 0 161.5 -24t110.5 -69.5t63 -110t20 -145.5t-20 -146t-62.5 -110.5t-110 -70t-161.5 -24.5h-262v285h-60zM300 133h27q29 0 50.5 10.5t35 35.5t20 67t6.5 105t-6.5 105t-20 66.5t-35 34.5t-50.5 10h-27v-151h84v-131h-84v-152z" />
<glyph unicode="&#x111;" horiz-adv-x="584" d="M20 266q0 64 10.5 115.5t33.5 88t59 56t86 19.5q45 0 73.5 -15t48.5 -39v84h-114v87h114v42q13 0 38 0.5t55 1.5t62 3t60 4v-51h42v-87h-42v-396q0 -44 3.5 -89.5t11.5 -68.5l-186 -37q-11 13 -19.5 28t-14.5 36q-21 -27 -52.5 -44.5t-79.5 -17.5q-50 0 -86 19.5t-59 56 t-33.5 88.5t-10.5 116zM249 266q0 -48 2.5 -76.5t8.5 -43.5t16 -19.5t24 -4.5q8 0 15.5 2t15.5 8v266q-15 11 -31 11q-14 0 -24 -4.5t-16 -19.5t-8.5 -43.5t-2.5 -75.5z" />
<glyph unicode="&#x112;" horiz-adv-x="557" d="M48 0v700h471v-145h-242v-125h218q3 -11 4.5 -30t1.5 -39q0 -23 -2 -43t-4 -32h-218v-141h256v-145h-485zM111 756v131h347v-131h-347z" />
<glyph unicode="&#x113;" horiz-adv-x="566" d="M20 268q0 137 68.5 208.5t199.5 71.5q69 0 118.5 -20.5t81 -56.5t46 -85t14.5 -106q0 -15 -1 -33t-3 -30h-296q2 -66 12 -91.5t35 -25.5q14 0 22 8.5t12.5 20t6 24t2.5 20.5q13 1 19.5 1h13.5q17 0 40 -1t46.5 -3t44.5 -5.5t34 -7.5q-7 -38 -24 -70t-46.5 -55t-72 -36 t-100.5 -13q-135 0 -204 73.5t-69 211.5zM114 602v131h347v-131h-347zM248 325h86q0 58 -7 83.5t-35 25.5q-23 0 -32.5 -22.5t-11.5 -86.5z" />
<glyph unicode="&#x114;" horiz-adv-x="557" d="M48 0v700h471v-145h-242v-125h218q3 -11 4.5 -30t1.5 -39q0 -23 -2 -43t-4 -32h-218v-141h256v-145h-485zM116 885q5 3 20.5 4.5t32.5 1.5q14 0 27 -1t22 -4q6 -28 24 -37.5t44 -9.5t42.5 9t22.5 38q8 3 21.5 4t27.5 1q17 0 32.5 -1.5t20.5 -4.5q-1 -21 -8.5 -47.5 t-26.5 -49.5t-51 -39t-81 -16q-50 0 -82 16t-51.5 39t-27.5 49.5t-9 47.5z" />
<glyph unicode="&#x115;" horiz-adv-x="566" d="M20 268q0 137 68.5 208.5t199.5 71.5q69 0 118.5 -20.5t81 -56.5t46 -85t14.5 -106q0 -15 -1 -33t-3 -30h-296q2 -66 12 -91.5t35 -25.5q14 0 22 8.5t12.5 20t6 24t2.5 20.5q13 1 19.5 1h13.5q17 0 40 -1t46.5 -3t44.5 -5.5t34 -7.5q-7 -38 -24 -70t-46.5 -55t-72 -36 t-100.5 -13q-135 0 -204 73.5t-69 211.5zM120 736q5 3 20.5 4.5t32.5 1.5q14 0 27 -1t22 -4q12 -56 68 -56q29 0 44 13.5t21 42.5q8 3 21.5 4t27.5 1q17 0 32.5 -1.5t20.5 -4.5q-1 -21 -7.5 -49.5t-24.5 -53.5t-50 -42.5t-85 -17.5t-85.5 17.5t-51 42.5t-25.5 53.5t-8 49.5z M248 325h86q0 58 -7 83.5t-35 25.5q-23 0 -32.5 -22.5t-11.5 -86.5z" />
<glyph unicode="&#x116;" horiz-adv-x="557" d="M48 0v700h471v-145h-242v-125h218q3 -11 4.5 -30t1.5 -39q0 -23 -2 -43t-4 -32h-218v-141h256v-145h-485zM186 826q0 39 26 60.5t70 21.5q43 0 70 -21.5t27 -60.5t-27 -61.5t-70 -22.5q-44 0 -70 22.5t-26 61.5z" />
<glyph unicode="&#x117;" horiz-adv-x="566" d="M20 268q0 137 68.5 208.5t199.5 71.5q69 0 118.5 -20.5t81 -56.5t46 -85t14.5 -106q0 -15 -1 -33t-3 -30h-296q2 -66 12 -91.5t35 -25.5q14 0 22 8.5t12.5 20t6 24t2.5 20.5q13 1 19.5 1h13.5q17 0 40 -1t46.5 -3t44.5 -5.5t34 -7.5q-7 -38 -24 -70t-46.5 -55t-72 -36 t-100.5 -13q-135 0 -204 73.5t-69 211.5zM181 674q0 44 28.5 68.5t76.5 24.5t77.5 -24.5t29.5 -68.5t-29.5 -70t-77.5 -26t-76.5 26t-28.5 70zM248 325h86q0 58 -7 83.5t-35 25.5q-23 0 -32.5 -22.5t-11.5 -86.5z" />
<glyph unicode="&#x118;" horiz-adv-x="557" d="M48 0v700h471v-145h-242v-125h218q3 -11 4.5 -30t1.5 -39q0 -23 -2 -43t-4 -32h-218v-141h256v-145q-21 -9 -40.5 -19.5t-34.5 -22.5t-24 -26t-9 -29t8.5 -23t32.5 -8q11 0 20 2.5t17 6.5l32 -70q-5 -4 -16.5 -10.5t-29.5 -13t-42 -11t-53 -4.5q-63 0 -96 24.5t-33 72.5 q0 45 27.5 76.5t81.5 54.5h-326z" />
<glyph unicode="&#x119;" horiz-adv-x="566" d="M20 268q0 137 68.5 208.5t199.5 71.5q69 0 118.5 -20.5t81 -56.5t46 -85t14.5 -106q0 -15 -1 -33t-3 -30h-296q2 -66 12 -91.5t35 -25.5q14 0 22 8.5t12.5 20t6 24t2.5 20.5q13 1 19.5 1h13.5q17 0 40 -1t46.5 -3t44.5 -5.5t34 -7.5q-5 -23 -13 -43.5t-19 -40.5 q-29 -50 -51.5 -89.5t-22.5 -72.5q0 -21 10 -30t31 -9q11 0 20 2.5t17 6.5l32 -70q-14 -12 -47.5 -25.5t-90.5 -13.5q-66 0 -99 24.5t-33 68.5q0 38 17.5 66t48.5 54q-11 -1 -21.5 -1.5t-21.5 -0.5q-135 0 -204 73.5t-69 211.5zM248 325h86q0 58 -7 83.5t-35 25.5 q-23 0 -32.5 -22.5t-11.5 -86.5z" />
<glyph unicode="&#x11a;" horiz-adv-x="557" d="M48 0v700h471v-145h-242v-125h218q3 -11 4.5 -30t1.5 -39q0 -23 -2 -43t-4 -32h-218v-141h256v-145h-485zM97 890q5 3 23 4.5t39 1.5q19 0 36.5 -1.5t26.5 -4.5l66 -67h2l65 67q9 3 26.5 4.5t36.5 1.5q21 0 39 -1.5t23 -4.5l-85 -138q-13 -4 -45 -6t-63 -2 q-15 0 -31.5 0.5t-31 1.5t-25.5 2.5t-17 3.5z" />
<glyph unicode="&#x11b;" horiz-adv-x="566" d="M20 268q0 137 68.5 208.5t199.5 71.5q69 0 118.5 -20.5t81 -56.5t46 -85t14.5 -106q0 -15 -1 -33t-3 -30h-296q2 -66 12 -91.5t35 -25.5q14 0 22 8.5t12.5 20t6 24t2.5 20.5q13 1 19.5 1h13.5q17 0 40 -1t46.5 -3t44.5 -5.5t34 -7.5q-7 -38 -24 -70t-46.5 -55t-72 -36 t-100.5 -13q-135 0 -204 73.5t-69 211.5zM108 736q5 3 23 4.5t39 1.5q19 0 36.5 -1.5t26.5 -4.5l59 -83h2l59 83q9 3 26 4.5t36 1.5q22 0 40 -1.5t23 -4.5l-78 -154q-6 -2 -17 -3.5t-25.5 -2.5t-31 -1.5t-31.5 -0.5q-31 0 -63 2t-46 6zM248 325h86q0 58 -7 83.5t-35 25.5 q-23 0 -32.5 -22.5t-11.5 -86.5z" />
<glyph unicode="&#x11c;" horiz-adv-x="674" d="M26 351q0 81 18 148t57 115.5t100.5 75.5t149.5 27q71 0 123 -16t86 -46t51.5 -72.5t19.5 -95.5q-12 -5 -33 -8t-45 -5.5t-48.5 -3.5t-43.5 -1h-21.5t-25.5 1q-2 58 -15 85.5t-51 27.5q-23 0 -37.5 -12.5t-22.5 -40.5t-11 -72t-3 -107q0 -69 4 -114.5t14.5 -72t28.5 -37 t47 -10.5q21 0 36.5 4t23.5 8v125h-89v144h294v-329q-13 -11 -37 -25.5t-59.5 -28t-84 -23t-110.5 -9.5q-86 0 -146 26.5t-97.5 75t-55 116t-17.5 150.5zM159 753l85 138q6 2 17 3.5t25.5 2.5t31 1.5t31.5 0.5q31 0 63 -2t45 -6l85 -138q-5 -3 -23 -4.5t-39 -1.5 q-19 0 -36.5 1.5t-26.5 4.5l-65 67h-2l-66 -67q-9 -3 -26.5 -4.5t-36.5 -1.5q-21 0 -39 1.5t-23 4.5z" />
<glyph unicode="&#x11d;" horiz-adv-x="587" d="M12 -97q0 29 19 46.5t51 26.5q-28 17 -43.5 41t-15.5 56q0 39 25.5 68.5t63.5 47.5q-41 25 -62.5 65t-21.5 95q0 97 66.5 148t182.5 51q65 0 119 -17h182v-124h-91q11 -6 25 -24.5t14 -53.5q0 -41 -17.5 -74t-49.5 -56.5t-78 -36t-104 -12.5q-42 0 -76 6q-5 -7 -5 -16 q0 -13 12.5 -18.5t44.5 -5.5h83q66 0 111 -9.5t73 -28t40 -45.5t12 -62q0 -41 -16.5 -75.5t-54 -60t-97.5 -39.5t-147 -14q-126 0 -185.5 33t-59.5 88zM95 583l78 154q6 2 17 3.5t25.5 2.5t31 1.5t31.5 0.5q31 0 63 -2t46 -6l78 -154q-5 -3 -23 -4.5t-40 -1.5q-19 0 -36 1.5 t-26 4.5l-59 84h-2l-59 -84q-9 -3 -26.5 -4.5t-36.5 -1.5q-21 0 -39 1.5t-23 4.5zM181 -73q0 -26 24.5 -35t76.5 -9q45 0 73 8t28 31q0 14 -10.5 18t-39.5 4h-103q-17 0 -27 0.5t-19 1.5q-3 -8 -3 -19zM238 349q0 -54 8.5 -74t30.5 -20t30.5 20t8.5 74q0 55 -8 74.5 t-31 19.5t-31 -19.5t-8 -74.5z" />
<glyph unicode="&#x11e;" horiz-adv-x="674" d="M26 351q0 81 18 148t57 115.5t100.5 75.5t149.5 27q71 0 123 -16t86 -46t51.5 -72.5t19.5 -95.5q-12 -5 -33 -8t-45 -5.5t-48.5 -3.5t-43.5 -1h-21.5t-25.5 1q-2 58 -15 85.5t-51 27.5q-23 0 -37.5 -12.5t-22.5 -40.5t-11 -72t-3 -107q0 -69 4 -114.5t14.5 -72t28.5 -37 t47 -10.5q21 0 36.5 4t23.5 8v125h-89v144h294v-329q-13 -11 -37 -25.5t-59.5 -28t-84 -23t-110.5 -9.5q-86 0 -146 26.5t-97.5 75t-55 116t-17.5 150.5zM184 885q5 3 20.5 4.5t32.5 1.5q14 0 27 -1t22 -4q6 -28 24 -37.5t44 -9.5t42.5 9t22.5 38q8 3 21.5 4t27.5 1 q17 0 32.5 -1.5t20.5 -4.5q-1 -21 -8.5 -47.5t-26.5 -49.5t-51 -39t-81 -16q-50 0 -82 16t-51.5 39t-27.5 49.5t-9 47.5z" />
<glyph unicode="&#x11f;" horiz-adv-x="587" d="M12 -97q0 29 19 46.5t51 26.5q-28 17 -43.5 41t-15.5 56q0 39 25.5 68.5t63.5 47.5q-41 25 -62.5 65t-21.5 95q0 97 66.5 148t182.5 51q65 0 119 -17h182v-124h-91q11 -6 25 -24.5t14 -53.5q0 -41 -17.5 -74t-49.5 -56.5t-78 -36t-104 -12.5q-42 0 -76 6q-5 -7 -5 -16 q0 -13 12.5 -18.5t44.5 -5.5h83q66 0 111 -9.5t73 -28t40 -45.5t12 -62q0 -41 -16.5 -75.5t-54 -60t-97.5 -39.5t-147 -14q-126 0 -185.5 33t-59.5 88zM115 736q5 3 20.5 4.5t32.5 1.5q14 0 27 -1t22 -4q12 -56 68 -56q29 0 44 13.5t21 42.5q8 3 21.5 4t27.5 1 q17 0 32.5 -1.5t20.5 -4.5q-1 -21 -7.5 -49.5t-24.5 -53.5t-50 -42.5t-85 -17.5t-85.5 17.5t-51 42.5t-25.5 53.5t-8 49.5zM181 -73q0 -26 24.5 -35t76.5 -9q45 0 73 8t28 31q0 14 -10.5 18t-39.5 4h-103q-17 0 -27 0.5t-19 1.5q-3 -8 -3 -19zM238 349q0 -54 8.5 -74 t30.5 -20t30.5 20t8.5 74q0 55 -8 74.5t-31 19.5t-31 -19.5t-8 -74.5z" />
<glyph unicode="&#x120;" horiz-adv-x="674" d="M26 351q0 81 18 148t57 115.5t100.5 75.5t149.5 27q71 0 123 -16t86 -46t51.5 -72.5t19.5 -95.5q-12 -5 -33 -8t-45 -5.5t-48.5 -3.5t-43.5 -1h-21.5t-25.5 1q-2 58 -15 85.5t-51 27.5q-23 0 -37.5 -12.5t-22.5 -40.5t-11 -72t-3 -107q0 -69 4 -114.5t14.5 -72t28.5 -37 t47 -10.5q21 0 36.5 4t23.5 8v125h-89v144h294v-329q-13 -11 -37 -25.5t-59.5 -28t-84 -23t-110.5 -9.5q-86 0 -146 26.5t-97.5 75t-55 116t-17.5 150.5zM251 826q0 39 26 60.5t70 21.5q43 0 70 -21.5t27 -60.5t-27 -61.5t-70 -22.5q-44 0 -70 22.5t-26 61.5z" />
<glyph unicode="&#x121;" horiz-adv-x="587" d="M12 -97q0 29 19 46.5t51 26.5q-28 17 -43.5 41t-15.5 56q0 39 25.5 68.5t63.5 47.5q-41 25 -62.5 65t-21.5 95q0 97 66.5 148t182.5 51q65 0 119 -17h182v-124h-91q11 -6 25 -24.5t14 -53.5q0 -41 -17.5 -74t-49.5 -56.5t-78 -36t-104 -12.5q-42 0 -76 6q-5 -7 -5 -16 q0 -13 12.5 -18.5t44.5 -5.5h83q66 0 111 -9.5t73 -28t40 -45.5t12 -62q0 -41 -16.5 -75.5t-54 -60t-97.5 -39.5t-147 -14q-126 0 -185.5 33t-59.5 88zM176 674q0 44 28.5 68.5t76.5 24.5t77.5 -24.5t29.5 -68.5t-29.5 -70t-77.5 -26t-76.5 26t-28.5 70zM181 -73 q0 -26 24.5 -35t76.5 -9q45 0 73 8t28 31q0 14 -10.5 18t-39.5 4h-103q-17 0 -27 0.5t-19 1.5q-3 -8 -3 -19zM238 349q0 -54 8.5 -74t30.5 -20t30.5 20t8.5 74q0 55 -8 74.5t-31 19.5t-31 -19.5t-8 -74.5z" />
<glyph unicode="&#x122;" horiz-adv-x="674" d="M26 351q0 81 18 148t57 115.5t100.5 75.5t149.5 27q71 0 123 -16t86 -46t51.5 -72.5t19.5 -95.5q-12 -5 -33 -8t-45 -5.5t-48.5 -3.5t-43.5 -1h-21.5t-25.5 1q-2 58 -15 85.5t-51 27.5q-23 0 -37.5 -12.5t-22.5 -40.5t-11 -72t-3 -107q0 -69 4 -114.5t14.5 -72t28.5 -37 t47 -10.5q21 0 36.5 4t23.5 8v125h-89v144h294v-329q-13 -11 -37 -25.5t-59.5 -28t-84 -23t-110.5 -9.5q-86 0 -146 26.5t-97.5 75t-55 116t-17.5 150.5zM262 -111q0 35 25 55t64 20q42 0 69 -19t27 -62q0 -30 -10.5 -53.5t-25.5 -40t-32 -26.5t-30 -13q-26 2 -43.5 7 t-27.5 11q17 8 34 23.5t22 32.5q-31 2 -51.5 17.5t-20.5 47.5z" />
<glyph unicode="&#x123;" horiz-adv-x="587" d="M12 -97q0 29 19 46.5t51 26.5q-28 17 -43.5 41t-15.5 56q0 39 25.5 68.5t63.5 47.5q-41 25 -62.5 65t-21.5 95q0 97 66.5 148t182.5 51q65 0 119 -17h182v-124h-91q11 -6 25 -24.5t14 -53.5q0 -41 -17.5 -74t-49.5 -56.5t-78 -36t-104 -12.5q-42 0 -76 6q-5 -7 -5 -16 q0 -13 12.5 -18.5t44.5 -5.5h83q66 0 111 -9.5t73 -28t40 -45.5t12 -62q0 -41 -16.5 -75.5t-54 -60t-97.5 -39.5t-147 -14q-126 0 -185.5 33t-59.5 88zM181 -73q0 -26 24.5 -35t76.5 -9q45 0 73 8t28 31q0 14 -10.5 18t-39.5 4h-103q-17 0 -27 0.5t-19 1.5q-3 -8 -3 -19z M186 667q0 36 11 63.5t28 46t36 29t36 13.5q26 -2 41.5 -10t18.5 -14q-20 -10 -38 -25.5t-23 -35.5q40 -8 60.5 -25.5t20.5 -52.5q0 -39 -24.5 -62t-67.5 -23q-45 0 -72 25.5t-27 70.5zM238 349q0 -54 8.5 -74t30.5 -20t30.5 20t8.5 74q0 55 -8 74.5t-31 19.5t-31 -19.5 t-8 -74.5z" />
<glyph unicode="&#x124;" horiz-adv-x="707" d="M48 0v700h229v-260h153v260h228v-700h-228v295h-153v-295h-229zM162 753l85 138q6 2 17 3.5t25.5 2.5t31 1.5t31.5 0.5q31 0 63 -2t45 -6l85 -138q-5 -3 -23 -4.5t-39 -1.5q-19 0 -36.5 1.5t-26.5 4.5l-65 67h-2l-66 -67q-9 -3 -26.5 -4.5t-36.5 -1.5q-21 0 -39 1.5 t-23 4.5z" />
<glyph unicode="&#x125;" horiz-adv-x="585" d="M39 0v704q13 0 38 0.5t55 1.5t62 3t60 4v-228q20 26 54.5 44.5t86.5 18.5q43 0 72.5 -15t47.5 -41.5t25.5 -63t7.5 -79.5v-217q0 -22 0.5 -43.5t2 -39t3.5 -30.5t5 -19h-226v332q0 32 -8 50t-36 18q-11 0 -19.5 -2.5t-15.5 -6.5v-391h-215zM141 753l85 138q6 2 17 3.5 t25.5 2.5t31 1.5t31.5 0.5q31 0 63 -2t45 -6l85 -138q-5 -3 -23 -4.5t-39 -1.5q-19 0 -36.5 1.5t-26.5 4.5l-65 67h-2l-66 -67q-9 -3 -26.5 -4.5t-36.5 -1.5q-21 0 -39 1.5t-23 4.5z" />
<glyph unicode="&#x126;" horiz-adv-x="707" d="M8 504v131h40v65h229v-65h153v65h228v-65h41v-131h-41v-504h-228v295h-153v-295h-229v504h-40zM277 440h153v64h-153v-64z" />
<glyph unicode="&#x127;" horiz-adv-x="587" d="M0 575v87h39v42q13 0 38 0.5t55 1.5t62 3t60 4v-51h117v-87h-117v-90q20 26 54.5 44.5t86.5 18.5q43 0 72.5 -15t47.5 -41.5t25.5 -63t7.5 -79.5v-217q0 -22 0.5 -43.5t2 -39t3.5 -30.5t5 -19h-226v332q0 32 -8 50t-36 18q-11 0 -19.5 -2.5t-15.5 -6.5v-391h-215v575h-39 z" />
<glyph unicode="&#x128;" horiz-adv-x="325" d="M-34 739q10 75 45 113.5t91 38.5q25 0 42.5 -7.5t32.5 -16t28.5 -16t30.5 -7.5q16 0 25.5 9.5t17.5 33.5q2 2 13 2.5t25 0.5q15 0 28.5 -1t15.5 -2q-14 -81 -47 -116.5t-82 -35.5q-27 0 -45.5 7.5t-33 16t-27.5 16t-29 7.5q-20 0 -30.5 -12t-18.5 -31q-2 -2 -13 -2.5 t-25 -0.5q-15 0 -28.5 0.5t-15.5 2.5zM48 0v700h229v-700h-229z" />
<glyph unicode="&#x129;" d="M-50 584q11 75 44 113.5t89 38.5q26 0 44.5 -7.5t33.5 -16.5t28.5 -16.5t30.5 -7.5t26 10t17 34q2 2 13 2.5t25 0.5q15 0 28.5 -1t15.5 -2q-14 -81 -45.5 -116.5t-79.5 -35.5q-29 0 -48 7.5t-34 16t-27.5 16t-28.5 7.5q-20 0 -31 -12t-19 -31q-2 -2 -13 -2.5t-25 -0.5 q-15 0 -28.5 0.5t-15.5 2.5zM39 0v531q13 0 38 0.5t55 1.5t62 2.5t60 3.5v-407q0 -45 2.5 -83t8.5 -49h-226z" />
<glyph unicode="&#x12a;" horiz-adv-x="325" d="M-10 756v131h347v-131h-347zM48 0v700h229v-700h-229z" />
<glyph unicode="&#x12b;" d="M-26 602v131h347v-131h-347zM39 0v531q13 0 38 0.5t55 1.5t62 2.5t60 3.5v-407q0 -45 2.5 -83t8.5 -49h-226z" />
<glyph unicode="&#x12c;" horiz-adv-x="325" d="M-5 885q5 3 20.5 4.5t32.5 1.5q14 0 27 -1t22 -4q6 -28 24 -37.5t44 -9.5t42.5 9t22.5 38q8 3 21.5 4t27.5 1q17 0 32.5 -1.5t20.5 -4.5q-1 -21 -8.5 -47.5t-26.5 -49.5t-51 -39t-81 -16q-50 0 -82 16t-51.5 39t-27.5 49.5t-9 47.5zM48 0v700h229v-700h-229z" />
<glyph unicode="&#x12d;" d="M-21 736q5 3 20.5 4.5t32.5 1.5q14 0 27 -1t22 -4q12 -56 68 -56q29 0 44 13.5t21 42.5q8 3 21.5 4t27.5 1q17 0 32.5 -1.5t20.5 -4.5q-1 -21 -7.5 -49.5t-24.5 -53.5t-50 -42.5t-85 -17.5t-85.5 17.5t-51 42.5t-25.5 53.5t-8 49.5zM39 0v531q13 0 38 0.5t55 1.5t62 2.5 t60 3.5v-407q0 -45 2.5 -83t8.5 -49h-226z" />
<glyph unicode="&#x12e;" horiz-adv-x="325" d="M9 -131q0 45 27.5 76.5t81.5 54.5h-70v700h229v-700q-21 -9 -40.5 -19.5t-34.5 -22.5t-24 -26t-9 -29t8.5 -23t32.5 -8q11 0 20 2.5t17 6.5l32 -70q-5 -4 -16.5 -10.5t-29.5 -13t-42 -11t-53 -4.5q-63 0 -96 24.5t-33 72.5z" />
<glyph unicode="&#x12f;" d="M-3 -131q0 45 27.5 76.5t81.5 54.5h-67v531q13 0 38 0.5t55 1.5t62 2.5t60 3.5v-407q0 -45 2.5 -83t8.5 -49q-21 -9 -40 -19.5t-34 -22.5t-24 -26t-9 -29t8 -23t32 -8q11 0 20.5 2.5t17.5 6.5l31 -70q-5 -4 -16.5 -10.5t-29.5 -13t-42 -11t-53 -4.5q-63 0 -96 24.5 t-33 72.5zM35 664q0 46 29 72t82 26q52 0 82 -26t30 -72t-30 -73.5t-82 -27.5q-53 0 -82 27.5t-29 73.5z" />
<glyph unicode="&#x130;" horiz-adv-x="325" d="M48 0v700h229v-700h-229zM66 826q0 39 26 60.5t70 21.5q43 0 70 -21.5t27 -60.5t-27 -61.5t-70 -22.5q-44 0 -70 22.5t-26 61.5z" />
<glyph unicode="&#x131;" d="M39 0v531q13 0 38 0.5t55 1.5t62 2.5t60 3.5v-407q0 -45 2.5 -83t8.5 -49h-226z" />
<glyph unicode="&#x132;" horiz-adv-x="784" d="M48 0v700h229v-700h-229zM335 61q0 22 1.5 42t4.5 28q8 -3 32.5 -7.5t52.5 -4.5q48 0 66.5 17.5t18.5 63.5v500h228v-508q0 -59 -17.5 -99t-50.5 -64t-82 -34t-112 -10q-58 0 -93.5 5.5t-43.5 9.5q-3 9 -4 25.5t-1 35.5z" />
<glyph unicode="&#x133;" horiz-adv-x="586" d="M35 664q0 46 29 72t82 26q52 0 82 -26t30 -72t-30 -73.5t-82 -27.5q-53 0 -82 27.5t-29 73.5zM39 0v531q13 0 38 0.5t55 1.5t62 2.5t60 3.5v-407q0 -45 2.5 -83t8.5 -49h-226zM233 -142q0 20 1.5 38.5t4.5 29.5q7 -2 19 -3.5t25 -1.5q29 0 39 12t10 39v559q16 0 40.5 0.5 t54 1.5t60.5 2.5t60 3.5v-552q0 -54 -15 -90t-43.5 -57.5t-69.5 -30.5t-94 -9q-30 0 -54.5 3t-33.5 6q-2 8 -3 21.5t-1 27.5zM328 664q0 46 29 72t82 26q52 0 82 -26t30 -72t-30 -73.5t-82 -27.5q-53 0 -82 27.5t-29 73.5z" />
<glyph unicode="&#x134;" horiz-adv-x="459" d="M10 61q0 22 1.5 42t4.5 28q8 -3 32.5 -7.5t52.5 -4.5q48 0 66.5 17.5t18.5 63.5v500h228v-508q0 -59 -17.5 -99t-50.5 -64t-82 -34t-112 -10q-58 0 -93.5 5.5t-43.5 9.5q-3 9 -4 25.5t-1 35.5zM110 753l85 138q6 2 17 3.5t25.5 2.5t31 1.5t31.5 0.5q31 0 63 -2t45 -6 l85 -138q-5 -3 -23 -4.5t-39 -1.5q-19 0 -36.5 1.5t-26.5 4.5l-65 67h-2l-66 -67q-9 -3 -26.5 -4.5t-36.5 -1.5q-21 0 -39 1.5t-23 4.5z" />
<glyph unicode="&#x135;" d="M-60 -142q0 20 1.5 38.5t4.5 29.5q7 -2 19 -3.5t25 -1.5q29 0 39 12t10 39v559q16 0 40.5 0.5t54 1.5t60.5 2.5t60 3.5v-552q0 -54 -15 -90t-43.5 -57.5t-69.5 -30.5t-94 -9q-30 0 -54.5 3t-33.5 6q-2 8 -3 21.5t-1 27.5zM-38 583l78 154q6 2 17 3.5t25.5 2.5t31 1.5 t31.5 0.5q31 0 63 -2t46 -6l78 -154q-5 -3 -23 -4.5t-40 -1.5q-19 0 -36 1.5t-26 4.5l-59 84h-2l-59 -84q-9 -3 -26.5 -4.5t-36.5 -1.5q-21 0 -39 1.5t-23 4.5z" />
<glyph unicode="&#x136;" horiz-adv-x="682" d="M48 0v700h229v-284h4l178 284h216v-12l-205 -290l212 -386v-12h-256l-145 303h-4v-303h-229zM257 -111q0 35 25 55t64 20q42 0 69 -19t27 -62q0 -30 -10.5 -53.5t-25.5 -40t-32 -26.5t-30 -13q-26 2 -43.5 7t-27.5 11q17 8 34 23.5t22 32.5q-31 2 -51.5 17.5t-20.5 47.5z " />
<glyph unicode="&#x137;" horiz-adv-x="595" d="M39 0v704q13 0 38 0.5t55 1.5t62 3t60 4v-380h4l121 198h210v-12l-153 -207l159 -300v-12h-238l-99 222h-4v-222h-215zM204 -111q0 35 25 55t64 20q42 0 69 -19t27 -62q0 -30 -10.5 -53.5t-25.5 -40t-32 -26.5t-30 -13q-26 2 -43.5 7t-27.5 11q17 8 34 23.5t22 32.5 q-31 2 -51.5 17.5t-20.5 47.5z" />
<glyph unicode="&#x138;" horiz-adv-x="595" d="M39 0v531q13 0 38 0.5t55 1.5t62 2.5t60 3.5v-212h4l123 204h210v-12l-155 -211l159 -296v-12h-238l-99 224h-4v-224h-215z" />
<glyph unicode="&#x139;" horiz-adv-x="522" d="M48 0v700h229v-555h226v-145h-455zM77 750l60 140q10 5 37.5 6.5t59.5 1.5q19 0 38 -0.5t35 -1.5t28 -2.5t17 -3.5l-129 -140q-9 -3 -29 -4.5t-43 -1.5q-26 0 -47.5 1.5t-26.5 4.5z" />
<glyph unicode="&#x13a;" d="M39 0v704q13 0 38 0.5t55 1.5t62 3t60 4v-581q0 -45 2.5 -83t8.5 -49h-226zM54 750l60 140q10 5 37.5 6.5t59.5 1.5q19 0 38 -0.5t35 -1.5t28 -2.5t17 -3.5l-129 -140q-9 -3 -29 -4.5t-43 -1.5q-26 0 -47.5 1.5t-26.5 4.5z" />
<glyph unicode="&#x13b;" horiz-adv-x="522" d="M48 0v700h229v-555h226v-145h-455zM176 -111q0 35 25 55t64 20q42 0 69 -19t27 -62q0 -30 -10.5 -53.5t-25.5 -40t-32 -26.5t-30 -13q-26 2 -43.5 7t-27.5 11q17 8 34 23.5t22 32.5q-31 2 -51.5 17.5t-20.5 47.5z" />
<glyph unicode="&#x13c;" d="M39 0v704q13 0 38 0.5t55 1.5t62 3t60 4v-581q0 -45 2.5 -83t8.5 -49h-226zM54 -111q0 35 25 55t64 20q42 0 69 -19t27 -62q0 -30 -10.5 -53.5t-25.5 -40t-32 -26.5t-30 -13q-26 2 -43.5 7t-27.5 11q17 8 34 23.5t22 32.5q-31 2 -51.5 17.5t-20.5 47.5z" />
<glyph unicode="&#x13d;" horiz-adv-x="522" d="M48 0v700h229v-555h226v-145h-455zM323 623q0 45 24 69.5t67 24.5q45 0 71 -27t26 -81q0 -43 -11.5 -77.5t-29 -60.5t-38 -43t-38.5 -24q-13 0 -24 5t-19.5 11t-13.5 12.5t-6 11.5q22 14 42.5 39t26.5 51q-34 5 -55.5 28.5t-21.5 60.5z" />
<glyph unicode="&#x13e;" horiz-adv-x="481" d="M39 0v704q13 0 38 0.5t55 1.5t62 3t60 4v-581q0 -45 2.5 -83t8.5 -49h-226zM292 623q0 45 24 69.5t67 24.5q45 0 71 -27t26 -81q0 -43 -11.5 -77.5t-29 -60.5t-38 -43t-38.5 -24q-13 0 -24 5t-19.5 11t-13.5 12.5t-6 11.5q22 14 42.5 39t26.5 51q-34 5 -55.5 28.5 t-21.5 60.5z" />
<glyph unicode="&#x13f;" horiz-adv-x="522" d="M48 0v700h229v-555h226v-145h-455zM319 373q0 44 28.5 68.5t76.5 24.5t77.5 -24.5t29.5 -68.5t-29.5 -70t-77.5 -26t-76.5 26t-28.5 70z" />
<glyph unicode="&#x140;" horiz-adv-x="505" d="M39 0v704q13 0 38 0.5t55 1.5t62 3t60 4v-581q0 -45 2.5 -83t8.5 -49h-226zM293 393q0 44 28.5 68.5t76.5 24.5t77.5 -24.5t29.5 -68.5t-29.5 -70t-77.5 -26t-76.5 26t-28.5 70z" />
<glyph unicode="&#x141;" horiz-adv-x="567" d="M25 151v149l68 35v365h228v-261l126 65v-150l-126 -64v-145h227v-145h-455v186z" />
<glyph unicode="&#x142;" horiz-adv-x="422" d="M17 207v156l87 44v297q13 0 38 0.5t55 1.5t62 3t60 4v-226l86 44v-155l-86 -45v-199q0 -45 2.5 -83t8.5 -49h-226v252z" />
<glyph unicode="&#x143;" horiz-adv-x="744" d="M48 0v700h287l106 -255q26 -63 43.5 -114.5t24.5 -77.5h5q-1 13 -2 38.5t-2 56t-1.5 64t-0.5 63.5v225h188v-700h-276l-115 274q-13 31 -25 62t-21 57.5t-15.5 47t-9.5 32.5h-5q1 -12 2.5 -36t2.5 -54.5t1.5 -64.5t0.5 -66v-252h-188zM304 750l60 140q10 5 37.5 6.5 t59.5 1.5q19 0 38 -0.5t35 -1.5t28 -2.5t17 -3.5l-129 -140q-9 -3 -29 -4.5t-43 -1.5q-26 0 -47.5 1.5t-26.5 4.5z" />
<glyph unicode="&#x144;" horiz-adv-x="585" d="M39 0v531q13 0 36 0.5t51 1.5t58 2.5t58 3.5v-70q19 31 55.5 55t93.5 24q45 0 75 -15t48.5 -41.5t26 -63t7.5 -79.5v-217q0 -22 0.5 -43.5t2 -39t3.5 -30.5t5 -19h-226v332q0 32 -8 50t-36 18q-11 0 -19.5 -2.5t-15.5 -6.5v-391h-215zM216 583l58 154q11 5 38 6.5t59 1.5 q38 0 72.5 -2t44.5 -6l-128 -154q-9 -3 -29 -4.5t-42 -1.5q-26 0 -47 1.5t-26 4.5z" />
<glyph unicode="&#x145;" horiz-adv-x="744" d="M48 0v700h287l106 -255q26 -63 43.5 -114.5t24.5 -77.5h5q-1 13 -2 38.5t-2 56t-1.5 64t-0.5 63.5v225h188v-700h-276l-115 274q-13 31 -25 62t-21 57.5t-15.5 47t-9.5 32.5h-5q1 -12 2.5 -36t2.5 -54.5t1.5 -64.5t0.5 -66v-252h-188zM299 -111q0 35 25 55t64 20 q42 0 69 -19t27 -62q0 -30 -10.5 -53.5t-25.5 -40t-32 -26.5t-30 -13q-26 2 -43.5 7t-27.5 11q17 8 34 23.5t22 32.5q-31 2 -51.5 17.5t-20.5 47.5z" />
<glyph unicode="&#x146;" horiz-adv-x="585" d="M39 0v531q13 0 36 0.5t51 1.5t58 2.5t58 3.5v-70q19 31 55.5 55t93.5 24q45 0 75 -15t48.5 -41.5t26 -63t7.5 -79.5v-217q0 -22 0.5 -43.5t2 -39t3.5 -30.5t5 -19h-226v332q0 32 -8 50t-36 18q-11 0 -19.5 -2.5t-15.5 -6.5v-391h-215zM201 -111q0 35 25 55t64 20 q42 0 69 -19t27 -62q0 -30 -10.5 -53.5t-25.5 -40t-32 -26.5t-30 -13q-26 2 -43.5 7t-27.5 11q17 8 34 23.5t22 32.5q-31 2 -51.5 17.5t-20.5 47.5z" />
<glyph unicode="&#x147;" horiz-adv-x="744" d="M48 0v700h287l106 -255q26 -63 43.5 -114.5t24.5 -77.5h5q-1 13 -2 38.5t-2 56t-1.5 64t-0.5 63.5v225h188v-700h-276l-115 274q-13 31 -25 62t-21 57.5t-15.5 47t-9.5 32.5h-5q1 -12 2.5 -36t2.5 -54.5t1.5 -64.5t0.5 -66v-252h-188zM193 890q5 3 23 4.5t39 1.5 q19 0 36.5 -1.5t26.5 -4.5l66 -67h2l65 67q9 3 26.5 4.5t36.5 1.5q21 0 39 -1.5t23 -4.5l-85 -138q-13 -4 -45 -6t-63 -2q-15 0 -31.5 0.5t-31 1.5t-25.5 2.5t-17 3.5z" />
<glyph unicode="&#x148;" horiz-adv-x="585" d="M39 0v531q13 0 36 0.5t51 1.5t58 2.5t58 3.5v-70q19 31 55.5 55t93.5 24q45 0 75 -15t48.5 -41.5t26 -63t7.5 -79.5v-217q0 -22 0.5 -43.5t2 -39t3.5 -30.5t5 -19h-226v332q0 32 -8 50t-36 18q-11 0 -19.5 -2.5t-15.5 -6.5v-391h-215zM108 736q5 3 23 4.5t39 1.5 q19 0 36.5 -1.5t26.5 -4.5l59 -83h2l59 83q9 3 26 4.5t36 1.5q22 0 40 -1.5t23 -4.5l-78 -154q-6 -2 -17 -3.5t-25.5 -2.5t-31 -1.5t-31.5 -0.5q-31 0 -63 2t-46 6z" />
<glyph unicode="&#x149;" horiz-adv-x="585" d="M5 721q0 35 25 55t64 20q42 0 69 -19t27 -62q0 -30 -10.5 -53.5t-25.5 -40t-32 -26.5t-30 -13q-26 2 -43.5 7t-27.5 11q17 8 34 23.5t22 32.5q-31 2 -51.5 17.5t-20.5 47.5zM39 0v531q13 0 36 0.5t51 1.5t58 2.5t58 3.5v-70q19 31 55.5 55t93.5 24q45 0 75 -15 t48.5 -41.5t26 -63t7.5 -79.5v-217q0 -22 0.5 -43.5t2 -39t3.5 -30.5t5 -19h-226v332q0 32 -8 50t-36 18q-11 0 -19.5 -2.5t-15.5 -6.5v-391h-215z" />
<glyph unicode="&#x14a;" horiz-adv-x="744" d="M48 0v700h287l106 -255q26 -63 43.5 -114.5t24.5 -77.5h5q-1 13 -2 38.5t-2 56t-1.5 64t-0.5 63.5v225h188v-708q0 -56 -15 -93t-43.5 -59t-69.5 -31t-94 -9q-30 0 -54.5 3t-33.5 6q-2 8 -3 21.5t-1 27.5q0 20 1.5 38.5t4.5 29.5q15 -5 54 -5q27 0 46.5 12t19.5 39v28 h-88l-115 274q-13 31 -25 62t-21 57.5t-15.5 47t-9.5 32.5h-5q1 -12 2.5 -36t2.5 -54.5t1.5 -64.5t0.5 -66v-252h-188z" />
<glyph unicode="&#x14b;" horiz-adv-x="587" d="M39 0v531q9 0 29.5 0.5t48 1t60 2t65.5 4.5v-70q19 31 55.5 55t93.5 24q45 0 75 -15t48.5 -41.5t26 -63t7.5 -79.5v-357q0 -56 -15 -93t-43.5 -59t-69.5 -31t-94 -9q-28 0 -53.5 3t-35.5 6q-2 9 -2.5 24t-0.5 24q0 20 1.5 40.5t3.5 27.5q7 -2 19 -3.5t25 -1.5 q30 0 40 14.5t10 41.5v356q0 32 -8 50t-36 18q-11 0 -19.5 -2.5t-15.5 -6.5v-391h-215z" />
<glyph unicode="&#x14c;" horiz-adv-x="697" d="M26 351q0 83 18 150.5t57 115.5t100 74t147 26t147 -26t100 -74t57.5 -115.5t18.5 -150.5q0 -84 -18 -152t-57 -116t-100 -74t-148 -26q-86 0 -147 26t-100 74t-57 116t-18 152zM174 756v131h347v-131h-347zM274 351q0 -64 2.5 -108.5t10.5 -72.5t22.5 -40.5t38.5 -12.5 q23 0 37.5 12.5t22.5 40.5t11 72.5t3 108.5t-3 108.5t-11 72t-22.5 39.5t-37.5 12t-37.5 -12t-22.5 -39.5t-11 -72t-3 -108.5z" />
<glyph unicode="&#x14d;" horiz-adv-x="587" d="M20 266q0 64 16 116t49.5 89t85 57t122.5 20t122.5 -20t85.5 -57t50 -89t16 -116t-16 -116.5t-50 -89.5t-85.5 -57t-122.5 -20t-122.5 20.5t-85 57.5t-49.5 89t-16 116zM120 602v131h347v-131h-347zM249 266q0 -49 2 -80.5t6.5 -50t13 -26t22.5 -7.5t23 7.5t13.5 26t6 50 t1.5 80.5t-1.5 80.5t-6 50t-13.5 25.5t-23 7t-22.5 -7t-13 -25.5t-6.5 -50t-2 -80.5z" />
<glyph unicode="&#x14e;" horiz-adv-x="697" d="M26 351q0 83 18 150.5t57 115.5t100 74t147 26t147 -26t100 -74t57.5 -115.5t18.5 -150.5q0 -84 -18 -152t-57 -116t-100 -74t-148 -26q-86 0 -147 26t-100 74t-57 116t-18 152zM179 885q5 3 20.5 4.5t32.5 1.5q14 0 27 -1t22 -4q6 -28 24 -37.5t44 -9.5t42.5 9t22.5 38 q8 3 21.5 4t27.5 1q17 0 32.5 -1.5t20.5 -4.5q-1 -21 -8.5 -47.5t-26.5 -49.5t-51 -39t-81 -16q-50 0 -82 16t-51.5 39t-27.5 49.5t-9 47.5zM274 351q0 -64 2.5 -108.5t10.5 -72.5t22.5 -40.5t38.5 -12.5q23 0 37.5 12.5t22.5 40.5t11 72.5t3 108.5t-3 108.5t-11 72 t-22.5 39.5t-37.5 12t-37.5 -12t-22.5 -39.5t-11 -72t-3 -108.5z" />
<glyph unicode="&#x14f;" horiz-adv-x="587" d="M20 266q0 64 16 116t49.5 89t85 57t122.5 20t122.5 -20t85.5 -57t50 -89t16 -116t-16 -116.5t-50 -89.5t-85.5 -57t-122.5 -20t-122.5 20.5t-85 57.5t-49.5 89t-16 116zM125 736q5 3 20.5 4.5t32.5 1.5q14 0 27 -1t22 -4q12 -56 68 -56q29 0 44 13.5t21 42.5q8 3 21.5 4 t27.5 1q17 0 32.5 -1.5t20.5 -4.5q-1 -21 -7.5 -49.5t-24.5 -53.5t-50 -42.5t-85 -17.5t-85.5 17.5t-51 42.5t-25.5 53.5t-8 49.5zM249 266q0 -49 2 -80.5t6.5 -50t13 -26t22.5 -7.5t23 7.5t13.5 26t6 50t1.5 80.5t-1.5 80.5t-6 50t-13.5 25.5t-23 7t-22.5 -7t-13 -25.5 t-6.5 -50t-2 -80.5z" />
<glyph unicode="&#x150;" horiz-adv-x="697" d="M26 351q0 83 18 150.5t57 115.5t100 74t147 26t147 -26t100 -74t57.5 -115.5t18.5 -150.5q0 -84 -18 -152t-57 -116t-100 -74t-148 -26q-86 0 -147 26t-100 74t-57 116t-18 152zM172 750l40 140q10 5 32 6.5t47 1.5q31 0 58.5 -2t37.5 -6l-77 -140q-9 -3 -28.5 -4.5 t-40.5 -1.5q-24 0 -44 1.5t-25 4.5zM274 351q0 -64 2.5 -108.5t10.5 -72.5t22.5 -40.5t38.5 -12.5q23 0 37.5 12.5t22.5 40.5t11 72.5t3 108.5t-3 108.5t-11 72t-22.5 39.5t-37.5 12t-37.5 -12t-22.5 -39.5t-11 -72t-3 -108.5zM372 750l63 140q10 5 33.5 6.5t51.5 1.5 q33 0 63.5 -2t40.5 -6l-108 -140q-9 -3 -29 -4.5t-42 -1.5q-26 0 -47 1.5t-26 4.5z" />
<glyph unicode="&#x151;" horiz-adv-x="587" d="M20 266q0 64 16 116t49.5 89t85 57t122.5 20t122.5 -20t85.5 -57t50 -89t16 -116t-16 -116.5t-50 -89.5t-85.5 -57t-122.5 -20t-122.5 20.5t-85 57.5t-49.5 89t-16 116zM118 583l43 154q11 5 32.5 6.5t47.5 1.5q30 0 57.5 -2t37.5 -6l-80 -154q-9 -3 -28.5 -4.5 t-40.5 -1.5q-24 0 -44 1.5t-25 4.5zM249 266q0 -49 2 -80.5t6.5 -50t13 -26t22.5 -7.5t23 7.5t13.5 26t6 50t1.5 80.5t-1.5 80.5t-6 50t-13.5 25.5t-23 7t-22.5 -7t-13 -25.5t-6.5 -50t-2 -80.5zM312 583l66 154q10 5 33.5 6.5t51.5 1.5q33 0 63.5 -2t40.5 -6l-111 -154 q-9 -3 -29 -4.5t-42 -1.5q-26 0 -47 1.5t-26 4.5z" />
<glyph unicode="&#x152;" horiz-adv-x="904" d="M31 351q0 82 18 149.5t57 115.5t99 74.5t144 26.5q70 0 124 -17h393v-145h-242v-125h217q3 -11 4.5 -30t1.5 -40q0 -22 -1.5 -42t-4.5 -32h-217v-141h255v-145h-405q-54 -17 -126 -17q-84 0 -144.5 26.5t-98.5 74.5t-56 116t-18 151zM279 351q0 -63 4 -107.5t13 -72.5 t24.5 -41t38.5 -13q8 0 18 1.5t18 5.5v452q-8 4 -18 5.5t-18 1.5q-23 0 -38.5 -12.5t-24.5 -40t-13 -72t-4 -107.5z" />
<glyph unicode="&#x153;" horiz-adv-x="883" d="M20 266q0 64 16 116t49.5 89t85 57t122.5 20q97 0 157 -40q60 40 155 40q70 0 119 -20.5t80.5 -56.5t46 -85t14.5 -106q0 -15 -1 -33t-3 -30h-296q2 -66 12 -91.5t35 -25.5q14 0 22 8.5t12.5 20t6.5 24t2 20.5q5 0 11 0.5t14 0.5q19 0 43.5 -1.5t48.5 -4t45 -6.5t35 -10 q-8 -36 -24.5 -67t-45.5 -53.5t-71.5 -35.5t-100.5 -13q-50 0 -89 10t-69 30q-30 -19 -69 -29.5t-90 -10.5q-71 0 -122.5 20.5t-85 57.5t-49.5 89t-16 116zM249 266q0 -49 2 -80.5t6.5 -50t13 -26t22.5 -7.5t23 7.5t13.5 26t6 50t1.5 80.5t-1.5 80.5t-6 50t-13.5 25.5t-23 7 t-22.5 -7t-13 -25.5t-6.5 -50t-2 -80.5zM565 325h86q0 58 -7 83.5t-35 25.5q-23 0 -32.5 -22.5t-11.5 -86.5z" />
<glyph unicode="&#x154;" horiz-adv-x="644" d="M48 0v700h272q153 0 225 -55.5t72 -164.5q0 -70 -29.5 -119t-83.5 -78l134 -271v-12h-242l-98 237h-21v-237h-229zM240 750l60 140q10 5 37.5 6.5t59.5 1.5q19 0 38 -0.5t35 -1.5t28 -2.5t17 -3.5l-129 -140q-9 -3 -29 -4.5t-43 -1.5q-26 0 -47.5 1.5t-26.5 4.5zM277 370 h12q19 0 37 2.5t32 13t22 30.5t8 55t-8 55t-21.5 30.5t-31.5 13t-38 2.5h-12v-202z" />
<glyph unicode="&#x155;" horiz-adv-x="428" d="M39 0v531q13 0 36 0.5t51 1.5t58 2.5t58 3.5v-120h4q3 12 9.5 33.5t20.5 43t37 37t60 15.5q11 0 21.5 -1t14.5 -3q3 -12 4.5 -36.5t1.5 -52.5q0 -35 -2 -66.5t-5 -44.5q-9 2 -23.5 3t-26.5 1q-49 0 -74 -9t-30 -14v-196q0 -18 0.5 -37.5t1.5 -37.5t3.5 -32.5t5.5 -21.5 h-226zM137 583l58 154q11 5 38 6.5t59 1.5q38 0 72.5 -2t44.5 -6l-128 -154q-9 -3 -29 -4.5t-42 -1.5q-26 0 -47 1.5t-26 4.5z" />
<glyph unicode="&#x156;" horiz-adv-x="644" d="M48 0v700h272q153 0 225 -55.5t72 -164.5q0 -70 -29.5 -119t-83.5 -78l134 -271v-12h-242l-98 237h-21v-237h-229zM234 -111q0 35 25 55t64 20q42 0 69 -19t27 -62q0 -30 -10.5 -53.5t-25.5 -40t-32 -26.5t-30 -13q-26 2 -43.5 7t-27.5 11q17 8 34 23.5t22 32.5 q-31 2 -51.5 17.5t-20.5 47.5zM277 370h12q19 0 37 2.5t32 13t22 30.5t8 55t-8 55t-21.5 30.5t-31.5 13t-38 2.5h-12v-202z" />
<glyph unicode="&#x157;" horiz-adv-x="428" d="M39 0v531q13 0 36 0.5t51 1.5t58 2.5t58 3.5v-120h4q3 12 9.5 33.5t20.5 43t37 37t60 15.5q11 0 21.5 -1t14.5 -3q3 -12 4.5 -36.5t1.5 -52.5q0 -35 -2 -66.5t-5 -44.5q-9 2 -23.5 3t-26.5 1q-49 0 -74 -9t-30 -14v-196q0 -18 0.5 -37.5t1.5 -37.5t3.5 -32.5t5.5 -21.5 h-226zM54 -111q0 35 25 55t64 20q42 0 69 -19t27 -62q0 -30 -10.5 -53.5t-25.5 -40t-32 -26.5t-30 -13q-26 2 -43.5 7t-27.5 11q17 8 34 23.5t22 32.5q-31 2 -51.5 17.5t-20.5 47.5z" />
<glyph unicode="&#x158;" horiz-adv-x="644" d="M48 0v700h272q153 0 225 -55.5t72 -164.5q0 -70 -29.5 -119t-83.5 -78l134 -271v-12h-242l-98 237h-21v-237h-229zM128 890q5 3 23 4.5t39 1.5q19 0 36.5 -1.5t26.5 -4.5l66 -67h2l65 67q9 3 26.5 4.5t36.5 1.5q21 0 39 -1.5t23 -4.5l-85 -138q-13 -4 -45 -6t-63 -2 q-15 0 -31.5 0.5t-31 1.5t-25.5 2.5t-17 3.5zM277 370h12q19 0 37 2.5t32 13t22 30.5t8 55t-8 55t-21.5 30.5t-31.5 13t-38 2.5h-12v-202z" />
<glyph unicode="&#x159;" horiz-adv-x="428" d="M39 0v531q13 0 36 0.5t51 1.5t58 2.5t58 3.5v-120h4q3 12 9.5 33.5t20.5 43t37 37t60 15.5q11 0 21.5 -1t14.5 -3q3 -12 4.5 -36.5t1.5 -52.5q0 -35 -2 -66.5t-5 -44.5q-9 2 -23.5 3t-26.5 1q-49 0 -74 -9t-30 -14v-196q0 -18 0.5 -37.5t1.5 -37.5t3.5 -32.5t5.5 -21.5 h-226zM47 736q5 3 23 4.5t39 1.5q19 0 36.5 -1.5t26.5 -4.5l59 -83h2l59 83q9 3 26 4.5t36 1.5q22 0 40 -1.5t23 -4.5l-78 -154q-6 -2 -17 -3.5t-25.5 -2.5t-31 -1.5t-31.5 -0.5q-31 0 -63 2t-46 6z" />
<glyph unicode="&#x15a;" horiz-adv-x="599" d="M13 186q15 6 38.5 11.5t49.5 9t52 6t47 2.5h9.5t11.5 -1q0 -14 3.5 -31t13 -31.5t26 -24.5t43.5 -10q28 0 43.5 14t15.5 43q0 24 -14.5 39.5t-37.5 27t-53.5 21t-61.5 20.5q-32 11 -62 26.5t-54 39t-38.5 57t-14.5 81.5q0 52 18.5 94.5t54.5 73t88.5 47t121.5 16.5 q72 0 122.5 -17.5t82 -46t46.5 -65t17 -73.5q-13 -6 -36.5 -11t-49.5 -8.5t-51.5 -5t-42.5 -1.5q-10 0 -14 0.5t-10 0.5q-1 12 -3.5 28t-10.5 30.5t-23 24.5t-41 10q-59 0 -59 -58q0 -21 14 -35t36.5 -24.5t52 -19.5t60.5 -20q33 -12 65 -27t57 -39t40.5 -58.5t15.5 -83.5 q0 -51 -17.5 -94t-53.5 -74.5t-90.5 -49t-129.5 -17.5q-72 0 -122.5 16.5t-83.5 44.5t-50 64.5t-21 77.5zM227 750l60 140q10 5 37.5 6.5t59.5 1.5q19 0 38 -0.5t35 -1.5t28 -2.5t17 -3.5l-129 -140q-9 -3 -29 -4.5t-43 -1.5q-26 0 -47.5 1.5t-26.5 4.5z" />
<glyph unicode="&#x15b;" horiz-adv-x="515" d="M13 147q9 4 27 7.5t40 6.5t45 4.5t42 1.5h9.5t14.5 -1q1 -11 4.5 -23t11 -22t20 -17t32.5 -7q21 0 32 11.5t11 29.5q0 15 -11 24.5t-29 15.5t-41.5 10.5t-48.5 10.5q-28 7 -55 17t-48.5 27.5t-34.5 45t-13 69.5q0 40 14.5 75t44 60.5t74.5 40t107 14.5q74 0 120 -17.5 t71.5 -43t35 -54t9.5 -51.5q-12 -5 -30 -8.5t-38 -5.5t-41 -3.5t-39 -1.5h-15.5t-14.5 1q-1 9 -3.5 21t-8.5 23t-18 18.5t-32 7.5t-32.5 -10.5t-12.5 -28.5q0 -16 10.5 -25.5t28.5 -16.5t41 -11.5t48 -10.5q28 -7 56.5 -16.5t50.5 -26t36 -43t14 -66.5q0 -89 -60 -142.5 t-187 -53.5q-63 0 -107 13t-72.5 35.5t-42.5 52.5t-15 63zM180 583l58 154q11 5 38 6.5t59 1.5q38 0 72.5 -2t44.5 -6l-128 -154q-9 -3 -29 -4.5t-42 -1.5q-26 0 -47 1.5t-26 4.5z" />
<glyph unicode="&#x15c;" horiz-adv-x="599" d="M13 186q15 6 38.5 11.5t49.5 9t52 6t47 2.5h9.5t11.5 -1q0 -14 3.5 -31t13 -31.5t26 -24.5t43.5 -10q28 0 43.5 14t15.5 43q0 24 -14.5 39.5t-37.5 27t-53.5 21t-61.5 20.5q-32 11 -62 26.5t-54 39t-38.5 57t-14.5 81.5q0 52 18.5 94.5t54.5 73t88.5 47t121.5 16.5 q72 0 122.5 -17.5t82 -46t46.5 -65t17 -73.5q-13 -6 -36.5 -11t-49.5 -8.5t-51.5 -5t-42.5 -1.5q-10 0 -14 0.5t-10 0.5q-1 12 -3.5 28t-10.5 30.5t-23 24.5t-41 10q-59 0 -59 -58q0 -21 14 -35t36.5 -24.5t52 -19.5t60.5 -20q33 -12 65 -27t57 -39t40.5 -58.5t15.5 -83.5 q0 -51 -17.5 -94t-53.5 -74.5t-90.5 -49t-129.5 -17.5q-72 0 -122.5 16.5t-83.5 44.5t-50 64.5t-21 77.5zM120 753l85 138q6 2 17 3.5t25.5 2.5t31 1.5t31.5 0.5q31 0 63 -2t45 -6l85 -138q-5 -3 -23 -4.5t-39 -1.5q-19 0 -36.5 1.5t-26.5 4.5l-65 67h-2l-66 -67 q-9 -3 -26.5 -4.5t-36.5 -1.5q-21 0 -39 1.5t-23 4.5z" />
<glyph unicode="&#x15d;" horiz-adv-x="515" d="M13 147q9 4 27 7.5t40 6.5t45 4.5t42 1.5h9.5t14.5 -1q1 -11 4.5 -23t11 -22t20 -17t32.5 -7q21 0 32 11.5t11 29.5q0 15 -11 24.5t-29 15.5t-41.5 10.5t-48.5 10.5q-28 7 -55 17t-48.5 27.5t-34.5 45t-13 69.5q0 40 14.5 75t44 60.5t74.5 40t107 14.5q74 0 120 -17.5 t71.5 -43t35 -54t9.5 -51.5q-12 -5 -30 -8.5t-38 -5.5t-41 -3.5t-39 -1.5h-15.5t-14.5 1q-1 9 -3.5 21t-8.5 23t-18 18.5t-32 7.5t-32.5 -10.5t-12.5 -28.5q0 -16 10.5 -25.5t28.5 -16.5t41 -11.5t48 -10.5q28 -7 56.5 -16.5t50.5 -26t36 -43t14 -66.5q0 -89 -60 -142.5 t-187 -53.5q-63 0 -107 13t-72.5 35.5t-42.5 52.5t-15 63zM84 583l78 154q6 2 17 3.5t25.5 2.5t31 1.5t31.5 0.5q31 0 63 -2t46 -6l78 -154q-5 -3 -23 -4.5t-40 -1.5q-19 0 -36 1.5t-26 4.5l-59 84h-2l-59 -84q-9 -3 -26.5 -4.5t-36.5 -1.5q-21 0 -39 1.5t-23 4.5z" />
<glyph unicode="&#x15e;" horiz-adv-x="599" d="M13 186q15 6 38.5 11.5t49.5 9t52 6t47 2.5h9.5t11.5 -1q0 -14 3.5 -31t13 -31.5t26 -24.5t43.5 -10q28 0 43.5 14t15.5 43q0 24 -14.5 39.5t-37.5 27t-53.5 21t-61.5 20.5q-32 11 -62 26.5t-54 39t-38.5 57t-14.5 81.5q0 52 18.5 94.5t54.5 73t88.5 47t121.5 16.5 q72 0 122.5 -17.5t82 -46t46.5 -65t17 -73.5q-13 -6 -36.5 -11t-49.5 -8.5t-51.5 -5t-42.5 -1.5q-10 0 -14 0.5t-10 0.5q-1 12 -3.5 28t-10.5 30.5t-23 24.5t-41 10q-59 0 -59 -58q0 -21 14 -35t36.5 -24.5t52 -19.5t60.5 -20q33 -12 65 -27t57 -39t40.5 -58.5t15.5 -83.5 q0 -47 -15 -87.5t-45.5 -71t-77.5 -50t-110 -24.5l-11 -35q18 -3 36.5 -8.5t33 -15.5t24 -26t9.5 -40t-9.5 -42t-26 -30t-39 -17.5t-47.5 -5.5q-44 0 -69.5 7.5t-40.5 19.5l17 55q11 -6 26 -11t31 -5q21 0 29.5 8.5t8.5 22.5q0 12 -7.5 19.5t-19 12.5t-25.5 7t-27 4l23 80 q-60 4 -103 22t-71.5 45.5t-43 61.5t-18.5 72z" />
<glyph unicode="&#x15f;" horiz-adv-x="515" d="M13 147q9 4 27 7.5t40 6.5t45 4.5t42 1.5h9.5t14.5 -1q1 -11 4.5 -23t11 -22t20 -17t32.5 -7q21 0 32 11.5t11 29.5q0 15 -11 24.5t-29 15.5t-41.5 10.5t-48.5 10.5q-28 7 -55 17t-48.5 27.5t-34.5 45t-13 69.5q0 40 14.5 75t44 60.5t74.5 40t107 14.5q74 0 120 -17.5 t71.5 -43t35 -54t9.5 -51.5q-12 -5 -30 -8.5t-38 -5.5t-41 -3.5t-39 -1.5h-15.5t-14.5 1q-1 9 -3.5 21t-8.5 23t-18 18.5t-32 7.5t-32.5 -10.5t-12.5 -28.5q0 -16 10.5 -25.5t28.5 -16.5t41 -11.5t48 -10.5q28 -7 56.5 -16.5t50.5 -26t36 -43t14 -66.5q0 -81 -49 -132.5 t-154 -61.5l-11 -35q18 -3 36.5 -8.5t33 -15.5t24 -26t9.5 -40t-9.5 -42t-26 -30t-39 -17.5t-47.5 -5.5q-44 0 -69.5 7.5t-40.5 19.5l17 55q11 -6 26 -11t31 -5q21 0 29.5 8.5t8.5 22.5q0 12 -7.5 19.5t-19 12.5t-25.5 7t-27 4l23 80q-52 4 -88.5 18.5t-60.5 36t-35.5 49 t-12.5 58.5z" />
<glyph unicode="&#x160;" horiz-adv-x="599" d="M13 186q15 6 38.5 11.5t49.5 9t52 6t47 2.5h9.5t11.5 -1q0 -14 3.5 -31t13 -31.5t26 -24.5t43.5 -10q28 0 43.5 14t15.5 43q0 24 -14.5 39.5t-37.5 27t-53.5 21t-61.5 20.5q-32 11 -62 26.5t-54 39t-38.5 57t-14.5 81.5q0 52 18.5 94.5t54.5 73t88.5 47t121.5 16.5 q72 0 122.5 -17.5t82 -46t46.5 -65t17 -73.5q-13 -6 -36.5 -11t-49.5 -8.5t-51.5 -5t-42.5 -1.5q-10 0 -14 0.5t-10 0.5q-1 12 -3.5 28t-10.5 30.5t-23 24.5t-41 10q-59 0 -59 -58q0 -21 14 -35t36.5 -24.5t52 -19.5t60.5 -20q33 -12 65 -27t57 -39t40.5 -58.5t15.5 -83.5 q0 -51 -17.5 -94t-53.5 -74.5t-90.5 -49t-129.5 -17.5q-72 0 -122.5 16.5t-83.5 44.5t-50 64.5t-21 77.5zM120 890q5 3 23 4.5t39 1.5q19 0 36.5 -1.5t26.5 -4.5l66 -67h2l65 67q9 3 26.5 4.5t36.5 1.5q21 0 39 -1.5t23 -4.5l-85 -138q-13 -4 -45 -6t-63 -2q-15 0 -31.5 0.5 t-31 1.5t-25.5 2.5t-17 3.5z" />
<glyph unicode="&#x161;" horiz-adv-x="515" d="M13 147q9 4 27 7.5t40 6.5t45 4.5t42 1.5h9.5t14.5 -1q1 -11 4.5 -23t11 -22t20 -17t32.5 -7q21 0 32 11.5t11 29.5q0 15 -11 24.5t-29 15.5t-41.5 10.5t-48.5 10.5q-28 7 -55 17t-48.5 27.5t-34.5 45t-13 69.5q0 40 14.5 75t44 60.5t74.5 40t107 14.5q74 0 120 -17.5 t71.5 -43t35 -54t9.5 -51.5q-12 -5 -30 -8.5t-38 -5.5t-41 -3.5t-39 -1.5h-15.5t-14.5 1q-1 9 -3.5 21t-8.5 23t-18 18.5t-32 7.5t-32.5 -10.5t-12.5 -28.5q0 -16 10.5 -25.5t28.5 -16.5t41 -11.5t48 -10.5q28 -7 56.5 -16.5t50.5 -26t36 -43t14 -66.5q0 -89 -60 -142.5 t-187 -53.5q-63 0 -107 13t-72.5 35.5t-42.5 52.5t-15 63zM83 736q5 3 23 4.5t39 1.5q19 0 36.5 -1.5t26.5 -4.5l59 -83h2l59 83q9 3 26 4.5t36 1.5q22 0 40 -1.5t23 -4.5l-78 -154q-6 -2 -17 -3.5t-25.5 -2.5t-31 -1.5t-31.5 -0.5q-31 0 -63 2t-46 6z" />
<glyph unicode="&#x162;" horiz-adv-x="564" d="M15 555v145h534v-145h-153v-555h-73l-15 -50q18 -3 36.5 -8.5t33 -15.5t24 -26t9.5 -40t-9.5 -42t-26 -30t-39 -17.5t-47.5 -5.5q-44 0 -69.5 7.5t-40.5 19.5l17 55q11 -6 26 -11t31 -5q21 0 29.5 8.5t8.5 22.5q0 12 -7.5 19.5t-19 12.5t-25.5 7t-27 4l28 95h-72v555 h-153z" />
<glyph unicode="&#x163;" horiz-adv-x="401" d="M15 407v124h63v128q13 0 36.5 0.5t52 1.5t59.5 3t59 4v-137h94v-124h-94v-218q0 -36 10 -52.5t49 -16.5q9 0 19.5 1t18.5 4q2 -8 3.5 -28t1.5 -43q0 -16 -0.5 -30.5t-2.5 -22.5q-8 -5 -37 -10.5t-71 -5.5q-5 0 -10.5 0.5t-10.5 0.5l-11 -36q18 -3 36.5 -8.5t33 -15.5 t24 -26t9.5 -40t-9.5 -42t-26 -30t-39 -17.5t-47.5 -5.5q-44 0 -69.5 7.5t-40.5 19.5l17 55q11 -6 26 -11t31 -5q21 0 29.5 8.5t8.5 22.5q0 12 -7.5 19.5t-19 12.5t-25.5 7t-27 4l26 91q-53 15 -78.5 55.5t-25.5 120.5v235h-55z" />
<glyph unicode="&#x164;" horiz-adv-x="564" d="M15 555v145h534v-145h-153v-555h-228v555h-153zM90 890q5 3 23 4.5t39 1.5q19 0 36.5 -1.5t26.5 -4.5l66 -67h2l65 67q9 3 26.5 4.5t36.5 1.5q21 0 39 -1.5t23 -4.5l-85 -138q-13 -4 -45 -6t-63 -2q-15 0 -31.5 0.5t-31 1.5t-25.5 2.5t-17 3.5z" />
<glyph unicode="&#x165;" horiz-adv-x="479" d="M15 407v124h63v128q13 0 36.5 0.5t52 1.5t59.5 3t59 4v-137h94v-124h-94v-218q0 -36 10 -52.5t49 -16.5q9 0 19.5 1t18.5 4q2 -8 3.5 -28t1.5 -43q0 -16 -0.5 -30.5t-2.5 -22.5q-8 -5 -37 -10.5t-71 -5.5q-53 0 -91.5 8.5t-64 30t-38 57.5t-12.5 91v235h-55zM308 781 q0 45 24 69.5t67 24.5q45 0 71 -27t26 -81q0 -43 -11.5 -77.5t-29 -60.5t-38 -43t-38.5 -24q-13 0 -24 5t-19.5 11t-13.5 12.5t-6 11.5q22 14 42.5 39t26.5 51q-34 5 -55.5 28.5t-21.5 60.5z" />
<glyph unicode="&#x166;" horiz-adv-x="564" d="M15 555v145h534v-145h-153v-127h101v-131h-101v-297h-228v297h-98v131h98v127h-153z" />
<glyph unicode="&#x167;" horiz-adv-x="401" d="M15 205v124h55v78h-55v124h63v128q13 0 36.5 0.5t52 1.5t59.5 3t59 4v-137h94v-124h-94v-78h94v-124h-94v-16q0 -36 10 -52.5t49 -16.5q9 0 19.5 1t18.5 4q2 -8 3.5 -28t1.5 -43q0 -16 -0.5 -30.5t-2.5 -22.5q-8 -5 -37 -10.5t-71 -5.5q-53 0 -91.5 8.5t-64 30t-38 57.5 t-12.5 91v33h-55z" />
<glyph unicode="&#x168;" horiz-adv-x="658" d="M45 255v445h229v-443q0 -57 18.5 -81t57.5 -24q38 0 56.5 24t18.5 80v444h188v-445q0 -60 -12 -110t-43.5 -86t-85.5 -56t-139 -20t-140.5 19.5t-88.5 55t-46 85.5t-13 112zM142 739q10 75 45 113.5t91 38.5q25 0 42.5 -7.5t32.5 -16t28.5 -16t30.5 -7.5q16 0 25.5 9.5 t17.5 33.5q2 2 13 2.5t25 0.5q15 0 28.5 -1t15.5 -2q-14 -81 -47 -116.5t-82 -35.5q-27 0 -45.5 7.5t-33 16t-27.5 16t-29 7.5q-20 0 -30.5 -12t-18.5 -31q-2 -2 -13 -2.5t-25 -0.5q-15 0 -28.5 0.5t-15.5 2.5z" />
<glyph unicode="&#x169;" horiz-adv-x="584" d="M39 174v357q13 0 38 0.5t55 1.5t62 2.5t60 3.5v-331q0 -40 8 -57.5t34 -17.5q18 0 34 8v390q13 0 38 0.5t55 1.5t62 2.5t60 3.5v-360q0 -44 3 -89.5t12 -68.5l-186 -37q-11 13 -20.5 28.5t-14.5 37.5q-20 -27 -52.5 -47t-89.5 -20q-86 0 -122 50.5t-36 140.5zM97 584 q11 75 44 113.5t89 38.5q26 0 44.5 -7.5t33.5 -16.5t28.5 -16.5t30.5 -7.5t26 10t17 34q2 2 13 2.5t25 0.5q15 0 28.5 -1t15.5 -2q-14 -81 -45.5 -116.5t-79.5 -35.5q-29 0 -48 7.5t-34 16t-27.5 16t-28.5 7.5q-20 0 -31 -12t-19 -31q-2 -2 -13 -2.5t-25 -0.5 q-15 0 -28.5 0.5t-15.5 2.5z" />
<glyph unicode="&#x16a;" horiz-adv-x="658" d="M45 255v445h229v-443q0 -57 18.5 -81t57.5 -24q38 0 56.5 24t18.5 80v444h188v-445q0 -60 -12 -110t-43.5 -86t-85.5 -56t-139 -20t-140.5 19.5t-88.5 55t-46 85.5t-13 112zM165 756v131h347v-131h-347z" />
<glyph unicode="&#x16b;" horiz-adv-x="584" d="M39 174v357q13 0 38 0.5t55 1.5t62 2.5t60 3.5v-331q0 -40 8 -57.5t34 -17.5q18 0 34 8v390q13 0 38 0.5t55 1.5t62 2.5t60 3.5v-360q0 -44 3 -89.5t12 -68.5l-186 -37q-11 13 -20.5 28.5t-14.5 37.5q-20 -27 -52.5 -47t-89.5 -20q-86 0 -122 50.5t-36 140.5zM118 602 v131h347v-131h-347z" />
<glyph unicode="&#x16c;" horiz-adv-x="658" d="M45 255v445h229v-443q0 -57 18.5 -81t57.5 -24q38 0 56.5 24t18.5 80v444h188v-445q0 -60 -12 -110t-43.5 -86t-85.5 -56t-139 -20t-140.5 19.5t-88.5 55t-46 85.5t-13 112zM170 885q5 3 20.5 4.5t32.5 1.5q14 0 27 -1t22 -4q6 -28 24 -37.5t44 -9.5t42.5 9t22.5 38 q8 3 21.5 4t27.5 1q17 0 32.5 -1.5t20.5 -4.5q-1 -21 -8.5 -47.5t-26.5 -49.5t-51 -39t-81 -16q-50 0 -82 16t-51.5 39t-27.5 49.5t-9 47.5z" />
<glyph unicode="&#x16d;" horiz-adv-x="584" d="M39 174v357q13 0 38 0.5t55 1.5t62 2.5t60 3.5v-331q0 -40 8 -57.5t34 -17.5q18 0 34 8v390q13 0 38 0.5t55 1.5t62 2.5t60 3.5v-360q0 -44 3 -89.5t12 -68.5l-186 -37q-11 13 -20.5 28.5t-14.5 37.5q-20 -27 -52.5 -47t-89.5 -20q-86 0 -122 50.5t-36 140.5zM123 736 q5 3 20.5 4.5t32.5 1.5q14 0 27 -1t22 -4q12 -56 68 -56q29 0 44 13.5t21 42.5q8 3 21.5 4t27.5 1q17 0 32.5 -1.5t20.5 -4.5q-1 -21 -7.5 -49.5t-24.5 -53.5t-50 -42.5t-85 -17.5t-85.5 17.5t-51 42.5t-25.5 53.5t-8 49.5z" />
<glyph unicode="&#x16e;" horiz-adv-x="658" d="M45 255v445h229v-443q0 -57 18.5 -81t57.5 -24q38 0 56.5 24t18.5 80v444h188v-445q0 -60 -12 -110t-43.5 -86t-85.5 -56t-139 -20t-140.5 19.5t-88.5 55t-46 85.5t-13 112zM223 836q0 52 34.5 84t89.5 32q54 0 88.5 -32t34.5 -84t-34.5 -84t-88.5 -32q-55 0 -89.5 32 t-34.5 84zM305 836q0 -22 10 -37t32 -15t31.5 15t9.5 37t-9.5 37t-31.5 15t-32 -15t-10 -37z" />
<glyph unicode="&#x16f;" horiz-adv-x="584" d="M39 174v357q13 0 38 0.5t55 1.5t62 2.5t60 3.5v-331q0 -40 8 -57.5t34 -17.5q18 0 34 8v390q13 0 38 0.5t55 1.5t62 2.5t60 3.5v-360q0 -44 3 -89.5t12 -68.5l-186 -37q-11 13 -20.5 28.5t-14.5 37.5q-20 -27 -52.5 -47t-89.5 -20q-86 0 -122 50.5t-36 140.5zM168 685 q0 52 34.5 83.5t89.5 31.5q54 0 88.5 -31.5t34.5 -83.5q0 -53 -34.5 -84.5t-88.5 -31.5q-55 0 -89.5 31.5t-34.5 84.5zM250 685q0 -22 10 -37t32 -15t31.5 15t9.5 37t-9.5 37t-31.5 15t-32 -15t-10 -37z" />
<glyph unicode="&#x170;" horiz-adv-x="658" d="M45 255v445h229v-443q0 -57 18.5 -81t57.5 -24q38 0 56.5 24t18.5 80v444h188v-445q0 -60 -12 -110t-43.5 -86t-85.5 -56t-139 -20t-140.5 19.5t-88.5 55t-46 85.5t-13 112zM155 750l40 140q10 5 32 6.5t47 1.5q31 0 58.5 -2t37.5 -6l-77 -140q-9 -3 -28.5 -4.5 t-40.5 -1.5q-24 0 -44 1.5t-25 4.5zM355 750l63 140q10 5 33.5 6.5t51.5 1.5q33 0 63.5 -2t40.5 -6l-108 -140q-9 -3 -29 -4.5t-42 -1.5q-26 0 -47 1.5t-26 4.5z" />
<glyph unicode="&#x171;" horiz-adv-x="584" d="M39 174v357q13 0 38 0.5t55 1.5t62 2.5t60 3.5v-331q0 -40 8 -57.5t34 -17.5q18 0 34 8v390q13 0 38 0.5t55 1.5t62 2.5t60 3.5v-360q0 -44 3 -89.5t12 -68.5l-186 -37q-11 13 -20.5 28.5t-14.5 37.5q-20 -27 -52.5 -47t-89.5 -20q-86 0 -122 50.5t-36 140.5zM110 583 l43 154q11 5 32.5 6.5t47.5 1.5q30 0 57.5 -2t37.5 -6l-80 -154q-9 -3 -28.5 -4.5t-40.5 -1.5q-24 0 -44 1.5t-25 4.5zM304 583l66 154q10 5 33.5 6.5t51.5 1.5q33 0 63.5 -2t40.5 -6l-111 -154q-9 -3 -29 -4.5t-42 -1.5q-26 0 -47 1.5t-26 4.5z" />
<glyph unicode="&#x172;" horiz-adv-x="658" d="M45 255v445h229v-443q0 -57 18.5 -81t57.5 -24q38 0 56.5 24t18.5 80v444h188v-445q0 -80 -22.5 -139.5t-81.5 -96.5q-51 -32 -72 -59.5t-21 -54.5q0 -18 9.5 -25.5t28.5 -7.5q11 0 21.5 2.5t18.5 6.5l32 -70q-4 -4 -15 -10.5t-28 -13t-41 -11t-54 -4.5q-61 0 -96.5 24.5 t-35.5 75.5q0 64 65 111q-81 1 -134.5 21.5t-85 56t-44 85t-12.5 109.5z" />
<glyph unicode="&#x173;" horiz-adv-x="584" d="M39 174v357q13 0 38 0.5t55 1.5t62 2.5t60 3.5v-331q0 -40 8 -57.5t34 -17.5q18 0 34 8v390q13 0 38 0.5t55 1.5t62 2.5t60 3.5v-360q0 -44 3 -89.5t12 -68.5q-49 -23 -78.5 -54.5t-29.5 -61.5q0 -20 10 -26.5t30 -6.5q9 0 19.5 2.5t18.5 6.5l31 -70q-5 -5 -17 -11.5 t-30 -12.5t-42 -10.5t-52 -4.5q-63 0 -95.5 24.5t-32.5 72.5q0 71 79 118q-22 25 -32 63q-20 -27 -52.5 -47t-89.5 -20q-86 0 -122 50.5t-36 140.5z" />
<glyph unicode="&#x174;" horiz-adv-x="960" d="M8 688v12h242l38 -259q11 -71 17 -132t7 -90h5q1 14 3 37.5t5.5 53t9 63t13.5 68.5l55 259h203l52 -259q7 -35 12 -68.5t8.5 -62.5t5.5 -51t2 -34h5l3 33t5 51t7.5 63t10.5 69l44 259h190v-12l-154 -688h-240l-29 165q-7 39 -13 77t-10.5 71t-8 58.5t-4.5 39.5h-4 q-2 -14 -5.5 -39.5t-9.5 -58.5t-13 -70.5t-15 -76.5l-34 -166h-252zM303 753l85 138q6 2 17 3.5t25.5 2.5t31 1.5t31.5 0.5q31 0 63 -2t45 -6l85 -138q-5 -3 -23 -4.5t-39 -1.5q-19 0 -36.5 1.5t-26.5 4.5l-65 67h-2l-66 -67q-9 -3 -26.5 -4.5t-36.5 -1.5q-21 0 -39 1.5 t-23 4.5z" />
<glyph unicode="&#x175;" horiz-adv-x="785" d="M11 518v13h223l19 -99q11 -62 16 -114.5t7 -87.5h3q3 35 11 87.5t24 114.5l23 90h163l22 -90q14 -61 21.5 -114t10.5 -88h3q2 35 8.5 87.5t17.5 114.5l17 99h174v-13l-126 -518h-193l-20 88q-13 57 -22.5 104.5t-11.5 80.5h-3q-4 -33 -13 -80.5t-20 -104.5l-18 -88h-210z M231 583l78 154q6 2 17 3.5t25.5 2.5t31 1.5t31.5 0.5q31 0 63 -2t46 -6l78 -154q-5 -3 -23 -4.5t-40 -1.5q-19 0 -36 1.5t-26 4.5l-59 84h-2l-59 -84q-9 -3 -26.5 -4.5t-36.5 -1.5q-21 0 -39 1.5t-23 4.5z" />
<glyph unicode="&#x176;" horiz-adv-x="646" d="M-4 688v12h247l101 -244h5l106 244h196v-12l-214 -443v-245h-229v245zM151 753l85 138q6 2 17 3.5t25.5 2.5t31 1.5t31.5 0.5q31 0 63 -2t45 -6l85 -138q-5 -3 -23 -4.5t-39 -1.5q-19 0 -36.5 1.5t-26.5 4.5l-65 67h-2l-66 -67q-9 -3 -26.5 -4.5t-36.5 -1.5 q-21 0 -39 1.5t-23 4.5z" />
<glyph unicode="&#x177;" horiz-adv-x="544" d="M6 518v13h226l31 -105q17 -59 25.5 -102t11.5 -70h3q3 27 10 70.5t23 103.5l27 103h175v-13l-166 -513q-20 -60 -39 -100.5t-44.5 -65t-60.5 -35t-86 -10.5q-12 0 -27 0.5t-28 1.5t-23 2t-13 3q-3 12 -5 34.5t-2 47.5q0 26 2 50t5 36q10 -3 29.5 -6t42.5 -3q51 0 69 25z M96 583l78 154q6 2 17 3.5t25.5 2.5t31 1.5t31.5 0.5q31 0 63 -2t46 -6l78 -154q-5 -3 -23 -4.5t-40 -1.5q-19 0 -36 1.5t-26 4.5l-59 84h-2l-59 -84q-9 -3 -26.5 -4.5t-36.5 -1.5q-21 0 -39 1.5t-23 4.5z" />
<glyph unicode="&#x178;" horiz-adv-x="646" d="M-4 688v12h247l101 -244h5l106 244h196v-12l-214 -443v-245h-229v245zM142 824q0 36 23 62t67 26t68.5 -26t24.5 -62q0 -37 -24.5 -64t-68.5 -27t-67 27t-23 64zM369 824q0 36 23.5 62t66.5 26q45 0 68.5 -26t23.5 -62q0 -37 -23.5 -64t-68.5 -27q-43 0 -66.5 27 t-23.5 64z" />
<glyph unicode="&#x179;" horiz-adv-x="612" d="M23 0v99l289 456h-279v145h556v-98l-291 -457h291v-145h-566zM247 750l60 140q10 5 37.5 6.5t59.5 1.5q19 0 38 -0.5t35 -1.5t28 -2.5t17 -3.5l-129 -140q-9 -3 -29 -4.5t-43 -1.5q-26 0 -47.5 1.5t-26.5 4.5z" />
<glyph unicode="&#x17a;" horiz-adv-x="516" d="M18 0v83l205 324h-188v124h463v-83l-207 -324h207v-124h-480zM191 583l58 154q11 5 38 6.5t59 1.5q38 0 72.5 -2t44.5 -6l-128 -154q-9 -3 -29 -4.5t-42 -1.5q-26 0 -47 1.5t-26 4.5z" />
<glyph unicode="&#x17b;" horiz-adv-x="612" d="M23 0v99l289 456h-279v145h556v-98l-291 -457h291v-145h-566zM231 826q0 39 26 60.5t70 21.5q43 0 70 -21.5t27 -60.5t-27 -61.5t-70 -22.5q-44 0 -70 22.5t-26 61.5z" />
<glyph unicode="&#x17c;" horiz-adv-x="516" d="M18 0v83l205 324h-188v124h463v-83l-207 -324h207v-124h-480zM174 674q0 44 28.5 68.5t76.5 24.5t77.5 -24.5t29.5 -68.5t-29.5 -70t-77.5 -26t-76.5 26t-28.5 70z" />
<glyph unicode="&#x17d;" horiz-adv-x="612" d="M23 0v99l289 456h-279v145h556v-98l-291 -457h291v-145h-566zM139 890q5 3 23 4.5t39 1.5q19 0 36.5 -1.5t26.5 -4.5l66 -67h2l65 67q9 3 26.5 4.5t36.5 1.5q21 0 39 -1.5t23 -4.5l-85 -138q-13 -4 -45 -6t-63 -2q-15 0 -31.5 0.5t-31 1.5t-25.5 2.5t-17 3.5z" />
<glyph unicode="&#x17e;" horiz-adv-x="516" d="M18 0v83l205 324h-188v124h463v-83l-207 -324h207v-124h-480zM103 736q5 3 23 4.5t39 1.5q19 0 36.5 -1.5t26.5 -4.5l59 -83h2l59 83q9 3 26 4.5t36 1.5q22 0 40 -1.5t23 -4.5l-78 -154q-6 -2 -17 -3.5t-25.5 -2.5t-31 -1.5t-31.5 -0.5q-31 0 -63 2t-46 6z" />
<glyph unicode="&#x18f;" horiz-adv-x="694" d="M31 319q0 18 1 39t3 36h376q-3 103 -20.5 147.5t-58.5 44.5q-21 0 -34 -12t-20.5 -28.5t-11 -34t-4.5 -29.5q-5 -1 -10.5 -1h-12.5q-21 0 -49 1.5t-56 4.5t-52.5 7t-36.5 9q9 46 30 85t57 67.5t87 44.5t119 16q84 0 144.5 -25.5t100 -73.5t58.5 -117t19 -156 q0 -174 -80.5 -267.5t-238.5 -93.5q-83 0 -141.5 26t-96 71t-55 106.5t-17.5 132.5zM266 275q0 -85 16 -124t57 -39q18 0 31 8.5t21.5 27.5t13 50t6.5 77h-145z" />
<glyph unicode="&#x192;" horiz-adv-x="580" d="M71 -131q0 20 1 37.5t3 25.5q5 -2 20 -4.5t31 -2.5q32 0 44 13t12 48v336h-84v115h84v60q0 101 56.5 144.5t163.5 43.5q36 0 65.5 -4t37.5 -9q2 -8 3 -23t1 -32q0 -20 -1 -37.5t-3 -24.5q-5 2 -20 4.5t-31 2.5q-32 0 -44.5 -13.5t-12.5 -47.5v-64h111v-115h-111v-333 q0 -101 -56.5 -144t-162.5 -43q-36 0 -65.5 4t-37.5 8q-2 9 -3 23.5t-1 31.5z" />
<glyph unicode="&#x1fc;" horiz-adv-x="907" d="M2 0v12l279 688h589v-145h-243v-125h218q3 -11 4.5 -30t1.5 -40q0 -22 -1.5 -42t-4.5 -32h-218v-141h256v-145h-485v120h-154l-43 -120h-199zM296 265h102v290h-5q-8 -28 -26 -84t-45 -133zM483 750l60 140q10 5 37.5 6.5t59.5 1.5q19 0 38 -0.5t35 -1.5t28 -2.5t17 -3.5 l-129 -140q-9 -3 -29 -4.5t-43 -1.5q-26 0 -47.5 1.5t-26.5 4.5z" />
<glyph unicode="&#x1fd;" horiz-adv-x="858" d="M21 148q0 46 17 78.5t46.5 53.5t69.5 30.5t87 9.5q21 0 39 -1t32 -3v57q0 24 -8 37.5t-30 13.5q-15 0 -25 -7t-15.5 -17.5t-8.5 -23.5t-4 -25q-26 0 -55.5 4t-56 10t-47.5 13t-31 14q17 73 80.5 114.5t178.5 41.5q48 0 85.5 -8t62.5 -25q29 18 64 25.5t78 7.5 q69 0 118.5 -20.5t81 -56.5t46 -85t14.5 -106q0 -15 -0.5 -33t-2.5 -30h-297q2 -66 11.5 -91.5t35.5 -25.5q13 0 21.5 8.5t13 20t6.5 24t2 20.5q5 0 11 0.5t14 0.5q19 0 43.5 -1.5t48.5 -4t45 -6.5t35 -10q-8 -36 -25 -67t-46 -53.5t-71 -35.5t-100 -13q-62 0 -109 15.5 t-82 44.5q-28 -23 -75.5 -40.5t-114.5 -17.5q-48 0 -82.5 12t-57 34t-33 52t-10.5 65zM230 162q0 -18 5 -29.5t14 -17.5t20.5 -8t24.5 -2q28 0 48 11q-12 23 -18.5 48t-9.5 57q-4 0 -7.5 0.5t-8.5 0.5q-13 0 -25.5 -2.5t-22 -9t-15 -18t-5.5 -30.5zM353 583l58 154 q11 5 38 6.5t59 1.5q38 0 72.5 -2t44.5 -6l-128 -154q-9 -3 -29 -4.5t-42 -1.5q-26 0 -47 1.5t-26 4.5zM540 325h86q0 58 -7.5 83.5t-33.5 25.5q-22 0 -32.5 -22.5t-12.5 -86.5z" />
<glyph unicode="&#x1fe;" horiz-adv-x="697" d="M26 351q0 83 18 150.5t57 115.5t100 74t147 26q54 0 98 -10.5t79 -30.5l34 49l89 -56l-44 -63q35 -48 51 -112.5t16 -142.5q0 -84 -18 -152t-57 -116t-100 -74t-148 -26q-47 0 -86 8t-71 22l-38 -55l-85 49l43 63q-45 49 -65 120t-20 161zM264 321.5q0 -13.5 1 -27.5 l152 224q-10 35 -26.5 50t-42.5 15q-23 0 -39 -11.5t-26 -38.5t-14.5 -71.5t-4.5 -110.5v-29.5zM275 750l60 140q10 5 37.5 6.5t59.5 1.5q19 0 38 -0.5t35 -1.5t28 -2.5t17 -3.5l-129 -140q-9 -3 -29 -4.5t-43 -1.5q-26 0 -47.5 1.5t-26.5 4.5zM289 153q10 -20 24.5 -28 t34.5 -8q23 0 39 12t26 39t14.5 72t4.5 111v7z" />
<glyph unicode="&#x1ff;" horiz-adv-x="586" d="M20 266q0 64 16 116t49.5 89t85 57t122.5 20q77 0 134 -26l34 46l88 -59l-38 -50q29 -37 42.5 -85.5t13.5 -107.5q0 -64 -16 -116.5t-50 -89.5t-85.5 -57t-122.5 -20q-38 0 -69.5 5.5t-57.5 16.5l-30 -39l-83 52l32 43q-33 38 -49 89.5t-16 115.5zM211 583l58 154 q11 5 38 6.5t59 1.5q38 0 72.5 -2t44.5 -6l-128 -154q-9 -3 -29 -4.5t-42 -1.5q-26 0 -47 1.5t-26 4.5zM234 262l101 137q-8 17 -18 23.5t-24 6.5t-24.5 -7t-18.5 -25.5t-12 -50t-4 -80.5v-4zM256 123q13 -21 37 -21q13 0 24 6.5t18.5 23.5t11.5 45.5t5 72.5z" />
<glyph unicode="&#x218;" horiz-adv-x="599" d="M13 186q15 6 38.5 11.5t49.5 9t52 6t47 2.5h9.5t11.5 -1q0 -14 3.5 -31t13 -31.5t26 -24.5t43.5 -10q28 0 43.5 14t15.5 43q0 24 -14.5 39.5t-37.5 27t-53.5 21t-61.5 20.5q-32 11 -62 26.5t-54 39t-38.5 57t-14.5 81.5q0 52 18.5 94.5t54.5 73t88.5 47t121.5 16.5 q72 0 122.5 -17.5t82 -46t46.5 -65t17 -73.5q-13 -6 -36.5 -11t-49.5 -8.5t-51.5 -5t-42.5 -1.5q-10 0 -14 0.5t-10 0.5q-1 12 -3.5 28t-10.5 30.5t-23 24.5t-41 10q-59 0 -59 -58q0 -21 14 -35t36.5 -24.5t52 -19.5t60.5 -20q33 -12 65 -27t57 -39t40.5 -58.5t15.5 -83.5 q0 -51 -17.5 -94t-53.5 -74.5t-90.5 -49t-129.5 -17.5q-72 0 -122.5 16.5t-83.5 44.5t-50 64.5t-21 77.5zM206 -111q0 35 25 55t64 20q42 0 69 -19t27 -62q0 -30 -10.5 -53.5t-25.5 -40t-32 -26.5t-30 -13q-26 2 -43.5 7t-27.5 11q17 8 34 23.5t22 32.5q-31 2 -51.5 17.5 t-20.5 47.5z" />
<glyph unicode="&#x219;" horiz-adv-x="515" d="M13 147q9 4 27 7.5t40 6.5t45 4.5t42 1.5h9.5t14.5 -1q1 -11 4.5 -23t11 -22t20 -17t32.5 -7q21 0 32 11.5t11 29.5q0 15 -11 24.5t-29 15.5t-41.5 10.5t-48.5 10.5q-28 7 -55 17t-48.5 27.5t-34.5 45t-13 69.5q0 40 14.5 75t44 60.5t74.5 40t107 14.5q74 0 120 -17.5 t71.5 -43t35 -54t9.5 -51.5q-12 -5 -30 -8.5t-38 -5.5t-41 -3.5t-39 -1.5h-15.5t-14.5 1q-1 9 -3.5 21t-8.5 23t-18 18.5t-32 7.5t-32.5 -10.5t-12.5 -28.5q0 -16 10.5 -25.5t28.5 -16.5t41 -11.5t48 -10.5q28 -7 56.5 -16.5t50.5 -26t36 -43t14 -66.5q0 -89 -60 -142.5 t-187 -53.5q-63 0 -107 13t-72.5 35.5t-42.5 52.5t-15 63zM163 -111q0 35 25 55t64 20q42 0 69 -19t27 -62q0 -30 -10.5 -53.5t-25.5 -40t-32 -26.5t-30 -13q-26 2 -43.5 7t-27.5 11q17 8 34 23.5t22 32.5q-31 2 -51.5 17.5t-20.5 47.5z" />
<glyph unicode="&#x21a;" horiz-adv-x="564" d="M15 555v145h534v-145h-153v-555h-228v555h-153zM190 -111q0 35 25 55t64 20q42 0 69 -19t27 -62q0 -30 -10.5 -53.5t-25.5 -40t-32 -26.5t-30 -13q-26 2 -43.5 7t-27.5 11q17 8 34 23.5t22 32.5q-31 2 -51.5 17.5t-20.5 47.5z" />
<glyph unicode="&#x21b;" horiz-adv-x="401" d="M15 407v124h63v128q13 0 36.5 0.5t52 1.5t59.5 3t59 4v-137h94v-124h-94v-218q0 -36 10 -52.5t49 -16.5q9 0 19.5 1t18.5 4q2 -8 3.5 -28t1.5 -43q0 -16 -0.5 -30.5t-2.5 -22.5q-8 -5 -37 -10.5t-71 -5.5q-53 0 -91.5 8.5t-64 30t-38 57.5t-12.5 91v235h-55zM129 -111 q0 35 25 55t64 20q42 0 69 -19t27 -62q0 -30 -10.5 -53.5t-25.5 -40t-32 -26.5t-30 -13q-26 2 -43.5 7t-27.5 11q17 8 34 23.5t22 32.5q-31 2 -51.5 17.5t-20.5 47.5z" />
<glyph unicode="&#x237;" d="M-60 -142q0 20 1.5 38.5t4.5 29.5q7 -2 19 -3.5t25 -1.5q29 0 39 12t10 39v559q16 0 40.5 0.5t54 1.5t60.5 2.5t60 3.5v-552q0 -54 -15 -90t-43.5 -57.5t-69.5 -30.5t-94 -9q-30 0 -54.5 3t-33.5 6q-2 8 -3 21.5t-1 27.5z" />
<glyph unicode="&#x259;" horiz-adv-x="566" d="M18 251q0 15 1 33t3 30h295q-2 65 -11.5 91t-34.5 26q-14 0 -22.5 -8.5t-13 -20t-6 -24t-1.5 -20.5q-5 -1 -11 -1h-14q-16 0 -40.5 1.5t-50 3.5t-48.5 5.5t-35 7.5q7 38 24.5 70t47 55t72 35.5t100.5 12.5q135 0 204 -73.5t69 -211.5q0 -137 -68.5 -208.5t-199.5 -71.5 q-70 0 -119 20.5t-80.5 56.5t-46 85t-14.5 106zM232 206q0 -58 7 -83.5t35 -25.5q11 0 19 5t13 17.5t7.5 33.5t3.5 53h-85z" />
<glyph unicode="&#x2c6;" horiz-adv-x="470" d="M50 583l78 154q6 2 17 3.5t25.5 2.5t31 1.5t31.5 0.5q31 0 63 -2t46 -6l78 -154q-5 -3 -23 -4.5t-40 -1.5q-19 0 -36 1.5t-26 4.5l-59 84h-2l-59 -84q-9 -3 -26.5 -4.5t-36.5 -1.5q-21 0 -39 1.5t-23 4.5z" />
<glyph unicode="&#x2c7;" horiz-adv-x="470" d="M50 736q5 3 23 4.5t39 1.5q19 0 36.5 -1.5t26.5 -4.5l59 -83h2l59 83q9 3 26 4.5t36 1.5q22 0 40 -1.5t23 -4.5l-78 -154q-6 -2 -17 -3.5t-25.5 -2.5t-31 -1.5t-31.5 -0.5q-31 0 -63 2t-46 6z" />
<glyph unicode="&#x2d8;" horiz-adv-x="437" d="M50 736q5 3 20.5 4.5t32.5 1.5q14 0 27 -1t22 -4q12 -56 68 -56q29 0 44 13.5t21 42.5q8 3 21.5 4t27.5 1q17 0 32.5 -1.5t20.5 -4.5q-1 -21 -7.5 -49.5t-24.5 -53.5t-50 -42.5t-85 -17.5t-85.5 17.5t-51 42.5t-25.5 53.5t-8 49.5z" />
<glyph unicode="&#x2d9;" horiz-adv-x="316" d="M52 674q0 44 28.5 68.5t76.5 24.5t77.5 -24.5t29.5 -68.5t-29.5 -70t-77.5 -26t-76.5 26t-28.5 70z" />
<glyph unicode="&#x2da;" horiz-adv-x="343" d="M48 685q0 52 34.5 83.5t89.5 31.5q54 0 88.5 -31.5t34.5 -83.5q0 -53 -34.5 -84.5t-88.5 -31.5q-55 0 -89.5 31.5t-34.5 84.5zM130 685q0 -22 10 -37t32 -15t31.5 15t9.5 37t-9.5 37t-31.5 15t-32 -15t-10 -37z" />
<glyph unicode="&#x2db;" horiz-adv-x="368" d="M50 -131q0 63 56 102t168 65l44 -36q-21 -9 -40.5 -19.5t-34.5 -22.5t-24 -26t-9 -29t8.5 -23t32.5 -8q11 0 20 2.5t17 6.5l32 -70q-5 -4 -16.5 -10.5t-29.5 -13t-42 -11t-53 -4.5q-63 0 -96 24.5t-33 72.5z" />
<glyph unicode="&#x2dc;" horiz-adv-x="495" d="M50 584q11 75 44 113.5t89 38.5q26 0 44.5 -7.5t33.5 -16.5t28.5 -16.5t30.5 -7.5t26 10t17 34q2 2 13 2.5t25 0.5q15 0 28.5 -1t15.5 -2q-14 -81 -45.5 -116.5t-79.5 -35.5q-29 0 -48 7.5t-34 16t-27.5 16t-28.5 7.5q-20 0 -31 -12t-19 -31q-2 -2 -13 -2.5t-25 -0.5 q-15 0 -28.5 0.5t-15.5 2.5z" />
<glyph unicode="&#x2dd;" horiz-adv-x="549" d="M50 583l43 154q11 5 32.5 6.5t47.5 1.5q30 0 57.5 -2t37.5 -6l-80 -154q-9 -3 -28.5 -4.5t-40.5 -1.5q-24 0 -44 1.5t-25 4.5zM244 583l66 154q10 5 33.5 6.5t51.5 1.5q33 0 63.5 -2t40.5 -6l-111 -154q-9 -3 -29 -4.5t-42 -1.5q-26 0 -47 1.5t-26 4.5z" />
<glyph unicode="&#x1e80;" horiz-adv-x="960" d="M8 688v12h242l38 -259q11 -71 17 -132t7 -90h5q1 14 3 37.5t5.5 53t9 63t13.5 68.5l55 259h203l52 -259q7 -35 12 -68.5t8.5 -62.5t5.5 -51t2 -34h5l3 33t5 51t7.5 63t10.5 69l44 259h190v-12l-154 -688h-240l-29 165q-7 39 -13 77t-10.5 71t-8 58.5t-4.5 39.5h-4 q-2 -14 -5.5 -39.5t-9.5 -58.5t-13 -70.5t-15 -76.5l-34 -166h-252zM305 890q5 2 17 3.5t28 2.5t35 1.5t38 0.5q32 0 59.5 -1.5t37.5 -6.5l60 -140q-5 -3 -26.5 -4.5t-47.5 -1.5q-23 0 -43 1.5t-29 4.5z" />
<glyph unicode="&#x1e81;" horiz-adv-x="785" d="M11 518v13h223l19 -99q11 -62 16 -114.5t7 -87.5h3q3 35 11 87.5t24 114.5l23 90h163l22 -90q14 -61 21.5 -114t10.5 -88h3q2 35 8.5 87.5t17.5 114.5l17 99h174v-13l-126 -518h-193l-20 88q-13 57 -22.5 104.5t-11.5 80.5h-3q-4 -33 -13 -80.5t-20 -104.5l-18 -88h-210z M216 737q5 2 16.5 3.5t27.5 2.5t35 1.5t38 0.5q32 0 59 -1.5t37 -6.5l59 -154q-5 -3 -26.5 -4.5t-46.5 -1.5q-23 0 -43 1.5t-29 4.5z" />
<glyph unicode="&#x1e82;" horiz-adv-x="960" d="M8 688v12h242l38 -259q11 -71 17 -132t7 -90h5q1 14 3 37.5t5.5 53t9 63t13.5 68.5l55 259h203l52 -259q7 -35 12 -68.5t8.5 -62.5t5.5 -51t2 -34h5l3 33t5 51t7.5 63t10.5 69l44 259h190v-12l-154 -688h-240l-29 165q-7 39 -13 77t-10.5 71t-8 58.5t-4.5 39.5h-4 q-2 -14 -5.5 -39.5t-9.5 -58.5t-13 -70.5t-15 -76.5l-34 -166h-252zM424 750l60 140q10 5 37.5 6.5t59.5 1.5q19 0 38 -0.5t35 -1.5t28 -2.5t17 -3.5l-129 -140q-9 -3 -29 -4.5t-43 -1.5q-26 0 -47.5 1.5t-26.5 4.5z" />
<glyph unicode="&#x1e83;" horiz-adv-x="785" d="M11 518v13h223l19 -99q11 -62 16 -114.5t7 -87.5h3q3 35 11 87.5t24 114.5l23 90h163l22 -90q14 -61 21.5 -114t10.5 -88h3q2 35 8.5 87.5t17.5 114.5l17 99h174v-13l-126 -518h-193l-20 88q-13 57 -22.5 104.5t-11.5 80.5h-3q-4 -33 -13 -80.5t-20 -104.5l-18 -88h-210z M345 583l58 154q11 5 38 6.5t59 1.5q38 0 72.5 -2t44.5 -6l-128 -154q-9 -3 -29 -4.5t-42 -1.5q-26 0 -47 1.5t-26 4.5z" />
<glyph unicode="&#x1e84;" horiz-adv-x="960" d="M8 688v12h242l38 -259q11 -71 17 -132t7 -90h5q1 14 3 37.5t5.5 53t9 63t13.5 68.5l55 259h203l52 -259q7 -35 12 -68.5t8.5 -62.5t5.5 -51t2 -34h5l3 33t5 51t7.5 63t10.5 69l44 259h190v-12l-154 -688h-240l-29 165q-7 39 -13 77t-10.5 71t-8 58.5t-4.5 39.5h-4 q-2 -14 -5.5 -39.5t-9.5 -58.5t-13 -70.5t-15 -76.5l-34 -166h-252zM295 824q0 36 23 62t67 26t68.5 -26t24.5 -62q0 -37 -24.5 -64t-68.5 -27t-67 27t-23 64zM522 824q0 36 23.5 62t66.5 26q45 0 68.5 -26t23.5 -62q0 -37 -23.5 -64t-68.5 -27q-43 0 -66.5 27t-23.5 64z " />
<glyph unicode="&#x1e85;" horiz-adv-x="785" d="M11 518v13h223l19 -99q11 -62 16 -114.5t7 -87.5h3q3 35 11 87.5t24 114.5l23 90h163l22 -90q14 -61 21.5 -114t10.5 -88h3q2 35 8.5 87.5t17.5 114.5l17 99h174v-13l-126 -518h-193l-20 88q-13 57 -22.5 104.5t-11.5 80.5h-3q-4 -33 -13 -80.5t-20 -104.5l-18 -88h-210z M215 661q0 36 23 62t67 26t68.5 -26t24.5 -62q0 -37 -24.5 -64t-68.5 -27t-67 27t-23 64zM432 661q0 36 23 62t67 26q45 0 68.5 -26t23.5 -62q0 -37 -23.5 -64t-68.5 -27q-44 0 -67 27t-23 64z" />
<glyph unicode="&#x1ef2;" horiz-adv-x="646" d="M-4 688v12h247l101 -244h5l106 244h196v-12l-214 -443v-245h-229v245zM152 890q5 2 17 3.5t28 2.5t35 1.5t38 0.5q32 0 59.5 -1.5t37.5 -6.5l60 -140q-5 -3 -26.5 -4.5t-47.5 -1.5q-23 0 -43 1.5t-29 4.5z" />
<glyph unicode="&#x1ef3;" horiz-adv-x="544" d="M6 518v13h226l31 -105q17 -59 25.5 -102t11.5 -70h3q3 27 10 70.5t23 103.5l27 103h175v-13l-166 -513q-20 -60 -39 -100.5t-44.5 -65t-60.5 -35t-86 -10.5q-12 0 -27 0.5t-28 1.5t-23 2t-13 3q-3 12 -5 34.5t-2 47.5q0 26 2 50t5 36q10 -3 29.5 -6t42.5 -3q51 0 69 25z M94 737q5 2 16.5 3.5t27.5 2.5t35 1.5t38 0.5q32 0 59 -1.5t37 -6.5l59 -154q-5 -3 -26.5 -4.5t-46.5 -1.5q-23 0 -43 1.5t-29 4.5z" />
<glyph unicode="&#x2013;" horiz-adv-x="589" d="M36 216v164h518v-164h-518z" />
<glyph unicode="&#x2014;" horiz-adv-x="809" d="M36 216v164h738v-164h-738z" />
<glyph unicode="&#x2018;" d="M31 487q0 47 14 85.5t35 67.5t46 48t47 28q16 0 30 -5.5t24.5 -13t17.5 -15t8 -12.5q-28 -15 -52.5 -42t-32.5 -56q42 -7 68 -38t26 -73q0 -48 -31 -78.5t-82 -30.5q-54 0 -86 36t-32 99z" />
<glyph unicode="&#x2019;" d="M31 603q0 48 31 78.5t82 30.5q54 0 86 -36t32 -99q0 -47 -14 -85.5t-35 -67.5t-46 -48t-47 -28q-16 0 -30 5.5t-24.5 13t-17.5 15t-8 12.5q28 15 52.5 42t32.5 56q-42 7 -68 38t-26 73z" />
<glyph unicode="&#x201a;" d="M31 101q0 48 31 78.5t82 30.5q54 0 86 -36t32 -99q0 -47 -14 -85.5t-35 -67.5t-46 -48t-47 -28q-16 0 -30 5.5t-24.5 13t-17.5 15t-8 12.5q28 15 52.5 42t32.5 56q-42 7 -68 38t-26 73z" />
<glyph unicode="&#x201c;" horiz-adv-x="549" d="M31 487q0 47 14 85.5t35 67.5t46 48t47 28q16 0 30 -5.5t24.5 -13t17.5 -15t8 -12.5q-28 -15 -52.5 -42t-32.5 -56q42 -7 68 -38t26 -73q0 -48 -31 -78.5t-82 -30.5q-54 0 -86 36t-32 99zM287 487q0 47 14 85.5t35 67.5t46 48t47 28q16 0 30 -5.5t24.5 -13t17.5 -15 t8 -12.5q-28 -15 -52.5 -42t-32.5 -56q42 -7 68 -38t26 -73q0 -48 -31 -78.5t-82 -30.5q-54 0 -86 36t-32 99z" />
<glyph unicode="&#x201d;" horiz-adv-x="549" d="M31 603q0 48 31 78.5t82 30.5q54 0 86 -36t32 -99q0 -47 -14 -85.5t-35 -67.5t-46 -48t-47 -28q-16 0 -30 5.5t-24.5 13t-17.5 15t-8 12.5q28 15 52.5 42t32.5 56q-42 7 -68 38t-26 73zM287 603q0 48 31 78.5t82 30.5q54 0 86 -36t32 -99q0 -47 -14 -85.5t-35 -67.5 t-46 -48t-47 -28q-16 0 -30 5.5t-24.5 13t-17.5 15t-8 12.5q28 15 52.5 42t32.5 56q-42 7 -68 38t-26 73z" />
<glyph unicode="&#x201e;" horiz-adv-x="549" d="M31 101q0 48 31 78.5t82 30.5q54 0 86 -36t32 -99q0 -47 -14 -85.5t-35 -67.5t-46 -48t-47 -28q-16 0 -30 5.5t-24.5 13t-17.5 15t-8 12.5q28 15 52.5 42t32.5 56q-42 7 -68 38t-26 73zM287 101q0 48 31 78.5t82 30.5q54 0 86 -36t32 -99q0 -47 -14 -85.5t-35 -67.5 t-46 -48t-47 -28q-16 0 -30 5.5t-24.5 13t-17.5 15t-8 12.5q28 15 52.5 42t32.5 56q-42 7 -68 38t-26 73z" />
<glyph unicode="&#x2022;" horiz-adv-x="393" d="M31 352q0 33 11.5 61.5t33.5 50t52 34t68 12.5t68.5 -12.5t52.5 -34t33.5 -50t11.5 -61.5t-12 -63t-33.5 -52.5t-52.5 -36t-68 -13.5t-67.5 13.5t-52 36t-33.5 52.5t-12 63z" />
<glyph unicode="&#x2026;" horiz-adv-x="777" d="M20 98q0 22 8 41t22.5 33t34.5 22.5t44 8.5q49 0 79.5 -30.5t30.5 -74.5q0 -22 -8 -42t-22.5 -35t-35 -23.5t-44.5 -8.5t-44 8.5t-34.5 23.5t-22.5 35t-8 42zM279 98q0 22 8 41t22.5 33t34.5 22.5t44 8.5q49 0 79.5 -30.5t30.5 -74.5q0 -22 -8 -42t-22.5 -35t-35 -23.5 t-44.5 -8.5t-44 8.5t-34.5 23.5t-22.5 35t-8 42zM538 98q0 22 8 41t22.5 33t34.5 22.5t44 8.5q49 0 79.5 -30.5t30.5 -74.5q0 -22 -8 -42t-22.5 -35t-35 -23.5t-44.5 -8.5t-44 8.5t-34.5 23.5t-22.5 35t-8 42z" />
<glyph unicode="&#x2030;" horiz-adv-x="1425" d="M21 507q0 93 50.5 149.5t155.5 56.5t155 -56.5t50 -149.5t-50 -149t-154 -56t-155.5 56t-51.5 149zM192 507q0 -41 1.5 -67t5 -40.5t10.5 -20t18 -5.5t18 5t10.5 19.5t5 40.5t1.5 68q0 41 -1.5 66.5t-5 40t-10.5 19.5t-18 5t-18 -5t-10.5 -19.5t-5 -40t-1.5 -66.5zM208 0 v13l436 687h133v-13l-437 -687h-132zM555 192q0 93 50.5 149.5t155.5 56.5t155 -56.5t50 -149.5t-50 -149t-154 -56t-155.5 56t-51.5 149zM726 192q0 -41 1.5 -67t5 -40.5t10.5 -20t18 -5.5t18 5t10.5 19.5t5 40.5t1.5 68q0 41 -1.5 66.5t-5 40t-10.5 19.5t-18 5t-18 -5 t-10.5 -19.5t-5 -40t-1.5 -66.5zM993 192q0 93 50.5 149.5t155.5 56.5t155 -56.5t50 -149.5t-50 -149t-154 -56t-155.5 56t-51.5 149zM1164 192q0 -41 1.5 -67t5 -40.5t10.5 -20t18 -5.5t18 5t10.5 19.5t5 40.5t1.5 68q0 41 -1.5 66.5t-5 40t-10.5 19.5t-18 5t-18 -5 t-10.5 -19.5t-5 -40t-1.5 -66.5z" />
<glyph unicode="&#x2039;" horiz-adv-x="406" d="M31 257v26l175 216h169l-170 -229l170 -229h-170z" />
<glyph unicode="&#x203a;" horiz-adv-x="406" d="M31 41l170 229l-170 229h169l175 -216v-26l-174 -216h-170z" />
<glyph unicode="&#x2044;" horiz-adv-x="210" d="M-179 0v13l436 687h132v-13l-436 -687h-132z" />
<glyph unicode="&#x20a8;" horiz-adv-x="580" d="M38 261v95h81q52 0 83.5 11t42.5 49h-207v96h207q-11 36 -42.5 47t-83.5 11h-80v106h540l-18 -96h-113q16 -28 21 -68h81l-17 -96h-68q-14 -65 -64 -98t-143 -43l239 -263v-12h-248z" />
<glyph unicode="&#x20ac;" horiz-adv-x="580" d="M20 231v96h36v39h-36v96h46q9 52 29 94.5t52 72.5t77.5 46t106.5 16q63 0 106 -13t71.5 -34t43 -48.5t20.5 -55.5q-13 -8 -35.5 -15t-48.5 -12t-53.5 -8t-50.5 -3q-2 32 -14 51t-32 19q-27 0 -38 -28t-14 -82h191l-17 -96h-176v-39h169l-15 -96h-153q3 -62 14 -94.5 t43 -32.5q34 0 43 82q25 0 53.5 -3.5t55 -8.5t48.5 -11t33 -13q-6 -28 -21.5 -57.5t-43 -54t-70 -40t-102.5 -15.5q-66 0 -114.5 17.5t-81.5 50t-52 78.5t-27 102h-43z" />
<glyph unicode="&#x2122;" horiz-adv-x="878" d="M30 620v80h316v-80h-96v-319h-124v319h-96zM382 301v399h152l32 -110q8 -26 15 -56t10 -52h3q2 22 9 51.5t15 55.5l34 111h166v-399h-126v126q0 36 1 70t2 49h-3q-2 -15 -10 -43.5t-19 -64.5l-42 -137h-76l-40 137q-10 35 -17.5 64.5t-10.5 43.5h-3q1 -15 2 -49.5 t1 -69.5v-126h-95z" />
<glyph unicode="&#x2212;" horiz-adv-x="580" d="M31 225v146h518v-146h-518z" />
<glyph unicode="&#x2248;" horiz-adv-x="580" d="M31 83v143q16 12 37 23q18 8 43.5 15.5t57.5 7.5q36 0 70 -8t67 -17.5t65.5 -17.5t65.5 -8q25 0 45.5 7t35.5 15q18 10 31 22v-148q-13 -10 -30 -17q-14 -7 -34.5 -12t-46.5 -5q-39 0 -73 8t-66.5 17.5t-64.5 17.5t-67 8q-29 0 -54 -8t-43 -18q-21 -11 -39 -25zM31 282 v143q16 12 37 23q18 8 43.5 15.5t57.5 7.5q36 0 70 -8t67 -17.5t65.5 -17.5t65.5 -8q25 0 45.5 7t35.5 15q18 10 31 22v-148q-13 -10 -30 -17q-14 -7 -34.5 -12t-46.5 -5q-39 0 -73 8t-66.5 17.5t-64.5 17.5t-67 8q-29 0 -54 -8t-43 -18q-21 -11 -39 -25z" />
<glyph unicode="&#xe000;" horiz-adv-x="530" d="M0 0v530h530v-530h-530z" />
<glyph unicode="&#xf6c3;" d="M54 -111q0 35 25 55t64 20q42 0 69 -19t27 -62q0 -30 -10.5 -53.5t-25.5 -40t-32 -26.5t-30 -13q-26 2 -43.5 7t-27.5 11q17 8 34 23.5t22 32.5q-31 2 -51.5 17.5t-20.5 47.5z" />
<glyph d="M35 667q0 46 29 72t82 26q52 0 82 -26t30 -72t-30 -73.5t-82 -27.5q-53 0 -82 27.5t-29 73.5zM39 0v531q13 0 38 0.5t55 1.5t62 2.5t60 3.5v-407q0 -45 2.5 -83t8.5 -49h-226z" />
<glyph horiz-adv-x="375" d="M50 890q5 2 17 3.5t28 2.5t35 1.5t38 0.5q32 0 59.5 -1.5t37.5 -6.5l60 -140q-5 -3 -26.5 -4.5t-47.5 -1.5q-23 0 -43 1.5t-29 4.5z" />
<glyph horiz-adv-x="375" d="M50 750l60 140q10 5 37.5 6.5t59.5 1.5q19 0 38 -0.5t35 -1.5t28 -2.5t17 -3.5l-129 -140q-9 -3 -29 -4.5t-43 -1.5q-26 0 -47.5 1.5t-26.5 4.5z" />
<glyph horiz-adv-x="463" d="M40 753l85 138q6 2 17 3.5t25.5 2.5t31 1.5t31.5 0.5q31 0 63 -2t45 -6l85 -138q-5 -3 -23 -4.5t-39 -1.5q-19 0 -36.5 1.5t-26.5 4.5l-65 67h-2l-66 -67q-9 -3 -26.5 -4.5t-36.5 -1.5q-21 0 -39 1.5t-23 4.5z" />
<glyph horiz-adv-x="463" d="M40 890q5 3 23 4.5t39 1.5q19 0 36.5 -1.5t26.5 -4.5l66 -67h2l65 67q9 3 26.5 4.5t36.5 1.5q21 0 39 -1.5t23 -4.5l-85 -138q-13 -4 -45 -6t-63 -2q-15 0 -31.5 0.5t-31 1.5t-25.5 2.5t-17 3.5z" />
<glyph horiz-adv-x="288" d="M50 623q0 45 24 69.5t67 24.5q45 0 71 -27t26 -81q0 -43 -11.5 -77.5t-29 -60.5t-38 -43t-38.5 -24q-13 0 -24 5t-19.5 11t-13.5 12.5t-6 11.5q22 14 42.5 39t26.5 51q-34 5 -55.5 28.5t-21.5 60.5z" />
<glyph d="M51 667q0 36 11 63.5t28 46t36 29t36 13.5q26 -2 41.5 -10t18.5 -14q-20 -10 -38 -25.5t-23 -35.5q40 -8 60.5 -25.5t20.5 -52.5q0 -39 -24.5 -62t-67.5 -23q-45 0 -72 25.5t-27 70.5z" />
<glyph horiz-adv-x="495" d="M60 739q10 75 45 113.5t91 38.5q25 0 42.5 -7.5t32.5 -16t28.5 -16t30.5 -7.5q16 0 25.5 9.5t17.5 33.5q2 2 13 2.5t25 0.5q15 0 28.5 -1t15.5 -2q-14 -81 -47 -116.5t-82 -35.5q-27 0 -45.5 7.5t-33 16t-27.5 16t-29 7.5q-20 0 -30.5 -12t-18.5 -31q-2 -2 -13 -2.5 t-25 -0.5q-15 0 -28.5 0.5t-15.5 2.5z" />
<glyph horiz-adv-x="505" d="M48 824q0 36 23 62t67 26t68.5 -26t24.5 -62q0 -37 -24.5 -64t-68.5 -27t-67 27t-23 64zM275 824q0 36 23.5 62t66.5 26q45 0 68.5 -26t23.5 -62q0 -37 -23.5 -64t-68.5 -27q-43 0 -66.5 27t-23.5 64z" />
<glyph horiz-adv-x="457" d="M55 756v131h347v-131h-347z" />
<glyph horiz-adv-x="437" d="M50 885q5 3 20.5 4.5t32.5 1.5q14 0 27 -1t22 -4q6 -28 24 -37.5t44 -9.5t42.5 9t22.5 38q8 3 21.5 4t27.5 1q17 0 32.5 -1.5t20.5 -4.5q-1 -21 -8.5 -47.5t-26.5 -49.5t-51 -39t-81 -16q-50 0 -82 16t-51.5 39t-27.5 49.5t-9 47.5z" />
<glyph horiz-adv-x="343" d="M48 836q0 52 34.5 84t89.5 32q54 0 88.5 -32t34.5 -84t-34.5 -84t-88.5 -32q-55 0 -89.5 32t-34.5 84zM130 836q0 -22 10 -37t32 -15t31.5 15t9.5 37t-9.5 37t-31.5 15t-32 -15t-10 -37z" />
<glyph horiz-adv-x="552" d="M50 750l40 140q10 5 32 6.5t47 1.5q31 0 58.5 -2t37.5 -6l-77 -140q-9 -3 -28.5 -4.5t-40.5 -1.5q-24 0 -44 1.5t-25 4.5zM250 750l63 140q10 5 33.5 6.5t51.5 1.5q33 0 63.5 -2t40.5 -6l-108 -140q-9 -3 -29 -4.5t-42 -1.5q-26 0 -47 1.5t-26 4.5z" />
<glyph horiz-adv-x="317" d="M62 826q0 39 26 60.5t70 21.5q43 0 70 -21.5t27 -60.5t-27 -61.5t-70 -22.5q-44 0 -70 22.5t-26 61.5z" />
</font>
</defs>
</svg>
